G04 #@! TF.GenerationSoftware,KiCad,Pcbnew,5.1.4+dfsg1-1~bpo10+1*
G04 #@! TF.CreationDate,2020-02-13T15:56:51+01:00*
G04 #@! TF.ProjectId,quick-feather-board,71756963-6b2d-4666-9561-746865722d62,rev?*
G04 #@! TF.SameCoordinates,Original*
G04 #@! TF.FileFunction,Legend,Bot*
G04 #@! TF.FilePolarity,Positive*
%FSLAX46Y46*%
G04 Gerber Fmt 4.6, Leading zero omitted, Abs format (unit mm)*
G04 Created by KiCad (PCBNEW 5.1.4+dfsg1-1~bpo10+1) date 2020-02-13 15:56:51*
%MOMM*%
%LPD*%
G04 APERTURE LIST*
%ADD10C,0.150000*%
G04 APERTURE END LIST*
D10*
X166627666Y-111759666D02*
X166627666Y-111059666D01*
X166361000Y-111059666D01*
X166294333Y-111093000D01*
X166261000Y-111126333D01*
X166227666Y-111193000D01*
X166227666Y-111293000D01*
X166261000Y-111359666D01*
X166294333Y-111393000D01*
X166361000Y-111426333D01*
X166627666Y-111426333D01*
X165927666Y-111759666D02*
X165927666Y-111293000D01*
X165927666Y-111426333D02*
X165894333Y-111359666D01*
X165861000Y-111326333D01*
X165794333Y-111293000D01*
X165727666Y-111293000D01*
X165394333Y-111759666D02*
X165461000Y-111726333D01*
X165494333Y-111693000D01*
X165527666Y-111626333D01*
X165527666Y-111426333D01*
X165494333Y-111359666D01*
X165461000Y-111326333D01*
X165394333Y-111293000D01*
X165294333Y-111293000D01*
X165227666Y-111326333D01*
X165194333Y-111359666D01*
X165161000Y-111426333D01*
X165161000Y-111626333D01*
X165194333Y-111693000D01*
X165227666Y-111726333D01*
X165294333Y-111759666D01*
X165394333Y-111759666D01*
X164961000Y-111293000D02*
X164694333Y-111293000D01*
X164861000Y-111059666D02*
X164861000Y-111659666D01*
X164827666Y-111726333D01*
X164761000Y-111759666D01*
X164694333Y-111759666D01*
X164361000Y-111759666D02*
X164427666Y-111726333D01*
X164461000Y-111693000D01*
X164494333Y-111626333D01*
X164494333Y-111426333D01*
X164461000Y-111359666D01*
X164427666Y-111326333D01*
X164361000Y-111293000D01*
X164261000Y-111293000D01*
X164194333Y-111326333D01*
X164161000Y-111359666D01*
X164127666Y-111426333D01*
X164127666Y-111626333D01*
X164161000Y-111693000D01*
X164194333Y-111726333D01*
X164261000Y-111759666D01*
X164361000Y-111759666D01*
X163927666Y-111293000D02*
X163661000Y-111293000D01*
X163827666Y-111059666D02*
X163827666Y-111659666D01*
X163794333Y-111726333D01*
X163727666Y-111759666D01*
X163661000Y-111759666D01*
X163494333Y-111293000D02*
X163327666Y-111759666D01*
X163161000Y-111293000D02*
X163327666Y-111759666D01*
X163394333Y-111926333D01*
X163427666Y-111959666D01*
X163494333Y-111993000D01*
X162894333Y-111293000D02*
X162894333Y-111993000D01*
X162894333Y-111326333D02*
X162827666Y-111293000D01*
X162694333Y-111293000D01*
X162627666Y-111326333D01*
X162594333Y-111359666D01*
X162561000Y-111426333D01*
X162561000Y-111626333D01*
X162594333Y-111693000D01*
X162627666Y-111726333D01*
X162694333Y-111759666D01*
X162827666Y-111759666D01*
X162894333Y-111726333D01*
X161994333Y-111726333D02*
X162061000Y-111759666D01*
X162194333Y-111759666D01*
X162261000Y-111726333D01*
X162294333Y-111659666D01*
X162294333Y-111393000D01*
X162261000Y-111326333D01*
X162194333Y-111293000D01*
X162061000Y-111293000D01*
X161994333Y-111326333D01*
X161961000Y-111393000D01*
X161961000Y-111459666D01*
X162294333Y-111526333D01*
X166227666Y-112959666D02*
X166461000Y-112626333D01*
X166627666Y-112959666D02*
X166627666Y-112259666D01*
X166361000Y-112259666D01*
X166294333Y-112293000D01*
X166261000Y-112326333D01*
X166227666Y-112393000D01*
X166227666Y-112493000D01*
X166261000Y-112559666D01*
X166294333Y-112593000D01*
X166361000Y-112626333D01*
X166627666Y-112626333D01*
X165661000Y-112926333D02*
X165727666Y-112959666D01*
X165861000Y-112959666D01*
X165927666Y-112926333D01*
X165961000Y-112859666D01*
X165961000Y-112593000D01*
X165927666Y-112526333D01*
X165861000Y-112493000D01*
X165727666Y-112493000D01*
X165661000Y-112526333D01*
X165627666Y-112593000D01*
X165627666Y-112659666D01*
X165961000Y-112726333D01*
X165394333Y-112493000D02*
X165227666Y-112959666D01*
X165061000Y-112493000D01*
X164794333Y-112893000D02*
X164761000Y-112926333D01*
X164794333Y-112959666D01*
X164827666Y-112926333D01*
X164794333Y-112893000D01*
X164794333Y-112959666D01*
X163561000Y-112959666D02*
X163961000Y-112959666D01*
X163761000Y-112959666D02*
X163761000Y-112259666D01*
X163827666Y-112359666D01*
X163894333Y-112426333D01*
X163961000Y-112459666D01*
X163261000Y-112893000D02*
X163227666Y-112926333D01*
X163261000Y-112959666D01*
X163294333Y-112926333D01*
X163261000Y-112893000D01*
X163261000Y-112959666D01*
X162561000Y-112959666D02*
X162961000Y-112959666D01*
X162761000Y-112959666D02*
X162761000Y-112259666D01*
X162827666Y-112359666D01*
X162894333Y-112426333D01*
X162961000Y-112459666D01*
M02*
