G04 #@! TF.GenerationSoftware,KiCad,Pcbnew,5.1.5+dfsg1-2~bpo10+1*
G04 #@! TF.CreationDate,2020-05-12T19:04:25+02:00*
G04 #@! TF.ProjectId,quickfeather-board,71756963-6b66-4656-9174-6865722d626f,rev?*
G04 #@! TF.SameCoordinates,Original*
G04 #@! TF.FileFunction,Other,Fab,Top*
%FSLAX46Y46*%
G04 Gerber Fmt 4.6, Leading zero omitted, Abs format (unit mm)*
G04 Created by KiCad (PCBNEW 5.1.5+dfsg1-2~bpo10+1) date 2020-05-12 19:04:25*
%MOMM*%
%LPD*%
G04 APERTURE LIST*
%ADD10C,0.150000*%
%ADD11C,0.100000*%
%ADD12C,0.120000*%
G04 APERTURE END LIST*
D10*
X179000000Y-94771700D02*
X179000000Y-113341700D01*
X123101100Y-102463600D02*
X123609100Y-102971600D01*
X123609100Y-102971600D02*
X123609100Y-107035600D01*
X123609100Y-107035600D02*
X123101100Y-107543600D01*
X178981100Y-93573600D02*
G75*
G02X181521100Y-96113600I0J-2540000D01*
G01*
X181521100Y-113893600D02*
G75*
G02X178981100Y-116433600I-2540000J0D01*
G01*
X125641100Y-116433600D02*
X178981100Y-116433600D01*
X181521100Y-113893600D02*
X181521100Y-96113600D01*
X178981100Y-93573600D02*
X125641100Y-93573600D01*
X123101100Y-96113600D02*
G75*
G02X125641100Y-93573600I2540000J0D01*
G01*
X123101100Y-96113600D02*
X123101100Y-102463600D01*
X123101100Y-107543600D02*
X123101100Y-113893600D01*
X125641100Y-116433600D02*
G75*
G02X123101100Y-113893600I0J2540000D01*
G01*
D11*
X149345300Y-112851700D02*
X150345300Y-112851700D01*
X149345300Y-113351700D02*
X149345300Y-112851700D01*
X150345300Y-113351700D02*
X149345300Y-113351700D01*
X150345300Y-112851700D02*
X150345300Y-113351700D01*
D12*
X143204000Y-100515000D02*
X143966000Y-101277000D01*
X141950000Y-103035000D02*
X141950000Y-100535000D01*
X143950000Y-103035000D02*
X141950000Y-103035000D01*
X143950000Y-100535000D02*
X143950000Y-103035000D01*
X141950000Y-100535000D02*
X143950000Y-100535000D01*
X160928000Y-107784000D02*
X160166000Y-106768000D01*
X160166000Y-107784000D02*
X160166000Y-103720000D01*
X163214000Y-107784000D02*
X160166000Y-107784000D01*
X163214000Y-103720000D02*
X163214000Y-107784000D01*
X160166000Y-103720000D02*
X163214000Y-103720000D01*
X167922000Y-110591600D02*
X168684000Y-109829600D01*
D11*
X165445000Y-110718600D02*
X165445000Y-104368600D01*
X165445000Y-104368600D02*
X168875000Y-104368600D01*
X165445000Y-110718600D02*
X168875000Y-110718600D01*
X168875000Y-110718600D02*
X168875000Y-104368600D01*
X132080000Y-112950000D02*
X131580000Y-112950000D01*
X131580000Y-111350000D02*
X132080000Y-111350000D01*
X131580000Y-111350000D02*
G75*
G03X131580000Y-112950000I0J-800000D01*
G01*
X129730000Y-113750000D02*
X133930000Y-113750000D01*
X129730000Y-110550000D02*
X129730000Y-113750000D01*
X133930000Y-110550000D02*
X129730000Y-110550000D01*
X133930000Y-113750000D02*
X133930000Y-110550000D01*
X132080000Y-112950000D02*
G75*
G03X132080000Y-111350000I0J800000D01*
G01*
X132080000Y-109250000D02*
X131580000Y-109250000D01*
X131580000Y-107650000D02*
X132080000Y-107650000D01*
X131580000Y-107650000D02*
G75*
G03X131580000Y-109250000I0J-800000D01*
G01*
X129730000Y-110050000D02*
X133930000Y-110050000D01*
X129730000Y-106850000D02*
X129730000Y-110050000D01*
X133930000Y-106850000D02*
X129730000Y-106850000D01*
X133930000Y-110050000D02*
X133930000Y-106850000D01*
X132080000Y-109250000D02*
G75*
G03X132080000Y-107650000I0J800000D01*
G01*
X137345300Y-105676700D02*
X136345300Y-105676700D01*
X137345300Y-105176700D02*
X137345300Y-105676700D01*
X136345300Y-105176700D02*
X137345300Y-105176700D01*
X136345300Y-105676700D02*
X136345300Y-105176700D01*
X127120060Y-111501700D02*
X127120060Y-109901700D01*
X127970060Y-111501700D02*
X127120060Y-111501700D01*
X127970060Y-110051700D02*
X127820060Y-109901700D01*
X127970060Y-111501700D02*
X127970060Y-110051700D01*
X127820060Y-109901700D02*
X127120060Y-109901700D01*
D10*
X152360000Y-98979592D02*
X147056699Y-104282893D01*
X158370408Y-104990000D02*
X152360000Y-98979592D01*
X152360000Y-111000408D02*
X158370408Y-104990000D01*
X147056699Y-105697107D02*
X152360000Y-111000408D01*
X147056699Y-104282893D02*
X147056699Y-105697107D01*
D11*
X125620300Y-111201700D02*
X125620300Y-110201700D01*
X126120300Y-111201700D02*
X125620300Y-111201700D01*
X126120300Y-110201700D02*
X126120300Y-111201700D01*
X125620300Y-110201700D02*
X126120300Y-110201700D01*
X173211000Y-103643000D02*
X171611000Y-103643000D01*
X173211000Y-107643000D02*
X173211000Y-103643000D01*
X171611000Y-107643000D02*
X173211000Y-107643000D01*
X171611000Y-103643000D02*
X171611000Y-107643000D01*
X154990000Y-110460000D02*
X154990000Y-112060000D01*
X158990000Y-110460000D02*
X154990000Y-110460000D01*
X158990000Y-112060000D02*
X158990000Y-110460000D01*
X154990000Y-112060000D02*
X158990000Y-112060000D01*
X173211000Y-98343000D02*
X171611000Y-98343000D01*
X173211000Y-102343000D02*
X173211000Y-98343000D01*
X171611000Y-102343000D02*
X173211000Y-102343000D01*
X171611000Y-98343000D02*
X171611000Y-102343000D01*
X157600000Y-97840000D02*
X157600000Y-99440000D01*
X161600000Y-97840000D02*
X157600000Y-97840000D01*
X161600000Y-99440000D02*
X161600000Y-97840000D01*
X157600000Y-99440000D02*
X161600000Y-99440000D01*
D12*
X139180000Y-109730000D02*
X137580000Y-109730000D01*
X139180000Y-111730000D02*
X137592600Y-111720600D01*
X139180000Y-109730000D02*
X139180000Y-111730000D01*
X137580000Y-109730000D02*
X137580000Y-111730000D01*
D10*
X142000000Y-105320000D02*
X142800000Y-105320000D01*
X142000000Y-103720000D02*
X142000000Y-105320000D01*
X143600000Y-103720000D02*
X142000000Y-103720000D01*
X143600000Y-104520000D02*
X143600000Y-103720000D01*
X142800000Y-105320000D02*
X143600000Y-104520000D01*
D11*
X144730000Y-98590000D02*
X146030000Y-98590000D01*
X144730000Y-100290000D02*
X144730000Y-98590000D01*
X145830000Y-100290000D02*
X146030000Y-100115000D01*
X145830000Y-100290000D02*
X144730000Y-100290000D01*
X146030000Y-100115000D02*
X146030000Y-98590000D01*
X165490000Y-102110000D02*
X165490000Y-103410000D01*
X163790000Y-102110000D02*
X165490000Y-102110000D01*
X163790000Y-103210000D02*
X163965000Y-103410000D01*
X163790000Y-103210000D02*
X163790000Y-102110000D01*
X163965000Y-103410000D02*
X165490000Y-103410000D01*
X162940000Y-101580000D02*
X162940000Y-102880000D01*
X161240000Y-101580000D02*
X162940000Y-101580000D01*
X161240000Y-102680000D02*
X161415000Y-102880000D01*
X161240000Y-102680000D02*
X161240000Y-101580000D01*
X161415000Y-102880000D02*
X162940000Y-102880000D01*
X163741100Y-96113600D02*
X166281100Y-96113600D01*
X166281100Y-96113600D02*
X166281100Y-101193600D01*
X163741100Y-101193600D02*
X166281100Y-101193600D01*
X163741100Y-96113600D02*
X163741100Y-101193600D01*
X166281000Y-96113000D02*
X166281000Y-101193000D01*
X166281000Y-101193000D02*
X168821000Y-101193000D01*
X168821000Y-96113000D02*
X168821000Y-101193000D01*
X166281000Y-96113000D02*
X168821000Y-96113000D01*
X141120000Y-99630000D02*
G75*
G03X141120000Y-99630000I-1120000J0D01*
G01*
X141400000Y-99030000D02*
X140400000Y-98030000D01*
X141400000Y-98030000D02*
X138600000Y-98030000D01*
X138600000Y-98030000D02*
X138600000Y-101230000D01*
X138600000Y-101230000D02*
X141400000Y-101230000D01*
X141400000Y-101230000D02*
X141400000Y-98030000D01*
G36*
X160185000Y-114909000D02*
G01*
X159677000Y-114909000D01*
X159677000Y-115417000D01*
X160185000Y-115417000D01*
X160185000Y-114909000D01*
G37*
G36*
X157645000Y-114909000D02*
G01*
X157137000Y-114909000D01*
X157137000Y-115417000D01*
X157645000Y-115417000D01*
X157645000Y-114909000D01*
G37*
G36*
X165265000Y-114909000D02*
G01*
X164757000Y-114909000D01*
X164757000Y-115417000D01*
X165265000Y-115417000D01*
X165265000Y-114909000D01*
G37*
G36*
X152565000Y-114909000D02*
G01*
X152057000Y-114909000D01*
X152057000Y-115417000D01*
X152565000Y-115417000D01*
X152565000Y-114909000D01*
G37*
G36*
X167805000Y-114909000D02*
G01*
X167297000Y-114909000D01*
X167297000Y-115417000D01*
X167805000Y-115417000D01*
X167805000Y-114909000D01*
G37*
G36*
X142405000Y-114909000D02*
G01*
X141897000Y-114909000D01*
X141897000Y-115417000D01*
X142405000Y-115417000D01*
X142405000Y-114909000D01*
G37*
G36*
X155105000Y-114909000D02*
G01*
X154597000Y-114909000D01*
X154597000Y-115417000D01*
X155105000Y-115417000D01*
X155105000Y-114909000D01*
G37*
G36*
X144945000Y-114909000D02*
G01*
X144437000Y-114909000D01*
X144437000Y-115417000D01*
X144945000Y-115417000D01*
X144945000Y-114909000D01*
G37*
G36*
X162725000Y-114909000D02*
G01*
X162217000Y-114909000D01*
X162217000Y-115417000D01*
X162725000Y-115417000D01*
X162725000Y-114909000D01*
G37*
G36*
X150025000Y-114909000D02*
G01*
X149517000Y-114909000D01*
X149517000Y-115417000D01*
X150025000Y-115417000D01*
X150025000Y-114909000D01*
G37*
G36*
X147485000Y-114909000D02*
G01*
X146977000Y-114909000D01*
X146977000Y-115417000D01*
X147485000Y-115417000D01*
X147485000Y-114909000D01*
G37*
G36*
X139865000Y-114909000D02*
G01*
X139357000Y-114909000D01*
X139357000Y-115417000D01*
X139865000Y-115417000D01*
X139865000Y-114909000D01*
G37*
G36*
X134775000Y-114909000D02*
G01*
X134267000Y-114909000D01*
X134267000Y-115417000D01*
X134775000Y-115417000D01*
X134775000Y-114909000D01*
G37*
G36*
X137315000Y-114909000D02*
G01*
X136807000Y-114909000D01*
X136807000Y-115417000D01*
X137315000Y-115417000D01*
X137315000Y-114909000D01*
G37*
G36*
X132235000Y-114909000D02*
G01*
X131727000Y-114909000D01*
X131727000Y-115417000D01*
X132235000Y-115417000D01*
X132235000Y-114909000D01*
G37*
G36*
X129695000Y-114909000D02*
G01*
X129187000Y-114909000D01*
X129187000Y-115417000D01*
X129695000Y-115417000D01*
X129695000Y-114909000D01*
G37*
X148550000Y-98100000D02*
X148550000Y-99100000D01*
X148050000Y-98100000D02*
X148550000Y-98100000D01*
X148050000Y-99100000D02*
X148050000Y-98100000D01*
X148550000Y-99100000D02*
X148050000Y-99100000D01*
X136610000Y-106900000D02*
X137110000Y-106400000D01*
X136610000Y-108400000D02*
X136610000Y-106900000D01*
X138610000Y-108400000D02*
X136610000Y-108400000D01*
X138610000Y-106400000D02*
X138610000Y-108400000D01*
X137110000Y-106400000D02*
X138610000Y-106400000D01*
D10*
X141400000Y-107900000D02*
X140400000Y-108900000D01*
X140400000Y-108900000D02*
X140400000Y-112900000D01*
X140400000Y-112900000D02*
X146400000Y-112900000D01*
X146400000Y-112900000D02*
X146400000Y-107900000D01*
X146400000Y-107900000D02*
X141400000Y-107900000D01*
D11*
X129819100Y-93650000D02*
X137719100Y-93650000D01*
X137719100Y-93650000D02*
X137719100Y-102250000D01*
X129819100Y-102250000D02*
X137719100Y-102250000D01*
X129819100Y-93650000D02*
X129819100Y-102250000D01*
X128240000Y-101103600D02*
X128240000Y-108903600D01*
X128240000Y-101103600D02*
X123240000Y-101103600D01*
X128240000Y-108903600D02*
X123240000Y-108903600D01*
X123240000Y-101103600D02*
X123240000Y-108903600D01*
X125275000Y-98600000D02*
X127925000Y-98600000D01*
X127925000Y-98600000D02*
X127925000Y-100300000D01*
X125275000Y-98600000D02*
X125275000Y-100300000D01*
X125275000Y-100300000D02*
X127925000Y-100300000D01*
D12*
X138080000Y-103330000D02*
X138080000Y-104130000D01*
X139780000Y-103330000D02*
X139780000Y-104130000D01*
X139780000Y-104130000D02*
X138080000Y-104130000D01*
X139780000Y-103330000D02*
X138080000Y-103330000D01*
X138830000Y-103530000D02*
X138830000Y-103730000D01*
X139130000Y-103730000D02*
X138830000Y-103530000D01*
X138830000Y-103930000D02*
X139130000Y-103730000D01*
X138830000Y-103730000D02*
X138830000Y-103930000D01*
X138430000Y-103730000D02*
X138830000Y-103730000D01*
X139230000Y-103930000D02*
X139230000Y-103630000D01*
X139230000Y-103530000D02*
X139230000Y-103630000D01*
X128890000Y-101430000D02*
X128890000Y-103030000D01*
X129690000Y-101430000D02*
X128890000Y-101430000D01*
X129690000Y-103030000D02*
X129690000Y-101430000D01*
X128890000Y-103030000D02*
X129690000Y-103030000D01*
X138250000Y-105600000D02*
X139850000Y-105600000D01*
X138250000Y-104800000D02*
X138250000Y-105600000D01*
X139850000Y-104800000D02*
X138250000Y-104800000D01*
X139850000Y-105600000D02*
X139850000Y-104800000D01*
X136990000Y-103320000D02*
X135390000Y-103320000D01*
X136990000Y-104120000D02*
X136990000Y-103320000D01*
X135390000Y-104120000D02*
X136990000Y-104120000D01*
X135390000Y-103320000D02*
X135390000Y-104120000D01*
X136280000Y-110380000D02*
X136280000Y-111980000D01*
X137080000Y-110380000D02*
X136280000Y-110380000D01*
X137080000Y-111980000D02*
X137080000Y-110380000D01*
X136280000Y-111980000D02*
X137080000Y-111980000D01*
D11*
X129160000Y-105640000D02*
X130160000Y-105640000D01*
X129160000Y-106140000D02*
X129160000Y-105640000D01*
X130160000Y-106140000D02*
X129160000Y-106140000D01*
X130160000Y-105640000D02*
X130160000Y-106140000D01*
X135150000Y-105960000D02*
X135150000Y-104960000D01*
X135650000Y-105960000D02*
X135150000Y-105960000D01*
X135650000Y-104960000D02*
X135650000Y-105960000D01*
X135150000Y-104960000D02*
X135650000Y-104960000D01*
X135650000Y-108940000D02*
X135650000Y-109940000D01*
X135150000Y-108940000D02*
X135650000Y-108940000D01*
X135150000Y-109940000D02*
X135150000Y-108940000D01*
X135650000Y-109940000D02*
X135150000Y-109940000D01*
X135640000Y-106950000D02*
X135640000Y-107950000D01*
X135140000Y-106950000D02*
X135640000Y-106950000D01*
X135140000Y-107950000D02*
X135140000Y-106950000D01*
X135640000Y-107950000D02*
X135140000Y-107950000D01*
X135630000Y-110880000D02*
X135630000Y-111880000D01*
X135130000Y-110880000D02*
X135630000Y-110880000D01*
X135130000Y-111880000D02*
X135130000Y-110880000D01*
X135630000Y-111880000D02*
X135130000Y-111880000D01*
X153630000Y-98180000D02*
X156830000Y-98180000D01*
X156830000Y-98180000D02*
X156830000Y-96680000D01*
X153630000Y-98180000D02*
X153630000Y-96680000D01*
X153630000Y-96680000D02*
X156830000Y-96680000D01*
X152910000Y-96650000D02*
X152910000Y-97650000D01*
X152410000Y-96650000D02*
X152910000Y-96650000D01*
X152410000Y-97650000D02*
X152410000Y-96650000D01*
X152910000Y-97650000D02*
X152410000Y-97650000D01*
X148680000Y-100150000D02*
X148680000Y-101150000D01*
X148180000Y-100150000D02*
X148680000Y-100150000D01*
X148180000Y-101150000D02*
X148180000Y-100150000D01*
X148680000Y-101150000D02*
X148180000Y-101150000D01*
X167520300Y-111601700D02*
X167520300Y-112601700D01*
X167020300Y-111601700D02*
X167520300Y-111601700D01*
X167020300Y-112601700D02*
X167020300Y-111601700D01*
X167520300Y-112601700D02*
X167020300Y-112601700D01*
X150220300Y-112051700D02*
X150220300Y-111051700D01*
X150720300Y-112051700D02*
X150220300Y-112051700D01*
X150720300Y-111051700D02*
X150720300Y-112051700D01*
X150220300Y-111051700D02*
X150720300Y-111051700D01*
X147970000Y-109880000D02*
X147970000Y-108880000D01*
X148470000Y-109880000D02*
X147970000Y-109880000D01*
X148470000Y-108880000D02*
X148470000Y-109880000D01*
X147970000Y-108880000D02*
X148470000Y-108880000D01*
X149110000Y-112040000D02*
X149110000Y-111040000D01*
X149610000Y-112040000D02*
X149110000Y-112040000D01*
X149610000Y-111040000D02*
X149610000Y-112040000D01*
X149110000Y-111040000D02*
X149610000Y-111040000D01*
X148000000Y-112020000D02*
X148000000Y-111020000D01*
X148500000Y-112020000D02*
X148000000Y-112020000D01*
X148500000Y-111020000D02*
X148500000Y-112020000D01*
X148000000Y-111020000D02*
X148500000Y-111020000D01*
X159810000Y-107640000D02*
X159810000Y-108640000D01*
X159310000Y-107640000D02*
X159810000Y-107640000D01*
X159310000Y-108640000D02*
X159310000Y-107640000D01*
X159810000Y-108640000D02*
X159310000Y-108640000D01*
X159320000Y-106710000D02*
X159320000Y-105710000D01*
X159820000Y-106710000D02*
X159320000Y-106710000D01*
X159820000Y-105710000D02*
X159820000Y-106710000D01*
X159320000Y-105710000D02*
X159820000Y-105710000D01*
X143370000Y-100100000D02*
X142370000Y-100100000D01*
X143370000Y-99600000D02*
X143370000Y-100100000D01*
X142370000Y-99600000D02*
X143370000Y-99600000D01*
X142370000Y-100100000D02*
X142370000Y-99600000D01*
X141151000Y-105693000D02*
X140651000Y-105693000D01*
X140651000Y-105693000D02*
X140651000Y-104693000D01*
X140651000Y-104693000D02*
X141151000Y-104693000D01*
X141151000Y-104693000D02*
X141151000Y-105693000D01*
X144811000Y-103473000D02*
X145811000Y-103473000D01*
X144811000Y-103973000D02*
X144811000Y-103473000D01*
X145811000Y-103973000D02*
X144811000Y-103973000D01*
X145811000Y-103473000D02*
X145811000Y-103973000D01*
X147730000Y-101070000D02*
X147730000Y-102070000D01*
X147230000Y-101070000D02*
X147730000Y-101070000D01*
X147230000Y-102070000D02*
X147230000Y-101070000D01*
X147730000Y-102070000D02*
X147230000Y-102070000D01*
X141230000Y-102345000D02*
X141230000Y-103345000D01*
X140730000Y-102345000D02*
X141230000Y-102345000D01*
X140730000Y-103345000D02*
X140730000Y-102345000D01*
X141230000Y-103345000D02*
X140730000Y-103345000D01*
X147100000Y-100110000D02*
X147100000Y-99110000D01*
X147600000Y-100110000D02*
X147100000Y-100110000D01*
X147600000Y-99110000D02*
X147600000Y-100110000D01*
X147100000Y-99110000D02*
X147600000Y-99110000D01*
X155830000Y-100010000D02*
X156830000Y-100010000D01*
X155830000Y-100510000D02*
X155830000Y-100010000D01*
X156830000Y-100510000D02*
X155830000Y-100510000D01*
X156830000Y-100010000D02*
X156830000Y-100510000D01*
X159150000Y-102000000D02*
X160150000Y-102000000D01*
X159150000Y-102500000D02*
X159150000Y-102000000D01*
X160150000Y-102500000D02*
X159150000Y-102500000D01*
X160150000Y-102000000D02*
X160150000Y-102500000D01*
X145990000Y-97920000D02*
X144990000Y-97920000D01*
X145990000Y-97420000D02*
X145990000Y-97920000D01*
X144990000Y-97420000D02*
X145990000Y-97420000D01*
X144990000Y-97920000D02*
X144990000Y-97420000D01*
X149340000Y-98980000D02*
X150340000Y-98980000D01*
X149340000Y-99480000D02*
X149340000Y-98980000D01*
X150340000Y-99480000D02*
X149340000Y-99480000D01*
X150340000Y-98980000D02*
X150340000Y-99480000D01*
X159700000Y-103770000D02*
X158700000Y-103770000D01*
X159700000Y-103270000D02*
X159700000Y-103770000D01*
X158700000Y-103270000D02*
X159700000Y-103270000D01*
X158700000Y-103770000D02*
X158700000Y-103270000D01*
D12*
X149250000Y-96650000D02*
X149250000Y-98250000D01*
X150050000Y-96650000D02*
X149250000Y-96650000D01*
X150050000Y-98250000D02*
X150050000Y-96650000D01*
X149250000Y-98250000D02*
X150050000Y-98250000D01*
D11*
X144815000Y-106070000D02*
X145815000Y-106070000D01*
X144815000Y-106570000D02*
X144815000Y-106070000D01*
X145815000Y-106570000D02*
X144815000Y-106570000D01*
X145815000Y-106070000D02*
X145815000Y-106570000D01*
D12*
X150640000Y-96650000D02*
X150640000Y-98250000D01*
X151440000Y-96650000D02*
X150640000Y-96650000D01*
X151440000Y-98250000D02*
X151440000Y-96650000D01*
X150640000Y-98250000D02*
X151440000Y-98250000D01*
D11*
X157610000Y-108840000D02*
X156610000Y-108840000D01*
X157610000Y-108340000D02*
X157610000Y-108840000D01*
X156610000Y-108340000D02*
X157610000Y-108340000D01*
X156610000Y-108840000D02*
X156610000Y-108340000D01*
X142681000Y-106873000D02*
X141681000Y-106873000D01*
X142681000Y-106373000D02*
X142681000Y-106873000D01*
X141681000Y-106373000D02*
X142681000Y-106373000D01*
X141681000Y-106873000D02*
X141681000Y-106373000D01*
X144091000Y-105993000D02*
X144091000Y-106993000D01*
X143591000Y-105993000D02*
X144091000Y-105993000D01*
X143591000Y-106993000D02*
X143591000Y-105993000D01*
X144091000Y-106993000D02*
X143591000Y-106993000D01*
X162470000Y-100170000D02*
X162470000Y-99170000D01*
X162970000Y-100170000D02*
X162470000Y-100170000D01*
X162970000Y-99170000D02*
X162970000Y-100170000D01*
X162470000Y-99170000D02*
X162970000Y-99170000D01*
X138700000Y-102170000D02*
X139700000Y-102170000D01*
X138700000Y-102670000D02*
X138700000Y-102170000D01*
X139700000Y-102670000D02*
X138700000Y-102670000D01*
X139700000Y-102170000D02*
X139700000Y-102670000D01*
X142360000Y-98650000D02*
X143360000Y-98650000D01*
X142360000Y-99150000D02*
X142360000Y-98650000D01*
X143360000Y-99150000D02*
X142360000Y-99150000D01*
X143360000Y-98650000D02*
X143360000Y-99150000D01*
X151320300Y-113151700D02*
X151320300Y-112151700D01*
X151820300Y-113151700D02*
X151320300Y-113151700D01*
X151820300Y-112151700D02*
X151820300Y-113151700D01*
X151320300Y-112151700D02*
X151820300Y-112151700D01*
X153245300Y-113226700D02*
X153245300Y-112226700D01*
X153745300Y-113226700D02*
X153245300Y-113226700D01*
X153745300Y-112226700D02*
X153745300Y-113226700D01*
X153245300Y-112226700D02*
X153745300Y-112226700D01*
X168130000Y-112600000D02*
X168130000Y-111600000D01*
X168630000Y-112600000D02*
X168130000Y-112600000D01*
X168630000Y-111600000D02*
X168630000Y-112600000D01*
X168130000Y-111600000D02*
X168630000Y-111600000D01*
X162890000Y-108490000D02*
X162890000Y-108990000D01*
X162890000Y-108990000D02*
X161890000Y-108990000D01*
X161890000Y-108990000D02*
X161890000Y-108490000D01*
X161890000Y-108490000D02*
X162890000Y-108490000D01*
X161100000Y-109530000D02*
X161100000Y-110530000D01*
X160600000Y-109530000D02*
X161100000Y-109530000D01*
X160600000Y-110530000D02*
X160600000Y-109530000D01*
X161100000Y-110530000D02*
X160600000Y-110530000D01*
X142370000Y-97540000D02*
X143370000Y-97540000D01*
X142370000Y-98040000D02*
X142370000Y-97540000D01*
X143370000Y-98040000D02*
X142370000Y-98040000D01*
X143370000Y-97540000D02*
X143370000Y-98040000D01*
X124550000Y-111190000D02*
X124550000Y-110190000D01*
X125050000Y-111190000D02*
X124550000Y-111190000D01*
X125050000Y-110190000D02*
X125050000Y-111190000D01*
X124550000Y-110190000D02*
X125050000Y-110190000D01*
X158270000Y-108630000D02*
X158270000Y-107630000D01*
X158770000Y-108630000D02*
X158270000Y-108630000D01*
X158770000Y-107630000D02*
X158770000Y-108630000D01*
X158270000Y-107630000D02*
X158770000Y-107630000D01*
X156790000Y-99460000D02*
X155790000Y-99460000D01*
X156790000Y-98960000D02*
X156790000Y-99460000D01*
X155790000Y-98960000D02*
X156790000Y-98960000D01*
X155790000Y-99460000D02*
X155790000Y-98960000D01*
X133325000Y-106255000D02*
X131825000Y-106255000D01*
X133575000Y-106080000D02*
X133575000Y-103205000D01*
X133325000Y-106255000D02*
X133575000Y-106080000D01*
X131825000Y-103205000D02*
X133575000Y-103205000D01*
X131825000Y-106255000D02*
X131825000Y-103205000D01*
X162980000Y-97200000D02*
X162980000Y-98200000D01*
X162480000Y-97200000D02*
X162980000Y-97200000D01*
X162480000Y-98200000D02*
X162480000Y-97200000D01*
X162980000Y-98200000D02*
X162480000Y-98200000D01*
X141040000Y-96500000D02*
X142040000Y-96500000D01*
X141040000Y-97000000D02*
X141040000Y-96500000D01*
X142040000Y-97000000D02*
X141040000Y-97000000D01*
X142040000Y-96500000D02*
X142040000Y-97000000D01*
X144000000Y-96990000D02*
X143000000Y-96990000D01*
X144000000Y-96490000D02*
X144000000Y-96990000D01*
X143000000Y-96490000D02*
X144000000Y-96490000D01*
X143000000Y-96990000D02*
X143000000Y-96490000D01*
X144970000Y-96500000D02*
X145970000Y-96500000D01*
X144970000Y-97000000D02*
X144970000Y-96500000D01*
X145970000Y-97000000D02*
X144970000Y-97000000D01*
X145970000Y-96500000D02*
X145970000Y-97000000D01*
G36*
X177481000Y-112393000D02*
G01*
X177481000Y-112901000D01*
X177989000Y-112901000D01*
X177989000Y-112393000D01*
X177481000Y-112393000D01*
G37*
G36*
X177481000Y-109853000D02*
G01*
X177481000Y-110361000D01*
X177989000Y-110361000D01*
X177989000Y-109853000D01*
X177481000Y-109853000D01*
G37*
G36*
X177481000Y-104773000D02*
G01*
X177481000Y-105281000D01*
X177989000Y-105281000D01*
X177989000Y-104773000D01*
X177481000Y-104773000D01*
G37*
G36*
X177481000Y-107313000D02*
G01*
X177481000Y-107821000D01*
X177989000Y-107821000D01*
X177989000Y-107313000D01*
X177481000Y-107313000D01*
G37*
G36*
X177481000Y-102223000D02*
G01*
X177481000Y-102731000D01*
X177989000Y-102731000D01*
X177989000Y-102223000D01*
X177481000Y-102223000D01*
G37*
G36*
X177481000Y-94603000D02*
G01*
X177481000Y-95111000D01*
X177989000Y-95111000D01*
X177989000Y-94603000D01*
X177481000Y-94603000D01*
G37*
G36*
X174941000Y-112383000D02*
G01*
X174941000Y-112891000D01*
X175449000Y-112891000D01*
X175449000Y-112383000D01*
X174941000Y-112383000D01*
G37*
G36*
X174941000Y-99683000D02*
G01*
X174941000Y-100191000D01*
X175449000Y-100191000D01*
X175449000Y-99683000D01*
X174941000Y-99683000D01*
G37*
G36*
X177481000Y-97143000D02*
G01*
X177481000Y-97651000D01*
X177989000Y-97651000D01*
X177989000Y-97143000D01*
X177481000Y-97143000D01*
G37*
G36*
X174941000Y-107303000D02*
G01*
X174941000Y-107811000D01*
X175449000Y-107811000D01*
X175449000Y-107303000D01*
X174941000Y-107303000D01*
G37*
G36*
X177481000Y-99683000D02*
G01*
X177481000Y-100191000D01*
X177989000Y-100191000D01*
X177989000Y-99683000D01*
X177481000Y-99683000D01*
G37*
G36*
X174941000Y-94603000D02*
G01*
X174941000Y-95111000D01*
X175449000Y-95111000D01*
X175449000Y-94603000D01*
X174941000Y-94603000D01*
G37*
G36*
X174941000Y-109843000D02*
G01*
X174941000Y-110351000D01*
X175449000Y-110351000D01*
X175449000Y-109843000D01*
X174941000Y-109843000D01*
G37*
G36*
X174941000Y-97143000D02*
G01*
X174941000Y-97651000D01*
X175449000Y-97651000D01*
X175449000Y-97143000D01*
X174941000Y-97143000D01*
G37*
G36*
X174941000Y-104763000D02*
G01*
X174941000Y-105271000D01*
X175449000Y-105271000D01*
X175449000Y-104763000D01*
X174941000Y-104763000D01*
G37*
G36*
X174941000Y-102223000D02*
G01*
X174941000Y-102731000D01*
X175449000Y-102731000D01*
X175449000Y-102223000D01*
X174941000Y-102223000D01*
G37*
G36*
X125401100Y-96343600D02*
G01*
X125909100Y-96343600D01*
X125909100Y-95835600D01*
X125401100Y-95835600D01*
X125401100Y-96343600D01*
G37*
G36*
X125401100Y-114123600D02*
G01*
X125909100Y-114123600D01*
X125909100Y-113615600D01*
X125401100Y-113615600D01*
X125401100Y-114123600D01*
G37*
G36*
X171121100Y-114123600D02*
G01*
X171629100Y-114123600D01*
X171629100Y-113615600D01*
X171121100Y-113615600D01*
X171121100Y-114123600D01*
G37*
G36*
X171121100Y-96343600D02*
G01*
X171629100Y-96343600D01*
X171629100Y-95835600D01*
X171121100Y-95835600D01*
X171121100Y-96343600D01*
G37*
X138870000Y-113360000D02*
X137870000Y-113360000D01*
X138870000Y-112860000D02*
X138870000Y-113360000D01*
X137870000Y-112860000D02*
X138870000Y-112860000D01*
X137870000Y-113360000D02*
X137870000Y-112860000D01*
X144280000Y-103340000D02*
X144280000Y-100800000D01*
X144280000Y-100800000D02*
X146820000Y-100800000D01*
X146820000Y-103340000D02*
X146820000Y-100800000D01*
X144280000Y-103340000D02*
X146820000Y-103340000D01*
X159926000Y-113894000D02*
X159926000Y-111354000D01*
X159926000Y-111354000D02*
X162466000Y-111354000D01*
X162466000Y-113894000D02*
X162466000Y-111354000D01*
X159926000Y-113894000D02*
X162466000Y-113894000D01*
G36*
X144437000Y-95097000D02*
G01*
X144945000Y-95097000D01*
X144945000Y-94589000D01*
X144437000Y-94589000D01*
X144437000Y-95097000D01*
G37*
G36*
X154597000Y-95097000D02*
G01*
X155105000Y-95097000D01*
X155105000Y-94589000D01*
X154597000Y-94589000D01*
X154597000Y-95097000D01*
G37*
G36*
X152057000Y-95097000D02*
G01*
X152565000Y-95097000D01*
X152565000Y-94589000D01*
X152057000Y-94589000D01*
X152057000Y-95097000D01*
G37*
G36*
X167297000Y-95097000D02*
G01*
X167805000Y-95097000D01*
X167805000Y-94589000D01*
X167297000Y-94589000D01*
X167297000Y-95097000D01*
G37*
G36*
X157137000Y-95097000D02*
G01*
X157645000Y-95097000D01*
X157645000Y-94589000D01*
X157137000Y-94589000D01*
X157137000Y-95097000D01*
G37*
G36*
X141897000Y-95097000D02*
G01*
X142405000Y-95097000D01*
X142405000Y-94589000D01*
X141897000Y-94589000D01*
X141897000Y-95097000D01*
G37*
G36*
X162217000Y-95097000D02*
G01*
X162725000Y-95097000D01*
X162725000Y-94589000D01*
X162217000Y-94589000D01*
X162217000Y-95097000D01*
G37*
G36*
X149517000Y-95097000D02*
G01*
X150025000Y-95097000D01*
X150025000Y-94589000D01*
X149517000Y-94589000D01*
X149517000Y-95097000D01*
G37*
G36*
X139357000Y-95097000D02*
G01*
X139865000Y-95097000D01*
X139865000Y-94589000D01*
X139357000Y-94589000D01*
X139357000Y-95097000D01*
G37*
G36*
X159677000Y-95097000D02*
G01*
X160185000Y-95097000D01*
X160185000Y-94589000D01*
X159677000Y-94589000D01*
X159677000Y-95097000D01*
G37*
G36*
X164757000Y-95097000D02*
G01*
X165265000Y-95097000D01*
X165265000Y-94589000D01*
X164757000Y-94589000D01*
X164757000Y-95097000D01*
G37*
G36*
X146977000Y-95097000D02*
G01*
X147485000Y-95097000D01*
X147485000Y-94589000D01*
X146977000Y-94589000D01*
X146977000Y-95097000D01*
G37*
X162905000Y-110595000D02*
X161855000Y-110595000D01*
X161855000Y-110595000D02*
X161855000Y-109745000D01*
X162905000Y-109945000D02*
X162730000Y-109745000D01*
X162905000Y-109945000D02*
X162905000Y-110595000D01*
X162730000Y-109745000D02*
X161855000Y-109745000D01*
X166225000Y-102715000D02*
X167275000Y-102715000D01*
X167275000Y-102715000D02*
X167275000Y-103565000D01*
X166225000Y-103365000D02*
X166400000Y-103565000D01*
X166225000Y-103365000D02*
X166225000Y-102715000D01*
X166400000Y-103565000D02*
X167275000Y-103565000D01*
X129025000Y-104975000D02*
X129025000Y-103925000D01*
X129025000Y-103925000D02*
X129875000Y-103925000D01*
X129675000Y-104975000D02*
X129875000Y-104800000D01*
X129675000Y-104975000D02*
X129025000Y-104975000D01*
X129875000Y-104800000D02*
X129875000Y-103925000D01*
X163995300Y-112851700D02*
X163995300Y-111451700D01*
X163995300Y-112851700D02*
X165795300Y-112851700D01*
X165795300Y-111451700D02*
X163995300Y-111451700D01*
X165795300Y-111451700D02*
X165795300Y-112851700D01*
M02*
