%TF.GenerationSoftware,KiCad,Pcbnew,5.1.5+dfsg1-2~bpo10+1*%
%TF.CreationDate,2020-05-18T13:54:13+02:00*%
%TF.ProjectId,quickfeather-board,71756963-6b66-4656-9174-6865722d626f,rev?*%
%TF.SameCoordinates,Original*%
%TF.FileFunction,Plated,1,4,PTH,Drill*%
%TF.FilePolarity,Positive*%
%FSLAX46Y46*%
G04 Gerber Fmt 4.6, Leading zero omitted, Abs format (unit mm)*
G04 Created by KiCad (PCBNEW 5.1.5+dfsg1-2~bpo10+1) date 2020-05-18 13:54:13 commit 16b5e15*
%MOMM*%
%LPD*%
G04 APERTURE LIST*
%TA.AperFunction,ViaDrill*%
%ADD10C,0.150000*%
%TD*%
%TA.AperFunction,ComponentDrill*%
%ADD11C,0.275000*%
%TD*%
%TA.AperFunction,ComponentDrill*%
%ADD12C,0.900000*%
%TD*%
%TA.AperFunction,ComponentDrill*%
%ADD13C,1.000000*%
%TD*%
%TA.AperFunction,ComponentDrill*%
%ADD14C,1.160000*%
%TD*%
%TA.AperFunction,ComponentDrill*%
%ADD15C,2.540000*%
%TD*%
G04 APERTURE END LIST*
D10*
X124050000Y-99440000D03*
X124165000Y-109540000D03*
X126130000Y-99450000D03*
X126620000Y-109540000D03*
X126900000Y-111826700D03*
X127120000Y-101220000D03*
X127120000Y-108680000D03*
X127395300Y-109526700D03*
X128045300Y-109526700D03*
X128200000Y-100400000D03*
X128420000Y-101530000D03*
X128490000Y-105710000D03*
X128580549Y-104689368D03*
X128690000Y-107480000D03*
X129180000Y-106580000D03*
X129210000Y-99440000D03*
X130110000Y-101540000D03*
X131300000Y-103200000D03*
X131800000Y-100900000D03*
X131800000Y-101700000D03*
X131800000Y-102500000D03*
X132550000Y-104075000D03*
X132550000Y-104825000D03*
X132790000Y-103290000D03*
X133060000Y-113475000D03*
X133070300Y-105826700D03*
X133900000Y-110200000D03*
X133990000Y-106620000D03*
X134680002Y-107270000D03*
X135100000Y-112910000D03*
X135800000Y-101200000D03*
X135800000Y-101900000D03*
X135800000Y-102700000D03*
X135800000Y-112910000D03*
X136470000Y-108800000D03*
X136470000Y-109710000D03*
X136500000Y-112910000D03*
X136880000Y-102710000D03*
X137100000Y-109290000D03*
X137200000Y-112910000D03*
X137365000Y-106070000D03*
X137800000Y-102370000D03*
X138300000Y-106000000D03*
X138981000Y-103873000D03*
X139300000Y-104500000D03*
X139450000Y-96800000D03*
X140030000Y-99940000D03*
X140140000Y-101730000D03*
X140160000Y-105120000D03*
X140356951Y-104344008D03*
X140400000Y-113010000D03*
X140500000Y-99310000D03*
X140670000Y-97530000D03*
X140895300Y-110360000D03*
X141290000Y-107300000D03*
X141600000Y-102850000D03*
X141610000Y-98344990D03*
X141670000Y-101140000D03*
X141681000Y-105953000D03*
X141850000Y-113830000D03*
X142671000Y-107300522D03*
X142781000Y-102823000D03*
X142930000Y-101815000D03*
X143671000Y-107628000D03*
X143950000Y-99840000D03*
X144054990Y-98250000D03*
X144205000Y-103463000D03*
X144280000Y-97550000D03*
X144320000Y-102820000D03*
X144381000Y-101903000D03*
X144500000Y-101200000D03*
X144606000Y-105755000D03*
X144621000Y-107300522D03*
X144696611Y-98354044D03*
X144801000Y-104775000D03*
X145259124Y-100850876D03*
X145401000Y-105013000D03*
X145401000Y-107018000D03*
X145614424Y-105614031D03*
X145625078Y-98456261D03*
X145781000Y-107628000D03*
X146670000Y-100560000D03*
X146710000Y-101760000D03*
X146770000Y-106260000D03*
X146770001Y-106970479D03*
X146791000Y-99603000D03*
X146870000Y-103750000D03*
X146910000Y-96890000D03*
X147100000Y-102725000D03*
X147595300Y-110526700D03*
X147595300Y-111526700D03*
X147670000Y-108090000D03*
X147680000Y-112590000D03*
X148060000Y-104900000D03*
X148311000Y-107983000D03*
X148560000Y-104310000D03*
X148620300Y-113076700D03*
X148840000Y-108420000D03*
X148850000Y-98600000D03*
X148944135Y-106355865D03*
X149080000Y-103750000D03*
X149172194Y-100424565D03*
X149310000Y-101210000D03*
X149350000Y-96020000D03*
X149425000Y-109950000D03*
X149470000Y-109240000D03*
X149480000Y-103150000D03*
X149566557Y-99776421D03*
X149820000Y-100620000D03*
X150220300Y-109926700D03*
X150280000Y-100020000D03*
X150300000Y-96080000D03*
X150920000Y-99320000D03*
X150945300Y-112651700D03*
X151030000Y-95400000D03*
X151295300Y-111176700D03*
X151760000Y-98810000D03*
X151840002Y-96890000D03*
X152060000Y-109390000D03*
X152295300Y-113176700D03*
X152311000Y-101093000D03*
X152695000Y-112690000D03*
X152763223Y-109325011D03*
X153120310Y-111585635D03*
X153140000Y-101180000D03*
X153560000Y-99180000D03*
X153570000Y-110720000D03*
X154086992Y-106564063D03*
X154150000Y-99650000D03*
X154150000Y-111150000D03*
X154200000Y-98830000D03*
X154214619Y-110402712D03*
X154670000Y-106030000D03*
X154680000Y-112540000D03*
X155000000Y-109500000D03*
X155100000Y-100850000D03*
X155210000Y-105480000D03*
X155270000Y-106695000D03*
X155360000Y-98570000D03*
X155555010Y-106108473D03*
X155650000Y-104550000D03*
X155740000Y-109410000D03*
X155750000Y-103685000D03*
X155800000Y-101550000D03*
X155920000Y-105290000D03*
X156124479Y-107925521D03*
X156350000Y-104300000D03*
X156394472Y-109374472D03*
X156750000Y-105275011D03*
X157364779Y-107644990D03*
X157397034Y-98401177D03*
X157570000Y-96730000D03*
X157600000Y-100364990D03*
X157780000Y-109600000D03*
X157864734Y-102914734D03*
X158100000Y-102050000D03*
X158220000Y-106149958D03*
X158361979Y-100364990D03*
X158520000Y-109600000D03*
X158918311Y-105678077D03*
X159350000Y-110250000D03*
X159500000Y-104555010D03*
X159545000Y-100560000D03*
X159646770Y-109337044D03*
X160120000Y-110110000D03*
X160220039Y-107644990D03*
X160240000Y-102980000D03*
X160287067Y-106035511D03*
X160350000Y-100350000D03*
X160350000Y-104600000D03*
X160454984Y-103670000D03*
X160850000Y-100900000D03*
X160960000Y-102710000D03*
X161111000Y-111343000D03*
X161200000Y-108451690D03*
X161350000Y-100350000D03*
X162010000Y-97390000D03*
X162900000Y-108100000D03*
X162945000Y-105760001D03*
X162970300Y-112151700D03*
X162990000Y-104980000D03*
X163250000Y-101500000D03*
X163342721Y-96705637D03*
X163592667Y-103407333D03*
X163650010Y-97810000D03*
X164060000Y-98450000D03*
X164710000Y-98670000D03*
X165120000Y-101360000D03*
X165440000Y-113270000D03*
X166570300Y-111051700D03*
X167050000Y-104405000D03*
X167350000Y-102750000D03*
X167970000Y-103980000D03*
X168211000Y-103293000D03*
X168400000Y-113300000D03*
X168811000Y-102493000D03*
X169210019Y-101468283D03*
X169211000Y-104193000D03*
X169886000Y-100043000D03*
X170011324Y-102245000D03*
X170160479Y-103492479D03*
X170211000Y-98593000D03*
X170411000Y-99543000D03*
X170611000Y-100593000D03*
X172116216Y-109654990D03*
X172261000Y-105893000D03*
X172411000Y-105243000D03*
X172461000Y-102693000D03*
X172461000Y-104243000D03*
X172611000Y-103393000D03*
X172711000Y-97843000D03*
X173311528Y-102742472D03*
X173861000Y-103193000D03*
X173961000Y-102443000D03*
X176411000Y-105543000D03*
D11*
%TO.C,IC1*%
X150804365Y-104990000D03*
X151582183Y-104212183D03*
X151582183Y-105767817D03*
X152360000Y-103434365D03*
X152360000Y-104990000D03*
X152360000Y-106545635D03*
X153137817Y-104212183D03*
X153137817Y-105767817D03*
X153915635Y-104990000D03*
D12*
%TO.C,J7*%
X167551000Y-97383000D03*
X167551000Y-99923000D03*
%TO.C,TP5*%
X161196000Y-112624000D03*
%TO.C,J1*%
X165011000Y-97383000D03*
X165011000Y-99923000D03*
%TO.C,TP4*%
X145550000Y-102070000D03*
D13*
%TO.C,J2*%
X139611000Y-94843000D03*
X142151000Y-94843000D03*
X144691000Y-94843000D03*
X147231000Y-94843000D03*
X149771000Y-94843000D03*
X152311000Y-94843000D03*
X154851000Y-94843000D03*
X157391000Y-94843000D03*
X159931000Y-94843000D03*
X162471000Y-94843000D03*
X165011000Y-94843000D03*
X167551000Y-94843000D03*
%TO.C,J8*%
X175171000Y-99923000D03*
X175171000Y-105003000D03*
X175171000Y-110083000D03*
X175171000Y-112623000D03*
X175195000Y-94857000D03*
X175195000Y-97383000D03*
X175195000Y-102463000D03*
X175195000Y-107543000D03*
X177711000Y-94843000D03*
X177711000Y-97383000D03*
X177711000Y-99923000D03*
X177711000Y-102463000D03*
X177711000Y-105003000D03*
X177711000Y-107543000D03*
X177711000Y-110083000D03*
X177711000Y-112623000D03*
%TO.C,J3*%
X129441000Y-115163000D03*
X131981000Y-115163000D03*
X134521000Y-115163000D03*
X137061000Y-115163000D03*
X139611000Y-115163000D03*
X142151000Y-115163000D03*
X144691000Y-115163000D03*
X147231000Y-115163000D03*
X149771000Y-115163000D03*
X152311000Y-115163000D03*
X154851000Y-115163000D03*
X157391000Y-115163000D03*
X159931000Y-115163000D03*
X162471000Y-115163000D03*
X165011000Y-115163000D03*
X167551000Y-115163000D03*
D14*
%TO.C,MIC1*%
X161690000Y-104980000D03*
D15*
%TO.C,M3*%
X171375100Y-113869600D03*
%TO.C,M4*%
X171375100Y-96089600D03*
%TO.C,M2*%
X125655100Y-113869600D03*
%TO.C,M1*%
X125655100Y-96089600D03*
M02*
