%TF.GenerationSoftware,KiCad,Pcbnew,5.1.5+dfsg1-2~bpo10+1*%
%TF.CreationDate,2020-05-18T13:54:13+02:00*%
%TF.ProjectId,quickfeather-board,71756963-6b66-4656-9174-6865722d626f,rev?*%
%TF.SameCoordinates,Original*%
%TF.FileFunction,Soldermask,Top*%
%TF.FilePolarity,Negative*%
%FSLAX46Y46*%
G04 Gerber Fmt 4.6, Leading zero omitted, Abs format (unit mm)*
G04 Created by KiCad (PCBNEW 5.1.5+dfsg1-2~bpo10+1) date 2020-05-18 13:54:13 commit 16b5e15*
%MOMM*%
%LPD*%
G04 APERTURE LIST*
%ADD10C,0.150000*%
%ADD11C,0.100000*%
G04 APERTURE END LIST*
D10*
X123101100Y-102463600D02*
X123609100Y-102971600D01*
X123609100Y-102971600D02*
X123609100Y-107035600D01*
X123609100Y-107035600D02*
X123101100Y-107543600D01*
X178981100Y-93573600D02*
G75*
G02X181521100Y-96113600I0J-2540000D01*
G01*
X181521100Y-113893600D02*
G75*
G02X178981100Y-116433600I-2540000J0D01*
G01*
X125641100Y-116433600D02*
X178981100Y-116433600D01*
X181521100Y-113893600D02*
X181521100Y-96113600D01*
X178981100Y-93573600D02*
X125641100Y-93573600D01*
X123101100Y-96113600D02*
G75*
G02X125641100Y-93573600I2540000J0D01*
G01*
X123101100Y-96113600D02*
X123101100Y-102463600D01*
X123101100Y-107543600D02*
X123101100Y-113893600D01*
X125641100Y-116433600D02*
G75*
G02X123101100Y-113893600I0J2540000D01*
G01*
D11*
G36*
X152570312Y-114308164D02*
G01*
X152637326Y-114335922D01*
X152732098Y-114375178D01*
X152877703Y-114472468D01*
X153001532Y-114596297D01*
X153098822Y-114741902D01*
X153165836Y-114903689D01*
X153200000Y-115075441D01*
X153200000Y-115250559D01*
X153165836Y-115422311D01*
X153098822Y-115584098D01*
X153001532Y-115729703D01*
X152877703Y-115853532D01*
X152732098Y-115950822D01*
X152637326Y-115990078D01*
X152570312Y-116017836D01*
X152398559Y-116052000D01*
X152223441Y-116052000D01*
X152051688Y-116017836D01*
X151984674Y-115990078D01*
X151889902Y-115950822D01*
X151744297Y-115853532D01*
X151620468Y-115729703D01*
X151523178Y-115584098D01*
X151456164Y-115422311D01*
X151422000Y-115250559D01*
X151422000Y-115075441D01*
X151456164Y-114903689D01*
X151523178Y-114741902D01*
X151620468Y-114596297D01*
X151744297Y-114472468D01*
X151889902Y-114375178D01*
X151984674Y-114335922D01*
X152051688Y-114308164D01*
X152223441Y-114274000D01*
X152398559Y-114274000D01*
X152570312Y-114308164D01*
G37*
G36*
X167810312Y-114308164D02*
G01*
X167877326Y-114335922D01*
X167972098Y-114375178D01*
X168117703Y-114472468D01*
X168241532Y-114596297D01*
X168338822Y-114741902D01*
X168405836Y-114903689D01*
X168440000Y-115075441D01*
X168440000Y-115250559D01*
X168405836Y-115422311D01*
X168338822Y-115584098D01*
X168241532Y-115729703D01*
X168117703Y-115853532D01*
X167972098Y-115950822D01*
X167877326Y-115990078D01*
X167810312Y-116017836D01*
X167638559Y-116052000D01*
X167463441Y-116052000D01*
X167291688Y-116017836D01*
X167224674Y-115990078D01*
X167129902Y-115950822D01*
X166984297Y-115853532D01*
X166860468Y-115729703D01*
X166763178Y-115584098D01*
X166696164Y-115422311D01*
X166662000Y-115250559D01*
X166662000Y-115075441D01*
X166696164Y-114903689D01*
X166763178Y-114741902D01*
X166860468Y-114596297D01*
X166984297Y-114472468D01*
X167129902Y-114375178D01*
X167224674Y-114335922D01*
X167291688Y-114308164D01*
X167463441Y-114274000D01*
X167638559Y-114274000D01*
X167810312Y-114308164D01*
G37*
G36*
X132240312Y-114308164D02*
G01*
X132307326Y-114335922D01*
X132402098Y-114375178D01*
X132547703Y-114472468D01*
X132671532Y-114596297D01*
X132768822Y-114741902D01*
X132835836Y-114903689D01*
X132870000Y-115075441D01*
X132870000Y-115250559D01*
X132835836Y-115422311D01*
X132768822Y-115584098D01*
X132671532Y-115729703D01*
X132547703Y-115853532D01*
X132402098Y-115950822D01*
X132307326Y-115990078D01*
X132240312Y-116017836D01*
X132068559Y-116052000D01*
X131893441Y-116052000D01*
X131721688Y-116017836D01*
X131654674Y-115990078D01*
X131559902Y-115950822D01*
X131414297Y-115853532D01*
X131290468Y-115729703D01*
X131193178Y-115584098D01*
X131126164Y-115422311D01*
X131092000Y-115250559D01*
X131092000Y-115075441D01*
X131126164Y-114903689D01*
X131193178Y-114741902D01*
X131290468Y-114596297D01*
X131414297Y-114472468D01*
X131559902Y-114375178D01*
X131654674Y-114335922D01*
X131721688Y-114308164D01*
X131893441Y-114274000D01*
X132068559Y-114274000D01*
X132240312Y-114308164D01*
G37*
G36*
X134780312Y-114308164D02*
G01*
X134847326Y-114335922D01*
X134942098Y-114375178D01*
X135087703Y-114472468D01*
X135211532Y-114596297D01*
X135308822Y-114741902D01*
X135375836Y-114903689D01*
X135410000Y-115075441D01*
X135410000Y-115250559D01*
X135375836Y-115422311D01*
X135308822Y-115584098D01*
X135211532Y-115729703D01*
X135087703Y-115853532D01*
X134942098Y-115950822D01*
X134847326Y-115990078D01*
X134780312Y-116017836D01*
X134608559Y-116052000D01*
X134433441Y-116052000D01*
X134261688Y-116017836D01*
X134194674Y-115990078D01*
X134099902Y-115950822D01*
X133954297Y-115853532D01*
X133830468Y-115729703D01*
X133733178Y-115584098D01*
X133666164Y-115422311D01*
X133632000Y-115250559D01*
X133632000Y-115075441D01*
X133666164Y-114903689D01*
X133733178Y-114741902D01*
X133830468Y-114596297D01*
X133954297Y-114472468D01*
X134099902Y-114375178D01*
X134194674Y-114335922D01*
X134261688Y-114308164D01*
X134433441Y-114274000D01*
X134608559Y-114274000D01*
X134780312Y-114308164D01*
G37*
G36*
X129700312Y-114308164D02*
G01*
X129767326Y-114335922D01*
X129862098Y-114375178D01*
X130007703Y-114472468D01*
X130131532Y-114596297D01*
X130228822Y-114741902D01*
X130295836Y-114903689D01*
X130330000Y-115075441D01*
X130330000Y-115250559D01*
X130295836Y-115422311D01*
X130228822Y-115584098D01*
X130131532Y-115729703D01*
X130007703Y-115853532D01*
X129862098Y-115950822D01*
X129767326Y-115990078D01*
X129700312Y-116017836D01*
X129528559Y-116052000D01*
X129353441Y-116052000D01*
X129181688Y-116017836D01*
X129114674Y-115990078D01*
X129019902Y-115950822D01*
X128874297Y-115853532D01*
X128750468Y-115729703D01*
X128653178Y-115584098D01*
X128586164Y-115422311D01*
X128552000Y-115250559D01*
X128552000Y-115075441D01*
X128586164Y-114903689D01*
X128653178Y-114741902D01*
X128750468Y-114596297D01*
X128874297Y-114472468D01*
X129019902Y-114375178D01*
X129114674Y-114335922D01*
X129181688Y-114308164D01*
X129353441Y-114274000D01*
X129528559Y-114274000D01*
X129700312Y-114308164D01*
G37*
G36*
X137320312Y-114308164D02*
G01*
X137387326Y-114335922D01*
X137482098Y-114375178D01*
X137627703Y-114472468D01*
X137751532Y-114596297D01*
X137848822Y-114741902D01*
X137915836Y-114903689D01*
X137950000Y-115075441D01*
X137950000Y-115250559D01*
X137915836Y-115422311D01*
X137848822Y-115584098D01*
X137751532Y-115729703D01*
X137627703Y-115853532D01*
X137482098Y-115950822D01*
X137387326Y-115990078D01*
X137320312Y-116017836D01*
X137148559Y-116052000D01*
X136973441Y-116052000D01*
X136801688Y-116017836D01*
X136734674Y-115990078D01*
X136639902Y-115950822D01*
X136494297Y-115853532D01*
X136370468Y-115729703D01*
X136273178Y-115584098D01*
X136206164Y-115422311D01*
X136172000Y-115250559D01*
X136172000Y-115075441D01*
X136206164Y-114903689D01*
X136273178Y-114741902D01*
X136370468Y-114596297D01*
X136494297Y-114472468D01*
X136639902Y-114375178D01*
X136734674Y-114335922D01*
X136801688Y-114308164D01*
X136973441Y-114274000D01*
X137148559Y-114274000D01*
X137320312Y-114308164D01*
G37*
G36*
X155110312Y-114308164D02*
G01*
X155177326Y-114335922D01*
X155272098Y-114375178D01*
X155417703Y-114472468D01*
X155541532Y-114596297D01*
X155638822Y-114741902D01*
X155705836Y-114903689D01*
X155740000Y-115075441D01*
X155740000Y-115250559D01*
X155705836Y-115422311D01*
X155638822Y-115584098D01*
X155541532Y-115729703D01*
X155417703Y-115853532D01*
X155272098Y-115950822D01*
X155177326Y-115990078D01*
X155110312Y-116017836D01*
X154938559Y-116052000D01*
X154763441Y-116052000D01*
X154591688Y-116017836D01*
X154524674Y-115990078D01*
X154429902Y-115950822D01*
X154284297Y-115853532D01*
X154160468Y-115729703D01*
X154063178Y-115584098D01*
X153996164Y-115422311D01*
X153962000Y-115250559D01*
X153962000Y-115075441D01*
X153996164Y-114903689D01*
X154063178Y-114741902D01*
X154160468Y-114596297D01*
X154284297Y-114472468D01*
X154429902Y-114375178D01*
X154524674Y-114335922D01*
X154591688Y-114308164D01*
X154763441Y-114274000D01*
X154938559Y-114274000D01*
X155110312Y-114308164D01*
G37*
G36*
X162730312Y-114308164D02*
G01*
X162797326Y-114335922D01*
X162892098Y-114375178D01*
X163037703Y-114472468D01*
X163161532Y-114596297D01*
X163258822Y-114741902D01*
X163325836Y-114903689D01*
X163360000Y-115075441D01*
X163360000Y-115250559D01*
X163325836Y-115422311D01*
X163258822Y-115584098D01*
X163161532Y-115729703D01*
X163037703Y-115853532D01*
X162892098Y-115950822D01*
X162797326Y-115990078D01*
X162730312Y-116017836D01*
X162558559Y-116052000D01*
X162383441Y-116052000D01*
X162211688Y-116017836D01*
X162144674Y-115990078D01*
X162049902Y-115950822D01*
X161904297Y-115853532D01*
X161780468Y-115729703D01*
X161683178Y-115584098D01*
X161616164Y-115422311D01*
X161582000Y-115250559D01*
X161582000Y-115075441D01*
X161616164Y-114903689D01*
X161683178Y-114741902D01*
X161780468Y-114596297D01*
X161904297Y-114472468D01*
X162049902Y-114375178D01*
X162144674Y-114335922D01*
X162211688Y-114308164D01*
X162383441Y-114274000D01*
X162558559Y-114274000D01*
X162730312Y-114308164D01*
G37*
G36*
X147490312Y-114308164D02*
G01*
X147557326Y-114335922D01*
X147652098Y-114375178D01*
X147797703Y-114472468D01*
X147921532Y-114596297D01*
X148018822Y-114741902D01*
X148085836Y-114903689D01*
X148120000Y-115075441D01*
X148120000Y-115250559D01*
X148085836Y-115422311D01*
X148018822Y-115584098D01*
X147921532Y-115729703D01*
X147797703Y-115853532D01*
X147652098Y-115950822D01*
X147557326Y-115990078D01*
X147490312Y-116017836D01*
X147318559Y-116052000D01*
X147143441Y-116052000D01*
X146971688Y-116017836D01*
X146904674Y-115990078D01*
X146809902Y-115950822D01*
X146664297Y-115853532D01*
X146540468Y-115729703D01*
X146443178Y-115584098D01*
X146376164Y-115422311D01*
X146342000Y-115250559D01*
X146342000Y-115075441D01*
X146376164Y-114903689D01*
X146443178Y-114741902D01*
X146540468Y-114596297D01*
X146664297Y-114472468D01*
X146809902Y-114375178D01*
X146904674Y-114335922D01*
X146971688Y-114308164D01*
X147143441Y-114274000D01*
X147318559Y-114274000D01*
X147490312Y-114308164D01*
G37*
G36*
X150030312Y-114308164D02*
G01*
X150097326Y-114335922D01*
X150192098Y-114375178D01*
X150337703Y-114472468D01*
X150461532Y-114596297D01*
X150558822Y-114741902D01*
X150625836Y-114903689D01*
X150660000Y-115075441D01*
X150660000Y-115250559D01*
X150625836Y-115422311D01*
X150558822Y-115584098D01*
X150461532Y-115729703D01*
X150337703Y-115853532D01*
X150192098Y-115950822D01*
X150097326Y-115990078D01*
X150030312Y-116017836D01*
X149858559Y-116052000D01*
X149683441Y-116052000D01*
X149511688Y-116017836D01*
X149444674Y-115990078D01*
X149349902Y-115950822D01*
X149204297Y-115853532D01*
X149080468Y-115729703D01*
X148983178Y-115584098D01*
X148916164Y-115422311D01*
X148882000Y-115250559D01*
X148882000Y-115075441D01*
X148916164Y-114903689D01*
X148983178Y-114741902D01*
X149080468Y-114596297D01*
X149204297Y-114472468D01*
X149349902Y-114375178D01*
X149444674Y-114335922D01*
X149511688Y-114308164D01*
X149683441Y-114274000D01*
X149858559Y-114274000D01*
X150030312Y-114308164D01*
G37*
G36*
X157650312Y-114308164D02*
G01*
X157717326Y-114335922D01*
X157812098Y-114375178D01*
X157957703Y-114472468D01*
X158081532Y-114596297D01*
X158178822Y-114741902D01*
X158245836Y-114903689D01*
X158280000Y-115075441D01*
X158280000Y-115250559D01*
X158245836Y-115422311D01*
X158178822Y-115584098D01*
X158081532Y-115729703D01*
X157957703Y-115853532D01*
X157812098Y-115950822D01*
X157717326Y-115990078D01*
X157650312Y-116017836D01*
X157478559Y-116052000D01*
X157303441Y-116052000D01*
X157131688Y-116017836D01*
X157064674Y-115990078D01*
X156969902Y-115950822D01*
X156824297Y-115853532D01*
X156700468Y-115729703D01*
X156603178Y-115584098D01*
X156536164Y-115422311D01*
X156502000Y-115250559D01*
X156502000Y-115075441D01*
X156536164Y-114903689D01*
X156603178Y-114741902D01*
X156700468Y-114596297D01*
X156824297Y-114472468D01*
X156969902Y-114375178D01*
X157064674Y-114335922D01*
X157131688Y-114308164D01*
X157303441Y-114274000D01*
X157478559Y-114274000D01*
X157650312Y-114308164D01*
G37*
G36*
X160190312Y-114308164D02*
G01*
X160257326Y-114335922D01*
X160352098Y-114375178D01*
X160497703Y-114472468D01*
X160621532Y-114596297D01*
X160718822Y-114741902D01*
X160785836Y-114903689D01*
X160820000Y-115075441D01*
X160820000Y-115250559D01*
X160785836Y-115422311D01*
X160718822Y-115584098D01*
X160621532Y-115729703D01*
X160497703Y-115853532D01*
X160352098Y-115950822D01*
X160257326Y-115990078D01*
X160190312Y-116017836D01*
X160018559Y-116052000D01*
X159843441Y-116052000D01*
X159671688Y-116017836D01*
X159604674Y-115990078D01*
X159509902Y-115950822D01*
X159364297Y-115853532D01*
X159240468Y-115729703D01*
X159143178Y-115584098D01*
X159076164Y-115422311D01*
X159042000Y-115250559D01*
X159042000Y-115075441D01*
X159076164Y-114903689D01*
X159143178Y-114741902D01*
X159240468Y-114596297D01*
X159364297Y-114472468D01*
X159509902Y-114375178D01*
X159604674Y-114335922D01*
X159671688Y-114308164D01*
X159843441Y-114274000D01*
X160018559Y-114274000D01*
X160190312Y-114308164D01*
G37*
G36*
X142410312Y-114308164D02*
G01*
X142477326Y-114335922D01*
X142572098Y-114375178D01*
X142717703Y-114472468D01*
X142841532Y-114596297D01*
X142938822Y-114741902D01*
X143005836Y-114903689D01*
X143040000Y-115075441D01*
X143040000Y-115250559D01*
X143005836Y-115422311D01*
X142938822Y-115584098D01*
X142841532Y-115729703D01*
X142717703Y-115853532D01*
X142572098Y-115950822D01*
X142477326Y-115990078D01*
X142410312Y-116017836D01*
X142238559Y-116052000D01*
X142063441Y-116052000D01*
X141891688Y-116017836D01*
X141824674Y-115990078D01*
X141729902Y-115950822D01*
X141584297Y-115853532D01*
X141460468Y-115729703D01*
X141363178Y-115584098D01*
X141296164Y-115422311D01*
X141262000Y-115250559D01*
X141262000Y-115075441D01*
X141296164Y-114903689D01*
X141363178Y-114741902D01*
X141460468Y-114596297D01*
X141584297Y-114472468D01*
X141729902Y-114375178D01*
X141824674Y-114335922D01*
X141891688Y-114308164D01*
X142063441Y-114274000D01*
X142238559Y-114274000D01*
X142410312Y-114308164D01*
G37*
G36*
X144950312Y-114308164D02*
G01*
X145017326Y-114335922D01*
X145112098Y-114375178D01*
X145257703Y-114472468D01*
X145381532Y-114596297D01*
X145478822Y-114741902D01*
X145545836Y-114903689D01*
X145580000Y-115075441D01*
X145580000Y-115250559D01*
X145545836Y-115422311D01*
X145478822Y-115584098D01*
X145381532Y-115729703D01*
X145257703Y-115853532D01*
X145112098Y-115950822D01*
X145017326Y-115990078D01*
X144950312Y-116017836D01*
X144778559Y-116052000D01*
X144603441Y-116052000D01*
X144431688Y-116017836D01*
X144364674Y-115990078D01*
X144269902Y-115950822D01*
X144124297Y-115853532D01*
X144000468Y-115729703D01*
X143903178Y-115584098D01*
X143836164Y-115422311D01*
X143802000Y-115250559D01*
X143802000Y-115075441D01*
X143836164Y-114903689D01*
X143903178Y-114741902D01*
X144000468Y-114596297D01*
X144124297Y-114472468D01*
X144269902Y-114375178D01*
X144364674Y-114335922D01*
X144431688Y-114308164D01*
X144603441Y-114274000D01*
X144778559Y-114274000D01*
X144950312Y-114308164D01*
G37*
G36*
X139870312Y-114308164D02*
G01*
X139937326Y-114335922D01*
X140032098Y-114375178D01*
X140177703Y-114472468D01*
X140301532Y-114596297D01*
X140398822Y-114741902D01*
X140465836Y-114903689D01*
X140500000Y-115075441D01*
X140500000Y-115250559D01*
X140465836Y-115422311D01*
X140398822Y-115584098D01*
X140301532Y-115729703D01*
X140177703Y-115853532D01*
X140032098Y-115950822D01*
X139937326Y-115990078D01*
X139870312Y-116017836D01*
X139698559Y-116052000D01*
X139523441Y-116052000D01*
X139351688Y-116017836D01*
X139284674Y-115990078D01*
X139189902Y-115950822D01*
X139044297Y-115853532D01*
X138920468Y-115729703D01*
X138823178Y-115584098D01*
X138756164Y-115422311D01*
X138722000Y-115250559D01*
X138722000Y-115075441D01*
X138756164Y-114903689D01*
X138823178Y-114741902D01*
X138920468Y-114596297D01*
X139044297Y-114472468D01*
X139189902Y-114375178D01*
X139284674Y-114335922D01*
X139351688Y-114308164D01*
X139523441Y-114274000D01*
X139698559Y-114274000D01*
X139870312Y-114308164D01*
G37*
G36*
X165270312Y-114308164D02*
G01*
X165337326Y-114335922D01*
X165432098Y-114375178D01*
X165577703Y-114472468D01*
X165701532Y-114596297D01*
X165798822Y-114741902D01*
X165865836Y-114903689D01*
X165900000Y-115075441D01*
X165900000Y-115250559D01*
X165865836Y-115422311D01*
X165798822Y-115584098D01*
X165701532Y-115729703D01*
X165577703Y-115853532D01*
X165432098Y-115950822D01*
X165337326Y-115990078D01*
X165270312Y-116017836D01*
X165098559Y-116052000D01*
X164923441Y-116052000D01*
X164751688Y-116017836D01*
X164684674Y-115990078D01*
X164589902Y-115950822D01*
X164444297Y-115853532D01*
X164320468Y-115729703D01*
X164223178Y-115584098D01*
X164156164Y-115422311D01*
X164122000Y-115250559D01*
X164122000Y-115075441D01*
X164156164Y-114903689D01*
X164223178Y-114741902D01*
X164320468Y-114596297D01*
X164444297Y-114472468D01*
X164589902Y-114375178D01*
X164684674Y-114335922D01*
X164751688Y-114308164D01*
X164923441Y-114274000D01*
X165098559Y-114274000D01*
X165270312Y-114308164D01*
G37*
G36*
X125913487Y-112185856D02*
G01*
X126151497Y-112233199D01*
X126328728Y-112306611D01*
X126461203Y-112361484D01*
X126739933Y-112547725D01*
X126976975Y-112784767D01*
X127163216Y-113063497D01*
X127195839Y-113142256D01*
X127291501Y-113373203D01*
X127356900Y-113701987D01*
X127356900Y-114037213D01*
X127291501Y-114365997D01*
X127247399Y-114472468D01*
X127163216Y-114675703D01*
X126976975Y-114954433D01*
X126739933Y-115191475D01*
X126461203Y-115377716D01*
X126332919Y-115430853D01*
X126151497Y-115506001D01*
X125932308Y-115549600D01*
X125822714Y-115571400D01*
X125487486Y-115571400D01*
X125377892Y-115549600D01*
X125158703Y-115506001D01*
X124977281Y-115430853D01*
X124848997Y-115377716D01*
X124570267Y-115191475D01*
X124333225Y-114954433D01*
X124146984Y-114675703D01*
X124062801Y-114472468D01*
X124018699Y-114365997D01*
X123953300Y-114037213D01*
X123953300Y-113701987D01*
X124018699Y-113373203D01*
X124114361Y-113142256D01*
X124146984Y-113063497D01*
X124333225Y-112784767D01*
X124570267Y-112547725D01*
X124848997Y-112361484D01*
X124981472Y-112306611D01*
X125158703Y-112233199D01*
X125396713Y-112185856D01*
X125487486Y-112167800D01*
X125822714Y-112167800D01*
X125913487Y-112185856D01*
G37*
G36*
X171633487Y-112185856D02*
G01*
X171871497Y-112233199D01*
X172048728Y-112306611D01*
X172181203Y-112361484D01*
X172459933Y-112547725D01*
X172696975Y-112784767D01*
X172883216Y-113063497D01*
X172915839Y-113142256D01*
X173011501Y-113373203D01*
X173076900Y-113701987D01*
X173076900Y-114037213D01*
X173011501Y-114365997D01*
X172967399Y-114472468D01*
X172883216Y-114675703D01*
X172696975Y-114954433D01*
X172459933Y-115191475D01*
X172181203Y-115377716D01*
X172052919Y-115430853D01*
X171871497Y-115506001D01*
X171652308Y-115549600D01*
X171542714Y-115571400D01*
X171207486Y-115571400D01*
X171097892Y-115549600D01*
X170878703Y-115506001D01*
X170697281Y-115430853D01*
X170568997Y-115377716D01*
X170290267Y-115191475D01*
X170053225Y-114954433D01*
X169866984Y-114675703D01*
X169782801Y-114472468D01*
X169738699Y-114365997D01*
X169673300Y-114037213D01*
X169673300Y-113701987D01*
X169738699Y-113373203D01*
X169834361Y-113142256D01*
X169866984Y-113063497D01*
X170053225Y-112784767D01*
X170290267Y-112547725D01*
X170568997Y-112361484D01*
X170701472Y-112306611D01*
X170878703Y-112233199D01*
X171116713Y-112185856D01*
X171207486Y-112167800D01*
X171542714Y-112167800D01*
X171633487Y-112185856D01*
G37*
G36*
X153747124Y-112868780D02*
G01*
X153774845Y-112877190D01*
X153800389Y-112890844D01*
X153822780Y-112909220D01*
X153841156Y-112931611D01*
X153854810Y-112957155D01*
X153863220Y-112984876D01*
X153866300Y-113016153D01*
X153866300Y-113407247D01*
X153863220Y-113438524D01*
X153854810Y-113466245D01*
X153841156Y-113491789D01*
X153822780Y-113514180D01*
X153800389Y-113532556D01*
X153774845Y-113546210D01*
X153747124Y-113554620D01*
X153715847Y-113557700D01*
X153274753Y-113557700D01*
X153243476Y-113554620D01*
X153215755Y-113546210D01*
X153190211Y-113532556D01*
X153167820Y-113514180D01*
X153149444Y-113491789D01*
X153135790Y-113466245D01*
X153127380Y-113438524D01*
X153124300Y-113407247D01*
X153124300Y-113016153D01*
X153127380Y-112984876D01*
X153135790Y-112957155D01*
X153149444Y-112931611D01*
X153167820Y-112909220D01*
X153190211Y-112890844D01*
X153215755Y-112877190D01*
X153243476Y-112868780D01*
X153274753Y-112865700D01*
X153715847Y-112865700D01*
X153747124Y-112868780D01*
G37*
G36*
X177970312Y-111768164D02*
G01*
X178012879Y-111785796D01*
X178132098Y-111835178D01*
X178277703Y-111932468D01*
X178401532Y-112056297D01*
X178498822Y-112201902D01*
X178524603Y-112264144D01*
X178565836Y-112363688D01*
X178600000Y-112535441D01*
X178600000Y-112710559D01*
X178565836Y-112882312D01*
X178545415Y-112931611D01*
X178498822Y-113044098D01*
X178401532Y-113189703D01*
X178277703Y-113313532D01*
X178132098Y-113410822D01*
X178043414Y-113447556D01*
X177970312Y-113477836D01*
X177798559Y-113512000D01*
X177623441Y-113512000D01*
X177451688Y-113477836D01*
X177378586Y-113447556D01*
X177289902Y-113410822D01*
X177144297Y-113313532D01*
X177020468Y-113189703D01*
X176923178Y-113044098D01*
X176876585Y-112931611D01*
X176856164Y-112882312D01*
X176822000Y-112710559D01*
X176822000Y-112535441D01*
X176856164Y-112363688D01*
X176897397Y-112264144D01*
X176923178Y-112201902D01*
X177020468Y-112056297D01*
X177144297Y-111932468D01*
X177289902Y-111835178D01*
X177409121Y-111785796D01*
X177451688Y-111768164D01*
X177623441Y-111734000D01*
X177798559Y-111734000D01*
X177970312Y-111768164D01*
G37*
G36*
X175430312Y-111768164D02*
G01*
X175472879Y-111785796D01*
X175592098Y-111835178D01*
X175737703Y-111932468D01*
X175861532Y-112056297D01*
X175958822Y-112201902D01*
X175984603Y-112264144D01*
X176025836Y-112363688D01*
X176060000Y-112535441D01*
X176060000Y-112710559D01*
X176025836Y-112882312D01*
X176005415Y-112931611D01*
X175958822Y-113044098D01*
X175861532Y-113189703D01*
X175737703Y-113313532D01*
X175592098Y-113410822D01*
X175503414Y-113447556D01*
X175430312Y-113477836D01*
X175258559Y-113512000D01*
X175083441Y-113512000D01*
X174911688Y-113477836D01*
X174838586Y-113447556D01*
X174749902Y-113410822D01*
X174604297Y-113313532D01*
X174480468Y-113189703D01*
X174383178Y-113044098D01*
X174336585Y-112931611D01*
X174316164Y-112882312D01*
X174282000Y-112710559D01*
X174282000Y-112535441D01*
X174316164Y-112363688D01*
X174357397Y-112264144D01*
X174383178Y-112201902D01*
X174480468Y-112056297D01*
X174604297Y-111932468D01*
X174749902Y-111835178D01*
X174869121Y-111785796D01*
X174911688Y-111768164D01*
X175083441Y-111734000D01*
X175258559Y-111734000D01*
X175430312Y-111768164D01*
G37*
G36*
X134381000Y-113501000D02*
G01*
X133379000Y-113501000D01*
X133379000Y-112399000D01*
X134381000Y-112399000D01*
X134381000Y-113501000D01*
G37*
G36*
X130281000Y-113501000D02*
G01*
X129279000Y-113501000D01*
X129279000Y-112399000D01*
X130281000Y-112399000D01*
X130281000Y-113501000D01*
G37*
G36*
X151822124Y-112793780D02*
G01*
X151849845Y-112802190D01*
X151875389Y-112815844D01*
X151897780Y-112834220D01*
X151916156Y-112856611D01*
X151929810Y-112882155D01*
X151938220Y-112909876D01*
X151941300Y-112941153D01*
X151941300Y-113332247D01*
X151938220Y-113363524D01*
X151929810Y-113391245D01*
X151916156Y-113416789D01*
X151897780Y-113439180D01*
X151875389Y-113457556D01*
X151849845Y-113471210D01*
X151822124Y-113479620D01*
X151790847Y-113482700D01*
X151349753Y-113482700D01*
X151318476Y-113479620D01*
X151290755Y-113471210D01*
X151265211Y-113457556D01*
X151242820Y-113439180D01*
X151224444Y-113416789D01*
X151210790Y-113391245D01*
X151202380Y-113363524D01*
X151199300Y-113332247D01*
X151199300Y-112941153D01*
X151202380Y-112909876D01*
X151210790Y-112882155D01*
X151224444Y-112856611D01*
X151242820Y-112834220D01*
X151265211Y-112815844D01*
X151290755Y-112802190D01*
X151318476Y-112793780D01*
X151349753Y-112790700D01*
X151790847Y-112790700D01*
X151822124Y-112793780D01*
G37*
G36*
X139081824Y-112742080D02*
G01*
X139109545Y-112750490D01*
X139135089Y-112764144D01*
X139157480Y-112782520D01*
X139175856Y-112804911D01*
X139189510Y-112830455D01*
X139197920Y-112858176D01*
X139201000Y-112889453D01*
X139201000Y-113330547D01*
X139197920Y-113361824D01*
X139189510Y-113389545D01*
X139175856Y-113415089D01*
X139157480Y-113437480D01*
X139135089Y-113455856D01*
X139109545Y-113469510D01*
X139081824Y-113477920D01*
X139050547Y-113481000D01*
X138659453Y-113481000D01*
X138628176Y-113477920D01*
X138600455Y-113469510D01*
X138574911Y-113455856D01*
X138552520Y-113437480D01*
X138534144Y-113415089D01*
X138520490Y-113389545D01*
X138512080Y-113361824D01*
X138509000Y-113330547D01*
X138509000Y-112889453D01*
X138512080Y-112858176D01*
X138520490Y-112830455D01*
X138534144Y-112804911D01*
X138552520Y-112782520D01*
X138574911Y-112764144D01*
X138600455Y-112750490D01*
X138628176Y-112742080D01*
X138659453Y-112739000D01*
X139050547Y-112739000D01*
X139081824Y-112742080D01*
G37*
G36*
X138111824Y-112742080D02*
G01*
X138139545Y-112750490D01*
X138165089Y-112764144D01*
X138187480Y-112782520D01*
X138205856Y-112804911D01*
X138219510Y-112830455D01*
X138227920Y-112858176D01*
X138231000Y-112889453D01*
X138231000Y-113330547D01*
X138227920Y-113361824D01*
X138219510Y-113389545D01*
X138205856Y-113415089D01*
X138187480Y-113437480D01*
X138165089Y-113455856D01*
X138139545Y-113469510D01*
X138111824Y-113477920D01*
X138080547Y-113481000D01*
X137689453Y-113481000D01*
X137658176Y-113477920D01*
X137630455Y-113469510D01*
X137604911Y-113455856D01*
X137582520Y-113437480D01*
X137564144Y-113415089D01*
X137550490Y-113389545D01*
X137542080Y-113361824D01*
X137539000Y-113330547D01*
X137539000Y-112889453D01*
X137542080Y-112858176D01*
X137550490Y-112830455D01*
X137564144Y-112804911D01*
X137582520Y-112782520D01*
X137604911Y-112764144D01*
X137630455Y-112750490D01*
X137658176Y-112742080D01*
X137689453Y-112739000D01*
X138080547Y-112739000D01*
X138111824Y-112742080D01*
G37*
G36*
X149587124Y-112733780D02*
G01*
X149614845Y-112742190D01*
X149640389Y-112755844D01*
X149662780Y-112774220D01*
X149681156Y-112796611D01*
X149694810Y-112822155D01*
X149703220Y-112849876D01*
X149706300Y-112881153D01*
X149706300Y-113322247D01*
X149703220Y-113353524D01*
X149694810Y-113381245D01*
X149681156Y-113406789D01*
X149662780Y-113429180D01*
X149640389Y-113447556D01*
X149614845Y-113461210D01*
X149587124Y-113469620D01*
X149555847Y-113472700D01*
X149164753Y-113472700D01*
X149133476Y-113469620D01*
X149105755Y-113461210D01*
X149080211Y-113447556D01*
X149057820Y-113429180D01*
X149039444Y-113406789D01*
X149025790Y-113381245D01*
X149017380Y-113353524D01*
X149014300Y-113322247D01*
X149014300Y-112881153D01*
X149017380Y-112849876D01*
X149025790Y-112822155D01*
X149039444Y-112796611D01*
X149057820Y-112774220D01*
X149080211Y-112755844D01*
X149105755Y-112742190D01*
X149133476Y-112733780D01*
X149164753Y-112730700D01*
X149555847Y-112730700D01*
X149587124Y-112733780D01*
G37*
G36*
X150557124Y-112733780D02*
G01*
X150584845Y-112742190D01*
X150610389Y-112755844D01*
X150632780Y-112774220D01*
X150651156Y-112796611D01*
X150664810Y-112822155D01*
X150673220Y-112849876D01*
X150676300Y-112881153D01*
X150676300Y-113322247D01*
X150673220Y-113353524D01*
X150664810Y-113381245D01*
X150651156Y-113406789D01*
X150632780Y-113429180D01*
X150610389Y-113447556D01*
X150584845Y-113461210D01*
X150557124Y-113469620D01*
X150525847Y-113472700D01*
X150134753Y-113472700D01*
X150103476Y-113469620D01*
X150075755Y-113461210D01*
X150050211Y-113447556D01*
X150027820Y-113429180D01*
X150009444Y-113406789D01*
X149995790Y-113381245D01*
X149987380Y-113353524D01*
X149984300Y-113322247D01*
X149984300Y-112881153D01*
X149987380Y-112849876D01*
X149995790Y-112822155D01*
X150009444Y-112796611D01*
X150027820Y-112774220D01*
X150050211Y-112755844D01*
X150075755Y-112742190D01*
X150103476Y-112733780D01*
X150134753Y-112730700D01*
X150525847Y-112730700D01*
X150557124Y-112733780D01*
G37*
G36*
X161433142Y-111842242D02*
G01*
X161581098Y-111903528D01*
X161581100Y-111903529D01*
X161714257Y-111992501D01*
X161827499Y-112105743D01*
X161916471Y-112238900D01*
X161916472Y-112238902D01*
X161977758Y-112386858D01*
X162009000Y-112543925D01*
X162009000Y-112704073D01*
X161977758Y-112861142D01*
X161916472Y-113009098D01*
X161916471Y-113009100D01*
X161827499Y-113142257D01*
X161714257Y-113255499D01*
X161581100Y-113344471D01*
X161581099Y-113344472D01*
X161581098Y-113344472D01*
X161433142Y-113405758D01*
X161276075Y-113437000D01*
X161115925Y-113437000D01*
X160958858Y-113405758D01*
X160810902Y-113344472D01*
X160810901Y-113344472D01*
X160810900Y-113344471D01*
X160677743Y-113255499D01*
X160564501Y-113142257D01*
X160475529Y-113009100D01*
X160475528Y-113009098D01*
X160414242Y-112861142D01*
X160383000Y-112704073D01*
X160383000Y-112543925D01*
X160414242Y-112386858D01*
X160475528Y-112238902D01*
X160475529Y-112238900D01*
X160564501Y-112105743D01*
X160677743Y-111992501D01*
X160810900Y-111903529D01*
X160810902Y-111903528D01*
X160958858Y-111842242D01*
X161115925Y-111811000D01*
X161276075Y-111811000D01*
X161433142Y-111842242D01*
G37*
G36*
X167522124Y-112243780D02*
G01*
X167549845Y-112252190D01*
X167575389Y-112265844D01*
X167597780Y-112284220D01*
X167616156Y-112306611D01*
X167629810Y-112332155D01*
X167638220Y-112359876D01*
X167641300Y-112391153D01*
X167641300Y-112782247D01*
X167638220Y-112813524D01*
X167629810Y-112841245D01*
X167616156Y-112866789D01*
X167597780Y-112889180D01*
X167575389Y-112907556D01*
X167549845Y-112921210D01*
X167522124Y-112929620D01*
X167490847Y-112932700D01*
X167049753Y-112932700D01*
X167018476Y-112929620D01*
X166990755Y-112921210D01*
X166965211Y-112907556D01*
X166942820Y-112889180D01*
X166924444Y-112866789D01*
X166910790Y-112841245D01*
X166902380Y-112813524D01*
X166899300Y-112782247D01*
X166899300Y-112391153D01*
X166902380Y-112359876D01*
X166910790Y-112332155D01*
X166924444Y-112306611D01*
X166942820Y-112284220D01*
X166965211Y-112265844D01*
X166990755Y-112252190D01*
X167018476Y-112243780D01*
X167049753Y-112240700D01*
X167490847Y-112240700D01*
X167522124Y-112243780D01*
G37*
G36*
X168631824Y-112242080D02*
G01*
X168659545Y-112250490D01*
X168685089Y-112264144D01*
X168707480Y-112282520D01*
X168725856Y-112304911D01*
X168739510Y-112330455D01*
X168747920Y-112358176D01*
X168751000Y-112389453D01*
X168751000Y-112780547D01*
X168747920Y-112811824D01*
X168739510Y-112839545D01*
X168725856Y-112865089D01*
X168707480Y-112887480D01*
X168685089Y-112905856D01*
X168659545Y-112919510D01*
X168631824Y-112927920D01*
X168600547Y-112931000D01*
X168159453Y-112931000D01*
X168128176Y-112927920D01*
X168100455Y-112919510D01*
X168074911Y-112905856D01*
X168052520Y-112887480D01*
X168034144Y-112865089D01*
X168020490Y-112839545D01*
X168012080Y-112811824D01*
X168009000Y-112780547D01*
X168009000Y-112389453D01*
X168012080Y-112358176D01*
X168020490Y-112330455D01*
X168034144Y-112304911D01*
X168052520Y-112282520D01*
X168074911Y-112264144D01*
X168100455Y-112250490D01*
X168128176Y-112242080D01*
X168159453Y-112239000D01*
X168600547Y-112239000D01*
X168631824Y-112242080D01*
G37*
G36*
X158941000Y-112611000D02*
G01*
X155039000Y-112611000D01*
X155039000Y-111709000D01*
X158941000Y-111709000D01*
X158941000Y-112611000D01*
G37*
G36*
X147201000Y-112606000D02*
G01*
X145599000Y-112606000D01*
X145599000Y-112004000D01*
X147201000Y-112004000D01*
X147201000Y-112606000D01*
G37*
G36*
X141201000Y-112606000D02*
G01*
X139599000Y-112606000D01*
X139599000Y-112004000D01*
X141201000Y-112004000D01*
X141201000Y-112606000D01*
G37*
G36*
X166471300Y-112602700D02*
G01*
X165569300Y-112602700D01*
X165569300Y-111700700D01*
X166471300Y-111700700D01*
X166471300Y-112602700D01*
G37*
G36*
X164221300Y-112602700D02*
G01*
X163319300Y-112602700D01*
X163319300Y-111700700D01*
X164221300Y-111700700D01*
X164221300Y-112602700D01*
G37*
G36*
X153747124Y-111898780D02*
G01*
X153774845Y-111907190D01*
X153800389Y-111920844D01*
X153822780Y-111939220D01*
X153841156Y-111961611D01*
X153854810Y-111987155D01*
X153863220Y-112014876D01*
X153866300Y-112046153D01*
X153866300Y-112437247D01*
X153863220Y-112468524D01*
X153854810Y-112496245D01*
X153841156Y-112521789D01*
X153822780Y-112544180D01*
X153800389Y-112562556D01*
X153774845Y-112576210D01*
X153747124Y-112584620D01*
X153715847Y-112587700D01*
X153274753Y-112587700D01*
X153243476Y-112584620D01*
X153215755Y-112576210D01*
X153190211Y-112562556D01*
X153167820Y-112544180D01*
X153149444Y-112521789D01*
X153135790Y-112496245D01*
X153127380Y-112468524D01*
X153124300Y-112437247D01*
X153124300Y-112046153D01*
X153127380Y-112014876D01*
X153135790Y-111987155D01*
X153149444Y-111961611D01*
X153167820Y-111939220D01*
X153190211Y-111920844D01*
X153215755Y-111907190D01*
X153243476Y-111898780D01*
X153274753Y-111895700D01*
X153715847Y-111895700D01*
X153747124Y-111898780D01*
G37*
G36*
X151822124Y-111823780D02*
G01*
X151849845Y-111832190D01*
X151875389Y-111845844D01*
X151897780Y-111864220D01*
X151916156Y-111886611D01*
X151929810Y-111912155D01*
X151938220Y-111939876D01*
X151941300Y-111971153D01*
X151941300Y-112362247D01*
X151938220Y-112393524D01*
X151929810Y-112421245D01*
X151916156Y-112446789D01*
X151897780Y-112469180D01*
X151875389Y-112487556D01*
X151849845Y-112501210D01*
X151822124Y-112509620D01*
X151790847Y-112512700D01*
X151349753Y-112512700D01*
X151318476Y-112509620D01*
X151290755Y-112501210D01*
X151265211Y-112487556D01*
X151242820Y-112469180D01*
X151224444Y-112446789D01*
X151210790Y-112421245D01*
X151202380Y-112393524D01*
X151199300Y-112362247D01*
X151199300Y-111971153D01*
X151202380Y-111939876D01*
X151210790Y-111912155D01*
X151224444Y-111886611D01*
X151242820Y-111864220D01*
X151265211Y-111845844D01*
X151290755Y-111832190D01*
X151318476Y-111823780D01*
X151349753Y-111820700D01*
X151790847Y-111820700D01*
X151822124Y-111823780D01*
G37*
G36*
X145151000Y-112451000D02*
G01*
X141649000Y-112451000D01*
X141649000Y-108349000D01*
X145151000Y-108349000D01*
X145151000Y-112451000D01*
G37*
G36*
X150722124Y-111693780D02*
G01*
X150749845Y-111702190D01*
X150775389Y-111715844D01*
X150797780Y-111734220D01*
X150816156Y-111756611D01*
X150829810Y-111782155D01*
X150838220Y-111809876D01*
X150841300Y-111841153D01*
X150841300Y-112232247D01*
X150838220Y-112263524D01*
X150829810Y-112291245D01*
X150816156Y-112316789D01*
X150797780Y-112339180D01*
X150775389Y-112357556D01*
X150749845Y-112371210D01*
X150722124Y-112379620D01*
X150690847Y-112382700D01*
X150249753Y-112382700D01*
X150218476Y-112379620D01*
X150190755Y-112371210D01*
X150165211Y-112357556D01*
X150142820Y-112339180D01*
X150124444Y-112316789D01*
X150110790Y-112291245D01*
X150102380Y-112263524D01*
X150099300Y-112232247D01*
X150099300Y-111841153D01*
X150102380Y-111809876D01*
X150110790Y-111782155D01*
X150124444Y-111756611D01*
X150142820Y-111734220D01*
X150165211Y-111715844D01*
X150190755Y-111702190D01*
X150218476Y-111693780D01*
X150249753Y-111690700D01*
X150690847Y-111690700D01*
X150722124Y-111693780D01*
G37*
G36*
X149611824Y-111682080D02*
G01*
X149639545Y-111690490D01*
X149665089Y-111704144D01*
X149687480Y-111722520D01*
X149705856Y-111744911D01*
X149719510Y-111770455D01*
X149727920Y-111798176D01*
X149731000Y-111829453D01*
X149731000Y-112220547D01*
X149727920Y-112251824D01*
X149719510Y-112279545D01*
X149705856Y-112305089D01*
X149687480Y-112327480D01*
X149665089Y-112345856D01*
X149639545Y-112359510D01*
X149611824Y-112367920D01*
X149580547Y-112371000D01*
X149139453Y-112371000D01*
X149108176Y-112367920D01*
X149080455Y-112359510D01*
X149054911Y-112345856D01*
X149032520Y-112327480D01*
X149014144Y-112305089D01*
X149000490Y-112279545D01*
X148992080Y-112251824D01*
X148989000Y-112220547D01*
X148989000Y-111829453D01*
X148992080Y-111798176D01*
X149000490Y-111770455D01*
X149014144Y-111744911D01*
X149032520Y-111722520D01*
X149054911Y-111704144D01*
X149080455Y-111690490D01*
X149108176Y-111682080D01*
X149139453Y-111679000D01*
X149580547Y-111679000D01*
X149611824Y-111682080D01*
G37*
G36*
X148501824Y-111662080D02*
G01*
X148529545Y-111670490D01*
X148555089Y-111684144D01*
X148577480Y-111702520D01*
X148595856Y-111724911D01*
X148609510Y-111750455D01*
X148617920Y-111778176D01*
X148621000Y-111809453D01*
X148621000Y-112200547D01*
X148617920Y-112231824D01*
X148609510Y-112259545D01*
X148595856Y-112285089D01*
X148577480Y-112307480D01*
X148555089Y-112325856D01*
X148529545Y-112339510D01*
X148501824Y-112347920D01*
X148470547Y-112351000D01*
X148029453Y-112351000D01*
X147998176Y-112347920D01*
X147970455Y-112339510D01*
X147944911Y-112325856D01*
X147922520Y-112307480D01*
X147904144Y-112285089D01*
X147890490Y-112259545D01*
X147882080Y-112231824D01*
X147879000Y-112200547D01*
X147879000Y-111809453D01*
X147882080Y-111778176D01*
X147890490Y-111750455D01*
X147904144Y-111724911D01*
X147922520Y-111702520D01*
X147944911Y-111684144D01*
X147970455Y-111670490D01*
X147998176Y-111662080D01*
X148029453Y-111659000D01*
X148470547Y-111659000D01*
X148501824Y-111662080D01*
G37*
G36*
X139231000Y-112231000D02*
G01*
X137529000Y-112231000D01*
X137529000Y-111029000D01*
X139231000Y-111029000D01*
X139231000Y-112231000D01*
G37*
G36*
X137131000Y-112231000D02*
G01*
X136229000Y-112231000D01*
X136229000Y-111529000D01*
X137131000Y-111529000D01*
X137131000Y-112231000D01*
G37*
G36*
X135631824Y-111522080D02*
G01*
X135659545Y-111530490D01*
X135685089Y-111544144D01*
X135707480Y-111562520D01*
X135725856Y-111584911D01*
X135739510Y-111610455D01*
X135747920Y-111638176D01*
X135751000Y-111669453D01*
X135751000Y-112060547D01*
X135747920Y-112091824D01*
X135739510Y-112119545D01*
X135725856Y-112145089D01*
X135707480Y-112167480D01*
X135685089Y-112185856D01*
X135659545Y-112199510D01*
X135631824Y-112207920D01*
X135600547Y-112211000D01*
X135159453Y-112211000D01*
X135128176Y-112207920D01*
X135100455Y-112199510D01*
X135074911Y-112185856D01*
X135052520Y-112167480D01*
X135034144Y-112145089D01*
X135020490Y-112119545D01*
X135012080Y-112091824D01*
X135009000Y-112060547D01*
X135009000Y-111669453D01*
X135012080Y-111638176D01*
X135020490Y-111610455D01*
X135034144Y-111584911D01*
X135052520Y-111562520D01*
X135074911Y-111544144D01*
X135100455Y-111530490D01*
X135128176Y-111522080D01*
X135159453Y-111519000D01*
X135600547Y-111519000D01*
X135631824Y-111522080D01*
G37*
G36*
X167522124Y-111273780D02*
G01*
X167549845Y-111282190D01*
X167575389Y-111295844D01*
X167597780Y-111314220D01*
X167616156Y-111336611D01*
X167629810Y-111362155D01*
X167638220Y-111389876D01*
X167641300Y-111421153D01*
X167641300Y-111812247D01*
X167638220Y-111843524D01*
X167629810Y-111871245D01*
X167616156Y-111896789D01*
X167597780Y-111919180D01*
X167575389Y-111937556D01*
X167549845Y-111951210D01*
X167522124Y-111959620D01*
X167490847Y-111962700D01*
X167049753Y-111962700D01*
X167018476Y-111959620D01*
X166990755Y-111951210D01*
X166965211Y-111937556D01*
X166942820Y-111919180D01*
X166924444Y-111896789D01*
X166910790Y-111871245D01*
X166902380Y-111843524D01*
X166899300Y-111812247D01*
X166899300Y-111421153D01*
X166902380Y-111389876D01*
X166910790Y-111362155D01*
X166924444Y-111336611D01*
X166942820Y-111314220D01*
X166965211Y-111295844D01*
X166990755Y-111282190D01*
X167018476Y-111273780D01*
X167049753Y-111270700D01*
X167490847Y-111270700D01*
X167522124Y-111273780D01*
G37*
G36*
X168631824Y-111272080D02*
G01*
X168659545Y-111280490D01*
X168685089Y-111294144D01*
X168707480Y-111312520D01*
X168725856Y-111334911D01*
X168739510Y-111360455D01*
X168747920Y-111388176D01*
X168751000Y-111419453D01*
X168751000Y-111810547D01*
X168747920Y-111841824D01*
X168739510Y-111869545D01*
X168725856Y-111895089D01*
X168707480Y-111917480D01*
X168685089Y-111935856D01*
X168659545Y-111949510D01*
X168631824Y-111957920D01*
X168600547Y-111961000D01*
X168159453Y-111961000D01*
X168128176Y-111957920D01*
X168100455Y-111949510D01*
X168074911Y-111935856D01*
X168052520Y-111917480D01*
X168034144Y-111895089D01*
X168020490Y-111869545D01*
X168012080Y-111841824D01*
X168009000Y-111810547D01*
X168009000Y-111419453D01*
X168012080Y-111388176D01*
X168020490Y-111360455D01*
X168034144Y-111334911D01*
X168052520Y-111312520D01*
X168074911Y-111294144D01*
X168100455Y-111280490D01*
X168128176Y-111272080D01*
X168159453Y-111269000D01*
X168600547Y-111269000D01*
X168631824Y-111272080D01*
G37*
G36*
X134381000Y-111901000D02*
G01*
X133379000Y-111901000D01*
X133379000Y-110799000D01*
X134381000Y-110799000D01*
X134381000Y-111901000D01*
G37*
G36*
X130281000Y-111901000D02*
G01*
X129279000Y-111901000D01*
X129279000Y-110799000D01*
X130281000Y-110799000D01*
X130281000Y-111901000D01*
G37*
G36*
X126122124Y-110843780D02*
G01*
X126149845Y-110852190D01*
X126175389Y-110865844D01*
X126197780Y-110884220D01*
X126216156Y-110906611D01*
X126229810Y-110932155D01*
X126238220Y-110959876D01*
X126241300Y-110991153D01*
X126241300Y-111382247D01*
X126238220Y-111413524D01*
X126229810Y-111441245D01*
X126216156Y-111466789D01*
X126197780Y-111489180D01*
X126175389Y-111507556D01*
X126149845Y-111521210D01*
X126122124Y-111529620D01*
X126090847Y-111532700D01*
X125649753Y-111532700D01*
X125618476Y-111529620D01*
X125590755Y-111521210D01*
X125565211Y-111507556D01*
X125542820Y-111489180D01*
X125524444Y-111466789D01*
X125510790Y-111441245D01*
X125502380Y-111413524D01*
X125499300Y-111382247D01*
X125499300Y-110991153D01*
X125502380Y-110959876D01*
X125510790Y-110932155D01*
X125524444Y-110906611D01*
X125542820Y-110884220D01*
X125565211Y-110865844D01*
X125590755Y-110852190D01*
X125618476Y-110843780D01*
X125649753Y-110840700D01*
X126090847Y-110840700D01*
X126122124Y-110843780D01*
G37*
G36*
X125051824Y-110832080D02*
G01*
X125079545Y-110840490D01*
X125105089Y-110854144D01*
X125127480Y-110872520D01*
X125145856Y-110894911D01*
X125159510Y-110920455D01*
X125167920Y-110948176D01*
X125171000Y-110979453D01*
X125171000Y-111370547D01*
X125167920Y-111401824D01*
X125159510Y-111429545D01*
X125145856Y-111455089D01*
X125127480Y-111477480D01*
X125105089Y-111495856D01*
X125079545Y-111509510D01*
X125051824Y-111517920D01*
X125020547Y-111521000D01*
X124579453Y-111521000D01*
X124548176Y-111517920D01*
X124520455Y-111509510D01*
X124494911Y-111495856D01*
X124472520Y-111477480D01*
X124454144Y-111455089D01*
X124440490Y-111429545D01*
X124432080Y-111401824D01*
X124429000Y-111370547D01*
X124429000Y-110979453D01*
X124432080Y-110948176D01*
X124440490Y-110920455D01*
X124454144Y-110894911D01*
X124472520Y-110872520D01*
X124494911Y-110854144D01*
X124520455Y-110840490D01*
X124548176Y-110832080D01*
X124579453Y-110829000D01*
X125020547Y-110829000D01*
X125051824Y-110832080D01*
G37*
G36*
X127201300Y-111452700D02*
G01*
X126589300Y-111452700D01*
X126589300Y-110950700D01*
X127201300Y-110950700D01*
X127201300Y-111452700D01*
G37*
G36*
X150722124Y-110723780D02*
G01*
X150749845Y-110732190D01*
X150775389Y-110745844D01*
X150797780Y-110764220D01*
X150816156Y-110786611D01*
X150829810Y-110812155D01*
X150838220Y-110839876D01*
X150841300Y-110871153D01*
X150841300Y-111262247D01*
X150838220Y-111293524D01*
X150829810Y-111321245D01*
X150816156Y-111346789D01*
X150797780Y-111369180D01*
X150775389Y-111387556D01*
X150749845Y-111401210D01*
X150722124Y-111409620D01*
X150690847Y-111412700D01*
X150249753Y-111412700D01*
X150218476Y-111409620D01*
X150190755Y-111401210D01*
X150165211Y-111387556D01*
X150142820Y-111369180D01*
X150124444Y-111346789D01*
X150110790Y-111321245D01*
X150102380Y-111293524D01*
X150099300Y-111262247D01*
X150099300Y-110871153D01*
X150102380Y-110839876D01*
X150110790Y-110812155D01*
X150124444Y-110786611D01*
X150142820Y-110764220D01*
X150165211Y-110745844D01*
X150190755Y-110732190D01*
X150218476Y-110723780D01*
X150249753Y-110720700D01*
X150690847Y-110720700D01*
X150722124Y-110723780D01*
G37*
G36*
X149611824Y-110712080D02*
G01*
X149639545Y-110720490D01*
X149665089Y-110734144D01*
X149687480Y-110752520D01*
X149705856Y-110774911D01*
X149719510Y-110800455D01*
X149727920Y-110828176D01*
X149731000Y-110859453D01*
X149731000Y-111250547D01*
X149727920Y-111281824D01*
X149719510Y-111309545D01*
X149705856Y-111335089D01*
X149687480Y-111357480D01*
X149665089Y-111375856D01*
X149639545Y-111389510D01*
X149611824Y-111397920D01*
X149580547Y-111401000D01*
X149139453Y-111401000D01*
X149108176Y-111397920D01*
X149080455Y-111389510D01*
X149054911Y-111375856D01*
X149032520Y-111357480D01*
X149014144Y-111335089D01*
X149000490Y-111309545D01*
X148992080Y-111281824D01*
X148989000Y-111250547D01*
X148989000Y-110859453D01*
X148992080Y-110828176D01*
X149000490Y-110800455D01*
X149014144Y-110774911D01*
X149032520Y-110752520D01*
X149054911Y-110734144D01*
X149080455Y-110720490D01*
X149108176Y-110712080D01*
X149139453Y-110709000D01*
X149580547Y-110709000D01*
X149611824Y-110712080D01*
G37*
G36*
X148501824Y-110692080D02*
G01*
X148529545Y-110700490D01*
X148555089Y-110714144D01*
X148577480Y-110732520D01*
X148595856Y-110754911D01*
X148609510Y-110780455D01*
X148617920Y-110808176D01*
X148621000Y-110839453D01*
X148621000Y-111230547D01*
X148617920Y-111261824D01*
X148609510Y-111289545D01*
X148595856Y-111315089D01*
X148577480Y-111337480D01*
X148555089Y-111355856D01*
X148529545Y-111369510D01*
X148501824Y-111377920D01*
X148470547Y-111381000D01*
X148029453Y-111381000D01*
X147998176Y-111377920D01*
X147970455Y-111369510D01*
X147944911Y-111355856D01*
X147922520Y-111337480D01*
X147904144Y-111315089D01*
X147890490Y-111289545D01*
X147882080Y-111261824D01*
X147879000Y-111230547D01*
X147879000Y-110839453D01*
X147882080Y-110808176D01*
X147890490Y-110780455D01*
X147904144Y-110754911D01*
X147922520Y-110732520D01*
X147944911Y-110714144D01*
X147970455Y-110700490D01*
X147998176Y-110692080D01*
X148029453Y-110689000D01*
X148470547Y-110689000D01*
X148501824Y-110692080D01*
G37*
G36*
X147201000Y-111336000D02*
G01*
X145599000Y-111336000D01*
X145599000Y-110734000D01*
X147201000Y-110734000D01*
X147201000Y-111336000D01*
G37*
G36*
X141201000Y-111336000D02*
G01*
X139599000Y-111336000D01*
X139599000Y-110734000D01*
X141201000Y-110734000D01*
X141201000Y-111336000D01*
G37*
G36*
X135631824Y-110552080D02*
G01*
X135659545Y-110560490D01*
X135685089Y-110574144D01*
X135707480Y-110592520D01*
X135725856Y-110614911D01*
X135739510Y-110640455D01*
X135747920Y-110668176D01*
X135751000Y-110699453D01*
X135751000Y-111090547D01*
X135747920Y-111121824D01*
X135739510Y-111149545D01*
X135725856Y-111175089D01*
X135707480Y-111197480D01*
X135685089Y-111215856D01*
X135659545Y-111229510D01*
X135631824Y-111237920D01*
X135600547Y-111241000D01*
X135159453Y-111241000D01*
X135128176Y-111237920D01*
X135100455Y-111229510D01*
X135074911Y-111215856D01*
X135052520Y-111197480D01*
X135034144Y-111175089D01*
X135020490Y-111149545D01*
X135012080Y-111121824D01*
X135009000Y-111090547D01*
X135009000Y-110699453D01*
X135012080Y-110668176D01*
X135020490Y-110640455D01*
X135034144Y-110614911D01*
X135052520Y-110592520D01*
X135074911Y-110574144D01*
X135100455Y-110560490D01*
X135128176Y-110552080D01*
X135159453Y-110549000D01*
X135600547Y-110549000D01*
X135631824Y-110552080D01*
G37*
G36*
X153199336Y-110516040D02*
G01*
X152936292Y-110779084D01*
X152748902Y-110591694D01*
X152741331Y-110585481D01*
X152732687Y-110580861D01*
X152723307Y-110578016D01*
X152713553Y-110577055D01*
X152703799Y-110578016D01*
X152694419Y-110580861D01*
X152685775Y-110585481D01*
X152678198Y-110591699D01*
X152676077Y-110593821D01*
X152137261Y-111132637D01*
X151874217Y-110869593D01*
X152413033Y-110330777D01*
X152413034Y-110330778D01*
X152415155Y-110328656D01*
X152421373Y-110321079D01*
X152425993Y-110312435D01*
X152428838Y-110303055D01*
X152429799Y-110293301D01*
X152428838Y-110283547D01*
X152425993Y-110274167D01*
X152421373Y-110265523D01*
X152415160Y-110257952D01*
X152395349Y-110238141D01*
X152387778Y-110231928D01*
X152379134Y-110227308D01*
X152369754Y-110224463D01*
X152360000Y-110223502D01*
X152350246Y-110224463D01*
X152340866Y-110227308D01*
X152332222Y-110231928D01*
X152324651Y-110238141D01*
X151783708Y-110779084D01*
X151520664Y-110516040D01*
X152087764Y-109948940D01*
X152324651Y-110185827D01*
X152332222Y-110192040D01*
X152340866Y-110196660D01*
X152350246Y-110199505D01*
X152360000Y-110200466D01*
X152369754Y-110199505D01*
X152379134Y-110196660D01*
X152387778Y-110192040D01*
X152395349Y-110185827D01*
X152632236Y-109948940D01*
X153199336Y-110516040D01*
G37*
G36*
X177970312Y-109228164D02*
G01*
X178037326Y-109255922D01*
X178132098Y-109295178D01*
X178277703Y-109392468D01*
X178401532Y-109516297D01*
X178498822Y-109661902D01*
X178526802Y-109729453D01*
X178565836Y-109823688D01*
X178600000Y-109995441D01*
X178600000Y-110170559D01*
X178565836Y-110342312D01*
X178551053Y-110378000D01*
X178498822Y-110504098D01*
X178401532Y-110649703D01*
X178277703Y-110773532D01*
X178132098Y-110870822D01*
X178045695Y-110906611D01*
X177970312Y-110937836D01*
X177798559Y-110972000D01*
X177623441Y-110972000D01*
X177451688Y-110937836D01*
X177376305Y-110906611D01*
X177289902Y-110870822D01*
X177144297Y-110773532D01*
X177020468Y-110649703D01*
X176923178Y-110504098D01*
X176870947Y-110378000D01*
X176856164Y-110342312D01*
X176822000Y-110170559D01*
X176822000Y-109995441D01*
X176856164Y-109823688D01*
X176895198Y-109729453D01*
X176923178Y-109661902D01*
X177020468Y-109516297D01*
X177144297Y-109392468D01*
X177289902Y-109295178D01*
X177384674Y-109255922D01*
X177451688Y-109228164D01*
X177623441Y-109194000D01*
X177798559Y-109194000D01*
X177970312Y-109228164D01*
G37*
G36*
X175430312Y-109228164D02*
G01*
X175497326Y-109255922D01*
X175592098Y-109295178D01*
X175737703Y-109392468D01*
X175861532Y-109516297D01*
X175958822Y-109661902D01*
X175986802Y-109729453D01*
X176025836Y-109823688D01*
X176060000Y-109995441D01*
X176060000Y-110170559D01*
X176025836Y-110342312D01*
X176011053Y-110378000D01*
X175958822Y-110504098D01*
X175861532Y-110649703D01*
X175737703Y-110773532D01*
X175592098Y-110870822D01*
X175505695Y-110906611D01*
X175430312Y-110937836D01*
X175258559Y-110972000D01*
X175083441Y-110972000D01*
X174911688Y-110937836D01*
X174836305Y-110906611D01*
X174749902Y-110870822D01*
X174604297Y-110773532D01*
X174480468Y-110649703D01*
X174383178Y-110504098D01*
X174330947Y-110378000D01*
X174316164Y-110342312D01*
X174282000Y-110170559D01*
X174282000Y-109995441D01*
X174316164Y-109823688D01*
X174355198Y-109729453D01*
X174383178Y-109661902D01*
X174480468Y-109516297D01*
X174604297Y-109392468D01*
X174749902Y-109295178D01*
X174844674Y-109255922D01*
X174911688Y-109228164D01*
X175083441Y-109194000D01*
X175258559Y-109194000D01*
X175430312Y-109228164D01*
G37*
G36*
X128501300Y-110952700D02*
G01*
X127889300Y-110952700D01*
X127889300Y-110450700D01*
X128501300Y-110450700D01*
X128501300Y-110952700D01*
G37*
G36*
X161101824Y-110172080D02*
G01*
X161129545Y-110180490D01*
X161155089Y-110194144D01*
X161177480Y-110212520D01*
X161195856Y-110234911D01*
X161209510Y-110260455D01*
X161217920Y-110288176D01*
X161221000Y-110319453D01*
X161221000Y-110710547D01*
X161217920Y-110741824D01*
X161209510Y-110769545D01*
X161195856Y-110795089D01*
X161177480Y-110817480D01*
X161155089Y-110835856D01*
X161129545Y-110849510D01*
X161101824Y-110857920D01*
X161070547Y-110861000D01*
X160629453Y-110861000D01*
X160598176Y-110857920D01*
X160570455Y-110849510D01*
X160544911Y-110835856D01*
X160522520Y-110817480D01*
X160504144Y-110795089D01*
X160490490Y-110769545D01*
X160482080Y-110741824D01*
X160479000Y-110710547D01*
X160479000Y-110319453D01*
X160482080Y-110288176D01*
X160490490Y-110260455D01*
X160504144Y-110234911D01*
X160522520Y-110212520D01*
X160544911Y-110194144D01*
X160570455Y-110180490D01*
X160598176Y-110172080D01*
X160629453Y-110169000D01*
X161070547Y-110169000D01*
X161101824Y-110172080D01*
G37*
G36*
X137131000Y-110831000D02*
G01*
X136229000Y-110831000D01*
X136229000Y-110129000D01*
X137131000Y-110129000D01*
X137131000Y-110831000D01*
G37*
G36*
X158941000Y-110811000D02*
G01*
X155039000Y-110811000D01*
X155039000Y-109909000D01*
X158941000Y-109909000D01*
X158941000Y-110811000D01*
G37*
G36*
X162580000Y-110795000D02*
G01*
X162180000Y-110795000D01*
X162180000Y-110395000D01*
X162580000Y-110395000D01*
X162580000Y-110795000D01*
G37*
G36*
X126122124Y-109873780D02*
G01*
X126149845Y-109882190D01*
X126175389Y-109895844D01*
X126197780Y-109914220D01*
X126216156Y-109936611D01*
X126229810Y-109962155D01*
X126238220Y-109989876D01*
X126241300Y-110021153D01*
X126241300Y-110412247D01*
X126238220Y-110443524D01*
X126229810Y-110471245D01*
X126216156Y-110496789D01*
X126197780Y-110519180D01*
X126175389Y-110537556D01*
X126149845Y-110551210D01*
X126122124Y-110559620D01*
X126090847Y-110562700D01*
X125649753Y-110562700D01*
X125618476Y-110559620D01*
X125590755Y-110551210D01*
X125565211Y-110537556D01*
X125542820Y-110519180D01*
X125524444Y-110496789D01*
X125510790Y-110471245D01*
X125502380Y-110443524D01*
X125499300Y-110412247D01*
X125499300Y-110021153D01*
X125502380Y-109989876D01*
X125510790Y-109962155D01*
X125524444Y-109936611D01*
X125542820Y-109914220D01*
X125565211Y-109895844D01*
X125590755Y-109882190D01*
X125618476Y-109873780D01*
X125649753Y-109870700D01*
X126090847Y-109870700D01*
X126122124Y-109873780D01*
G37*
G36*
X125051824Y-109862080D02*
G01*
X125079545Y-109870490D01*
X125105089Y-109884144D01*
X125127480Y-109902520D01*
X125145856Y-109924911D01*
X125159510Y-109950455D01*
X125167920Y-109978176D01*
X125171000Y-110009453D01*
X125171000Y-110400547D01*
X125167920Y-110431824D01*
X125159510Y-110459545D01*
X125145856Y-110485089D01*
X125127480Y-110507480D01*
X125105089Y-110525856D01*
X125079545Y-110539510D01*
X125051824Y-110547920D01*
X125020547Y-110551000D01*
X124579453Y-110551000D01*
X124548176Y-110547920D01*
X124520455Y-110539510D01*
X124494911Y-110525856D01*
X124472520Y-110507480D01*
X124454144Y-110485089D01*
X124440490Y-110459545D01*
X124432080Y-110431824D01*
X124429000Y-110400547D01*
X124429000Y-110009453D01*
X124432080Y-109978176D01*
X124440490Y-109950455D01*
X124454144Y-109924911D01*
X124472520Y-109902520D01*
X124494911Y-109884144D01*
X124520455Y-109870490D01*
X124548176Y-109862080D01*
X124579453Y-109859000D01*
X125020547Y-109859000D01*
X125051824Y-109862080D01*
G37*
G36*
X166571000Y-110504600D02*
G01*
X163679000Y-110504600D01*
X163679000Y-109662600D01*
X166571000Y-109662600D01*
X166571000Y-110504600D01*
G37*
G36*
X170641000Y-110504600D02*
G01*
X167749000Y-110504600D01*
X167749000Y-109662600D01*
X170641000Y-109662600D01*
X170641000Y-110504600D01*
G37*
G36*
X127201300Y-110452700D02*
G01*
X126589300Y-110452700D01*
X126589300Y-109950700D01*
X127201300Y-109950700D01*
X127201300Y-110452700D01*
G37*
G36*
X139231000Y-110431000D02*
G01*
X137529000Y-110431000D01*
X137529000Y-109229000D01*
X139231000Y-109229000D01*
X139231000Y-110431000D01*
G37*
G36*
X153552889Y-110162486D02*
G01*
X153289845Y-110425530D01*
X152722745Y-109858430D01*
X152985789Y-109595386D01*
X153552889Y-110162486D01*
G37*
G36*
X151997255Y-109858430D02*
G01*
X151430155Y-110425530D01*
X151167111Y-110162486D01*
X151734211Y-109595386D01*
X151997255Y-109858430D01*
G37*
G36*
X135651824Y-109582080D02*
G01*
X135679545Y-109590490D01*
X135705089Y-109604144D01*
X135727480Y-109622520D01*
X135745856Y-109644911D01*
X135759510Y-109670455D01*
X135767920Y-109698176D01*
X135771000Y-109729453D01*
X135771000Y-110120547D01*
X135767920Y-110151824D01*
X135759510Y-110179545D01*
X135745856Y-110205089D01*
X135727480Y-110227480D01*
X135705089Y-110245856D01*
X135679545Y-110259510D01*
X135651824Y-110267920D01*
X135620547Y-110271000D01*
X135179453Y-110271000D01*
X135148176Y-110267920D01*
X135120455Y-110259510D01*
X135094911Y-110245856D01*
X135072520Y-110227480D01*
X135054144Y-110205089D01*
X135040490Y-110179545D01*
X135032080Y-110151824D01*
X135029000Y-110120547D01*
X135029000Y-109729453D01*
X135032080Y-109698176D01*
X135040490Y-109670455D01*
X135054144Y-109644911D01*
X135072520Y-109622520D01*
X135094911Y-109604144D01*
X135120455Y-109590490D01*
X135148176Y-109582080D01*
X135179453Y-109579000D01*
X135620547Y-109579000D01*
X135651824Y-109582080D01*
G37*
G36*
X148471824Y-109522080D02*
G01*
X148499545Y-109530490D01*
X148525089Y-109544144D01*
X148547480Y-109562520D01*
X148565856Y-109584911D01*
X148579510Y-109610455D01*
X148587920Y-109638176D01*
X148591000Y-109669453D01*
X148591000Y-110060547D01*
X148587920Y-110091824D01*
X148579510Y-110119545D01*
X148565856Y-110145089D01*
X148547480Y-110167480D01*
X148525089Y-110185856D01*
X148499545Y-110199510D01*
X148471824Y-110207920D01*
X148440547Y-110211000D01*
X147999453Y-110211000D01*
X147968176Y-110207920D01*
X147940455Y-110199510D01*
X147914911Y-110185856D01*
X147892520Y-110167480D01*
X147874144Y-110145089D01*
X147860490Y-110119545D01*
X147852080Y-110091824D01*
X147849000Y-110060547D01*
X147849000Y-109669453D01*
X147852080Y-109638176D01*
X147860490Y-109610455D01*
X147874144Y-109584911D01*
X147892520Y-109562520D01*
X147914911Y-109544144D01*
X147940455Y-109530490D01*
X147968176Y-109522080D01*
X147999453Y-109519000D01*
X148440547Y-109519000D01*
X148471824Y-109522080D01*
G37*
G36*
X151643701Y-109504877D02*
G01*
X151076601Y-110071977D01*
X150813557Y-109808933D01*
X151380657Y-109241833D01*
X151643701Y-109504877D01*
G37*
G36*
X153906443Y-109808933D02*
G01*
X153643399Y-110071977D01*
X153076299Y-109504877D01*
X153339343Y-109241833D01*
X153906443Y-109808933D01*
G37*
G36*
X147201000Y-110066000D02*
G01*
X145599000Y-110066000D01*
X145599000Y-109464000D01*
X147201000Y-109464000D01*
X147201000Y-110066000D01*
G37*
G36*
X141201000Y-110066000D02*
G01*
X139599000Y-110066000D01*
X139599000Y-109464000D01*
X141201000Y-109464000D01*
X141201000Y-110066000D01*
G37*
G36*
X162930000Y-109945000D02*
G01*
X162530000Y-109945000D01*
X162530000Y-109545000D01*
X162930000Y-109545000D01*
X162930000Y-109945000D01*
G37*
G36*
X162230000Y-109945000D02*
G01*
X161830000Y-109945000D01*
X161830000Y-109545000D01*
X162230000Y-109545000D01*
X162230000Y-109945000D01*
G37*
G36*
X161101824Y-109202080D02*
G01*
X161129545Y-109210490D01*
X161155089Y-109224144D01*
X161177480Y-109242520D01*
X161195856Y-109264911D01*
X161209510Y-109290455D01*
X161217920Y-109318176D01*
X161221000Y-109349453D01*
X161221000Y-109740547D01*
X161217920Y-109771824D01*
X161209510Y-109799545D01*
X161195856Y-109825089D01*
X161177480Y-109847480D01*
X161155089Y-109865856D01*
X161129545Y-109879510D01*
X161101824Y-109887920D01*
X161070547Y-109891000D01*
X160629453Y-109891000D01*
X160598176Y-109887920D01*
X160570455Y-109879510D01*
X160544911Y-109865856D01*
X160522520Y-109847480D01*
X160504144Y-109825089D01*
X160490490Y-109799545D01*
X160482080Y-109771824D01*
X160479000Y-109740547D01*
X160479000Y-109349453D01*
X160482080Y-109318176D01*
X160490490Y-109290455D01*
X160504144Y-109264911D01*
X160522520Y-109242520D01*
X160544911Y-109224144D01*
X160570455Y-109210490D01*
X160598176Y-109202080D01*
X160629453Y-109199000D01*
X161070547Y-109199000D01*
X161101824Y-109202080D01*
G37*
G36*
X134381000Y-109801000D02*
G01*
X133379000Y-109801000D01*
X133379000Y-108699000D01*
X134381000Y-108699000D01*
X134381000Y-109801000D01*
G37*
G36*
X130281000Y-109801000D02*
G01*
X129279000Y-109801000D01*
X129279000Y-108699000D01*
X130281000Y-108699000D01*
X130281000Y-109801000D01*
G37*
G36*
X151290148Y-109151323D02*
G01*
X150723048Y-109718423D01*
X150460004Y-109455379D01*
X151027104Y-108888279D01*
X151290148Y-109151323D01*
G37*
G36*
X154259996Y-109455379D02*
G01*
X153996952Y-109718423D01*
X153429852Y-109151323D01*
X153692896Y-108888279D01*
X154259996Y-109455379D01*
G37*
G36*
X150936594Y-108797770D02*
G01*
X150369494Y-109364870D01*
X150106450Y-109101826D01*
X150673550Y-108534726D01*
X150936594Y-108797770D01*
G37*
G36*
X154613550Y-109101826D02*
G01*
X154350506Y-109364870D01*
X153783406Y-108797770D01*
X154046450Y-108534726D01*
X154613550Y-109101826D01*
G37*
G36*
X135651824Y-108612080D02*
G01*
X135679545Y-108620490D01*
X135705089Y-108634144D01*
X135727480Y-108652520D01*
X135745856Y-108674911D01*
X135759510Y-108700455D01*
X135767920Y-108728176D01*
X135771000Y-108759453D01*
X135771000Y-109150547D01*
X135767920Y-109181824D01*
X135759510Y-109209545D01*
X135745856Y-109235089D01*
X135727480Y-109257480D01*
X135705089Y-109275856D01*
X135679545Y-109289510D01*
X135651824Y-109297920D01*
X135620547Y-109301000D01*
X135179453Y-109301000D01*
X135148176Y-109297920D01*
X135120455Y-109289510D01*
X135094911Y-109275856D01*
X135072520Y-109257480D01*
X135054144Y-109235089D01*
X135040490Y-109209545D01*
X135032080Y-109181824D01*
X135029000Y-109150547D01*
X135029000Y-108759453D01*
X135032080Y-108728176D01*
X135040490Y-108700455D01*
X135054144Y-108674911D01*
X135072520Y-108652520D01*
X135094911Y-108634144D01*
X135120455Y-108620490D01*
X135148176Y-108612080D01*
X135179453Y-108609000D01*
X135620547Y-108609000D01*
X135651824Y-108612080D01*
G37*
G36*
X148471824Y-108552080D02*
G01*
X148499545Y-108560490D01*
X148525089Y-108574144D01*
X148547480Y-108592520D01*
X148565856Y-108614911D01*
X148579510Y-108640455D01*
X148587920Y-108668176D01*
X148591000Y-108699453D01*
X148591000Y-109090547D01*
X148587920Y-109121824D01*
X148579510Y-109149545D01*
X148565856Y-109175089D01*
X148547480Y-109197480D01*
X148525089Y-109215856D01*
X148499545Y-109229510D01*
X148471824Y-109237920D01*
X148440547Y-109241000D01*
X147999453Y-109241000D01*
X147968176Y-109237920D01*
X147940455Y-109229510D01*
X147914911Y-109215856D01*
X147892520Y-109197480D01*
X147874144Y-109175089D01*
X147860490Y-109149545D01*
X147852080Y-109121824D01*
X147849000Y-109090547D01*
X147849000Y-108699453D01*
X147852080Y-108668176D01*
X147860490Y-108640455D01*
X147874144Y-108614911D01*
X147892520Y-108592520D01*
X147914911Y-108574144D01*
X147940455Y-108560490D01*
X147968176Y-108552080D01*
X147999453Y-108549000D01*
X148440547Y-108549000D01*
X148471824Y-108552080D01*
G37*
G36*
X170641000Y-109234600D02*
G01*
X167749000Y-109234600D01*
X167749000Y-108392600D01*
X170641000Y-108392600D01*
X170641000Y-109234600D01*
G37*
G36*
X166571000Y-109234600D02*
G01*
X163679000Y-109234600D01*
X163679000Y-108392600D01*
X166571000Y-108392600D01*
X166571000Y-109234600D01*
G37*
G36*
X125821000Y-109154600D02*
G01*
X123819000Y-109154600D01*
X123819000Y-106677600D01*
X125821000Y-106677600D01*
X125821000Y-109154600D01*
G37*
G36*
X163101824Y-108372080D02*
G01*
X163129545Y-108380490D01*
X163155089Y-108394144D01*
X163177480Y-108412520D01*
X163195856Y-108434911D01*
X163209510Y-108460455D01*
X163217920Y-108488176D01*
X163221000Y-108519453D01*
X163221000Y-108960547D01*
X163217920Y-108991824D01*
X163209510Y-109019545D01*
X163195856Y-109045089D01*
X163177480Y-109067480D01*
X163155089Y-109085856D01*
X163129545Y-109099510D01*
X163101824Y-109107920D01*
X163070547Y-109111000D01*
X162679453Y-109111000D01*
X162648176Y-109107920D01*
X162620455Y-109099510D01*
X162594911Y-109085856D01*
X162572520Y-109067480D01*
X162554144Y-109045089D01*
X162540490Y-109019545D01*
X162532080Y-108991824D01*
X162529000Y-108960547D01*
X162529000Y-108519453D01*
X162532080Y-108488176D01*
X162540490Y-108460455D01*
X162554144Y-108434911D01*
X162572520Y-108412520D01*
X162594911Y-108394144D01*
X162620455Y-108380490D01*
X162648176Y-108372080D01*
X162679453Y-108369000D01*
X163070547Y-108369000D01*
X163101824Y-108372080D01*
G37*
G36*
X162131824Y-108372080D02*
G01*
X162159545Y-108380490D01*
X162185089Y-108394144D01*
X162207480Y-108412520D01*
X162225856Y-108434911D01*
X162239510Y-108460455D01*
X162247920Y-108488176D01*
X162251000Y-108519453D01*
X162251000Y-108960547D01*
X162247920Y-108991824D01*
X162239510Y-109019545D01*
X162225856Y-109045089D01*
X162207480Y-109067480D01*
X162185089Y-109085856D01*
X162159545Y-109099510D01*
X162131824Y-109107920D01*
X162100547Y-109111000D01*
X161709453Y-109111000D01*
X161678176Y-109107920D01*
X161650455Y-109099510D01*
X161624911Y-109085856D01*
X161602520Y-109067480D01*
X161584144Y-109045089D01*
X161570490Y-109019545D01*
X161562080Y-108991824D01*
X161559000Y-108960547D01*
X161559000Y-108519453D01*
X161562080Y-108488176D01*
X161570490Y-108460455D01*
X161584144Y-108434911D01*
X161602520Y-108412520D01*
X161624911Y-108394144D01*
X161650455Y-108380490D01*
X161678176Y-108372080D01*
X161709453Y-108369000D01*
X162100547Y-108369000D01*
X162131824Y-108372080D01*
G37*
G36*
X154967103Y-108748273D02*
G01*
X154704059Y-109011317D01*
X154136959Y-108444217D01*
X154400003Y-108181173D01*
X154967103Y-108748273D01*
G37*
G36*
X150583041Y-108444217D02*
G01*
X150015941Y-109011317D01*
X149752897Y-108748273D01*
X150319997Y-108181173D01*
X150583041Y-108444217D01*
G37*
G36*
X159811824Y-108282080D02*
G01*
X159839545Y-108290490D01*
X159865089Y-108304144D01*
X159887480Y-108322520D01*
X159905856Y-108344911D01*
X159919510Y-108370455D01*
X159927920Y-108398176D01*
X159931000Y-108429453D01*
X159931000Y-108820547D01*
X159927920Y-108851824D01*
X159919510Y-108879545D01*
X159905856Y-108905089D01*
X159887480Y-108927480D01*
X159865089Y-108945856D01*
X159839545Y-108959510D01*
X159811824Y-108967920D01*
X159780547Y-108971000D01*
X159339453Y-108971000D01*
X159308176Y-108967920D01*
X159280455Y-108959510D01*
X159254911Y-108945856D01*
X159232520Y-108927480D01*
X159214144Y-108905089D01*
X159200490Y-108879545D01*
X159192080Y-108851824D01*
X159189000Y-108820547D01*
X159189000Y-108429453D01*
X159192080Y-108398176D01*
X159200490Y-108370455D01*
X159214144Y-108344911D01*
X159232520Y-108322520D01*
X159254911Y-108304144D01*
X159280455Y-108290490D01*
X159308176Y-108282080D01*
X159339453Y-108279000D01*
X159780547Y-108279000D01*
X159811824Y-108282080D01*
G37*
G36*
X157821824Y-108222080D02*
G01*
X157849545Y-108230490D01*
X157875089Y-108244144D01*
X157897480Y-108262520D01*
X157915856Y-108284911D01*
X157929510Y-108310455D01*
X157937920Y-108338176D01*
X157941000Y-108369453D01*
X157941000Y-108810547D01*
X157937920Y-108841824D01*
X157929510Y-108869545D01*
X157915856Y-108895089D01*
X157897480Y-108917480D01*
X157875089Y-108935856D01*
X157849545Y-108949510D01*
X157821824Y-108957920D01*
X157790547Y-108961000D01*
X157399453Y-108961000D01*
X157368176Y-108957920D01*
X157340455Y-108949510D01*
X157314911Y-108935856D01*
X157292520Y-108917480D01*
X157274144Y-108895089D01*
X157260490Y-108869545D01*
X157252080Y-108841824D01*
X157249000Y-108810547D01*
X157249000Y-108369453D01*
X157252080Y-108338176D01*
X157260490Y-108310455D01*
X157274144Y-108284911D01*
X157292520Y-108262520D01*
X157314911Y-108244144D01*
X157340455Y-108230490D01*
X157368176Y-108222080D01*
X157399453Y-108219000D01*
X157790547Y-108219000D01*
X157821824Y-108222080D01*
G37*
G36*
X158771824Y-108272080D02*
G01*
X158799545Y-108280490D01*
X158825089Y-108294144D01*
X158847480Y-108312520D01*
X158865856Y-108334911D01*
X158879510Y-108360455D01*
X158887920Y-108388176D01*
X158891000Y-108419453D01*
X158891000Y-108810547D01*
X158887920Y-108841824D01*
X158879510Y-108869545D01*
X158865856Y-108895089D01*
X158847480Y-108917480D01*
X158825089Y-108935856D01*
X158799545Y-108949510D01*
X158771824Y-108957920D01*
X158740547Y-108961000D01*
X158299453Y-108961000D01*
X158268176Y-108957920D01*
X158240455Y-108949510D01*
X158214911Y-108935856D01*
X158192520Y-108917480D01*
X158174144Y-108895089D01*
X158160490Y-108869545D01*
X158152080Y-108841824D01*
X158149000Y-108810547D01*
X158149000Y-108419453D01*
X158152080Y-108388176D01*
X158160490Y-108360455D01*
X158174144Y-108334911D01*
X158192520Y-108312520D01*
X158214911Y-108294144D01*
X158240455Y-108280490D01*
X158268176Y-108272080D01*
X158299453Y-108269000D01*
X158740547Y-108269000D01*
X158771824Y-108272080D01*
G37*
G36*
X156851824Y-108222080D02*
G01*
X156879545Y-108230490D01*
X156905089Y-108244144D01*
X156927480Y-108262520D01*
X156945856Y-108284911D01*
X156959510Y-108310455D01*
X156967920Y-108338176D01*
X156971000Y-108369453D01*
X156971000Y-108810547D01*
X156967920Y-108841824D01*
X156959510Y-108869545D01*
X156945856Y-108895089D01*
X156927480Y-108917480D01*
X156905089Y-108935856D01*
X156879545Y-108949510D01*
X156851824Y-108957920D01*
X156820547Y-108961000D01*
X156429453Y-108961000D01*
X156398176Y-108957920D01*
X156370455Y-108949510D01*
X156344911Y-108935856D01*
X156322520Y-108917480D01*
X156304144Y-108895089D01*
X156290490Y-108869545D01*
X156282080Y-108841824D01*
X156279000Y-108810547D01*
X156279000Y-108369453D01*
X156282080Y-108338176D01*
X156290490Y-108310455D01*
X156304144Y-108284911D01*
X156322520Y-108262520D01*
X156344911Y-108244144D01*
X156370455Y-108230490D01*
X156398176Y-108222080D01*
X156429453Y-108219000D01*
X156820547Y-108219000D01*
X156851824Y-108222080D01*
G37*
G36*
X147201000Y-108796000D02*
G01*
X145599000Y-108796000D01*
X145599000Y-108194000D01*
X147201000Y-108194000D01*
X147201000Y-108796000D01*
G37*
G36*
X141201000Y-108796000D02*
G01*
X139599000Y-108796000D01*
X139599000Y-108194000D01*
X141201000Y-108194000D01*
X141201000Y-108796000D01*
G37*
G36*
X150229488Y-108090663D02*
G01*
X149662388Y-108657763D01*
X149399344Y-108394719D01*
X149966444Y-107827619D01*
X150229488Y-108090663D01*
G37*
G36*
X155320656Y-108394719D02*
G01*
X155057612Y-108657763D01*
X154490512Y-108090663D01*
X154753556Y-107827619D01*
X155320656Y-108394719D01*
G37*
G36*
X177970312Y-106688164D02*
G01*
X178020339Y-106708886D01*
X178132098Y-106755178D01*
X178277703Y-106852468D01*
X178401532Y-106976297D01*
X178498822Y-107121902D01*
X178514829Y-107160547D01*
X178565836Y-107283688D01*
X178600000Y-107455441D01*
X178600000Y-107630559D01*
X178565836Y-107802312D01*
X178541215Y-107861751D01*
X178498822Y-107964098D01*
X178401532Y-108109703D01*
X178277703Y-108233532D01*
X178132098Y-108330822D01*
X178065883Y-108358249D01*
X177970312Y-108397836D01*
X177798559Y-108432000D01*
X177623441Y-108432000D01*
X177451688Y-108397836D01*
X177356117Y-108358249D01*
X177289902Y-108330822D01*
X177144297Y-108233532D01*
X177020468Y-108109703D01*
X176923178Y-107964098D01*
X176880785Y-107861751D01*
X176856164Y-107802312D01*
X176822000Y-107630559D01*
X176822000Y-107455441D01*
X176856164Y-107283688D01*
X176907171Y-107160547D01*
X176923178Y-107121902D01*
X177020468Y-106976297D01*
X177144297Y-106852468D01*
X177289902Y-106755178D01*
X177401661Y-106708886D01*
X177451688Y-106688164D01*
X177623441Y-106654000D01*
X177798559Y-106654000D01*
X177970312Y-106688164D01*
G37*
G36*
X175454312Y-106688164D02*
G01*
X175504339Y-106708886D01*
X175616098Y-106755178D01*
X175761703Y-106852468D01*
X175885532Y-106976297D01*
X175982822Y-107121902D01*
X175998829Y-107160547D01*
X176049836Y-107283688D01*
X176084000Y-107455441D01*
X176084000Y-107630559D01*
X176049836Y-107802312D01*
X176025215Y-107861751D01*
X175982822Y-107964098D01*
X175885532Y-108109703D01*
X175761703Y-108233532D01*
X175616098Y-108330822D01*
X175549883Y-108358249D01*
X175454312Y-108397836D01*
X175282559Y-108432000D01*
X175107441Y-108432000D01*
X174935688Y-108397836D01*
X174840117Y-108358249D01*
X174773902Y-108330822D01*
X174628297Y-108233532D01*
X174504468Y-108109703D01*
X174407178Y-107964098D01*
X174364785Y-107861751D01*
X174340164Y-107802312D01*
X174306000Y-107630559D01*
X174306000Y-107455441D01*
X174340164Y-107283688D01*
X174391171Y-107160547D01*
X174407178Y-107121902D01*
X174504468Y-106976297D01*
X174628297Y-106852468D01*
X174773902Y-106755178D01*
X174885661Y-106708886D01*
X174935688Y-106688164D01*
X175107441Y-106654000D01*
X175282559Y-106654000D01*
X175454312Y-106688164D01*
G37*
G36*
X138611000Y-108326000D02*
G01*
X137959000Y-108326000D01*
X137959000Y-107974000D01*
X138611000Y-107974000D01*
X138611000Y-108326000D01*
G37*
G36*
X137261000Y-108326000D02*
G01*
X136609000Y-108326000D01*
X136609000Y-107974000D01*
X137261000Y-107974000D01*
X137261000Y-108326000D01*
G37*
G36*
X149875934Y-107737110D02*
G01*
X149308834Y-108304210D01*
X149045790Y-108041166D01*
X149612890Y-107474066D01*
X149875934Y-107737110D01*
G37*
G36*
X155674210Y-108041166D02*
G01*
X155411166Y-108304210D01*
X154844066Y-107737110D01*
X155107110Y-107474066D01*
X155674210Y-108041166D01*
G37*
G36*
X135641824Y-107592080D02*
G01*
X135669545Y-107600490D01*
X135695089Y-107614144D01*
X135717480Y-107632520D01*
X135735856Y-107654911D01*
X135749510Y-107680455D01*
X135757920Y-107708176D01*
X135761000Y-107739453D01*
X135761000Y-108130547D01*
X135757920Y-108161824D01*
X135749510Y-108189545D01*
X135735856Y-108215089D01*
X135717480Y-108237480D01*
X135695089Y-108255856D01*
X135669545Y-108269510D01*
X135641824Y-108277920D01*
X135610547Y-108281000D01*
X135169453Y-108281000D01*
X135138176Y-108277920D01*
X135110455Y-108269510D01*
X135084911Y-108255856D01*
X135062520Y-108237480D01*
X135044144Y-108215089D01*
X135030490Y-108189545D01*
X135022080Y-108161824D01*
X135019000Y-108130547D01*
X135019000Y-107739453D01*
X135022080Y-107708176D01*
X135030490Y-107680455D01*
X135044144Y-107654911D01*
X135062520Y-107632520D01*
X135084911Y-107614144D01*
X135110455Y-107600490D01*
X135138176Y-107592080D01*
X135169453Y-107589000D01*
X135610547Y-107589000D01*
X135641824Y-107592080D01*
G37*
G36*
X128221000Y-108254600D02*
G01*
X126019000Y-108254600D01*
X126019000Y-106677600D01*
X126689001Y-106677600D01*
X126698755Y-106676639D01*
X126708135Y-106673794D01*
X126716779Y-106669174D01*
X126724356Y-106662956D01*
X126730574Y-106655379D01*
X126735194Y-106646735D01*
X126738039Y-106637355D01*
X126739000Y-106627601D01*
X126739000Y-103379599D01*
X126738039Y-103369845D01*
X126735194Y-103360465D01*
X126730574Y-103351821D01*
X126724356Y-103344244D01*
X126716779Y-103338026D01*
X126708135Y-103333406D01*
X126698755Y-103330561D01*
X126689001Y-103329600D01*
X126019000Y-103329600D01*
X126019000Y-101752600D01*
X128221000Y-101752600D01*
X128221000Y-108254600D01*
G37*
G36*
X134381000Y-108201000D02*
G01*
X133379000Y-108201000D01*
X133379000Y-107099000D01*
X134381000Y-107099000D01*
X134381000Y-108201000D01*
G37*
G36*
X130281000Y-108201000D02*
G01*
X129279000Y-108201000D01*
X129279000Y-107099000D01*
X130281000Y-107099000D01*
X130281000Y-108201000D01*
G37*
G36*
X159811824Y-107312080D02*
G01*
X159839545Y-107320490D01*
X159865089Y-107334144D01*
X159887480Y-107352520D01*
X159905856Y-107374911D01*
X159919510Y-107400455D01*
X159927920Y-107428176D01*
X159931000Y-107459453D01*
X159931000Y-107850547D01*
X159927920Y-107881824D01*
X159919510Y-107909545D01*
X159905856Y-107935089D01*
X159887480Y-107957480D01*
X159865089Y-107975856D01*
X159839545Y-107989510D01*
X159811824Y-107997920D01*
X159780547Y-108001000D01*
X159339453Y-108001000D01*
X159308176Y-107997920D01*
X159280455Y-107989510D01*
X159254911Y-107975856D01*
X159232520Y-107957480D01*
X159214144Y-107935089D01*
X159200490Y-107909545D01*
X159192080Y-107881824D01*
X159189000Y-107850547D01*
X159189000Y-107459453D01*
X159192080Y-107428176D01*
X159200490Y-107400455D01*
X159214144Y-107374911D01*
X159232520Y-107352520D01*
X159254911Y-107334144D01*
X159280455Y-107320490D01*
X159308176Y-107312080D01*
X159339453Y-107309000D01*
X159780547Y-107309000D01*
X159811824Y-107312080D01*
G37*
G36*
X158771824Y-107302080D02*
G01*
X158799545Y-107310490D01*
X158825089Y-107324144D01*
X158847480Y-107342520D01*
X158865856Y-107364911D01*
X158879510Y-107390455D01*
X158887920Y-107418176D01*
X158891000Y-107449453D01*
X158891000Y-107840547D01*
X158887920Y-107871824D01*
X158879510Y-107899545D01*
X158865856Y-107925089D01*
X158847480Y-107947480D01*
X158825089Y-107965856D01*
X158799545Y-107979510D01*
X158771824Y-107987920D01*
X158740547Y-107991000D01*
X158299453Y-107991000D01*
X158268176Y-107987920D01*
X158240455Y-107979510D01*
X158214911Y-107965856D01*
X158192520Y-107947480D01*
X158174144Y-107925089D01*
X158160490Y-107899545D01*
X158152080Y-107871824D01*
X158149000Y-107840547D01*
X158149000Y-107449453D01*
X158152080Y-107418176D01*
X158160490Y-107390455D01*
X158174144Y-107364911D01*
X158192520Y-107342520D01*
X158214911Y-107324144D01*
X158240455Y-107310490D01*
X158268176Y-107302080D01*
X158299453Y-107299000D01*
X158740547Y-107299000D01*
X158771824Y-107302080D01*
G37*
G36*
X166571000Y-107964600D02*
G01*
X163679000Y-107964600D01*
X163679000Y-107122600D01*
X166571000Y-107122600D01*
X166571000Y-107964600D01*
G37*
G36*
X170641000Y-107964600D02*
G01*
X167749000Y-107964600D01*
X167749000Y-107122600D01*
X170641000Y-107122600D01*
X170641000Y-107964600D01*
G37*
G36*
X156027763Y-107687612D02*
G01*
X155764719Y-107950656D01*
X155197619Y-107383556D01*
X155460663Y-107120512D01*
X156027763Y-107687612D01*
G37*
G36*
X149522381Y-107383556D02*
G01*
X148955281Y-107950656D01*
X148692237Y-107687612D01*
X149259337Y-107120512D01*
X149522381Y-107383556D01*
G37*
G36*
X137261000Y-107826000D02*
G01*
X136609000Y-107826000D01*
X136609000Y-107474000D01*
X137261000Y-107474000D01*
X137261000Y-107826000D01*
G37*
G36*
X138611000Y-107826000D02*
G01*
X137959000Y-107826000D01*
X137959000Y-107474000D01*
X138611000Y-107474000D01*
X138611000Y-107826000D01*
G37*
G36*
X156381317Y-107334059D02*
G01*
X156118273Y-107597103D01*
X155551173Y-107030003D01*
X155814217Y-106766959D01*
X156381317Y-107334059D01*
G37*
G36*
X149168827Y-107030003D02*
G01*
X148601727Y-107597103D01*
X148338683Y-107334059D01*
X148905783Y-106766959D01*
X149168827Y-107030003D01*
G37*
G36*
X173762000Y-107594000D02*
G01*
X172860000Y-107594000D01*
X172860000Y-103692000D01*
X173762000Y-103692000D01*
X173762000Y-107594000D01*
G37*
G36*
X171962000Y-107594000D02*
G01*
X171060000Y-107594000D01*
X171060000Y-103692000D01*
X171962000Y-103692000D01*
X171962000Y-107594000D01*
G37*
G36*
X162966000Y-107446000D02*
G01*
X162114000Y-107446000D01*
X162114000Y-106894000D01*
X162966000Y-106894000D01*
X162966000Y-107446000D01*
G37*
G36*
X161266000Y-107446000D02*
G01*
X160414000Y-107446000D01*
X160414000Y-106894000D01*
X161266000Y-106894000D01*
X161266000Y-107446000D01*
G37*
G36*
X153245292Y-103469715D02*
G01*
X153245297Y-103469721D01*
X153880280Y-104104704D01*
X153880286Y-104104709D01*
X154765577Y-104990000D01*
X152360000Y-107395577D01*
X151474709Y-106510286D01*
X151474704Y-106510280D01*
X150839721Y-105875297D01*
X150839715Y-105875292D01*
X149954423Y-104990000D01*
X150839710Y-104104713D01*
X150839715Y-104104709D01*
X151474709Y-103469715D01*
X151474713Y-103469710D01*
X152360000Y-102584423D01*
X153245292Y-103469715D01*
G37*
G36*
X138611000Y-107326000D02*
G01*
X137959000Y-107326000D01*
X137959000Y-106974000D01*
X138611000Y-106974000D01*
X138611000Y-107326000D01*
G37*
G36*
X137261000Y-107326000D02*
G01*
X136609000Y-107326000D01*
X136609000Y-106974000D01*
X137261000Y-106974000D01*
X137261000Y-107326000D01*
G37*
G36*
X144092824Y-106635080D02*
G01*
X144120545Y-106643490D01*
X144146089Y-106657144D01*
X144168480Y-106675520D01*
X144186856Y-106697911D01*
X144200510Y-106723455D01*
X144208920Y-106751176D01*
X144212000Y-106782453D01*
X144212000Y-107173547D01*
X144208920Y-107204824D01*
X144200510Y-107232545D01*
X144186856Y-107258089D01*
X144168480Y-107280480D01*
X144146089Y-107298856D01*
X144120545Y-107312510D01*
X144092824Y-107320920D01*
X144061547Y-107324000D01*
X143620453Y-107324000D01*
X143589176Y-107320920D01*
X143561455Y-107312510D01*
X143535911Y-107298856D01*
X143513520Y-107280480D01*
X143495144Y-107258089D01*
X143481490Y-107232545D01*
X143473080Y-107204824D01*
X143470000Y-107173547D01*
X143470000Y-106782453D01*
X143473080Y-106751176D01*
X143481490Y-106723455D01*
X143495144Y-106697911D01*
X143513520Y-106675520D01*
X143535911Y-106657144D01*
X143561455Y-106643490D01*
X143589176Y-106635080D01*
X143620453Y-106632000D01*
X144061547Y-106632000D01*
X144092824Y-106635080D01*
G37*
G36*
X135641824Y-106622080D02*
G01*
X135669545Y-106630490D01*
X135695089Y-106644144D01*
X135717480Y-106662520D01*
X135735856Y-106684911D01*
X135749510Y-106710455D01*
X135757920Y-106738176D01*
X135761000Y-106769453D01*
X135761000Y-107160547D01*
X135757920Y-107191824D01*
X135749510Y-107219545D01*
X135735856Y-107245089D01*
X135717480Y-107267480D01*
X135695089Y-107285856D01*
X135669545Y-107299510D01*
X135641824Y-107307920D01*
X135610547Y-107311000D01*
X135169453Y-107311000D01*
X135138176Y-107307920D01*
X135110455Y-107299510D01*
X135084911Y-107285856D01*
X135062520Y-107267480D01*
X135044144Y-107245089D01*
X135030490Y-107219545D01*
X135022080Y-107191824D01*
X135019000Y-107160547D01*
X135019000Y-106769453D01*
X135022080Y-106738176D01*
X135030490Y-106710455D01*
X135044144Y-106684911D01*
X135062520Y-106662520D01*
X135084911Y-106644144D01*
X135110455Y-106630490D01*
X135138176Y-106622080D01*
X135169453Y-106619000D01*
X135610547Y-106619000D01*
X135641824Y-106622080D01*
G37*
G36*
X148815274Y-106676450D02*
G01*
X148248174Y-107243550D01*
X147985130Y-106980506D01*
X148552230Y-106413406D01*
X148815274Y-106676450D01*
G37*
G36*
X156734870Y-106980506D02*
G01*
X156471826Y-107243550D01*
X155904726Y-106676450D01*
X156167770Y-106413406D01*
X156734870Y-106980506D01*
G37*
G36*
X159821824Y-106352080D02*
G01*
X159849545Y-106360490D01*
X159875089Y-106374144D01*
X159897480Y-106392520D01*
X159915856Y-106414911D01*
X159929510Y-106440455D01*
X159937920Y-106468176D01*
X159941000Y-106499453D01*
X159941000Y-106890547D01*
X159937920Y-106921824D01*
X159929510Y-106949545D01*
X159915856Y-106975089D01*
X159897480Y-106997480D01*
X159875089Y-107015856D01*
X159849545Y-107029510D01*
X159821824Y-107037920D01*
X159790547Y-107041000D01*
X159349453Y-107041000D01*
X159318176Y-107037920D01*
X159290455Y-107029510D01*
X159264911Y-107015856D01*
X159242520Y-106997480D01*
X159224144Y-106975089D01*
X159210490Y-106949545D01*
X159202080Y-106921824D01*
X159199000Y-106890547D01*
X159199000Y-106499453D01*
X159202080Y-106468176D01*
X159210490Y-106440455D01*
X159224144Y-106414911D01*
X159242520Y-106392520D01*
X159264911Y-106374144D01*
X159290455Y-106360490D01*
X159318176Y-106352080D01*
X159349453Y-106349000D01*
X159790547Y-106349000D01*
X159821824Y-106352080D01*
G37*
G36*
X158690719Y-105960174D02*
G01*
X158695535Y-105962169D01*
X158790996Y-106001710D01*
X158881242Y-106062010D01*
X158957990Y-106138758D01*
X159018290Y-106229004D01*
X159045842Y-106295520D01*
X159059826Y-106329281D01*
X159081000Y-106435730D01*
X159081000Y-106544270D01*
X159059826Y-106650719D01*
X159048691Y-106677600D01*
X159018290Y-106750996D01*
X158957990Y-106841242D01*
X158881242Y-106917990D01*
X158790996Y-106978290D01*
X158761931Y-106990329D01*
X158690719Y-107019826D01*
X158584270Y-107041000D01*
X158475730Y-107041000D01*
X158369281Y-107019826D01*
X158298069Y-106990329D01*
X158269004Y-106978290D01*
X158178758Y-106917990D01*
X158102010Y-106841242D01*
X158041710Y-106750996D01*
X158011309Y-106677600D01*
X158000174Y-106650719D01*
X157979000Y-106544270D01*
X157979000Y-106435730D01*
X158000174Y-106329281D01*
X158014158Y-106295520D01*
X158041710Y-106229004D01*
X158102010Y-106138758D01*
X158178758Y-106062010D01*
X158269004Y-106001710D01*
X158364465Y-105962169D01*
X158369281Y-105960174D01*
X158475730Y-105939000D01*
X158584270Y-105939000D01*
X158690719Y-105960174D01*
G37*
G36*
X141922824Y-106255080D02*
G01*
X141950545Y-106263490D01*
X141976089Y-106277144D01*
X141998480Y-106295520D01*
X142016856Y-106317911D01*
X142030510Y-106343455D01*
X142038920Y-106371176D01*
X142042000Y-106402453D01*
X142042000Y-106843547D01*
X142038920Y-106874824D01*
X142030510Y-106902545D01*
X142016856Y-106928089D01*
X141998480Y-106950480D01*
X141976089Y-106968856D01*
X141950545Y-106982510D01*
X141922824Y-106990920D01*
X141891547Y-106994000D01*
X141500453Y-106994000D01*
X141469176Y-106990920D01*
X141441455Y-106982510D01*
X141415911Y-106968856D01*
X141393520Y-106950480D01*
X141375144Y-106928089D01*
X141361490Y-106902545D01*
X141353080Y-106874824D01*
X141350000Y-106843547D01*
X141350000Y-106402453D01*
X141353080Y-106371176D01*
X141361490Y-106343455D01*
X141375144Y-106317911D01*
X141393520Y-106295520D01*
X141415911Y-106277144D01*
X141441455Y-106263490D01*
X141469176Y-106255080D01*
X141500453Y-106252000D01*
X141891547Y-106252000D01*
X141922824Y-106255080D01*
G37*
G36*
X142892824Y-106255080D02*
G01*
X142920545Y-106263490D01*
X142946089Y-106277144D01*
X142968480Y-106295520D01*
X142986856Y-106317911D01*
X143000510Y-106343455D01*
X143008920Y-106371176D01*
X143012000Y-106402453D01*
X143012000Y-106843547D01*
X143008920Y-106874824D01*
X143000510Y-106902545D01*
X142986856Y-106928089D01*
X142968480Y-106950480D01*
X142946089Y-106968856D01*
X142920545Y-106982510D01*
X142892824Y-106990920D01*
X142861547Y-106994000D01*
X142470453Y-106994000D01*
X142439176Y-106990920D01*
X142411455Y-106982510D01*
X142385911Y-106968856D01*
X142363520Y-106950480D01*
X142345144Y-106928089D01*
X142331490Y-106902545D01*
X142323080Y-106874824D01*
X142320000Y-106843547D01*
X142320000Y-106402453D01*
X142323080Y-106371176D01*
X142331490Y-106343455D01*
X142345144Y-106317911D01*
X142363520Y-106295520D01*
X142385911Y-106277144D01*
X142411455Y-106263490D01*
X142439176Y-106255080D01*
X142470453Y-106252000D01*
X142861547Y-106252000D01*
X142892824Y-106255080D01*
G37*
G36*
X148461721Y-106322896D02*
G01*
X147894621Y-106889996D01*
X147631577Y-106626952D01*
X148198677Y-106059852D01*
X148461721Y-106322896D01*
G37*
G36*
X157088423Y-106626952D02*
G01*
X156825379Y-106889996D01*
X156258279Y-106322896D01*
X156521323Y-106059852D01*
X157088423Y-106626952D01*
G37*
G36*
X138611000Y-106826000D02*
G01*
X137959000Y-106826000D01*
X137959000Y-106474000D01*
X138611000Y-106474000D01*
X138611000Y-106826000D01*
G37*
G36*
X137261000Y-106826000D02*
G01*
X136609000Y-106826000D01*
X136609000Y-106474000D01*
X137261000Y-106474000D01*
X137261000Y-106826000D01*
G37*
G36*
X161266000Y-106746000D02*
G01*
X160414000Y-106746000D01*
X160414000Y-106194000D01*
X161266000Y-106194000D01*
X161266000Y-106746000D01*
G37*
G36*
X162966000Y-106736000D02*
G01*
X162114000Y-106736000D01*
X162114000Y-106184000D01*
X162966000Y-106184000D01*
X162966000Y-106736000D01*
G37*
G36*
X170641000Y-106694600D02*
G01*
X167749000Y-106694600D01*
X167749000Y-105852600D01*
X170641000Y-105852600D01*
X170641000Y-106694600D01*
G37*
G36*
X166571000Y-106694600D02*
G01*
X163679000Y-106694600D01*
X163679000Y-105852600D01*
X166571000Y-105852600D01*
X166571000Y-106694600D01*
G37*
G36*
X146026824Y-105952080D02*
G01*
X146054545Y-105960490D01*
X146080089Y-105974144D01*
X146102480Y-105992520D01*
X146120856Y-106014911D01*
X146134510Y-106040455D01*
X146142920Y-106068176D01*
X146146000Y-106099453D01*
X146146000Y-106540547D01*
X146142920Y-106571824D01*
X146134510Y-106599545D01*
X146120856Y-106625089D01*
X146102480Y-106647480D01*
X146080089Y-106665856D01*
X146054545Y-106679510D01*
X146026824Y-106687920D01*
X145995547Y-106691000D01*
X145604453Y-106691000D01*
X145573176Y-106687920D01*
X145545455Y-106679510D01*
X145519911Y-106665856D01*
X145497520Y-106647480D01*
X145479144Y-106625089D01*
X145465490Y-106599545D01*
X145457080Y-106571824D01*
X145454000Y-106540547D01*
X145454000Y-106099453D01*
X145457080Y-106068176D01*
X145465490Y-106040455D01*
X145479144Y-106014911D01*
X145497520Y-105992520D01*
X145519911Y-105974144D01*
X145545455Y-105960490D01*
X145573176Y-105952080D01*
X145604453Y-105949000D01*
X145995547Y-105949000D01*
X146026824Y-105952080D01*
G37*
G36*
X145056824Y-105952080D02*
G01*
X145084545Y-105960490D01*
X145110089Y-105974144D01*
X145132480Y-105992520D01*
X145150856Y-106014911D01*
X145164510Y-106040455D01*
X145172920Y-106068176D01*
X145176000Y-106099453D01*
X145176000Y-106540547D01*
X145172920Y-106571824D01*
X145164510Y-106599545D01*
X145150856Y-106625089D01*
X145132480Y-106647480D01*
X145110089Y-106665856D01*
X145084545Y-106679510D01*
X145056824Y-106687920D01*
X145025547Y-106691000D01*
X144634453Y-106691000D01*
X144603176Y-106687920D01*
X144575455Y-106679510D01*
X144549911Y-106665856D01*
X144527520Y-106647480D01*
X144509144Y-106625089D01*
X144495490Y-106599545D01*
X144487080Y-106571824D01*
X144484000Y-106540547D01*
X144484000Y-106099453D01*
X144487080Y-106068176D01*
X144495490Y-106040455D01*
X144509144Y-106014911D01*
X144527520Y-105992520D01*
X144549911Y-105974144D01*
X144575455Y-105960490D01*
X144603176Y-105952080D01*
X144634453Y-105949000D01*
X145025547Y-105949000D01*
X145056824Y-105952080D01*
G37*
G36*
X157441977Y-106273399D02*
G01*
X157178933Y-106536443D01*
X156611833Y-105969343D01*
X156874877Y-105706299D01*
X157441977Y-106273399D01*
G37*
G36*
X148108167Y-105969343D02*
G01*
X147541067Y-106536443D01*
X147278023Y-106273399D01*
X147845123Y-105706299D01*
X148108167Y-105969343D01*
G37*
G36*
X125821000Y-106479600D02*
G01*
X123819000Y-106479600D01*
X123819000Y-105202600D01*
X125821000Y-105202600D01*
X125821000Y-106479600D01*
G37*
G36*
X144092824Y-105665080D02*
G01*
X144120545Y-105673490D01*
X144146089Y-105687144D01*
X144168480Y-105705520D01*
X144186856Y-105727911D01*
X144200510Y-105753455D01*
X144208920Y-105781176D01*
X144212000Y-105812453D01*
X144212000Y-106203547D01*
X144208920Y-106234824D01*
X144200510Y-106262545D01*
X144186856Y-106288089D01*
X144168480Y-106310480D01*
X144146089Y-106328856D01*
X144120545Y-106342510D01*
X144092824Y-106350920D01*
X144061547Y-106354000D01*
X143620453Y-106354000D01*
X143589176Y-106350920D01*
X143561455Y-106342510D01*
X143535911Y-106328856D01*
X143513520Y-106310480D01*
X143495144Y-106288089D01*
X143481490Y-106262545D01*
X143473080Y-106234824D01*
X143470000Y-106203547D01*
X143470000Y-105812453D01*
X143473080Y-105781176D01*
X143481490Y-105753455D01*
X143495144Y-105727911D01*
X143513520Y-105705520D01*
X143535911Y-105687144D01*
X143561455Y-105673490D01*
X143589176Y-105665080D01*
X143620453Y-105662000D01*
X144061547Y-105662000D01*
X144092824Y-105665080D01*
G37*
G36*
X135651824Y-105602080D02*
G01*
X135679545Y-105610490D01*
X135705089Y-105624144D01*
X135727480Y-105642520D01*
X135745856Y-105664911D01*
X135759510Y-105690455D01*
X135767920Y-105718176D01*
X135771000Y-105749453D01*
X135771000Y-106140547D01*
X135767920Y-106171824D01*
X135759510Y-106199545D01*
X135745856Y-106225089D01*
X135727480Y-106247480D01*
X135705089Y-106265856D01*
X135679545Y-106279510D01*
X135651824Y-106287920D01*
X135620547Y-106291000D01*
X135179453Y-106291000D01*
X135148176Y-106287920D01*
X135120455Y-106279510D01*
X135094911Y-106265856D01*
X135072520Y-106247480D01*
X135054144Y-106225089D01*
X135040490Y-106199545D01*
X135032080Y-106171824D01*
X135029000Y-106140547D01*
X135029000Y-105749453D01*
X135032080Y-105718176D01*
X135040490Y-105690455D01*
X135054144Y-105664911D01*
X135072520Y-105642520D01*
X135094911Y-105624144D01*
X135120455Y-105610490D01*
X135148176Y-105602080D01*
X135179453Y-105599000D01*
X135620547Y-105599000D01*
X135651824Y-105602080D01*
G37*
G36*
X129401824Y-105522080D02*
G01*
X129429545Y-105530490D01*
X129455089Y-105544144D01*
X129477480Y-105562520D01*
X129495856Y-105584911D01*
X129509510Y-105610455D01*
X129517920Y-105638176D01*
X129521000Y-105669453D01*
X129521000Y-106110547D01*
X129517920Y-106141824D01*
X129509510Y-106169545D01*
X129495856Y-106195089D01*
X129477480Y-106217480D01*
X129455089Y-106235856D01*
X129429545Y-106249510D01*
X129401824Y-106257920D01*
X129370547Y-106261000D01*
X128979453Y-106261000D01*
X128948176Y-106257920D01*
X128920455Y-106249510D01*
X128894911Y-106235856D01*
X128872520Y-106217480D01*
X128854144Y-106195089D01*
X128840490Y-106169545D01*
X128832080Y-106141824D01*
X128829000Y-106110547D01*
X128829000Y-105669453D01*
X128832080Y-105638176D01*
X128840490Y-105610455D01*
X128854144Y-105584911D01*
X128872520Y-105562520D01*
X128894911Y-105544144D01*
X128920455Y-105530490D01*
X128948176Y-105522080D01*
X128979453Y-105519000D01*
X129370547Y-105519000D01*
X129401824Y-105522080D01*
G37*
G36*
X130371824Y-105522080D02*
G01*
X130399545Y-105530490D01*
X130425089Y-105544144D01*
X130447480Y-105562520D01*
X130465856Y-105584911D01*
X130479510Y-105610455D01*
X130487920Y-105638176D01*
X130491000Y-105669453D01*
X130491000Y-106110547D01*
X130487920Y-106141824D01*
X130479510Y-106169545D01*
X130465856Y-106195089D01*
X130447480Y-106217480D01*
X130425089Y-106235856D01*
X130399545Y-106249510D01*
X130371824Y-106257920D01*
X130340547Y-106261000D01*
X129949453Y-106261000D01*
X129918176Y-106257920D01*
X129890455Y-106249510D01*
X129864911Y-106235856D01*
X129842520Y-106217480D01*
X129824144Y-106195089D01*
X129810490Y-106169545D01*
X129802080Y-106141824D01*
X129799000Y-106110547D01*
X129799000Y-105669453D01*
X129802080Y-105638176D01*
X129810490Y-105610455D01*
X129824144Y-105584911D01*
X129842520Y-105562520D01*
X129864911Y-105544144D01*
X129890455Y-105530490D01*
X129918176Y-105522080D01*
X129949453Y-105519000D01*
X130340547Y-105519000D01*
X130371824Y-105522080D01*
G37*
G36*
X147754614Y-105615789D02*
G01*
X147187514Y-106182889D01*
X146924470Y-105919845D01*
X147491570Y-105352745D01*
X147754614Y-105615789D01*
G37*
G36*
X157795530Y-105919845D02*
G01*
X157532486Y-106182889D01*
X156965386Y-105615789D01*
X157228430Y-105352745D01*
X157795530Y-105919845D01*
G37*
G36*
X159821824Y-105382080D02*
G01*
X159849545Y-105390490D01*
X159875089Y-105404144D01*
X159897480Y-105422520D01*
X159915856Y-105444911D01*
X159929510Y-105470455D01*
X159937920Y-105498176D01*
X159941000Y-105529453D01*
X159941000Y-105920547D01*
X159937920Y-105951824D01*
X159929510Y-105979545D01*
X159915856Y-106005089D01*
X159897480Y-106027480D01*
X159875089Y-106045856D01*
X159849545Y-106059510D01*
X159821824Y-106067920D01*
X159790547Y-106071000D01*
X159349453Y-106071000D01*
X159318176Y-106067920D01*
X159290455Y-106059510D01*
X159264911Y-106045856D01*
X159242520Y-106027480D01*
X159224144Y-106005089D01*
X159210490Y-105979545D01*
X159202080Y-105951824D01*
X159199000Y-105920547D01*
X159199000Y-105529453D01*
X159202080Y-105498176D01*
X159210490Y-105470455D01*
X159224144Y-105444911D01*
X159242520Y-105422520D01*
X159264911Y-105404144D01*
X159290455Y-105390490D01*
X159318176Y-105382080D01*
X159349453Y-105379000D01*
X159790547Y-105379000D01*
X159821824Y-105382080D01*
G37*
G36*
X162005314Y-103940542D02*
G01*
X162202044Y-104022030D01*
X162379096Y-104140332D01*
X162529668Y-104290904D01*
X162647970Y-104467956D01*
X162729458Y-104664686D01*
X162771000Y-104873529D01*
X162771000Y-105086471D01*
X162729458Y-105295314D01*
X162647970Y-105492044D01*
X162529668Y-105669096D01*
X162379096Y-105819668D01*
X162202044Y-105937970D01*
X162005314Y-106019458D01*
X161796471Y-106061000D01*
X161583529Y-106061000D01*
X161374686Y-106019458D01*
X161177956Y-105937970D01*
X161000904Y-105819668D01*
X160850332Y-105669096D01*
X160732030Y-105492044D01*
X160650542Y-105295314D01*
X160609000Y-105086471D01*
X160609000Y-104873529D01*
X160650542Y-104664686D01*
X160732030Y-104467956D01*
X160850332Y-104290904D01*
X161000904Y-104140332D01*
X161177956Y-104022030D01*
X161374686Y-103940542D01*
X161583529Y-103899000D01*
X161796471Y-103899000D01*
X162005314Y-103940542D01*
G37*
G36*
X134645000Y-106050000D02*
G01*
X133455000Y-106050000D01*
X133455000Y-105310000D01*
X134645000Y-105310000D01*
X134645000Y-106050000D01*
G37*
G36*
X131945000Y-106050000D02*
G01*
X130755000Y-106050000D01*
X130755000Y-105310000D01*
X131945000Y-105310000D01*
X131945000Y-106050000D01*
G37*
G36*
X141152824Y-105335080D02*
G01*
X141180545Y-105343490D01*
X141206089Y-105357144D01*
X141228480Y-105375520D01*
X141246856Y-105397911D01*
X141260510Y-105423455D01*
X141268920Y-105451176D01*
X141272000Y-105482453D01*
X141272000Y-105873547D01*
X141268920Y-105904824D01*
X141260510Y-105932545D01*
X141246856Y-105958089D01*
X141228480Y-105980480D01*
X141206089Y-105998856D01*
X141180545Y-106012510D01*
X141152824Y-106020920D01*
X141121547Y-106024000D01*
X140680453Y-106024000D01*
X140649176Y-106020920D01*
X140621455Y-106012510D01*
X140595911Y-105998856D01*
X140573520Y-105980480D01*
X140555144Y-105958089D01*
X140541490Y-105932545D01*
X140533080Y-105904824D01*
X140530000Y-105873547D01*
X140530000Y-105482453D01*
X140533080Y-105451176D01*
X140541490Y-105423455D01*
X140555144Y-105397911D01*
X140573520Y-105375520D01*
X140595911Y-105357144D01*
X140621455Y-105343490D01*
X140649176Y-105335080D01*
X140680453Y-105332000D01*
X141121547Y-105332000D01*
X141152824Y-105335080D01*
G37*
G36*
X177970312Y-104148164D02*
G01*
X178025442Y-104171000D01*
X178132098Y-104215178D01*
X178277703Y-104312468D01*
X178401532Y-104436297D01*
X178498822Y-104581902D01*
X178518579Y-104629600D01*
X178565836Y-104743688D01*
X178600000Y-104915441D01*
X178600000Y-105090559D01*
X178569634Y-105243220D01*
X178565836Y-105262311D01*
X178498822Y-105424098D01*
X178401532Y-105569703D01*
X178277703Y-105693532D01*
X178132098Y-105790822D01*
X178062457Y-105819668D01*
X177970312Y-105857836D01*
X177798559Y-105892000D01*
X177623441Y-105892000D01*
X177451688Y-105857836D01*
X177359543Y-105819668D01*
X177289902Y-105790822D01*
X177144297Y-105693532D01*
X177020468Y-105569703D01*
X176923178Y-105424098D01*
X176856164Y-105262311D01*
X176852367Y-105243220D01*
X176822000Y-105090559D01*
X176822000Y-104915441D01*
X176856164Y-104743688D01*
X176903421Y-104629600D01*
X176923178Y-104581902D01*
X177020468Y-104436297D01*
X177144297Y-104312468D01*
X177289902Y-104215178D01*
X177396558Y-104171000D01*
X177451688Y-104148164D01*
X177623441Y-104114000D01*
X177798559Y-104114000D01*
X177970312Y-104148164D01*
G37*
G36*
X175430312Y-104148164D02*
G01*
X175485442Y-104171000D01*
X175592098Y-104215178D01*
X175737703Y-104312468D01*
X175861532Y-104436297D01*
X175958822Y-104581902D01*
X175978579Y-104629600D01*
X176025836Y-104743688D01*
X176060000Y-104915441D01*
X176060000Y-105090559D01*
X176029634Y-105243220D01*
X176025836Y-105262311D01*
X175958822Y-105424098D01*
X175861532Y-105569703D01*
X175737703Y-105693532D01*
X175592098Y-105790822D01*
X175522457Y-105819668D01*
X175430312Y-105857836D01*
X175258559Y-105892000D01*
X175083441Y-105892000D01*
X174911688Y-105857836D01*
X174819543Y-105819668D01*
X174749902Y-105790822D01*
X174604297Y-105693532D01*
X174480468Y-105569703D01*
X174383178Y-105424098D01*
X174316164Y-105262311D01*
X174312367Y-105243220D01*
X174282000Y-105090559D01*
X174282000Y-104915441D01*
X174316164Y-104743688D01*
X174363421Y-104629600D01*
X174383178Y-104581902D01*
X174480468Y-104436297D01*
X174604297Y-104312468D01*
X174749902Y-104215178D01*
X174856558Y-104171000D01*
X174911688Y-104148164D01*
X175083441Y-104114000D01*
X175258559Y-104114000D01*
X175430312Y-104148164D01*
G37*
G36*
X147401060Y-104717764D02*
G01*
X147164173Y-104954651D01*
X147157960Y-104962222D01*
X147153340Y-104970866D01*
X147150495Y-104980246D01*
X147149534Y-104990000D01*
X147150495Y-104999754D01*
X147153340Y-105009134D01*
X147157960Y-105017778D01*
X147164173Y-105025349D01*
X147401060Y-105262236D01*
X146833960Y-105829336D01*
X146570916Y-105566292D01*
X147111859Y-105025349D01*
X147118072Y-105017778D01*
X147122692Y-105009134D01*
X147125537Y-104999754D01*
X147126498Y-104990000D01*
X147125537Y-104980246D01*
X147122692Y-104970866D01*
X147118072Y-104962222D01*
X147111859Y-104954651D01*
X147092048Y-104934840D01*
X147084477Y-104928627D01*
X147075833Y-104924007D01*
X147066453Y-104921162D01*
X147056699Y-104920201D01*
X147046945Y-104921162D01*
X147037565Y-104924007D01*
X147028921Y-104928627D01*
X147021344Y-104934845D01*
X147019223Y-104936967D01*
X146480407Y-105475783D01*
X146217363Y-105212739D01*
X146756179Y-104673923D01*
X146756180Y-104673924D01*
X146758301Y-104671802D01*
X146764519Y-104664225D01*
X146769139Y-104655581D01*
X146771984Y-104646201D01*
X146772945Y-104636447D01*
X146771984Y-104626693D01*
X146769139Y-104617313D01*
X146764519Y-104608669D01*
X146758306Y-104601098D01*
X146570916Y-104413708D01*
X146833960Y-104150664D01*
X147401060Y-104717764D01*
G37*
G36*
X158149084Y-104413708D02*
G01*
X157608141Y-104954651D01*
X157601928Y-104962222D01*
X157597308Y-104970866D01*
X157594463Y-104980246D01*
X157593502Y-104990000D01*
X157594463Y-104999754D01*
X157597308Y-105009134D01*
X157601928Y-105017778D01*
X157608141Y-105025349D01*
X157627952Y-105045160D01*
X157635523Y-105051373D01*
X157644167Y-105055993D01*
X157653547Y-105058838D01*
X157663301Y-105059799D01*
X157673055Y-105058838D01*
X157682435Y-105055993D01*
X157691079Y-105051373D01*
X157698656Y-105045155D01*
X157700778Y-105043034D01*
X157700777Y-105043033D01*
X158239593Y-104504217D01*
X158502637Y-104767261D01*
X157963821Y-105306077D01*
X157961699Y-105308198D01*
X157955481Y-105315775D01*
X157950861Y-105324419D01*
X157948016Y-105333799D01*
X157947055Y-105343553D01*
X157948016Y-105353307D01*
X157950861Y-105362687D01*
X157955481Y-105371331D01*
X157961694Y-105378902D01*
X158149084Y-105566292D01*
X157886040Y-105829336D01*
X157318940Y-105262236D01*
X157555827Y-105025349D01*
X157562040Y-105017778D01*
X157566660Y-105009134D01*
X157569505Y-104999754D01*
X157570466Y-104990000D01*
X157569505Y-104980246D01*
X157566660Y-104970866D01*
X157562040Y-104962222D01*
X157555827Y-104954651D01*
X157318940Y-104717764D01*
X157886040Y-104150664D01*
X158149084Y-104413708D01*
G37*
G36*
X137557124Y-105058780D02*
G01*
X137584845Y-105067190D01*
X137610389Y-105080844D01*
X137632780Y-105099220D01*
X137651156Y-105121611D01*
X137664810Y-105147155D01*
X137673220Y-105174876D01*
X137676300Y-105206153D01*
X137676300Y-105647247D01*
X137673220Y-105678524D01*
X137664810Y-105706245D01*
X137651156Y-105731789D01*
X137632780Y-105754180D01*
X137610389Y-105772556D01*
X137584845Y-105786210D01*
X137557124Y-105794620D01*
X137525847Y-105797700D01*
X137134753Y-105797700D01*
X137103476Y-105794620D01*
X137075755Y-105786210D01*
X137050211Y-105772556D01*
X137027820Y-105754180D01*
X137009444Y-105731789D01*
X136995790Y-105706245D01*
X136987380Y-105678524D01*
X136984300Y-105647247D01*
X136984300Y-105206153D01*
X136987380Y-105174876D01*
X136995790Y-105147155D01*
X137009444Y-105121611D01*
X137027820Y-105099220D01*
X137050211Y-105080844D01*
X137075755Y-105067190D01*
X137103476Y-105058780D01*
X137134753Y-105055700D01*
X137525847Y-105055700D01*
X137557124Y-105058780D01*
G37*
G36*
X136587124Y-105058780D02*
G01*
X136614845Y-105067190D01*
X136640389Y-105080844D01*
X136662780Y-105099220D01*
X136681156Y-105121611D01*
X136694810Y-105147155D01*
X136703220Y-105174876D01*
X136706300Y-105206153D01*
X136706300Y-105647247D01*
X136703220Y-105678524D01*
X136694810Y-105706245D01*
X136681156Y-105731789D01*
X136662780Y-105754180D01*
X136640389Y-105772556D01*
X136614845Y-105786210D01*
X136587124Y-105794620D01*
X136555847Y-105797700D01*
X136164753Y-105797700D01*
X136133476Y-105794620D01*
X136105755Y-105786210D01*
X136080211Y-105772556D01*
X136057820Y-105754180D01*
X136039444Y-105731789D01*
X136025790Y-105706245D01*
X136017380Y-105678524D01*
X136014300Y-105647247D01*
X136014300Y-105206153D01*
X136017380Y-105174876D01*
X136025790Y-105147155D01*
X136039444Y-105121611D01*
X136057820Y-105099220D01*
X136080211Y-105080844D01*
X136105755Y-105067190D01*
X136133476Y-105058780D01*
X136164753Y-105055700D01*
X136555847Y-105055700D01*
X136587124Y-105058780D01*
G37*
G36*
X140101000Y-105651000D02*
G01*
X139399000Y-105651000D01*
X139399000Y-104749000D01*
X140101000Y-104749000D01*
X140101000Y-105651000D01*
G37*
G36*
X138701000Y-105651000D02*
G01*
X137999000Y-105651000D01*
X137999000Y-104749000D01*
X138701000Y-104749000D01*
X138701000Y-105651000D01*
G37*
G36*
X142976000Y-105616000D02*
G01*
X142624000Y-105616000D01*
X142624000Y-104864000D01*
X142976000Y-104864000D01*
X142976000Y-105616000D01*
G37*
G36*
X166571000Y-105424600D02*
G01*
X163679000Y-105424600D01*
X163679000Y-104582600D01*
X166571000Y-104582600D01*
X166571000Y-105424600D01*
G37*
G36*
X170641000Y-105424600D02*
G01*
X167749000Y-105424600D01*
X167749000Y-104582600D01*
X170641000Y-104582600D01*
X170641000Y-105424600D01*
G37*
G36*
X143876000Y-105321000D02*
G01*
X143124000Y-105321000D01*
X143124000Y-103774000D01*
X143876000Y-103774000D01*
X143876000Y-105321000D01*
G37*
G36*
X142476000Y-105321000D02*
G01*
X141724000Y-105321000D01*
X141724000Y-103774000D01*
X142476000Y-103774000D01*
X142476000Y-105321000D01*
G37*
G36*
X135651824Y-104632080D02*
G01*
X135679545Y-104640490D01*
X135705089Y-104654144D01*
X135727480Y-104672520D01*
X135745856Y-104694911D01*
X135759510Y-104720455D01*
X135767920Y-104748176D01*
X135771000Y-104779453D01*
X135771000Y-105170547D01*
X135767920Y-105201824D01*
X135759510Y-105229545D01*
X135745856Y-105255089D01*
X135727480Y-105277480D01*
X135705089Y-105295856D01*
X135679545Y-105309510D01*
X135651824Y-105317920D01*
X135620547Y-105321000D01*
X135179453Y-105321000D01*
X135148176Y-105317920D01*
X135120455Y-105309510D01*
X135094911Y-105295856D01*
X135072520Y-105277480D01*
X135054144Y-105255089D01*
X135040490Y-105229545D01*
X135032080Y-105201824D01*
X135029000Y-105170547D01*
X135029000Y-104779453D01*
X135032080Y-104748176D01*
X135040490Y-104720455D01*
X135054144Y-104694911D01*
X135072520Y-104672520D01*
X135094911Y-104654144D01*
X135120455Y-104640490D01*
X135148176Y-104632080D01*
X135179453Y-104629000D01*
X135620547Y-104629000D01*
X135651824Y-104632080D01*
G37*
G36*
X134645000Y-105100000D02*
G01*
X133455000Y-105100000D01*
X133455000Y-104360000D01*
X134645000Y-104360000D01*
X134645000Y-105100000D01*
G37*
G36*
X141152824Y-104365080D02*
G01*
X141180545Y-104373490D01*
X141206089Y-104387144D01*
X141228480Y-104405520D01*
X141246856Y-104427911D01*
X141260510Y-104453455D01*
X141268920Y-104481176D01*
X141272000Y-104512453D01*
X141272000Y-104903547D01*
X141268920Y-104934824D01*
X141260510Y-104962545D01*
X141246856Y-104988089D01*
X141228480Y-105010480D01*
X141206089Y-105028856D01*
X141180545Y-105042510D01*
X141152824Y-105050920D01*
X141121547Y-105054000D01*
X140680453Y-105054000D01*
X140649176Y-105050920D01*
X140621455Y-105042510D01*
X140595911Y-105028856D01*
X140573520Y-105010480D01*
X140555144Y-104988089D01*
X140541490Y-104962545D01*
X140533080Y-104934824D01*
X140530000Y-104903547D01*
X140530000Y-104512453D01*
X140533080Y-104481176D01*
X140541490Y-104453455D01*
X140555144Y-104427911D01*
X140573520Y-104405520D01*
X140595911Y-104387144D01*
X140621455Y-104373490D01*
X140649176Y-104365080D01*
X140680453Y-104362000D01*
X141121547Y-104362000D01*
X141152824Y-104365080D01*
G37*
G36*
X130075000Y-105000000D02*
G01*
X129675000Y-105000000D01*
X129675000Y-104600000D01*
X130075000Y-104600000D01*
X130075000Y-105000000D01*
G37*
G36*
X125821000Y-104804600D02*
G01*
X123819000Y-104804600D01*
X123819000Y-103527600D01*
X125821000Y-103527600D01*
X125821000Y-104804600D01*
G37*
G36*
X129225000Y-104650000D02*
G01*
X128825000Y-104650000D01*
X128825000Y-104250000D01*
X129225000Y-104250000D01*
X129225000Y-104650000D01*
G37*
G36*
X147754614Y-104364211D02*
G01*
X147491570Y-104627255D01*
X146924470Y-104060155D01*
X147187514Y-103797111D01*
X147754614Y-104364211D01*
G37*
G36*
X157795530Y-104060155D02*
G01*
X157228430Y-104627255D01*
X156965386Y-104364211D01*
X157532486Y-103797111D01*
X157795530Y-104060155D01*
G37*
G36*
X130075000Y-104300000D02*
G01*
X129675000Y-104300000D01*
X129675000Y-103900000D01*
X130075000Y-103900000D01*
X130075000Y-104300000D01*
G37*
G36*
X157441977Y-103706601D02*
G01*
X156874877Y-104273701D01*
X156611833Y-104010657D01*
X157178933Y-103443557D01*
X157441977Y-103706601D01*
G37*
G36*
X148108167Y-104010657D02*
G01*
X147845123Y-104273701D01*
X147278023Y-103706601D01*
X147541067Y-103443557D01*
X148108167Y-104010657D01*
G37*
G36*
X140131000Y-104181000D02*
G01*
X139229000Y-104181000D01*
X139229000Y-103279000D01*
X140131000Y-103279000D01*
X140131000Y-104181000D01*
G37*
G36*
X138631000Y-104181000D02*
G01*
X137729000Y-104181000D01*
X137729000Y-103279000D01*
X138631000Y-103279000D01*
X138631000Y-104181000D01*
G37*
G36*
X142976000Y-104176000D02*
G01*
X142624000Y-104176000D01*
X142624000Y-103424000D01*
X142976000Y-103424000D01*
X142976000Y-104176000D01*
G37*
G36*
X137241000Y-104171000D02*
G01*
X136539000Y-104171000D01*
X136539000Y-103269000D01*
X137241000Y-103269000D01*
X137241000Y-104171000D01*
G37*
G36*
X135841000Y-104171000D02*
G01*
X135139000Y-104171000D01*
X135139000Y-103269000D01*
X135841000Y-103269000D01*
X135841000Y-104171000D01*
G37*
G36*
X134645000Y-104150000D02*
G01*
X133455000Y-104150000D01*
X133455000Y-103410000D01*
X134645000Y-103410000D01*
X134645000Y-104150000D01*
G37*
G36*
X131945000Y-104150000D02*
G01*
X130755000Y-104150000D01*
X130755000Y-103410000D01*
X131945000Y-103410000D01*
X131945000Y-104150000D01*
G37*
G36*
X145052824Y-103355080D02*
G01*
X145080545Y-103363490D01*
X145106089Y-103377144D01*
X145128480Y-103395520D01*
X145146856Y-103417911D01*
X145160510Y-103443455D01*
X145168920Y-103471176D01*
X145172000Y-103502453D01*
X145172000Y-103943547D01*
X145168920Y-103974824D01*
X145160510Y-104002545D01*
X145146856Y-104028089D01*
X145128480Y-104050480D01*
X145106089Y-104068856D01*
X145080545Y-104082510D01*
X145052824Y-104090920D01*
X145021547Y-104094000D01*
X144630453Y-104094000D01*
X144599176Y-104090920D01*
X144571455Y-104082510D01*
X144545911Y-104068856D01*
X144523520Y-104050480D01*
X144505144Y-104028089D01*
X144491490Y-104002545D01*
X144483080Y-103974824D01*
X144480000Y-103943547D01*
X144480000Y-103502453D01*
X144483080Y-103471176D01*
X144491490Y-103443455D01*
X144505144Y-103417911D01*
X144523520Y-103395520D01*
X144545911Y-103377144D01*
X144571455Y-103363490D01*
X144599176Y-103355080D01*
X144630453Y-103352000D01*
X145021547Y-103352000D01*
X145052824Y-103355080D01*
G37*
G36*
X146022824Y-103355080D02*
G01*
X146050545Y-103363490D01*
X146076089Y-103377144D01*
X146098480Y-103395520D01*
X146116856Y-103417911D01*
X146130510Y-103443455D01*
X146138920Y-103471176D01*
X146142000Y-103502453D01*
X146142000Y-103943547D01*
X146138920Y-103974824D01*
X146130510Y-104002545D01*
X146116856Y-104028089D01*
X146098480Y-104050480D01*
X146076089Y-104068856D01*
X146050545Y-104082510D01*
X146022824Y-104090920D01*
X145991547Y-104094000D01*
X145600453Y-104094000D01*
X145569176Y-104090920D01*
X145541455Y-104082510D01*
X145515911Y-104068856D01*
X145493520Y-104050480D01*
X145475144Y-104028089D01*
X145461490Y-104002545D01*
X145453080Y-103974824D01*
X145450000Y-103943547D01*
X145450000Y-103502453D01*
X145453080Y-103471176D01*
X145461490Y-103443455D01*
X145475144Y-103417911D01*
X145493520Y-103395520D01*
X145515911Y-103377144D01*
X145541455Y-103363490D01*
X145569176Y-103355080D01*
X145600453Y-103352000D01*
X145991547Y-103352000D01*
X146022824Y-103355080D01*
G37*
G36*
X148461721Y-103657104D02*
G01*
X148198677Y-103920148D01*
X147631577Y-103353048D01*
X147894621Y-103090004D01*
X148461721Y-103657104D01*
G37*
G36*
X157088423Y-103353048D02*
G01*
X156521323Y-103920148D01*
X156258279Y-103657104D01*
X156825379Y-103090004D01*
X157088423Y-103353048D01*
G37*
G36*
X159911824Y-103152080D02*
G01*
X159939545Y-103160490D01*
X159965089Y-103174144D01*
X159987480Y-103192520D01*
X160005856Y-103214911D01*
X160019510Y-103240455D01*
X160027920Y-103268176D01*
X160031000Y-103299453D01*
X160031000Y-103740547D01*
X160027920Y-103771824D01*
X160019510Y-103799545D01*
X160005856Y-103825089D01*
X159987480Y-103847480D01*
X159965089Y-103865856D01*
X159939545Y-103879510D01*
X159911824Y-103887920D01*
X159880547Y-103891000D01*
X159489453Y-103891000D01*
X159458176Y-103887920D01*
X159430455Y-103879510D01*
X159404911Y-103865856D01*
X159382520Y-103847480D01*
X159364144Y-103825089D01*
X159350490Y-103799545D01*
X159342080Y-103771824D01*
X159339000Y-103740547D01*
X159339000Y-103299453D01*
X159342080Y-103268176D01*
X159350490Y-103240455D01*
X159364144Y-103214911D01*
X159382520Y-103192520D01*
X159404911Y-103174144D01*
X159430455Y-103160490D01*
X159458176Y-103152080D01*
X159489453Y-103149000D01*
X159880547Y-103149000D01*
X159911824Y-103152080D01*
G37*
G36*
X158941824Y-103152080D02*
G01*
X158969545Y-103160490D01*
X158995089Y-103174144D01*
X159017480Y-103192520D01*
X159035856Y-103214911D01*
X159049510Y-103240455D01*
X159057920Y-103268176D01*
X159061000Y-103299453D01*
X159061000Y-103740547D01*
X159057920Y-103771824D01*
X159049510Y-103799545D01*
X159035856Y-103825089D01*
X159017480Y-103847480D01*
X158995089Y-103865856D01*
X158969545Y-103879510D01*
X158941824Y-103887920D01*
X158910547Y-103891000D01*
X158519453Y-103891000D01*
X158488176Y-103887920D01*
X158460455Y-103879510D01*
X158434911Y-103865856D01*
X158412520Y-103847480D01*
X158394144Y-103825089D01*
X158380490Y-103799545D01*
X158372080Y-103771824D01*
X158369000Y-103740547D01*
X158369000Y-103299453D01*
X158372080Y-103268176D01*
X158380490Y-103240455D01*
X158394144Y-103214911D01*
X158412520Y-103192520D01*
X158434911Y-103174144D01*
X158460455Y-103160490D01*
X158488176Y-103152080D01*
X158519453Y-103149000D01*
X158910547Y-103149000D01*
X158941824Y-103152080D01*
G37*
G36*
X165341000Y-103861000D02*
G01*
X163939000Y-103861000D01*
X163939000Y-103159000D01*
X165341000Y-103159000D01*
X165341000Y-103861000D01*
G37*
G36*
X166600000Y-103765000D02*
G01*
X166200000Y-103765000D01*
X166200000Y-103365000D01*
X166600000Y-103365000D01*
X166600000Y-103765000D01*
G37*
G36*
X167300000Y-103765000D02*
G01*
X166900000Y-103765000D01*
X166900000Y-103365000D01*
X167300000Y-103365000D01*
X167300000Y-103765000D01*
G37*
G36*
X141231824Y-102987080D02*
G01*
X141259545Y-102995490D01*
X141285089Y-103009144D01*
X141307480Y-103027520D01*
X141325856Y-103049911D01*
X141339510Y-103075455D01*
X141347920Y-103103176D01*
X141351000Y-103134453D01*
X141351000Y-103525547D01*
X141347920Y-103556824D01*
X141339510Y-103584545D01*
X141325856Y-103610089D01*
X141307480Y-103632480D01*
X141285089Y-103650856D01*
X141259545Y-103664510D01*
X141231824Y-103672920D01*
X141200547Y-103676000D01*
X140759453Y-103676000D01*
X140728176Y-103672920D01*
X140700455Y-103664510D01*
X140674911Y-103650856D01*
X140652520Y-103632480D01*
X140634144Y-103610089D01*
X140620490Y-103584545D01*
X140612080Y-103556824D01*
X140609000Y-103525547D01*
X140609000Y-103134453D01*
X140612080Y-103103176D01*
X140620490Y-103075455D01*
X140634144Y-103049911D01*
X140652520Y-103027520D01*
X140674911Y-103009144D01*
X140700455Y-102995490D01*
X140728176Y-102987080D01*
X140759453Y-102984000D01*
X141200547Y-102984000D01*
X141231824Y-102987080D01*
G37*
G36*
X148815274Y-103303550D02*
G01*
X148552230Y-103566594D01*
X147985130Y-102999494D01*
X148248174Y-102736450D01*
X148815274Y-103303550D01*
G37*
G36*
X156734870Y-102999494D02*
G01*
X156167770Y-103566594D01*
X155904726Y-103303550D01*
X156471826Y-102736450D01*
X156734870Y-102999494D01*
G37*
G36*
X177970312Y-101608164D02*
G01*
X178037326Y-101635922D01*
X178132098Y-101675178D01*
X178277703Y-101772468D01*
X178401532Y-101896297D01*
X178498822Y-102041902D01*
X178525146Y-102105455D01*
X178565836Y-102203688D01*
X178600000Y-102375441D01*
X178600000Y-102550559D01*
X178565836Y-102722312D01*
X178559979Y-102736451D01*
X178498822Y-102884098D01*
X178401532Y-103029703D01*
X178277703Y-103153532D01*
X178132098Y-103250822D01*
X178064070Y-103279000D01*
X177970312Y-103317836D01*
X177798559Y-103352000D01*
X177623441Y-103352000D01*
X177451688Y-103317836D01*
X177357930Y-103279000D01*
X177289902Y-103250822D01*
X177144297Y-103153532D01*
X177020468Y-103029703D01*
X176923178Y-102884098D01*
X176862021Y-102736451D01*
X176856164Y-102722312D01*
X176822000Y-102550559D01*
X176822000Y-102375441D01*
X176856164Y-102203688D01*
X176896854Y-102105455D01*
X176923178Y-102041902D01*
X177020468Y-101896297D01*
X177144297Y-101772468D01*
X177289902Y-101675178D01*
X177384674Y-101635922D01*
X177451688Y-101608164D01*
X177623441Y-101574000D01*
X177798559Y-101574000D01*
X177970312Y-101608164D01*
G37*
G36*
X175454312Y-101608164D02*
G01*
X175521326Y-101635922D01*
X175616098Y-101675178D01*
X175761703Y-101772468D01*
X175885532Y-101896297D01*
X175982822Y-102041902D01*
X176009146Y-102105455D01*
X176049836Y-102203688D01*
X176084000Y-102375441D01*
X176084000Y-102550559D01*
X176049836Y-102722312D01*
X176043979Y-102736451D01*
X175982822Y-102884098D01*
X175885532Y-103029703D01*
X175761703Y-103153532D01*
X175616098Y-103250822D01*
X175548070Y-103279000D01*
X175454312Y-103317836D01*
X175282559Y-103352000D01*
X175107441Y-103352000D01*
X174935688Y-103317836D01*
X174841930Y-103279000D01*
X174773902Y-103250822D01*
X174628297Y-103153532D01*
X174504468Y-103029703D01*
X174407178Y-102884098D01*
X174346021Y-102736451D01*
X174340164Y-102722312D01*
X174306000Y-102550559D01*
X174306000Y-102375441D01*
X174340164Y-102203688D01*
X174380854Y-102105455D01*
X174407178Y-102041902D01*
X174504468Y-101896297D01*
X174628297Y-101772468D01*
X174773902Y-101675178D01*
X174868674Y-101635922D01*
X174935688Y-101608164D01*
X175107441Y-101574000D01*
X175282559Y-101574000D01*
X175454312Y-101608164D01*
G37*
G36*
X162791000Y-103331000D02*
G01*
X161389000Y-103331000D01*
X161389000Y-102629000D01*
X162791000Y-102629000D01*
X162791000Y-103331000D01*
G37*
G36*
X125821000Y-103329600D02*
G01*
X123819000Y-103329600D01*
X123819000Y-100852600D01*
X125821000Y-100852600D01*
X125821000Y-103329600D01*
G37*
G36*
X129741000Y-103281000D02*
G01*
X128839000Y-103281000D01*
X128839000Y-102579000D01*
X129741000Y-102579000D01*
X129741000Y-103281000D01*
G37*
G36*
X156381317Y-102645941D02*
G01*
X155814217Y-103213041D01*
X155551173Y-102949997D01*
X156118273Y-102382897D01*
X156381317Y-102645941D01*
G37*
G36*
X149168827Y-102949997D02*
G01*
X148905783Y-103213041D01*
X148338683Y-102645941D01*
X148601727Y-102382897D01*
X149168827Y-102949997D01*
G37*
G36*
X142451000Y-102986000D02*
G01*
X141999000Y-102986000D01*
X141999000Y-102534000D01*
X142451000Y-102534000D01*
X142451000Y-102986000D01*
G37*
G36*
X143901000Y-102986000D02*
G01*
X143449000Y-102986000D01*
X143449000Y-102534000D01*
X143901000Y-102534000D01*
X143901000Y-102986000D01*
G37*
G36*
X166950000Y-102915000D02*
G01*
X166550000Y-102915000D01*
X166550000Y-102515000D01*
X166950000Y-102515000D01*
X166950000Y-102915000D01*
G37*
G36*
X145787142Y-101288242D02*
G01*
X145935098Y-101349528D01*
X145935100Y-101349529D01*
X146068257Y-101438501D01*
X146181499Y-101551743D01*
X146270471Y-101684900D01*
X146270472Y-101684902D01*
X146331758Y-101832858D01*
X146363000Y-101989925D01*
X146363000Y-102150075D01*
X146331758Y-102307142D01*
X146294257Y-102397676D01*
X146270471Y-102455100D01*
X146181499Y-102588257D01*
X146068257Y-102701499D01*
X145935100Y-102790471D01*
X145935099Y-102790472D01*
X145935098Y-102790472D01*
X145787142Y-102851758D01*
X145630075Y-102883000D01*
X145469925Y-102883000D01*
X145312858Y-102851758D01*
X145164902Y-102790472D01*
X145164901Y-102790472D01*
X145164900Y-102790471D01*
X145031743Y-102701499D01*
X144918501Y-102588257D01*
X144829529Y-102455100D01*
X144805743Y-102397676D01*
X144768242Y-102307142D01*
X144737000Y-102150075D01*
X144737000Y-101989925D01*
X144768242Y-101832858D01*
X144829528Y-101684902D01*
X144829529Y-101684900D01*
X144918501Y-101551743D01*
X145031743Y-101438501D01*
X145164900Y-101349529D01*
X145164902Y-101349528D01*
X145312858Y-101288242D01*
X145469925Y-101257000D01*
X145630075Y-101257000D01*
X145787142Y-101288242D01*
G37*
G36*
X149522381Y-102596444D02*
G01*
X149259337Y-102859488D01*
X148692237Y-102292388D01*
X148955281Y-102029344D01*
X149522381Y-102596444D01*
G37*
G36*
X156027763Y-102292388D02*
G01*
X155460663Y-102859488D01*
X155197619Y-102596444D01*
X155764719Y-102029344D01*
X156027763Y-102292388D01*
G37*
G36*
X139911824Y-102052080D02*
G01*
X139939545Y-102060490D01*
X139965089Y-102074144D01*
X139987480Y-102092520D01*
X140005856Y-102114911D01*
X140019510Y-102140455D01*
X140027920Y-102168176D01*
X140031000Y-102199453D01*
X140031000Y-102640547D01*
X140027920Y-102671824D01*
X140019510Y-102699545D01*
X140005856Y-102725089D01*
X139987480Y-102747480D01*
X139965089Y-102765856D01*
X139939545Y-102779510D01*
X139911824Y-102787920D01*
X139880547Y-102791000D01*
X139489453Y-102791000D01*
X139458176Y-102787920D01*
X139430455Y-102779510D01*
X139404911Y-102765856D01*
X139382520Y-102747480D01*
X139364144Y-102725089D01*
X139350490Y-102699545D01*
X139342080Y-102671824D01*
X139339000Y-102640547D01*
X139339000Y-102199453D01*
X139342080Y-102168176D01*
X139350490Y-102140455D01*
X139364144Y-102114911D01*
X139382520Y-102092520D01*
X139404911Y-102074144D01*
X139430455Y-102060490D01*
X139458176Y-102052080D01*
X139489453Y-102049000D01*
X139880547Y-102049000D01*
X139911824Y-102052080D01*
G37*
G36*
X138941824Y-102052080D02*
G01*
X138969545Y-102060490D01*
X138995089Y-102074144D01*
X139017480Y-102092520D01*
X139035856Y-102114911D01*
X139049510Y-102140455D01*
X139057920Y-102168176D01*
X139061000Y-102199453D01*
X139061000Y-102640547D01*
X139057920Y-102671824D01*
X139049510Y-102699545D01*
X139035856Y-102725089D01*
X139017480Y-102747480D01*
X138995089Y-102765856D01*
X138969545Y-102779510D01*
X138941824Y-102787920D01*
X138910547Y-102791000D01*
X138519453Y-102791000D01*
X138488176Y-102787920D01*
X138460455Y-102779510D01*
X138434911Y-102765856D01*
X138412520Y-102747480D01*
X138394144Y-102725089D01*
X138380490Y-102699545D01*
X138372080Y-102671824D01*
X138369000Y-102640547D01*
X138369000Y-102199453D01*
X138372080Y-102168176D01*
X138380490Y-102140455D01*
X138394144Y-102114911D01*
X138412520Y-102092520D01*
X138434911Y-102074144D01*
X138460455Y-102060490D01*
X138488176Y-102052080D01*
X138519453Y-102049000D01*
X138910547Y-102049000D01*
X138941824Y-102052080D01*
G37*
G36*
X141231824Y-102017080D02*
G01*
X141259545Y-102025490D01*
X141285089Y-102039144D01*
X141307480Y-102057520D01*
X141325856Y-102079911D01*
X141339510Y-102105455D01*
X141347920Y-102133176D01*
X141351000Y-102164453D01*
X141351000Y-102555547D01*
X141347920Y-102586824D01*
X141339510Y-102614545D01*
X141325856Y-102640089D01*
X141307480Y-102662480D01*
X141285089Y-102680856D01*
X141259545Y-102694510D01*
X141231824Y-102702920D01*
X141200547Y-102706000D01*
X140759453Y-102706000D01*
X140728176Y-102702920D01*
X140700455Y-102694510D01*
X140674911Y-102680856D01*
X140652520Y-102662480D01*
X140634144Y-102640089D01*
X140620490Y-102614545D01*
X140612080Y-102586824D01*
X140609000Y-102555547D01*
X140609000Y-102164453D01*
X140612080Y-102133176D01*
X140620490Y-102105455D01*
X140634144Y-102079911D01*
X140652520Y-102057520D01*
X140674911Y-102039144D01*
X140700455Y-102025490D01*
X140728176Y-102017080D01*
X140759453Y-102014000D01*
X141200547Y-102014000D01*
X141231824Y-102017080D01*
G37*
G36*
X135320100Y-102701000D02*
G01*
X134218100Y-102701000D01*
X134218100Y-99099000D01*
X135320100Y-99099000D01*
X135320100Y-102701000D01*
G37*
G36*
X133320100Y-102701000D02*
G01*
X132218100Y-102701000D01*
X132218100Y-99099000D01*
X133320100Y-99099000D01*
X133320100Y-102701000D01*
G37*
G36*
X159391824Y-101882080D02*
G01*
X159419545Y-101890490D01*
X159445089Y-101904144D01*
X159467480Y-101922520D01*
X159485856Y-101944911D01*
X159499510Y-101970455D01*
X159507920Y-101998176D01*
X159511000Y-102029453D01*
X159511000Y-102470547D01*
X159507920Y-102501824D01*
X159499510Y-102529545D01*
X159485856Y-102555089D01*
X159467480Y-102577480D01*
X159445089Y-102595856D01*
X159419545Y-102609510D01*
X159391824Y-102617920D01*
X159360547Y-102621000D01*
X158969453Y-102621000D01*
X158938176Y-102617920D01*
X158910455Y-102609510D01*
X158884911Y-102595856D01*
X158862520Y-102577480D01*
X158844144Y-102555089D01*
X158830490Y-102529545D01*
X158822080Y-102501824D01*
X158819000Y-102470547D01*
X158819000Y-102029453D01*
X158822080Y-101998176D01*
X158830490Y-101970455D01*
X158844144Y-101944911D01*
X158862520Y-101922520D01*
X158884911Y-101904144D01*
X158910455Y-101890490D01*
X158938176Y-101882080D01*
X158969453Y-101879000D01*
X159360547Y-101879000D01*
X159391824Y-101882080D01*
G37*
G36*
X160361824Y-101882080D02*
G01*
X160389545Y-101890490D01*
X160415089Y-101904144D01*
X160437480Y-101922520D01*
X160455856Y-101944911D01*
X160469510Y-101970455D01*
X160477920Y-101998176D01*
X160481000Y-102029453D01*
X160481000Y-102470547D01*
X160477920Y-102501824D01*
X160469510Y-102529545D01*
X160455856Y-102555089D01*
X160437480Y-102577480D01*
X160415089Y-102595856D01*
X160389545Y-102609510D01*
X160361824Y-102617920D01*
X160330547Y-102621000D01*
X159939453Y-102621000D01*
X159908176Y-102617920D01*
X159880455Y-102609510D01*
X159854911Y-102595856D01*
X159832520Y-102577480D01*
X159814144Y-102555089D01*
X159800490Y-102529545D01*
X159792080Y-102501824D01*
X159789000Y-102470547D01*
X159789000Y-102029453D01*
X159792080Y-101998176D01*
X159800490Y-101970455D01*
X159814144Y-101944911D01*
X159832520Y-101922520D01*
X159854911Y-101904144D01*
X159880455Y-101890490D01*
X159908176Y-101882080D01*
X159939453Y-101879000D01*
X160330547Y-101879000D01*
X160361824Y-101882080D01*
G37*
G36*
X155674210Y-101938834D02*
G01*
X155107110Y-102505934D01*
X154844066Y-102242890D01*
X155411166Y-101675790D01*
X155674210Y-101938834D01*
G37*
G36*
X149875934Y-102242890D02*
G01*
X149612890Y-102505934D01*
X149045790Y-101938834D01*
X149308834Y-101675790D01*
X149875934Y-102242890D01*
G37*
G36*
X147731824Y-101712080D02*
G01*
X147759545Y-101720490D01*
X147785089Y-101734144D01*
X147807480Y-101752520D01*
X147825856Y-101774911D01*
X147839510Y-101800455D01*
X147847920Y-101828176D01*
X147851000Y-101859453D01*
X147851000Y-102250547D01*
X147847920Y-102281824D01*
X147839510Y-102309545D01*
X147825856Y-102335089D01*
X147807480Y-102357480D01*
X147785089Y-102375856D01*
X147759545Y-102389510D01*
X147731824Y-102397920D01*
X147700547Y-102401000D01*
X147259453Y-102401000D01*
X147228176Y-102397920D01*
X147200455Y-102389510D01*
X147174911Y-102375856D01*
X147152520Y-102357480D01*
X147134144Y-102335089D01*
X147120490Y-102309545D01*
X147112080Y-102281824D01*
X147109000Y-102250547D01*
X147109000Y-101859453D01*
X147112080Y-101828176D01*
X147120490Y-101800455D01*
X147134144Y-101774911D01*
X147152520Y-101752520D01*
X147174911Y-101734144D01*
X147200455Y-101720490D01*
X147228176Y-101712080D01*
X147259453Y-101709000D01*
X147700547Y-101709000D01*
X147731824Y-101712080D01*
G37*
G36*
X165341000Y-102361000D02*
G01*
X163939000Y-102361000D01*
X163939000Y-101659000D01*
X165341000Y-101659000D01*
X165341000Y-102361000D01*
G37*
G36*
X142451000Y-102336000D02*
G01*
X141999000Y-102336000D01*
X141999000Y-101884000D01*
X142451000Y-101884000D01*
X142451000Y-102336000D01*
G37*
G36*
X143901000Y-102336000D02*
G01*
X143449000Y-102336000D01*
X143449000Y-101884000D01*
X143901000Y-101884000D01*
X143901000Y-102336000D01*
G37*
G36*
X173762000Y-102294000D02*
G01*
X172860000Y-102294000D01*
X172860000Y-98392000D01*
X173762000Y-98392000D01*
X173762000Y-102294000D01*
G37*
G36*
X171962000Y-102294000D02*
G01*
X171060000Y-102294000D01*
X171060000Y-98392000D01*
X171962000Y-98392000D01*
X171962000Y-102294000D01*
G37*
G36*
X150229488Y-101889337D02*
G01*
X149966444Y-102152381D01*
X149399344Y-101585281D01*
X149662388Y-101322237D01*
X150229488Y-101889337D01*
G37*
G36*
X155320656Y-101585281D02*
G01*
X154753556Y-102152381D01*
X154490512Y-101889337D01*
X155057612Y-101322237D01*
X155320656Y-101585281D01*
G37*
G36*
X129741000Y-101881000D02*
G01*
X128839000Y-101881000D01*
X128839000Y-101179000D01*
X129741000Y-101179000D01*
X129741000Y-101881000D01*
G37*
G36*
X162791000Y-101831000D02*
G01*
X161389000Y-101831000D01*
X161389000Y-101129000D01*
X162791000Y-101129000D01*
X162791000Y-101831000D01*
G37*
G36*
X154967103Y-101231727D02*
G01*
X154400003Y-101798827D01*
X154136959Y-101535783D01*
X154704059Y-100968683D01*
X154967103Y-101231727D01*
G37*
G36*
X150583041Y-101535783D02*
G01*
X150319997Y-101798827D01*
X149752897Y-101231727D01*
X150015941Y-100968683D01*
X150583041Y-101535783D01*
G37*
G36*
X143901000Y-101686000D02*
G01*
X143449000Y-101686000D01*
X143449000Y-101234000D01*
X143901000Y-101234000D01*
X143901000Y-101686000D01*
G37*
G36*
X142451000Y-101686000D02*
G01*
X141999000Y-101686000D01*
X141999000Y-101234000D01*
X142451000Y-101234000D01*
X142451000Y-101686000D01*
G37*
G36*
X148681824Y-100792080D02*
G01*
X148709545Y-100800490D01*
X148735089Y-100814144D01*
X148757480Y-100832520D01*
X148775856Y-100854911D01*
X148789510Y-100880455D01*
X148797920Y-100908176D01*
X148801000Y-100939453D01*
X148801000Y-101330547D01*
X148797920Y-101361824D01*
X148789510Y-101389545D01*
X148775856Y-101415089D01*
X148757480Y-101437480D01*
X148735089Y-101455856D01*
X148709545Y-101469510D01*
X148681824Y-101477920D01*
X148650547Y-101481000D01*
X148209453Y-101481000D01*
X148178176Y-101477920D01*
X148150455Y-101469510D01*
X148124911Y-101455856D01*
X148102520Y-101437480D01*
X148084144Y-101415089D01*
X148070490Y-101389545D01*
X148062080Y-101361824D01*
X148059000Y-101330547D01*
X148059000Y-100939453D01*
X148062080Y-100908176D01*
X148070490Y-100880455D01*
X148084144Y-100854911D01*
X148102520Y-100832520D01*
X148124911Y-100814144D01*
X148150455Y-100800490D01*
X148178176Y-100792080D01*
X148209453Y-100789000D01*
X148650547Y-100789000D01*
X148681824Y-100792080D01*
G37*
G36*
X154613550Y-100878174D02*
G01*
X154046450Y-101445274D01*
X153783406Y-101182230D01*
X154350506Y-100615130D01*
X154613550Y-100878174D01*
G37*
G36*
X150936594Y-101182230D02*
G01*
X150673550Y-101445274D01*
X150106450Y-100878174D01*
X150369494Y-100615130D01*
X150936594Y-101182230D01*
G37*
G36*
X147731824Y-100742080D02*
G01*
X147759545Y-100750490D01*
X147785089Y-100764144D01*
X147807480Y-100782520D01*
X147825856Y-100804911D01*
X147839510Y-100830455D01*
X147847920Y-100858176D01*
X147851000Y-100889453D01*
X147851000Y-101280547D01*
X147847920Y-101311824D01*
X147839510Y-101339545D01*
X147825856Y-101365089D01*
X147807480Y-101387480D01*
X147785089Y-101405856D01*
X147759545Y-101419510D01*
X147731824Y-101427920D01*
X147700547Y-101431000D01*
X147259453Y-101431000D01*
X147228176Y-101427920D01*
X147200455Y-101419510D01*
X147174911Y-101405856D01*
X147152520Y-101387480D01*
X147134144Y-101365089D01*
X147120490Y-101339545D01*
X147112080Y-101311824D01*
X147109000Y-101280547D01*
X147109000Y-100889453D01*
X147112080Y-100858176D01*
X147120490Y-100830455D01*
X147134144Y-100804911D01*
X147152520Y-100782520D01*
X147174911Y-100764144D01*
X147200455Y-100750490D01*
X147228176Y-100742080D01*
X147259453Y-100739000D01*
X147700547Y-100739000D01*
X147731824Y-100742080D01*
G37*
G36*
X139751000Y-101431000D02*
G01*
X138849000Y-101431000D01*
X138849000Y-100329000D01*
X139751000Y-100329000D01*
X139751000Y-101431000D01*
G37*
G36*
X141151000Y-101431000D02*
G01*
X140249000Y-101431000D01*
X140249000Y-100329000D01*
X141151000Y-100329000D01*
X141151000Y-101431000D01*
G37*
G36*
X151290148Y-100828677D02*
G01*
X151027104Y-101091721D01*
X150460004Y-100524621D01*
X150723048Y-100261577D01*
X151290148Y-100828677D01*
G37*
G36*
X154259996Y-100524621D02*
G01*
X153692896Y-101091721D01*
X153429852Y-100828677D01*
X153996952Y-100261577D01*
X154259996Y-100524621D01*
G37*
G36*
X142451000Y-101036000D02*
G01*
X141999000Y-101036000D01*
X141999000Y-100584000D01*
X142451000Y-100584000D01*
X142451000Y-101036000D01*
G37*
G36*
X143901000Y-101036000D02*
G01*
X143449000Y-101036000D01*
X143449000Y-100584000D01*
X143901000Y-100584000D01*
X143901000Y-101036000D01*
G37*
G36*
X175430312Y-99068164D02*
G01*
X175480614Y-99089000D01*
X175592098Y-99135178D01*
X175737703Y-99232468D01*
X175861532Y-99356297D01*
X175958822Y-99501902D01*
X175991585Y-99581000D01*
X176025836Y-99663688D01*
X176060000Y-99835441D01*
X176060000Y-100010559D01*
X176025836Y-100182312D01*
X176009811Y-100221000D01*
X175958822Y-100344098D01*
X175861532Y-100489703D01*
X175737703Y-100613532D01*
X175592098Y-100710822D01*
X175526083Y-100738166D01*
X175430312Y-100777836D01*
X175258559Y-100812000D01*
X175083441Y-100812000D01*
X174911688Y-100777836D01*
X174815917Y-100738166D01*
X174749902Y-100710822D01*
X174604297Y-100613532D01*
X174480468Y-100489703D01*
X174383178Y-100344098D01*
X174332189Y-100221000D01*
X174316164Y-100182312D01*
X174282000Y-100010559D01*
X174282000Y-99835441D01*
X174316164Y-99663688D01*
X174350415Y-99581000D01*
X174383178Y-99501902D01*
X174480468Y-99356297D01*
X174604297Y-99232468D01*
X174749902Y-99135178D01*
X174861386Y-99089000D01*
X174911688Y-99068164D01*
X175083441Y-99034000D01*
X175258559Y-99034000D01*
X175430312Y-99068164D01*
G37*
G36*
X177970312Y-99068164D02*
G01*
X178020614Y-99089000D01*
X178132098Y-99135178D01*
X178277703Y-99232468D01*
X178401532Y-99356297D01*
X178498822Y-99501902D01*
X178531585Y-99581000D01*
X178565836Y-99663688D01*
X178600000Y-99835441D01*
X178600000Y-100010559D01*
X178565836Y-100182312D01*
X178549811Y-100221000D01*
X178498822Y-100344098D01*
X178401532Y-100489703D01*
X178277703Y-100613532D01*
X178132098Y-100710822D01*
X178066083Y-100738166D01*
X177970312Y-100777836D01*
X177798559Y-100812000D01*
X177623441Y-100812000D01*
X177451688Y-100777836D01*
X177355917Y-100738166D01*
X177289902Y-100710822D01*
X177144297Y-100613532D01*
X177020468Y-100489703D01*
X176923178Y-100344098D01*
X176872189Y-100221000D01*
X176856164Y-100182312D01*
X176822000Y-100010559D01*
X176822000Y-99835441D01*
X176856164Y-99663688D01*
X176890415Y-99581000D01*
X176923178Y-99501902D01*
X177020468Y-99356297D01*
X177144297Y-99232468D01*
X177289902Y-99135178D01*
X177401386Y-99089000D01*
X177451688Y-99068164D01*
X177623441Y-99034000D01*
X177798559Y-99034000D01*
X177970312Y-99068164D01*
G37*
G36*
X151643701Y-100475123D02*
G01*
X151380657Y-100738167D01*
X150813557Y-100171067D01*
X151076601Y-99908023D01*
X151643701Y-100475123D01*
G37*
G36*
X153906443Y-100171067D02*
G01*
X153339343Y-100738167D01*
X153076299Y-100475123D01*
X153643399Y-99908023D01*
X153906443Y-100171067D01*
G37*
G36*
X167788142Y-99141242D02*
G01*
X167936098Y-99202528D01*
X167936100Y-99202529D01*
X168069257Y-99291501D01*
X168182499Y-99404743D01*
X168271190Y-99537480D01*
X168271472Y-99537902D01*
X168332758Y-99685858D01*
X168364000Y-99842925D01*
X168364000Y-100003075D01*
X168332758Y-100160142D01*
X168274101Y-100301751D01*
X168271471Y-100308100D01*
X168182499Y-100441257D01*
X168069257Y-100554499D01*
X167936100Y-100643471D01*
X167936099Y-100643472D01*
X167936098Y-100643472D01*
X167788142Y-100704758D01*
X167631075Y-100736000D01*
X167470925Y-100736000D01*
X167313858Y-100704758D01*
X167165902Y-100643472D01*
X167165901Y-100643472D01*
X167165900Y-100643471D01*
X167032743Y-100554499D01*
X166919501Y-100441257D01*
X166830529Y-100308100D01*
X166827899Y-100301751D01*
X166769242Y-100160142D01*
X166738000Y-100003075D01*
X166738000Y-99842925D01*
X166769242Y-99685858D01*
X166830528Y-99537902D01*
X166830810Y-99537480D01*
X166919501Y-99404743D01*
X167032743Y-99291501D01*
X167165900Y-99202529D01*
X167165902Y-99202528D01*
X167313858Y-99141242D01*
X167470925Y-99110000D01*
X167631075Y-99110000D01*
X167788142Y-99141242D01*
G37*
G36*
X165248142Y-99141242D02*
G01*
X165396098Y-99202528D01*
X165396100Y-99202529D01*
X165529257Y-99291501D01*
X165642499Y-99404743D01*
X165731190Y-99537480D01*
X165731472Y-99537902D01*
X165792758Y-99685858D01*
X165824000Y-99842925D01*
X165824000Y-100003075D01*
X165792758Y-100160142D01*
X165734101Y-100301751D01*
X165731471Y-100308100D01*
X165642499Y-100441257D01*
X165529257Y-100554499D01*
X165396100Y-100643471D01*
X165396099Y-100643472D01*
X165396098Y-100643472D01*
X165248142Y-100704758D01*
X165091075Y-100736000D01*
X164930925Y-100736000D01*
X164773858Y-100704758D01*
X164625902Y-100643472D01*
X164625901Y-100643472D01*
X164625900Y-100643471D01*
X164492743Y-100554499D01*
X164379501Y-100441257D01*
X164290529Y-100308100D01*
X164287899Y-100301751D01*
X164229242Y-100160142D01*
X164198000Y-100003075D01*
X164198000Y-99842925D01*
X164229242Y-99685858D01*
X164290528Y-99537902D01*
X164290810Y-99537480D01*
X164379501Y-99404743D01*
X164492743Y-99291501D01*
X164625900Y-99202529D01*
X164625902Y-99202528D01*
X164773858Y-99141242D01*
X164930925Y-99110000D01*
X165091075Y-99110000D01*
X165248142Y-99141242D01*
G37*
G36*
X156071824Y-99892080D02*
G01*
X156099545Y-99900490D01*
X156125089Y-99914144D01*
X156147480Y-99932520D01*
X156165856Y-99954911D01*
X156179510Y-99980455D01*
X156187920Y-100008176D01*
X156191000Y-100039453D01*
X156191000Y-100480547D01*
X156187920Y-100511824D01*
X156179510Y-100539545D01*
X156165856Y-100565089D01*
X156147480Y-100587480D01*
X156125089Y-100605856D01*
X156099545Y-100619510D01*
X156071824Y-100627920D01*
X156040547Y-100631000D01*
X155649453Y-100631000D01*
X155618176Y-100627920D01*
X155590455Y-100619510D01*
X155564911Y-100605856D01*
X155542520Y-100587480D01*
X155524144Y-100565089D01*
X155510490Y-100539545D01*
X155502080Y-100511824D01*
X155499000Y-100480547D01*
X155499000Y-100039453D01*
X155502080Y-100008176D01*
X155510490Y-99980455D01*
X155524144Y-99954911D01*
X155542520Y-99932520D01*
X155564911Y-99914144D01*
X155590455Y-99900490D01*
X155618176Y-99892080D01*
X155649453Y-99889000D01*
X156040547Y-99889000D01*
X156071824Y-99892080D01*
G37*
G36*
X157041824Y-99892080D02*
G01*
X157069545Y-99900490D01*
X157095089Y-99914144D01*
X157117480Y-99932520D01*
X157135856Y-99954911D01*
X157149510Y-99980455D01*
X157157920Y-100008176D01*
X157161000Y-100039453D01*
X157161000Y-100480547D01*
X157157920Y-100511824D01*
X157149510Y-100539545D01*
X157135856Y-100565089D01*
X157117480Y-100587480D01*
X157095089Y-100605856D01*
X157069545Y-100619510D01*
X157041824Y-100627920D01*
X157010547Y-100631000D01*
X156619453Y-100631000D01*
X156588176Y-100627920D01*
X156560455Y-100619510D01*
X156534911Y-100605856D01*
X156512520Y-100587480D01*
X156494144Y-100565089D01*
X156480490Y-100539545D01*
X156472080Y-100511824D01*
X156469000Y-100480547D01*
X156469000Y-100039453D01*
X156472080Y-100008176D01*
X156480490Y-99980455D01*
X156494144Y-99954911D01*
X156512520Y-99932520D01*
X156534911Y-99914144D01*
X156560455Y-99900490D01*
X156588176Y-99892080D01*
X156619453Y-99889000D01*
X157010547Y-99889000D01*
X157041824Y-99892080D01*
G37*
G36*
X148681824Y-99822080D02*
G01*
X148709545Y-99830490D01*
X148735089Y-99844144D01*
X148757480Y-99862520D01*
X148775856Y-99884911D01*
X148789510Y-99910455D01*
X148797920Y-99938176D01*
X148801000Y-99969453D01*
X148801000Y-100360547D01*
X148797920Y-100391824D01*
X148789510Y-100419545D01*
X148775856Y-100445089D01*
X148757480Y-100467480D01*
X148735089Y-100485856D01*
X148709545Y-100499510D01*
X148681824Y-100507920D01*
X148650547Y-100511000D01*
X148209453Y-100511000D01*
X148178176Y-100507920D01*
X148150455Y-100499510D01*
X148124911Y-100485856D01*
X148102520Y-100467480D01*
X148084144Y-100445089D01*
X148070490Y-100419545D01*
X148062080Y-100391824D01*
X148059000Y-100360547D01*
X148059000Y-99969453D01*
X148062080Y-99938176D01*
X148070490Y-99910455D01*
X148084144Y-99884911D01*
X148102520Y-99862520D01*
X148124911Y-99844144D01*
X148150455Y-99830490D01*
X148178176Y-99822080D01*
X148209453Y-99819000D01*
X148650547Y-99819000D01*
X148681824Y-99822080D01*
G37*
G36*
X162971824Y-99812080D02*
G01*
X162999545Y-99820490D01*
X163025089Y-99834144D01*
X163047480Y-99852520D01*
X163065856Y-99874911D01*
X163079510Y-99900455D01*
X163087920Y-99928176D01*
X163091000Y-99959453D01*
X163091000Y-100350547D01*
X163087920Y-100381824D01*
X163079510Y-100409545D01*
X163065856Y-100435089D01*
X163047480Y-100457480D01*
X163025089Y-100475856D01*
X162999545Y-100489510D01*
X162971824Y-100497920D01*
X162940547Y-100501000D01*
X162499453Y-100501000D01*
X162468176Y-100497920D01*
X162440455Y-100489510D01*
X162414911Y-100475856D01*
X162392520Y-100457480D01*
X162374144Y-100435089D01*
X162360490Y-100409545D01*
X162352080Y-100381824D01*
X162349000Y-100350547D01*
X162349000Y-99959453D01*
X162352080Y-99928176D01*
X162360490Y-99900455D01*
X162374144Y-99874911D01*
X162392520Y-99852520D01*
X162414911Y-99834144D01*
X162440455Y-99820490D01*
X162468176Y-99812080D01*
X162499453Y-99809000D01*
X162940547Y-99809000D01*
X162971824Y-99812080D01*
G37*
G36*
X147601824Y-99752080D02*
G01*
X147629545Y-99760490D01*
X147655089Y-99774144D01*
X147677480Y-99792520D01*
X147695856Y-99814911D01*
X147709510Y-99840455D01*
X147717920Y-99868176D01*
X147721000Y-99899453D01*
X147721000Y-100290547D01*
X147717920Y-100321824D01*
X147709510Y-100349545D01*
X147695856Y-100375089D01*
X147677480Y-100397480D01*
X147655089Y-100415856D01*
X147629545Y-100429510D01*
X147601824Y-100437920D01*
X147570547Y-100441000D01*
X147129453Y-100441000D01*
X147098176Y-100437920D01*
X147070455Y-100429510D01*
X147044911Y-100415856D01*
X147022520Y-100397480D01*
X147004144Y-100375089D01*
X146990490Y-100349545D01*
X146982080Y-100321824D01*
X146979000Y-100290547D01*
X146979000Y-99899453D01*
X146982080Y-99868176D01*
X146990490Y-99840455D01*
X147004144Y-99814911D01*
X147022520Y-99792520D01*
X147044911Y-99774144D01*
X147070455Y-99760490D01*
X147098176Y-99752080D01*
X147129453Y-99749000D01*
X147570547Y-99749000D01*
X147601824Y-99752080D01*
G37*
G36*
X153552889Y-99817514D02*
G01*
X152985789Y-100384614D01*
X152722745Y-100121570D01*
X153289845Y-99554470D01*
X153552889Y-99817514D01*
G37*
G36*
X151997255Y-100121570D02*
G01*
X151734211Y-100384614D01*
X151167111Y-99817514D01*
X151430155Y-99554470D01*
X151997255Y-100121570D01*
G37*
G36*
X143581824Y-99482080D02*
G01*
X143609545Y-99490490D01*
X143635089Y-99504144D01*
X143657480Y-99522520D01*
X143675856Y-99544911D01*
X143689510Y-99570455D01*
X143697920Y-99598176D01*
X143701000Y-99629453D01*
X143701000Y-100070547D01*
X143697920Y-100101824D01*
X143689510Y-100129545D01*
X143675856Y-100155089D01*
X143657480Y-100177480D01*
X143635089Y-100195856D01*
X143609545Y-100209510D01*
X143581824Y-100217920D01*
X143550547Y-100221000D01*
X143159453Y-100221000D01*
X143128176Y-100217920D01*
X143100455Y-100209510D01*
X143074911Y-100195856D01*
X143052520Y-100177480D01*
X143034144Y-100155089D01*
X143020490Y-100129545D01*
X143012080Y-100101824D01*
X143009000Y-100070547D01*
X143009000Y-99629453D01*
X143012080Y-99598176D01*
X143020490Y-99570455D01*
X143034144Y-99544911D01*
X143052520Y-99522520D01*
X143074911Y-99504144D01*
X143100455Y-99490490D01*
X143128176Y-99482080D01*
X143159453Y-99479000D01*
X143550547Y-99479000D01*
X143581824Y-99482080D01*
G37*
G36*
X142611824Y-99482080D02*
G01*
X142639545Y-99490490D01*
X142665089Y-99504144D01*
X142687480Y-99522520D01*
X142705856Y-99544911D01*
X142719510Y-99570455D01*
X142727920Y-99598176D01*
X142731000Y-99629453D01*
X142731000Y-100070547D01*
X142727920Y-100101824D01*
X142719510Y-100129545D01*
X142705856Y-100155089D01*
X142687480Y-100177480D01*
X142665089Y-100195856D01*
X142639545Y-100209510D01*
X142611824Y-100217920D01*
X142580547Y-100221000D01*
X142189453Y-100221000D01*
X142158176Y-100217920D01*
X142130455Y-100209510D01*
X142104911Y-100195856D01*
X142082520Y-100177480D01*
X142064144Y-100155089D01*
X142050490Y-100129545D01*
X142042080Y-100101824D01*
X142039000Y-100070547D01*
X142039000Y-99629453D01*
X142042080Y-99598176D01*
X142050490Y-99570455D01*
X142064144Y-99544911D01*
X142082520Y-99522520D01*
X142104911Y-99504144D01*
X142130455Y-99490490D01*
X142158176Y-99482080D01*
X142189453Y-99479000D01*
X142580547Y-99479000D01*
X142611824Y-99482080D01*
G37*
G36*
X146481000Y-100141000D02*
G01*
X145779000Y-100141000D01*
X145779000Y-98739000D01*
X146481000Y-98739000D01*
X146481000Y-100141000D01*
G37*
G36*
X144981000Y-100141000D02*
G01*
X144279000Y-100141000D01*
X144279000Y-98739000D01*
X144981000Y-98739000D01*
X144981000Y-100141000D01*
G37*
G36*
X152845783Y-99110407D02*
G01*
X152306967Y-99649223D01*
X152304845Y-99651344D01*
X152298627Y-99658921D01*
X152294007Y-99667565D01*
X152291162Y-99676945D01*
X152290201Y-99686699D01*
X152291162Y-99696453D01*
X152294007Y-99705833D01*
X152298627Y-99714477D01*
X152304840Y-99722048D01*
X152324651Y-99741859D01*
X152332222Y-99748072D01*
X152340866Y-99752692D01*
X152350246Y-99755537D01*
X152360000Y-99756498D01*
X152369754Y-99755537D01*
X152379134Y-99752692D01*
X152387778Y-99748072D01*
X152395349Y-99741859D01*
X152936292Y-99200916D01*
X153199336Y-99463960D01*
X152632236Y-100031060D01*
X152395349Y-99794173D01*
X152387778Y-99787960D01*
X152379134Y-99783340D01*
X152369754Y-99780495D01*
X152360000Y-99779534D01*
X152350246Y-99780495D01*
X152340866Y-99783340D01*
X152332222Y-99787960D01*
X152324651Y-99794173D01*
X152087764Y-100031060D01*
X151520664Y-99463960D01*
X151783708Y-99200916D01*
X151971098Y-99388306D01*
X151978669Y-99394519D01*
X151987313Y-99399139D01*
X151996693Y-99401984D01*
X152006447Y-99402945D01*
X152016201Y-99401984D01*
X152025581Y-99399139D01*
X152034225Y-99394519D01*
X152041802Y-99388301D01*
X152043924Y-99386180D01*
X152043923Y-99386179D01*
X152582739Y-98847363D01*
X152845783Y-99110407D01*
G37*
G36*
X161551000Y-99991000D02*
G01*
X157649000Y-99991000D01*
X157649000Y-99089000D01*
X161551000Y-99089000D01*
X161551000Y-99991000D01*
G37*
G36*
X125526000Y-99976000D02*
G01*
X124524000Y-99976000D01*
X124524000Y-98924000D01*
X125526000Y-98924000D01*
X125526000Y-99976000D01*
G37*
G36*
X128676000Y-99976000D02*
G01*
X127674000Y-99976000D01*
X127674000Y-98924000D01*
X128676000Y-98924000D01*
X128676000Y-99976000D01*
G37*
G36*
X149581824Y-98862080D02*
G01*
X149609545Y-98870490D01*
X149635089Y-98884144D01*
X149657480Y-98902520D01*
X149675856Y-98924911D01*
X149689510Y-98950455D01*
X149697920Y-98978176D01*
X149701000Y-99009453D01*
X149701000Y-99450547D01*
X149697920Y-99481824D01*
X149689510Y-99509545D01*
X149675856Y-99535089D01*
X149657480Y-99557480D01*
X149635089Y-99575856D01*
X149609545Y-99589510D01*
X149581824Y-99597920D01*
X149550547Y-99601000D01*
X149159453Y-99601000D01*
X149128176Y-99597920D01*
X149100455Y-99589510D01*
X149074911Y-99575856D01*
X149052520Y-99557480D01*
X149034144Y-99535089D01*
X149020490Y-99509545D01*
X149012080Y-99481824D01*
X149009000Y-99450547D01*
X149009000Y-99009453D01*
X149012080Y-98978176D01*
X149020490Y-98950455D01*
X149034144Y-98924911D01*
X149052520Y-98902520D01*
X149074911Y-98884144D01*
X149100455Y-98870490D01*
X149128176Y-98862080D01*
X149159453Y-98859000D01*
X149550547Y-98859000D01*
X149581824Y-98862080D01*
G37*
G36*
X150551824Y-98862080D02*
G01*
X150579545Y-98870490D01*
X150605089Y-98884144D01*
X150627480Y-98902520D01*
X150645856Y-98924911D01*
X150659510Y-98950455D01*
X150667920Y-98978176D01*
X150671000Y-99009453D01*
X150671000Y-99450547D01*
X150667920Y-99481824D01*
X150659510Y-99509545D01*
X150645856Y-99535089D01*
X150627480Y-99557480D01*
X150605089Y-99575856D01*
X150579545Y-99589510D01*
X150551824Y-99597920D01*
X150520547Y-99601000D01*
X150129453Y-99601000D01*
X150098176Y-99597920D01*
X150070455Y-99589510D01*
X150044911Y-99575856D01*
X150022520Y-99557480D01*
X150004144Y-99535089D01*
X149990490Y-99509545D01*
X149982080Y-99481824D01*
X149979000Y-99450547D01*
X149979000Y-99009453D01*
X149982080Y-98978176D01*
X149990490Y-98950455D01*
X150004144Y-98924911D01*
X150022520Y-98902520D01*
X150044911Y-98884144D01*
X150070455Y-98870490D01*
X150098176Y-98862080D01*
X150129453Y-98859000D01*
X150520547Y-98859000D01*
X150551824Y-98862080D01*
G37*
G36*
X156031824Y-98842080D02*
G01*
X156059545Y-98850490D01*
X156085089Y-98864144D01*
X156107480Y-98882520D01*
X156125856Y-98904911D01*
X156139510Y-98930455D01*
X156147920Y-98958176D01*
X156151000Y-98989453D01*
X156151000Y-99430547D01*
X156147920Y-99461824D01*
X156139510Y-99489545D01*
X156125856Y-99515089D01*
X156107480Y-99537480D01*
X156085089Y-99555856D01*
X156059545Y-99569510D01*
X156031824Y-99577920D01*
X156000547Y-99581000D01*
X155609453Y-99581000D01*
X155578176Y-99577920D01*
X155550455Y-99569510D01*
X155524911Y-99555856D01*
X155502520Y-99537480D01*
X155484144Y-99515089D01*
X155470490Y-99489545D01*
X155462080Y-99461824D01*
X155459000Y-99430547D01*
X155459000Y-98989453D01*
X155462080Y-98958176D01*
X155470490Y-98930455D01*
X155484144Y-98904911D01*
X155502520Y-98882520D01*
X155524911Y-98864144D01*
X155550455Y-98850490D01*
X155578176Y-98842080D01*
X155609453Y-98839000D01*
X156000547Y-98839000D01*
X156031824Y-98842080D01*
G37*
G36*
X157001824Y-98842080D02*
G01*
X157029545Y-98850490D01*
X157055089Y-98864144D01*
X157077480Y-98882520D01*
X157095856Y-98904911D01*
X157109510Y-98930455D01*
X157117920Y-98958176D01*
X157121000Y-98989453D01*
X157121000Y-99430547D01*
X157117920Y-99461824D01*
X157109510Y-99489545D01*
X157095856Y-99515089D01*
X157077480Y-99537480D01*
X157055089Y-99555856D01*
X157029545Y-99569510D01*
X157001824Y-99577920D01*
X156970547Y-99581000D01*
X156579453Y-99581000D01*
X156548176Y-99577920D01*
X156520455Y-99569510D01*
X156494911Y-99555856D01*
X156472520Y-99537480D01*
X156454144Y-99515089D01*
X156440490Y-99489545D01*
X156432080Y-99461824D01*
X156429000Y-99430547D01*
X156429000Y-98989453D01*
X156432080Y-98958176D01*
X156440490Y-98930455D01*
X156454144Y-98904911D01*
X156472520Y-98882520D01*
X156494911Y-98864144D01*
X156520455Y-98850490D01*
X156548176Y-98842080D01*
X156579453Y-98839000D01*
X156970547Y-98839000D01*
X157001824Y-98842080D01*
G37*
G36*
X162971824Y-98842080D02*
G01*
X162999545Y-98850490D01*
X163025089Y-98864144D01*
X163047480Y-98882520D01*
X163065856Y-98904911D01*
X163079510Y-98930455D01*
X163087920Y-98958176D01*
X163091000Y-98989453D01*
X163091000Y-99380547D01*
X163087920Y-99411824D01*
X163079510Y-99439545D01*
X163065856Y-99465089D01*
X163047480Y-99487480D01*
X163025089Y-99505856D01*
X162999545Y-99519510D01*
X162971824Y-99527920D01*
X162940547Y-99531000D01*
X162499453Y-99531000D01*
X162468176Y-99527920D01*
X162440455Y-99519510D01*
X162414911Y-99505856D01*
X162392520Y-99487480D01*
X162374144Y-99465089D01*
X162360490Y-99439545D01*
X162352080Y-99411824D01*
X162349000Y-99380547D01*
X162349000Y-98989453D01*
X162352080Y-98958176D01*
X162360490Y-98930455D01*
X162374144Y-98904911D01*
X162392520Y-98882520D01*
X162414911Y-98864144D01*
X162440455Y-98850490D01*
X162468176Y-98842080D01*
X162499453Y-98839000D01*
X162940547Y-98839000D01*
X162971824Y-98842080D01*
G37*
G36*
X147601824Y-98782080D02*
G01*
X147629545Y-98790490D01*
X147655089Y-98804144D01*
X147677480Y-98822520D01*
X147695856Y-98844911D01*
X147709510Y-98870455D01*
X147717920Y-98898176D01*
X147721000Y-98929453D01*
X147721000Y-99320547D01*
X147717920Y-99351824D01*
X147709510Y-99379545D01*
X147695856Y-99405089D01*
X147677480Y-99427480D01*
X147655089Y-99445856D01*
X147629545Y-99459510D01*
X147601824Y-99467920D01*
X147570547Y-99471000D01*
X147129453Y-99471000D01*
X147098176Y-99467920D01*
X147070455Y-99459510D01*
X147044911Y-99445856D01*
X147022520Y-99427480D01*
X147004144Y-99405089D01*
X146990490Y-99379545D01*
X146982080Y-99351824D01*
X146979000Y-99320547D01*
X146979000Y-98929453D01*
X146982080Y-98898176D01*
X146990490Y-98870455D01*
X147004144Y-98844911D01*
X147022520Y-98822520D01*
X147044911Y-98804144D01*
X147070455Y-98790490D01*
X147098176Y-98782080D01*
X147129453Y-98779000D01*
X147570547Y-98779000D01*
X147601824Y-98782080D01*
G37*
G36*
X148551824Y-98742080D02*
G01*
X148579545Y-98750490D01*
X148605089Y-98764144D01*
X148627480Y-98782520D01*
X148645856Y-98804911D01*
X148659510Y-98830455D01*
X148667920Y-98858176D01*
X148671000Y-98889453D01*
X148671000Y-99280547D01*
X148667920Y-99311824D01*
X148659510Y-99339545D01*
X148645856Y-99365089D01*
X148627480Y-99387480D01*
X148605089Y-99405856D01*
X148579545Y-99419510D01*
X148551824Y-99427920D01*
X148520547Y-99431000D01*
X148079453Y-99431000D01*
X148048176Y-99427920D01*
X148020455Y-99419510D01*
X147994911Y-99405856D01*
X147972520Y-99387480D01*
X147954144Y-99365089D01*
X147940490Y-99339545D01*
X147932080Y-99311824D01*
X147929000Y-99280547D01*
X147929000Y-98889453D01*
X147932080Y-98858176D01*
X147940490Y-98830455D01*
X147954144Y-98804911D01*
X147972520Y-98782520D01*
X147994911Y-98764144D01*
X148020455Y-98750490D01*
X148048176Y-98742080D01*
X148079453Y-98739000D01*
X148520547Y-98739000D01*
X148551824Y-98742080D01*
G37*
G36*
X143571824Y-98532080D02*
G01*
X143599545Y-98540490D01*
X143625089Y-98554144D01*
X143647480Y-98572520D01*
X143665856Y-98594911D01*
X143679510Y-98620455D01*
X143687920Y-98648176D01*
X143691000Y-98679453D01*
X143691000Y-99120547D01*
X143687920Y-99151824D01*
X143679510Y-99179545D01*
X143665856Y-99205089D01*
X143647480Y-99227480D01*
X143625089Y-99245856D01*
X143599545Y-99259510D01*
X143571824Y-99267920D01*
X143540547Y-99271000D01*
X143149453Y-99271000D01*
X143118176Y-99267920D01*
X143090455Y-99259510D01*
X143064911Y-99245856D01*
X143042520Y-99227480D01*
X143024144Y-99205089D01*
X143010490Y-99179545D01*
X143002080Y-99151824D01*
X142999000Y-99120547D01*
X142999000Y-98679453D01*
X143002080Y-98648176D01*
X143010490Y-98620455D01*
X143024144Y-98594911D01*
X143042520Y-98572520D01*
X143064911Y-98554144D01*
X143090455Y-98540490D01*
X143118176Y-98532080D01*
X143149453Y-98529000D01*
X143540547Y-98529000D01*
X143571824Y-98532080D01*
G37*
G36*
X142601824Y-98532080D02*
G01*
X142629545Y-98540490D01*
X142655089Y-98554144D01*
X142677480Y-98572520D01*
X142695856Y-98594911D01*
X142709510Y-98620455D01*
X142717920Y-98648176D01*
X142721000Y-98679453D01*
X142721000Y-99120547D01*
X142717920Y-99151824D01*
X142709510Y-99179545D01*
X142695856Y-99205089D01*
X142677480Y-99227480D01*
X142655089Y-99245856D01*
X142629545Y-99259510D01*
X142601824Y-99267920D01*
X142570547Y-99271000D01*
X142179453Y-99271000D01*
X142148176Y-99267920D01*
X142120455Y-99259510D01*
X142094911Y-99245856D01*
X142072520Y-99227480D01*
X142054144Y-99205089D01*
X142040490Y-99179545D01*
X142032080Y-99151824D01*
X142029000Y-99120547D01*
X142029000Y-98679453D01*
X142032080Y-98648176D01*
X142040490Y-98620455D01*
X142054144Y-98594911D01*
X142072520Y-98572520D01*
X142094911Y-98554144D01*
X142120455Y-98540490D01*
X142148176Y-98532080D01*
X142179453Y-98529000D01*
X142570547Y-98529000D01*
X142601824Y-98532080D01*
G37*
G36*
X141151000Y-98931000D02*
G01*
X140249000Y-98931000D01*
X140249000Y-97829000D01*
X141151000Y-97829000D01*
X141151000Y-98931000D01*
G37*
G36*
X139751000Y-98931000D02*
G01*
X138849000Y-98931000D01*
X138849000Y-97829000D01*
X139751000Y-97829000D01*
X139751000Y-98931000D01*
G37*
G36*
X162981824Y-97842080D02*
G01*
X163009545Y-97850490D01*
X163035089Y-97864144D01*
X163057480Y-97882520D01*
X163075856Y-97904911D01*
X163089510Y-97930455D01*
X163097920Y-97958176D01*
X163101000Y-97989453D01*
X163101000Y-98380547D01*
X163097920Y-98411824D01*
X163089510Y-98439545D01*
X163075856Y-98465089D01*
X163057480Y-98487480D01*
X163035089Y-98505856D01*
X163009545Y-98519510D01*
X162981824Y-98527920D01*
X162950547Y-98531000D01*
X162509453Y-98531000D01*
X162478176Y-98527920D01*
X162450455Y-98519510D01*
X162424911Y-98505856D01*
X162402520Y-98487480D01*
X162384144Y-98465089D01*
X162370490Y-98439545D01*
X162362080Y-98411824D01*
X162359000Y-98380547D01*
X162359000Y-97989453D01*
X162362080Y-97958176D01*
X162370490Y-97930455D01*
X162384144Y-97904911D01*
X162402520Y-97882520D01*
X162424911Y-97864144D01*
X162450455Y-97850490D01*
X162478176Y-97842080D01*
X162509453Y-97839000D01*
X162950547Y-97839000D01*
X162981824Y-97842080D01*
G37*
G36*
X151491000Y-98501000D02*
G01*
X150589000Y-98501000D01*
X150589000Y-97799000D01*
X151491000Y-97799000D01*
X151491000Y-98501000D01*
G37*
G36*
X150101000Y-98501000D02*
G01*
X149199000Y-98501000D01*
X149199000Y-97799000D01*
X150101000Y-97799000D01*
X150101000Y-98501000D01*
G37*
G36*
X148551824Y-97772080D02*
G01*
X148579545Y-97780490D01*
X148605089Y-97794144D01*
X148627480Y-97812520D01*
X148645856Y-97834911D01*
X148659510Y-97860455D01*
X148667920Y-97888176D01*
X148671000Y-97919453D01*
X148671000Y-98310547D01*
X148667920Y-98341824D01*
X148659510Y-98369545D01*
X148645856Y-98395089D01*
X148627480Y-98417480D01*
X148605089Y-98435856D01*
X148579545Y-98449510D01*
X148551824Y-98457920D01*
X148520547Y-98461000D01*
X148079453Y-98461000D01*
X148048176Y-98457920D01*
X148020455Y-98449510D01*
X147994911Y-98435856D01*
X147972520Y-98417480D01*
X147954144Y-98395089D01*
X147940490Y-98369545D01*
X147932080Y-98341824D01*
X147929000Y-98310547D01*
X147929000Y-97919453D01*
X147932080Y-97888176D01*
X147940490Y-97860455D01*
X147954144Y-97834911D01*
X147972520Y-97812520D01*
X147994911Y-97794144D01*
X148020455Y-97780490D01*
X148048176Y-97772080D01*
X148079453Y-97769000D01*
X148520547Y-97769000D01*
X148551824Y-97772080D01*
G37*
G36*
X154626000Y-98431000D02*
G01*
X153424000Y-98431000D01*
X153424000Y-96429000D01*
X154626000Y-96429000D01*
X154626000Y-98431000D01*
G37*
G36*
X157036000Y-98431000D02*
G01*
X155834000Y-98431000D01*
X155834000Y-96429000D01*
X157036000Y-96429000D01*
X157036000Y-98431000D01*
G37*
G36*
X175454312Y-96528164D02*
G01*
X175505292Y-96549281D01*
X175616098Y-96595178D01*
X175761703Y-96692468D01*
X175885532Y-96816297D01*
X175982822Y-96961902D01*
X175999358Y-97001824D01*
X176049836Y-97123688D01*
X176084000Y-97295441D01*
X176084000Y-97470559D01*
X176068296Y-97549510D01*
X176049836Y-97642311D01*
X175982822Y-97804098D01*
X175885532Y-97949703D01*
X175761703Y-98073532D01*
X175616098Y-98170822D01*
X175525642Y-98208290D01*
X175454312Y-98237836D01*
X175282559Y-98272000D01*
X175107441Y-98272000D01*
X174935688Y-98237836D01*
X174864358Y-98208290D01*
X174773902Y-98170822D01*
X174628297Y-98073532D01*
X174504468Y-97949703D01*
X174407178Y-97804098D01*
X174340164Y-97642311D01*
X174321705Y-97549510D01*
X174306000Y-97470559D01*
X174306000Y-97295441D01*
X174340164Y-97123688D01*
X174390642Y-97001824D01*
X174407178Y-96961902D01*
X174504468Y-96816297D01*
X174628297Y-96692468D01*
X174773902Y-96595178D01*
X174884708Y-96549281D01*
X174935688Y-96528164D01*
X175107441Y-96494000D01*
X175282559Y-96494000D01*
X175454312Y-96528164D01*
G37*
G36*
X177970312Y-96528164D02*
G01*
X178021292Y-96549281D01*
X178132098Y-96595178D01*
X178277703Y-96692468D01*
X178401532Y-96816297D01*
X178498822Y-96961902D01*
X178515358Y-97001824D01*
X178565836Y-97123688D01*
X178600000Y-97295441D01*
X178600000Y-97470559D01*
X178584296Y-97549510D01*
X178565836Y-97642311D01*
X178498822Y-97804098D01*
X178401532Y-97949703D01*
X178277703Y-98073532D01*
X178132098Y-98170822D01*
X178041642Y-98208290D01*
X177970312Y-98237836D01*
X177798559Y-98272000D01*
X177623441Y-98272000D01*
X177451688Y-98237836D01*
X177380358Y-98208290D01*
X177289902Y-98170822D01*
X177144297Y-98073532D01*
X177020468Y-97949703D01*
X176923178Y-97804098D01*
X176856164Y-97642311D01*
X176837705Y-97549510D01*
X176822000Y-97470559D01*
X176822000Y-97295441D01*
X176856164Y-97123688D01*
X176906642Y-97001824D01*
X176923178Y-96961902D01*
X177020468Y-96816297D01*
X177144297Y-96692468D01*
X177289902Y-96595178D01*
X177400708Y-96549281D01*
X177451688Y-96528164D01*
X177623441Y-96494000D01*
X177798559Y-96494000D01*
X177970312Y-96528164D01*
G37*
G36*
X147300719Y-97190174D02*
G01*
X147330090Y-97202340D01*
X147400996Y-97231710D01*
X147491242Y-97292010D01*
X147567990Y-97368758D01*
X147628290Y-97459004D01*
X147652511Y-97517480D01*
X147669826Y-97559281D01*
X147691000Y-97665730D01*
X147691000Y-97774270D01*
X147669826Y-97880719D01*
X147669825Y-97880721D01*
X147628290Y-97980996D01*
X147567990Y-98071242D01*
X147491242Y-98147990D01*
X147400996Y-98208290D01*
X147330090Y-98237660D01*
X147300719Y-98249826D01*
X147194270Y-98271000D01*
X147085730Y-98271000D01*
X146979281Y-98249826D01*
X146949910Y-98237660D01*
X146879004Y-98208290D01*
X146788758Y-98147990D01*
X146712010Y-98071242D01*
X146651710Y-97980996D01*
X146610175Y-97880721D01*
X146610174Y-97880719D01*
X146589000Y-97774270D01*
X146589000Y-97665730D01*
X146610174Y-97559281D01*
X146627489Y-97517480D01*
X146651710Y-97459004D01*
X146712010Y-97368758D01*
X146788758Y-97292010D01*
X146879004Y-97231710D01*
X146949910Y-97202340D01*
X146979281Y-97190174D01*
X147085730Y-97169000D01*
X147194270Y-97169000D01*
X147300719Y-97190174D01*
G37*
G36*
X165248142Y-96601242D02*
G01*
X165396098Y-96662528D01*
X165396100Y-96662529D01*
X165529257Y-96751501D01*
X165642499Y-96864743D01*
X165727411Y-96991824D01*
X165731472Y-96997902D01*
X165792758Y-97145858D01*
X165824000Y-97302925D01*
X165824000Y-97463075D01*
X165792758Y-97620142D01*
X165773874Y-97665731D01*
X165731471Y-97768100D01*
X165642499Y-97901257D01*
X165529257Y-98014499D01*
X165396100Y-98103471D01*
X165396099Y-98103472D01*
X165396098Y-98103472D01*
X165248142Y-98164758D01*
X165091075Y-98196000D01*
X164930925Y-98196000D01*
X164773858Y-98164758D01*
X164625902Y-98103472D01*
X164625901Y-98103472D01*
X164625900Y-98103471D01*
X164492743Y-98014499D01*
X164379501Y-97901257D01*
X164290529Y-97768100D01*
X164248126Y-97665731D01*
X164229242Y-97620142D01*
X164198000Y-97463075D01*
X164198000Y-97302925D01*
X164229242Y-97145858D01*
X164290528Y-96997902D01*
X164294589Y-96991824D01*
X164379501Y-96864743D01*
X164492743Y-96751501D01*
X164625900Y-96662529D01*
X164625902Y-96662528D01*
X164773858Y-96601242D01*
X164930925Y-96570000D01*
X165091075Y-96570000D01*
X165248142Y-96601242D01*
G37*
G36*
X167788142Y-96601242D02*
G01*
X167936098Y-96662528D01*
X167936100Y-96662529D01*
X168069257Y-96751501D01*
X168182499Y-96864743D01*
X168267411Y-96991824D01*
X168271472Y-96997902D01*
X168332758Y-97145858D01*
X168364000Y-97302925D01*
X168364000Y-97463075D01*
X168332758Y-97620142D01*
X168313874Y-97665731D01*
X168271471Y-97768100D01*
X168182499Y-97901257D01*
X168069257Y-98014499D01*
X167936100Y-98103471D01*
X167936099Y-98103472D01*
X167936098Y-98103472D01*
X167788142Y-98164758D01*
X167631075Y-98196000D01*
X167470925Y-98196000D01*
X167313858Y-98164758D01*
X167165902Y-98103472D01*
X167165901Y-98103472D01*
X167165900Y-98103471D01*
X167032743Y-98014499D01*
X166919501Y-97901257D01*
X166830529Y-97768100D01*
X166788126Y-97665731D01*
X166769242Y-97620142D01*
X166738000Y-97463075D01*
X166738000Y-97302925D01*
X166769242Y-97145858D01*
X166830528Y-96997902D01*
X166834589Y-96991824D01*
X166919501Y-96864743D01*
X167032743Y-96751501D01*
X167165900Y-96662529D01*
X167165902Y-96662528D01*
X167313858Y-96601242D01*
X167470925Y-96570000D01*
X167631075Y-96570000D01*
X167788142Y-96601242D01*
G37*
G36*
X161551000Y-98191000D02*
G01*
X157649000Y-98191000D01*
X157649000Y-97289000D01*
X161551000Y-97289000D01*
X161551000Y-98191000D01*
G37*
G36*
X143581824Y-97422080D02*
G01*
X143609545Y-97430490D01*
X143635089Y-97444144D01*
X143657480Y-97462520D01*
X143675856Y-97484911D01*
X143689510Y-97510455D01*
X143697920Y-97538176D01*
X143701000Y-97569453D01*
X143701000Y-98010547D01*
X143697920Y-98041824D01*
X143689510Y-98069545D01*
X143675856Y-98095089D01*
X143657480Y-98117480D01*
X143635089Y-98135856D01*
X143609545Y-98149510D01*
X143581824Y-98157920D01*
X143550547Y-98161000D01*
X143159453Y-98161000D01*
X143128176Y-98157920D01*
X143100455Y-98149510D01*
X143074911Y-98135856D01*
X143052520Y-98117480D01*
X143034144Y-98095089D01*
X143020490Y-98069545D01*
X143012080Y-98041824D01*
X143009000Y-98010547D01*
X143009000Y-97569453D01*
X143012080Y-97538176D01*
X143020490Y-97510455D01*
X143034144Y-97484911D01*
X143052520Y-97462520D01*
X143074911Y-97444144D01*
X143100455Y-97430490D01*
X143128176Y-97422080D01*
X143159453Y-97419000D01*
X143550547Y-97419000D01*
X143581824Y-97422080D01*
G37*
G36*
X142611824Y-97422080D02*
G01*
X142639545Y-97430490D01*
X142665089Y-97444144D01*
X142687480Y-97462520D01*
X142705856Y-97484911D01*
X142719510Y-97510455D01*
X142727920Y-97538176D01*
X142731000Y-97569453D01*
X142731000Y-98010547D01*
X142727920Y-98041824D01*
X142719510Y-98069545D01*
X142705856Y-98095089D01*
X142687480Y-98117480D01*
X142665089Y-98135856D01*
X142639545Y-98149510D01*
X142611824Y-98157920D01*
X142580547Y-98161000D01*
X142189453Y-98161000D01*
X142158176Y-98157920D01*
X142130455Y-98149510D01*
X142104911Y-98135856D01*
X142082520Y-98117480D01*
X142064144Y-98095089D01*
X142050490Y-98069545D01*
X142042080Y-98041824D01*
X142039000Y-98010547D01*
X142039000Y-97569453D01*
X142042080Y-97538176D01*
X142050490Y-97510455D01*
X142064144Y-97484911D01*
X142082520Y-97462520D01*
X142104911Y-97444144D01*
X142130455Y-97430490D01*
X142158176Y-97422080D01*
X142189453Y-97419000D01*
X142580547Y-97419000D01*
X142611824Y-97422080D01*
G37*
G36*
X146201824Y-97302080D02*
G01*
X146229545Y-97310490D01*
X146255089Y-97324144D01*
X146277480Y-97342520D01*
X146295856Y-97364911D01*
X146309510Y-97390455D01*
X146317920Y-97418176D01*
X146321000Y-97449453D01*
X146321000Y-97890547D01*
X146317920Y-97921824D01*
X146309510Y-97949545D01*
X146295856Y-97975089D01*
X146277480Y-97997480D01*
X146255089Y-98015856D01*
X146229545Y-98029510D01*
X146201824Y-98037920D01*
X146170547Y-98041000D01*
X145779453Y-98041000D01*
X145748176Y-98037920D01*
X145720455Y-98029510D01*
X145694911Y-98015856D01*
X145672520Y-97997480D01*
X145654144Y-97975089D01*
X145640490Y-97949545D01*
X145632080Y-97921824D01*
X145629000Y-97890547D01*
X145629000Y-97449453D01*
X145632080Y-97418176D01*
X145640490Y-97390455D01*
X145654144Y-97364911D01*
X145672520Y-97342520D01*
X145694911Y-97324144D01*
X145720455Y-97310490D01*
X145748176Y-97302080D01*
X145779453Y-97299000D01*
X146170547Y-97299000D01*
X146201824Y-97302080D01*
G37*
G36*
X145231824Y-97302080D02*
G01*
X145259545Y-97310490D01*
X145285089Y-97324144D01*
X145307480Y-97342520D01*
X145325856Y-97364911D01*
X145339510Y-97390455D01*
X145347920Y-97418176D01*
X145351000Y-97449453D01*
X145351000Y-97890547D01*
X145347920Y-97921824D01*
X145339510Y-97949545D01*
X145325856Y-97975089D01*
X145307480Y-97997480D01*
X145285089Y-98015856D01*
X145259545Y-98029510D01*
X145231824Y-98037920D01*
X145200547Y-98041000D01*
X144809453Y-98041000D01*
X144778176Y-98037920D01*
X144750455Y-98029510D01*
X144724911Y-98015856D01*
X144702520Y-97997480D01*
X144684144Y-97975089D01*
X144670490Y-97949545D01*
X144662080Y-97921824D01*
X144659000Y-97890547D01*
X144659000Y-97449453D01*
X144662080Y-97418176D01*
X144670490Y-97390455D01*
X144684144Y-97364911D01*
X144702520Y-97342520D01*
X144724911Y-97324144D01*
X144750455Y-97310490D01*
X144778176Y-97302080D01*
X144809453Y-97299000D01*
X145200547Y-97299000D01*
X145231824Y-97302080D01*
G37*
G36*
X152911824Y-97292080D02*
G01*
X152939545Y-97300490D01*
X152965089Y-97314144D01*
X152987480Y-97332520D01*
X153005856Y-97354911D01*
X153019510Y-97380455D01*
X153027920Y-97408176D01*
X153031000Y-97439453D01*
X153031000Y-97830547D01*
X153027920Y-97861824D01*
X153019510Y-97889545D01*
X153005856Y-97915089D01*
X152987480Y-97937480D01*
X152965089Y-97955856D01*
X152939545Y-97969510D01*
X152911824Y-97977920D01*
X152880547Y-97981000D01*
X152439453Y-97981000D01*
X152408176Y-97977920D01*
X152380455Y-97969510D01*
X152354911Y-97955856D01*
X152332520Y-97937480D01*
X152314144Y-97915089D01*
X152300490Y-97889545D01*
X152292080Y-97861824D01*
X152289000Y-97830547D01*
X152289000Y-97439453D01*
X152292080Y-97408176D01*
X152300490Y-97380455D01*
X152314144Y-97354911D01*
X152332520Y-97332520D01*
X152354911Y-97314144D01*
X152380455Y-97300490D01*
X152408176Y-97292080D01*
X152439453Y-97289000D01*
X152880547Y-97289000D01*
X152911824Y-97292080D01*
G37*
G36*
X171652308Y-94409600D02*
G01*
X171871497Y-94453199D01*
X172052919Y-94528347D01*
X172181203Y-94581484D01*
X172459933Y-94767725D01*
X172696975Y-95004767D01*
X172883216Y-95283497D01*
X172935492Y-95409703D01*
X173011501Y-95593203D01*
X173076900Y-95921987D01*
X173076900Y-96257213D01*
X173011501Y-96585997D01*
X172979800Y-96662529D01*
X172883216Y-96895703D01*
X172696975Y-97174433D01*
X172459933Y-97411475D01*
X172181203Y-97597716D01*
X172052919Y-97650853D01*
X171871497Y-97726001D01*
X171659860Y-97768098D01*
X171542714Y-97791400D01*
X171207486Y-97791400D01*
X171090340Y-97768098D01*
X170878703Y-97726001D01*
X170697281Y-97650853D01*
X170568997Y-97597716D01*
X170290267Y-97411475D01*
X170053225Y-97174433D01*
X169866984Y-96895703D01*
X169770400Y-96662529D01*
X169738699Y-96585997D01*
X169673300Y-96257213D01*
X169673300Y-95921987D01*
X169738699Y-95593203D01*
X169814708Y-95409703D01*
X169866984Y-95283497D01*
X170053225Y-95004767D01*
X170290267Y-94767725D01*
X170568997Y-94581484D01*
X170697281Y-94528347D01*
X170878703Y-94453199D01*
X171097892Y-94409600D01*
X171207486Y-94387800D01*
X171542714Y-94387800D01*
X171652308Y-94409600D01*
G37*
G36*
X125932308Y-94409600D02*
G01*
X126151497Y-94453199D01*
X126332919Y-94528347D01*
X126461203Y-94581484D01*
X126739933Y-94767725D01*
X126976975Y-95004767D01*
X127163216Y-95283497D01*
X127215492Y-95409703D01*
X127291501Y-95593203D01*
X127356900Y-95921987D01*
X127356900Y-96257213D01*
X127291501Y-96585997D01*
X127259800Y-96662529D01*
X127163216Y-96895703D01*
X126976975Y-97174433D01*
X126739933Y-97411475D01*
X126461203Y-97597716D01*
X126332919Y-97650853D01*
X126151497Y-97726001D01*
X125939860Y-97768098D01*
X125822714Y-97791400D01*
X125487486Y-97791400D01*
X125370340Y-97768098D01*
X125158703Y-97726001D01*
X124977281Y-97650853D01*
X124848997Y-97597716D01*
X124570267Y-97411475D01*
X124333225Y-97174433D01*
X124146984Y-96895703D01*
X124050400Y-96662529D01*
X124018699Y-96585997D01*
X123953300Y-96257213D01*
X123953300Y-95921987D01*
X124018699Y-95593203D01*
X124094708Y-95409703D01*
X124146984Y-95283497D01*
X124333225Y-95004767D01*
X124570267Y-94767725D01*
X124848997Y-94581484D01*
X124977281Y-94528347D01*
X125158703Y-94453199D01*
X125377892Y-94409600D01*
X125487486Y-94387800D01*
X125822714Y-94387800D01*
X125932308Y-94409600D01*
G37*
G36*
X162981824Y-96872080D02*
G01*
X163009545Y-96880490D01*
X163035089Y-96894144D01*
X163057480Y-96912520D01*
X163075856Y-96934911D01*
X163089510Y-96960455D01*
X163097920Y-96988176D01*
X163101000Y-97019453D01*
X163101000Y-97410547D01*
X163097920Y-97441824D01*
X163089510Y-97469545D01*
X163075856Y-97495089D01*
X163057480Y-97517480D01*
X163035089Y-97535856D01*
X163009545Y-97549510D01*
X162981824Y-97557920D01*
X162950547Y-97561000D01*
X162509453Y-97561000D01*
X162478176Y-97557920D01*
X162450455Y-97549510D01*
X162424911Y-97535856D01*
X162402520Y-97517480D01*
X162384144Y-97495089D01*
X162370490Y-97469545D01*
X162362080Y-97441824D01*
X162359000Y-97410547D01*
X162359000Y-97019453D01*
X162362080Y-96988176D01*
X162370490Y-96960455D01*
X162384144Y-96934911D01*
X162402520Y-96912520D01*
X162424911Y-96894144D01*
X162450455Y-96880490D01*
X162478176Y-96872080D01*
X162509453Y-96869000D01*
X162950547Y-96869000D01*
X162981824Y-96872080D01*
G37*
G36*
X148320719Y-96180174D02*
G01*
X148320722Y-96180175D01*
X148320721Y-96180175D01*
X148420996Y-96221710D01*
X148511242Y-96282010D01*
X148587990Y-96358758D01*
X148648290Y-96449004D01*
X148672830Y-96508249D01*
X148689826Y-96549281D01*
X148711000Y-96655730D01*
X148711000Y-96764270D01*
X148689826Y-96870719D01*
X148689262Y-96872080D01*
X148648290Y-96970996D01*
X148587990Y-97061242D01*
X148511242Y-97137990D01*
X148420996Y-97198290D01*
X148350090Y-97227660D01*
X148320719Y-97239826D01*
X148214270Y-97261000D01*
X148105730Y-97261000D01*
X147999281Y-97239826D01*
X147969910Y-97227660D01*
X147899004Y-97198290D01*
X147808758Y-97137990D01*
X147732010Y-97061242D01*
X147671710Y-96970996D01*
X147630738Y-96872080D01*
X147630174Y-96870719D01*
X147609000Y-96764270D01*
X147609000Y-96655730D01*
X147630174Y-96549281D01*
X147647170Y-96508249D01*
X147671710Y-96449004D01*
X147732010Y-96358758D01*
X147808758Y-96282010D01*
X147899004Y-96221710D01*
X147999279Y-96180175D01*
X147999278Y-96180175D01*
X147999281Y-96180174D01*
X148105730Y-96159000D01*
X148214270Y-96159000D01*
X148320719Y-96180174D01*
G37*
G36*
X142251824Y-96382080D02*
G01*
X142279545Y-96390490D01*
X142305089Y-96404144D01*
X142327480Y-96422520D01*
X142345856Y-96444911D01*
X142359510Y-96470455D01*
X142367920Y-96498176D01*
X142371000Y-96529453D01*
X142371000Y-96970547D01*
X142367920Y-97001824D01*
X142359510Y-97029545D01*
X142345856Y-97055089D01*
X142327480Y-97077480D01*
X142305089Y-97095856D01*
X142279545Y-97109510D01*
X142251824Y-97117920D01*
X142220547Y-97121000D01*
X141829453Y-97121000D01*
X141798176Y-97117920D01*
X141770455Y-97109510D01*
X141744911Y-97095856D01*
X141722520Y-97077480D01*
X141704144Y-97055089D01*
X141690490Y-97029545D01*
X141682080Y-97001824D01*
X141679000Y-96970547D01*
X141679000Y-96529453D01*
X141682080Y-96498176D01*
X141690490Y-96470455D01*
X141704144Y-96444911D01*
X141722520Y-96422520D01*
X141744911Y-96404144D01*
X141770455Y-96390490D01*
X141798176Y-96382080D01*
X141829453Y-96379000D01*
X142220547Y-96379000D01*
X142251824Y-96382080D01*
G37*
G36*
X146181824Y-96382080D02*
G01*
X146209545Y-96390490D01*
X146235089Y-96404144D01*
X146257480Y-96422520D01*
X146275856Y-96444911D01*
X146289510Y-96470455D01*
X146297920Y-96498176D01*
X146301000Y-96529453D01*
X146301000Y-96970547D01*
X146297920Y-97001824D01*
X146289510Y-97029545D01*
X146275856Y-97055089D01*
X146257480Y-97077480D01*
X146235089Y-97095856D01*
X146209545Y-97109510D01*
X146181824Y-97117920D01*
X146150547Y-97121000D01*
X145759453Y-97121000D01*
X145728176Y-97117920D01*
X145700455Y-97109510D01*
X145674911Y-97095856D01*
X145652520Y-97077480D01*
X145634144Y-97055089D01*
X145620490Y-97029545D01*
X145612080Y-97001824D01*
X145609000Y-96970547D01*
X145609000Y-96529453D01*
X145612080Y-96498176D01*
X145620490Y-96470455D01*
X145634144Y-96444911D01*
X145652520Y-96422520D01*
X145674911Y-96404144D01*
X145700455Y-96390490D01*
X145728176Y-96382080D01*
X145759453Y-96379000D01*
X146150547Y-96379000D01*
X146181824Y-96382080D01*
G37*
G36*
X145211824Y-96382080D02*
G01*
X145239545Y-96390490D01*
X145265089Y-96404144D01*
X145287480Y-96422520D01*
X145305856Y-96444911D01*
X145319510Y-96470455D01*
X145327920Y-96498176D01*
X145331000Y-96529453D01*
X145331000Y-96970547D01*
X145327920Y-97001824D01*
X145319510Y-97029545D01*
X145305856Y-97055089D01*
X145287480Y-97077480D01*
X145265089Y-97095856D01*
X145239545Y-97109510D01*
X145211824Y-97117920D01*
X145180547Y-97121000D01*
X144789453Y-97121000D01*
X144758176Y-97117920D01*
X144730455Y-97109510D01*
X144704911Y-97095856D01*
X144682520Y-97077480D01*
X144664144Y-97055089D01*
X144650490Y-97029545D01*
X144642080Y-97001824D01*
X144639000Y-96970547D01*
X144639000Y-96529453D01*
X144642080Y-96498176D01*
X144650490Y-96470455D01*
X144664144Y-96444911D01*
X144682520Y-96422520D01*
X144704911Y-96404144D01*
X144730455Y-96390490D01*
X144758176Y-96382080D01*
X144789453Y-96379000D01*
X145180547Y-96379000D01*
X145211824Y-96382080D01*
G37*
G36*
X141281824Y-96382080D02*
G01*
X141309545Y-96390490D01*
X141335089Y-96404144D01*
X141357480Y-96422520D01*
X141375856Y-96444911D01*
X141389510Y-96470455D01*
X141397920Y-96498176D01*
X141401000Y-96529453D01*
X141401000Y-96970547D01*
X141397920Y-97001824D01*
X141389510Y-97029545D01*
X141375856Y-97055089D01*
X141357480Y-97077480D01*
X141335089Y-97095856D01*
X141309545Y-97109510D01*
X141281824Y-97117920D01*
X141250547Y-97121000D01*
X140859453Y-97121000D01*
X140828176Y-97117920D01*
X140800455Y-97109510D01*
X140774911Y-97095856D01*
X140752520Y-97077480D01*
X140734144Y-97055089D01*
X140720490Y-97029545D01*
X140712080Y-97001824D01*
X140709000Y-96970547D01*
X140709000Y-96529453D01*
X140712080Y-96498176D01*
X140720490Y-96470455D01*
X140734144Y-96444911D01*
X140752520Y-96422520D01*
X140774911Y-96404144D01*
X140800455Y-96390490D01*
X140828176Y-96382080D01*
X140859453Y-96379000D01*
X141250547Y-96379000D01*
X141281824Y-96382080D01*
G37*
G36*
X143241824Y-96372080D02*
G01*
X143269545Y-96380490D01*
X143295089Y-96394144D01*
X143317480Y-96412520D01*
X143335856Y-96434911D01*
X143349510Y-96460455D01*
X143357920Y-96488176D01*
X143361000Y-96519453D01*
X143361000Y-96960547D01*
X143357920Y-96991824D01*
X143349510Y-97019545D01*
X143335856Y-97045089D01*
X143317480Y-97067480D01*
X143295089Y-97085856D01*
X143269545Y-97099510D01*
X143241824Y-97107920D01*
X143210547Y-97111000D01*
X142819453Y-97111000D01*
X142788176Y-97107920D01*
X142760455Y-97099510D01*
X142734911Y-97085856D01*
X142712520Y-97067480D01*
X142694144Y-97045089D01*
X142680490Y-97019545D01*
X142672080Y-96991824D01*
X142669000Y-96960547D01*
X142669000Y-96519453D01*
X142672080Y-96488176D01*
X142680490Y-96460455D01*
X142694144Y-96434911D01*
X142712520Y-96412520D01*
X142734911Y-96394144D01*
X142760455Y-96380490D01*
X142788176Y-96372080D01*
X142819453Y-96369000D01*
X143210547Y-96369000D01*
X143241824Y-96372080D01*
G37*
G36*
X144211824Y-96372080D02*
G01*
X144239545Y-96380490D01*
X144265089Y-96394144D01*
X144287480Y-96412520D01*
X144305856Y-96434911D01*
X144319510Y-96460455D01*
X144327920Y-96488176D01*
X144331000Y-96519453D01*
X144331000Y-96960547D01*
X144327920Y-96991824D01*
X144319510Y-97019545D01*
X144305856Y-97045089D01*
X144287480Y-97067480D01*
X144265089Y-97085856D01*
X144239545Y-97099510D01*
X144211824Y-97107920D01*
X144180547Y-97111000D01*
X143789453Y-97111000D01*
X143758176Y-97107920D01*
X143730455Y-97099510D01*
X143704911Y-97085856D01*
X143682520Y-97067480D01*
X143664144Y-97045089D01*
X143650490Y-97019545D01*
X143642080Y-96991824D01*
X143639000Y-96960547D01*
X143639000Y-96519453D01*
X143642080Y-96488176D01*
X143650490Y-96460455D01*
X143664144Y-96434911D01*
X143682520Y-96412520D01*
X143704911Y-96394144D01*
X143730455Y-96380490D01*
X143758176Y-96372080D01*
X143789453Y-96369000D01*
X144180547Y-96369000D01*
X144211824Y-96372080D01*
G37*
G36*
X131220100Y-97101000D02*
G01*
X129618100Y-97101000D01*
X129618100Y-93599000D01*
X131220100Y-93599000D01*
X131220100Y-97101000D01*
G37*
G36*
X137920100Y-97101000D02*
G01*
X136318100Y-97101000D01*
X136318100Y-93599000D01*
X137920100Y-93599000D01*
X137920100Y-97101000D01*
G37*
G36*
X151491000Y-97101000D02*
G01*
X150589000Y-97101000D01*
X150589000Y-96399000D01*
X151491000Y-96399000D01*
X151491000Y-97101000D01*
G37*
G36*
X150101000Y-97101000D02*
G01*
X149199000Y-97101000D01*
X149199000Y-96399000D01*
X150101000Y-96399000D01*
X150101000Y-97101000D01*
G37*
G36*
X152911824Y-96322080D02*
G01*
X152939545Y-96330490D01*
X152965089Y-96344144D01*
X152987480Y-96362520D01*
X153005856Y-96384911D01*
X153019510Y-96410455D01*
X153027920Y-96438176D01*
X153031000Y-96469453D01*
X153031000Y-96860547D01*
X153027920Y-96891824D01*
X153019510Y-96919545D01*
X153005856Y-96945089D01*
X152987480Y-96967480D01*
X152965089Y-96985856D01*
X152939545Y-96999510D01*
X152911824Y-97007920D01*
X152880547Y-97011000D01*
X152439453Y-97011000D01*
X152408176Y-97007920D01*
X152380455Y-96999510D01*
X152354911Y-96985856D01*
X152332520Y-96967480D01*
X152314144Y-96945089D01*
X152300490Y-96919545D01*
X152292080Y-96891824D01*
X152289000Y-96860547D01*
X152289000Y-96469453D01*
X152292080Y-96438176D01*
X152300490Y-96410455D01*
X152314144Y-96384911D01*
X152332520Y-96362520D01*
X152354911Y-96344144D01*
X152380455Y-96330490D01*
X152408176Y-96322080D01*
X152439453Y-96319000D01*
X152880547Y-96319000D01*
X152911824Y-96322080D01*
G37*
G36*
X175454312Y-94002164D02*
G01*
X175521326Y-94029922D01*
X175616098Y-94069178D01*
X175761703Y-94166468D01*
X175885532Y-94290297D01*
X175982822Y-94435902D01*
X176049836Y-94597689D01*
X176084000Y-94769441D01*
X176084000Y-94944559D01*
X176049836Y-95116311D01*
X175982822Y-95278098D01*
X175885532Y-95423703D01*
X175761703Y-95547532D01*
X175616098Y-95644822D01*
X175521326Y-95684078D01*
X175454312Y-95711836D01*
X175282559Y-95746000D01*
X175107441Y-95746000D01*
X174935688Y-95711836D01*
X174868674Y-95684078D01*
X174773902Y-95644822D01*
X174628297Y-95547532D01*
X174504468Y-95423703D01*
X174407178Y-95278098D01*
X174340164Y-95116311D01*
X174306000Y-94944559D01*
X174306000Y-94769441D01*
X174340164Y-94597689D01*
X174407178Y-94435902D01*
X174504468Y-94290297D01*
X174628297Y-94166468D01*
X174773902Y-94069178D01*
X174868674Y-94029922D01*
X174935688Y-94002164D01*
X175107441Y-93968000D01*
X175282559Y-93968000D01*
X175454312Y-94002164D01*
G37*
G36*
X142410312Y-93988164D02*
G01*
X142477326Y-94015922D01*
X142572098Y-94055178D01*
X142717703Y-94152468D01*
X142841532Y-94276297D01*
X142938822Y-94421902D01*
X143005836Y-94583689D01*
X143040000Y-94755441D01*
X143040000Y-94930559D01*
X143005836Y-95102311D01*
X142938822Y-95264098D01*
X142841532Y-95409703D01*
X142717703Y-95533532D01*
X142572098Y-95630822D01*
X142477326Y-95670078D01*
X142410312Y-95697836D01*
X142238559Y-95732000D01*
X142063441Y-95732000D01*
X141891688Y-95697836D01*
X141824674Y-95670078D01*
X141729902Y-95630822D01*
X141584297Y-95533532D01*
X141460468Y-95409703D01*
X141363178Y-95264098D01*
X141296164Y-95102311D01*
X141262000Y-94930559D01*
X141262000Y-94755441D01*
X141296164Y-94583689D01*
X141363178Y-94421902D01*
X141460468Y-94276297D01*
X141584297Y-94152468D01*
X141729902Y-94055178D01*
X141824674Y-94015922D01*
X141891688Y-93988164D01*
X142063441Y-93954000D01*
X142238559Y-93954000D01*
X142410312Y-93988164D01*
G37*
G36*
X144950312Y-93988164D02*
G01*
X145017326Y-94015922D01*
X145112098Y-94055178D01*
X145257703Y-94152468D01*
X145381532Y-94276297D01*
X145478822Y-94421902D01*
X145545836Y-94583689D01*
X145580000Y-94755441D01*
X145580000Y-94930559D01*
X145545836Y-95102311D01*
X145478822Y-95264098D01*
X145381532Y-95409703D01*
X145257703Y-95533532D01*
X145112098Y-95630822D01*
X145017326Y-95670078D01*
X144950312Y-95697836D01*
X144778559Y-95732000D01*
X144603441Y-95732000D01*
X144431688Y-95697836D01*
X144364674Y-95670078D01*
X144269902Y-95630822D01*
X144124297Y-95533532D01*
X144000468Y-95409703D01*
X143903178Y-95264098D01*
X143836164Y-95102311D01*
X143802000Y-94930559D01*
X143802000Y-94755441D01*
X143836164Y-94583689D01*
X143903178Y-94421902D01*
X144000468Y-94276297D01*
X144124297Y-94152468D01*
X144269902Y-94055178D01*
X144364674Y-94015922D01*
X144431688Y-93988164D01*
X144603441Y-93954000D01*
X144778559Y-93954000D01*
X144950312Y-93988164D01*
G37*
G36*
X147490312Y-93988164D02*
G01*
X147557326Y-94015922D01*
X147652098Y-94055178D01*
X147797703Y-94152468D01*
X147921532Y-94276297D01*
X148018822Y-94421902D01*
X148085836Y-94583689D01*
X148120000Y-94755441D01*
X148120000Y-94930559D01*
X148085836Y-95102311D01*
X148018822Y-95264098D01*
X147921532Y-95409703D01*
X147797703Y-95533532D01*
X147652098Y-95630822D01*
X147557326Y-95670078D01*
X147490312Y-95697836D01*
X147318559Y-95732000D01*
X147143441Y-95732000D01*
X146971688Y-95697836D01*
X146904674Y-95670078D01*
X146809902Y-95630822D01*
X146664297Y-95533532D01*
X146540468Y-95409703D01*
X146443178Y-95264098D01*
X146376164Y-95102311D01*
X146342000Y-94930559D01*
X146342000Y-94755441D01*
X146376164Y-94583689D01*
X146443178Y-94421902D01*
X146540468Y-94276297D01*
X146664297Y-94152468D01*
X146809902Y-94055178D01*
X146904674Y-94015922D01*
X146971688Y-93988164D01*
X147143441Y-93954000D01*
X147318559Y-93954000D01*
X147490312Y-93988164D01*
G37*
G36*
X165270312Y-93988164D02*
G01*
X165337326Y-94015922D01*
X165432098Y-94055178D01*
X165577703Y-94152468D01*
X165701532Y-94276297D01*
X165798822Y-94421902D01*
X165865836Y-94583689D01*
X165900000Y-94755441D01*
X165900000Y-94930559D01*
X165865836Y-95102311D01*
X165798822Y-95264098D01*
X165701532Y-95409703D01*
X165577703Y-95533532D01*
X165432098Y-95630822D01*
X165337326Y-95670078D01*
X165270312Y-95697836D01*
X165098559Y-95732000D01*
X164923441Y-95732000D01*
X164751688Y-95697836D01*
X164684674Y-95670078D01*
X164589902Y-95630822D01*
X164444297Y-95533532D01*
X164320468Y-95409703D01*
X164223178Y-95264098D01*
X164156164Y-95102311D01*
X164122000Y-94930559D01*
X164122000Y-94755441D01*
X164156164Y-94583689D01*
X164223178Y-94421902D01*
X164320468Y-94276297D01*
X164444297Y-94152468D01*
X164589902Y-94055178D01*
X164684674Y-94015922D01*
X164751688Y-93988164D01*
X164923441Y-93954000D01*
X165098559Y-93954000D01*
X165270312Y-93988164D01*
G37*
G36*
X167810312Y-93988164D02*
G01*
X167877326Y-94015922D01*
X167972098Y-94055178D01*
X168117703Y-94152468D01*
X168241532Y-94276297D01*
X168338822Y-94421902D01*
X168405836Y-94583689D01*
X168440000Y-94755441D01*
X168440000Y-94930559D01*
X168405836Y-95102311D01*
X168338822Y-95264098D01*
X168241532Y-95409703D01*
X168117703Y-95533532D01*
X167972098Y-95630822D01*
X167877326Y-95670078D01*
X167810312Y-95697836D01*
X167638559Y-95732000D01*
X167463441Y-95732000D01*
X167291688Y-95697836D01*
X167224674Y-95670078D01*
X167129902Y-95630822D01*
X166984297Y-95533532D01*
X166860468Y-95409703D01*
X166763178Y-95264098D01*
X166696164Y-95102311D01*
X166662000Y-94930559D01*
X166662000Y-94755441D01*
X166696164Y-94583689D01*
X166763178Y-94421902D01*
X166860468Y-94276297D01*
X166984297Y-94152468D01*
X167129902Y-94055178D01*
X167224674Y-94015922D01*
X167291688Y-93988164D01*
X167463441Y-93954000D01*
X167638559Y-93954000D01*
X167810312Y-93988164D01*
G37*
G36*
X177970312Y-93988164D02*
G01*
X178037326Y-94015922D01*
X178132098Y-94055178D01*
X178277703Y-94152468D01*
X178401532Y-94276297D01*
X178498822Y-94421902D01*
X178565836Y-94583689D01*
X178600000Y-94755441D01*
X178600000Y-94930559D01*
X178565836Y-95102311D01*
X178498822Y-95264098D01*
X178401532Y-95409703D01*
X178277703Y-95533532D01*
X178132098Y-95630822D01*
X178037326Y-95670078D01*
X177970312Y-95697836D01*
X177798559Y-95732000D01*
X177623441Y-95732000D01*
X177451688Y-95697836D01*
X177384674Y-95670078D01*
X177289902Y-95630822D01*
X177144297Y-95533532D01*
X177020468Y-95409703D01*
X176923178Y-95264098D01*
X176856164Y-95102311D01*
X176822000Y-94930559D01*
X176822000Y-94755441D01*
X176856164Y-94583689D01*
X176923178Y-94421902D01*
X177020468Y-94276297D01*
X177144297Y-94152468D01*
X177289902Y-94055178D01*
X177384674Y-94015922D01*
X177451688Y-93988164D01*
X177623441Y-93954000D01*
X177798559Y-93954000D01*
X177970312Y-93988164D01*
G37*
G36*
X162730312Y-93988164D02*
G01*
X162797326Y-94015922D01*
X162892098Y-94055178D01*
X163037703Y-94152468D01*
X163161532Y-94276297D01*
X163258822Y-94421902D01*
X163325836Y-94583689D01*
X163360000Y-94755441D01*
X163360000Y-94930559D01*
X163325836Y-95102311D01*
X163258822Y-95264098D01*
X163161532Y-95409703D01*
X163037703Y-95533532D01*
X162892098Y-95630822D01*
X162797326Y-95670078D01*
X162730312Y-95697836D01*
X162558559Y-95732000D01*
X162383441Y-95732000D01*
X162211688Y-95697836D01*
X162144674Y-95670078D01*
X162049902Y-95630822D01*
X161904297Y-95533532D01*
X161780468Y-95409703D01*
X161683178Y-95264098D01*
X161616164Y-95102311D01*
X161582000Y-94930559D01*
X161582000Y-94755441D01*
X161616164Y-94583689D01*
X161683178Y-94421902D01*
X161780468Y-94276297D01*
X161904297Y-94152468D01*
X162049902Y-94055178D01*
X162144674Y-94015922D01*
X162211688Y-93988164D01*
X162383441Y-93954000D01*
X162558559Y-93954000D01*
X162730312Y-93988164D01*
G37*
G36*
X157650312Y-93988164D02*
G01*
X157717326Y-94015922D01*
X157812098Y-94055178D01*
X157957703Y-94152468D01*
X158081532Y-94276297D01*
X158178822Y-94421902D01*
X158245836Y-94583689D01*
X158280000Y-94755441D01*
X158280000Y-94930559D01*
X158245836Y-95102311D01*
X158178822Y-95264098D01*
X158081532Y-95409703D01*
X157957703Y-95533532D01*
X157812098Y-95630822D01*
X157717326Y-95670078D01*
X157650312Y-95697836D01*
X157478559Y-95732000D01*
X157303441Y-95732000D01*
X157131688Y-95697836D01*
X157064674Y-95670078D01*
X156969902Y-95630822D01*
X156824297Y-95533532D01*
X156700468Y-95409703D01*
X156603178Y-95264098D01*
X156536164Y-95102311D01*
X156502000Y-94930559D01*
X156502000Y-94755441D01*
X156536164Y-94583689D01*
X156603178Y-94421902D01*
X156700468Y-94276297D01*
X156824297Y-94152468D01*
X156969902Y-94055178D01*
X157064674Y-94015922D01*
X157131688Y-93988164D01*
X157303441Y-93954000D01*
X157478559Y-93954000D01*
X157650312Y-93988164D01*
G37*
G36*
X155110312Y-93988164D02*
G01*
X155177326Y-94015922D01*
X155272098Y-94055178D01*
X155417703Y-94152468D01*
X155541532Y-94276297D01*
X155638822Y-94421902D01*
X155705836Y-94583689D01*
X155740000Y-94755441D01*
X155740000Y-94930559D01*
X155705836Y-95102311D01*
X155638822Y-95264098D01*
X155541532Y-95409703D01*
X155417703Y-95533532D01*
X155272098Y-95630822D01*
X155177326Y-95670078D01*
X155110312Y-95697836D01*
X154938559Y-95732000D01*
X154763441Y-95732000D01*
X154591688Y-95697836D01*
X154524674Y-95670078D01*
X154429902Y-95630822D01*
X154284297Y-95533532D01*
X154160468Y-95409703D01*
X154063178Y-95264098D01*
X153996164Y-95102311D01*
X153962000Y-94930559D01*
X153962000Y-94755441D01*
X153996164Y-94583689D01*
X154063178Y-94421902D01*
X154160468Y-94276297D01*
X154284297Y-94152468D01*
X154429902Y-94055178D01*
X154524674Y-94015922D01*
X154591688Y-93988164D01*
X154763441Y-93954000D01*
X154938559Y-93954000D01*
X155110312Y-93988164D01*
G37*
G36*
X152570312Y-93988164D02*
G01*
X152637326Y-94015922D01*
X152732098Y-94055178D01*
X152877703Y-94152468D01*
X153001532Y-94276297D01*
X153098822Y-94421902D01*
X153165836Y-94583689D01*
X153200000Y-94755441D01*
X153200000Y-94930559D01*
X153165836Y-95102311D01*
X153098822Y-95264098D01*
X153001532Y-95409703D01*
X152877703Y-95533532D01*
X152732098Y-95630822D01*
X152637326Y-95670078D01*
X152570312Y-95697836D01*
X152398559Y-95732000D01*
X152223441Y-95732000D01*
X152051688Y-95697836D01*
X151984674Y-95670078D01*
X151889902Y-95630822D01*
X151744297Y-95533532D01*
X151620468Y-95409703D01*
X151523178Y-95264098D01*
X151456164Y-95102311D01*
X151422000Y-94930559D01*
X151422000Y-94755441D01*
X151456164Y-94583689D01*
X151523178Y-94421902D01*
X151620468Y-94276297D01*
X151744297Y-94152468D01*
X151889902Y-94055178D01*
X151984674Y-94015922D01*
X152051688Y-93988164D01*
X152223441Y-93954000D01*
X152398559Y-93954000D01*
X152570312Y-93988164D01*
G37*
G36*
X150030312Y-93988164D02*
G01*
X150097326Y-94015922D01*
X150192098Y-94055178D01*
X150337703Y-94152468D01*
X150461532Y-94276297D01*
X150558822Y-94421902D01*
X150625836Y-94583689D01*
X150660000Y-94755441D01*
X150660000Y-94930559D01*
X150625836Y-95102311D01*
X150558822Y-95264098D01*
X150461532Y-95409703D01*
X150337703Y-95533532D01*
X150192098Y-95630822D01*
X150097326Y-95670078D01*
X150030312Y-95697836D01*
X149858559Y-95732000D01*
X149683441Y-95732000D01*
X149511688Y-95697836D01*
X149444674Y-95670078D01*
X149349902Y-95630822D01*
X149204297Y-95533532D01*
X149080468Y-95409703D01*
X148983178Y-95264098D01*
X148916164Y-95102311D01*
X148882000Y-94930559D01*
X148882000Y-94755441D01*
X148916164Y-94583689D01*
X148983178Y-94421902D01*
X149080468Y-94276297D01*
X149204297Y-94152468D01*
X149349902Y-94055178D01*
X149444674Y-94015922D01*
X149511688Y-93988164D01*
X149683441Y-93954000D01*
X149858559Y-93954000D01*
X150030312Y-93988164D01*
G37*
G36*
X139870312Y-93988164D02*
G01*
X139937326Y-94015922D01*
X140032098Y-94055178D01*
X140177703Y-94152468D01*
X140301532Y-94276297D01*
X140398822Y-94421902D01*
X140465836Y-94583689D01*
X140500000Y-94755441D01*
X140500000Y-94930559D01*
X140465836Y-95102311D01*
X140398822Y-95264098D01*
X140301532Y-95409703D01*
X140177703Y-95533532D01*
X140032098Y-95630822D01*
X139937326Y-95670078D01*
X139870312Y-95697836D01*
X139698559Y-95732000D01*
X139523441Y-95732000D01*
X139351688Y-95697836D01*
X139284674Y-95670078D01*
X139189902Y-95630822D01*
X139044297Y-95533532D01*
X138920468Y-95409703D01*
X138823178Y-95264098D01*
X138756164Y-95102311D01*
X138722000Y-94930559D01*
X138722000Y-94755441D01*
X138756164Y-94583689D01*
X138823178Y-94421902D01*
X138920468Y-94276297D01*
X139044297Y-94152468D01*
X139189902Y-94055178D01*
X139284674Y-94015922D01*
X139351688Y-93988164D01*
X139523441Y-93954000D01*
X139698559Y-93954000D01*
X139870312Y-93988164D01*
G37*
G36*
X160190312Y-93988164D02*
G01*
X160257326Y-94015922D01*
X160352098Y-94055178D01*
X160497703Y-94152468D01*
X160621532Y-94276297D01*
X160718822Y-94421902D01*
X160785836Y-94583689D01*
X160820000Y-94755441D01*
X160820000Y-94930559D01*
X160785836Y-95102311D01*
X160718822Y-95264098D01*
X160621532Y-95409703D01*
X160497703Y-95533532D01*
X160352098Y-95630822D01*
X160257326Y-95670078D01*
X160190312Y-95697836D01*
X160018559Y-95732000D01*
X159843441Y-95732000D01*
X159671688Y-95697836D01*
X159604674Y-95670078D01*
X159509902Y-95630822D01*
X159364297Y-95533532D01*
X159240468Y-95409703D01*
X159143178Y-95264098D01*
X159076164Y-95102311D01*
X159042000Y-94930559D01*
X159042000Y-94755441D01*
X159076164Y-94583689D01*
X159143178Y-94421902D01*
X159240468Y-94276297D01*
X159364297Y-94152468D01*
X159509902Y-94055178D01*
X159604674Y-94015922D01*
X159671688Y-93988164D01*
X159843441Y-93954000D01*
X160018559Y-93954000D01*
X160190312Y-93988164D01*
G37*
M02*
