%TF.GenerationSoftware,KiCad,Pcbnew,5.1.5+dfsg1-2~bpo10+1*%
%TF.CreationDate,2020-05-18T13:54:13+02:00*%
%TF.ProjectId,quickfeather-board,71756963-6b66-4656-9174-6865722d626f,rev?*%
%TF.SameCoordinates,Original*%
%TF.FileFunction,Other,ECO2*%
%FSLAX46Y46*%
G04 Gerber Fmt 4.6, Leading zero omitted, Abs format (unit mm)*
G04 Created by KiCad (PCBNEW 5.1.5+dfsg1-2~bpo10+1) date 2020-05-18 13:54:13 commit 16b5e15*
%MOMM*%
%LPD*%
G04 APERTURE LIST*
%ADD10C,0.300000*%
%ADD11C,0.150000*%
%ADD12C,0.127000*%
G04 APERTURE END LIST*
D10*
X128289585Y-87680271D02*
X127789585Y-86965985D01*
X127432442Y-87680271D02*
X127432442Y-86180271D01*
X128003871Y-86180271D01*
X128146728Y-86251700D01*
X128218157Y-86323128D01*
X128289585Y-86465985D01*
X128289585Y-86680271D01*
X128218157Y-86823128D01*
X128146728Y-86894557D01*
X128003871Y-86965985D01*
X127432442Y-86965985D01*
X130075300Y-87680271D02*
X130075300Y-86180271D01*
X131075300Y-86180271D02*
X131361014Y-86180271D01*
X131503871Y-86251700D01*
X131646728Y-86394557D01*
X131718157Y-86680271D01*
X131718157Y-87180271D01*
X131646728Y-87465985D01*
X131503871Y-87608842D01*
X131361014Y-87680271D01*
X131075300Y-87680271D01*
X130932442Y-87608842D01*
X130789585Y-87465985D01*
X130718157Y-87180271D01*
X130718157Y-86680271D01*
X130789585Y-86394557D01*
X130932442Y-86251700D01*
X131075300Y-86180271D01*
X132003871Y-87823128D02*
X133146728Y-87823128D01*
X133432442Y-86323128D02*
X133503871Y-86251700D01*
X133646728Y-86180271D01*
X134003871Y-86180271D01*
X134146728Y-86251700D01*
X134218157Y-86323128D01*
X134289585Y-86465985D01*
X134289585Y-86608842D01*
X134218157Y-86823128D01*
X133361014Y-87680271D01*
X134289585Y-87680271D01*
X134861014Y-86323128D02*
X134932442Y-86251700D01*
X135075300Y-86180271D01*
X135432442Y-86180271D01*
X135575300Y-86251700D01*
X135646728Y-86323128D01*
X135718157Y-86465985D01*
X135718157Y-86608842D01*
X135646728Y-86823128D01*
X134789585Y-87680271D01*
X135718157Y-87680271D01*
X127932442Y-89444557D02*
X128146728Y-89515985D01*
X128218157Y-89587414D01*
X128289585Y-89730271D01*
X128289585Y-89944557D01*
X128218157Y-90087414D01*
X128146728Y-90158842D01*
X128003871Y-90230271D01*
X127432442Y-90230271D01*
X127432442Y-88730271D01*
X127932442Y-88730271D01*
X128075300Y-88801700D01*
X128146728Y-88873128D01*
X128218157Y-89015985D01*
X128218157Y-89158842D01*
X128146728Y-89301700D01*
X128075300Y-89373128D01*
X127932442Y-89444557D01*
X127432442Y-89444557D01*
X130075300Y-90230271D02*
X130075300Y-88730271D01*
X131075300Y-88730271D02*
X131361014Y-88730271D01*
X131503871Y-88801700D01*
X131646728Y-88944557D01*
X131718157Y-89230271D01*
X131718157Y-89730271D01*
X131646728Y-90015985D01*
X131503871Y-90158842D01*
X131361014Y-90230271D01*
X131075300Y-90230271D01*
X130932442Y-90158842D01*
X130789585Y-90015985D01*
X130718157Y-89730271D01*
X130718157Y-89230271D01*
X130789585Y-88944557D01*
X130932442Y-88801700D01*
X131075300Y-88730271D01*
X132003871Y-90373128D02*
X133146728Y-90373128D01*
X134289585Y-90230271D02*
X133432442Y-90230271D01*
X133861014Y-90230271D02*
X133861014Y-88730271D01*
X133718157Y-88944557D01*
X133575300Y-89087414D01*
X133432442Y-89158842D01*
X135146728Y-89373128D02*
X135003871Y-89301700D01*
X134932442Y-89230271D01*
X134861014Y-89087414D01*
X134861014Y-89015985D01*
X134932442Y-88873128D01*
X135003871Y-88801700D01*
X135146728Y-88730271D01*
X135432442Y-88730271D01*
X135575300Y-88801700D01*
X135646728Y-88873128D01*
X135718157Y-89015985D01*
X135718157Y-89087414D01*
X135646728Y-89230271D01*
X135575300Y-89301700D01*
X135432442Y-89373128D01*
X135146728Y-89373128D01*
X135003871Y-89444557D01*
X134932442Y-89515985D01*
X134861014Y-89658842D01*
X134861014Y-89944557D01*
X134932442Y-90087414D01*
X135003871Y-90158842D01*
X135146728Y-90230271D01*
X135432442Y-90230271D01*
X135575300Y-90158842D01*
X135646728Y-90087414D01*
X135718157Y-89944557D01*
X135718157Y-89658842D01*
X135646728Y-89515985D01*
X135575300Y-89444557D01*
X135432442Y-89373128D01*
X128218157Y-91351700D02*
X128075300Y-91280271D01*
X127861014Y-91280271D01*
X127646728Y-91351700D01*
X127503871Y-91494557D01*
X127432442Y-91637414D01*
X127361014Y-91923128D01*
X127361014Y-92137414D01*
X127432442Y-92423128D01*
X127503871Y-92565985D01*
X127646728Y-92708842D01*
X127861014Y-92780271D01*
X128003871Y-92780271D01*
X128218157Y-92708842D01*
X128289585Y-92637414D01*
X128289585Y-92137414D01*
X128003871Y-92137414D01*
X130075300Y-92780271D02*
X130075300Y-91280271D01*
X131075300Y-91280271D02*
X131361014Y-91280271D01*
X131503871Y-91351700D01*
X131646728Y-91494557D01*
X131718157Y-91780271D01*
X131718157Y-92280271D01*
X131646728Y-92565985D01*
X131503871Y-92708842D01*
X131361014Y-92780271D01*
X131075300Y-92780271D01*
X130932442Y-92708842D01*
X130789585Y-92565985D01*
X130718157Y-92280271D01*
X130718157Y-91780271D01*
X130789585Y-91494557D01*
X130932442Y-91351700D01*
X131075300Y-91280271D01*
X132003871Y-92923128D02*
X133146728Y-92923128D01*
X133432442Y-91423128D02*
X133503871Y-91351700D01*
X133646728Y-91280271D01*
X134003871Y-91280271D01*
X134146728Y-91351700D01*
X134218157Y-91423128D01*
X134289585Y-91565985D01*
X134289585Y-91708842D01*
X134218157Y-91923128D01*
X133361014Y-92780271D01*
X134289585Y-92780271D01*
X135718157Y-92780271D02*
X134861014Y-92780271D01*
X135289585Y-92780271D02*
X135289585Y-91280271D01*
X135146728Y-91494557D01*
X135003871Y-91637414D01*
X134861014Y-91708842D01*
X183012442Y-95470271D02*
X183012442Y-93970271D01*
X184012442Y-93970271D02*
X184298157Y-93970271D01*
X184441014Y-94041700D01*
X184583871Y-94184557D01*
X184655300Y-94470271D01*
X184655300Y-94970271D01*
X184583871Y-95255985D01*
X184441014Y-95398842D01*
X184298157Y-95470271D01*
X184012442Y-95470271D01*
X183869585Y-95398842D01*
X183726728Y-95255985D01*
X183655300Y-94970271D01*
X183655300Y-94470271D01*
X183726728Y-94184557D01*
X183869585Y-94041700D01*
X184012442Y-93970271D01*
X184941014Y-95613128D02*
X186083871Y-95613128D01*
X186369585Y-94113128D02*
X186441014Y-94041700D01*
X186583871Y-93970271D01*
X186941014Y-93970271D01*
X187083871Y-94041700D01*
X187155300Y-94113128D01*
X187226728Y-94255985D01*
X187226728Y-94398842D01*
X187155300Y-94613128D01*
X186298157Y-95470271D01*
X187226728Y-95470271D01*
X188083871Y-94613128D02*
X187941014Y-94541700D01*
X187869585Y-94470271D01*
X187798157Y-94327414D01*
X187798157Y-94255985D01*
X187869585Y-94113128D01*
X187941014Y-94041700D01*
X188083871Y-93970271D01*
X188369585Y-93970271D01*
X188512442Y-94041700D01*
X188583871Y-94113128D01*
X188655300Y-94255985D01*
X188655300Y-94327414D01*
X188583871Y-94470271D01*
X188512442Y-94541700D01*
X188369585Y-94613128D01*
X188083871Y-94613128D01*
X187941014Y-94684557D01*
X187869585Y-94755985D01*
X187798157Y-94898842D01*
X187798157Y-95184557D01*
X187869585Y-95327414D01*
X187941014Y-95398842D01*
X188083871Y-95470271D01*
X188369585Y-95470271D01*
X188512442Y-95398842D01*
X188583871Y-95327414D01*
X188655300Y-95184557D01*
X188655300Y-94898842D01*
X188583871Y-94755985D01*
X188512442Y-94684557D01*
X188369585Y-94613128D01*
X183012442Y-98020271D02*
X183012442Y-96520271D01*
X184012442Y-96520271D02*
X184298157Y-96520271D01*
X184441014Y-96591700D01*
X184583871Y-96734557D01*
X184655300Y-97020271D01*
X184655300Y-97520271D01*
X184583871Y-97805985D01*
X184441014Y-97948842D01*
X184298157Y-98020271D01*
X184012442Y-98020271D01*
X183869585Y-97948842D01*
X183726728Y-97805985D01*
X183655300Y-97520271D01*
X183655300Y-97020271D01*
X183726728Y-96734557D01*
X183869585Y-96591700D01*
X184012442Y-96520271D01*
X184941014Y-98163128D02*
X186083871Y-98163128D01*
X186369585Y-96663128D02*
X186441014Y-96591700D01*
X186583871Y-96520271D01*
X186941014Y-96520271D01*
X187083871Y-96591700D01*
X187155300Y-96663128D01*
X187226728Y-96805985D01*
X187226728Y-96948842D01*
X187155300Y-97163128D01*
X186298157Y-98020271D01*
X187226728Y-98020271D01*
X187726728Y-96520271D02*
X188655300Y-96520271D01*
X188155300Y-97091700D01*
X188369585Y-97091700D01*
X188512442Y-97163128D01*
X188583871Y-97234557D01*
X188655300Y-97377414D01*
X188655300Y-97734557D01*
X188583871Y-97877414D01*
X188512442Y-97948842D01*
X188369585Y-98020271D01*
X187941014Y-98020271D01*
X187798157Y-97948842D01*
X187726728Y-97877414D01*
X183012442Y-100570271D02*
X183012442Y-99070271D01*
X184012442Y-99070271D02*
X184298157Y-99070271D01*
X184441014Y-99141700D01*
X184583871Y-99284557D01*
X184655300Y-99570271D01*
X184655300Y-100070271D01*
X184583871Y-100355985D01*
X184441014Y-100498842D01*
X184298157Y-100570271D01*
X184012442Y-100570271D01*
X183869585Y-100498842D01*
X183726728Y-100355985D01*
X183655300Y-100070271D01*
X183655300Y-99570271D01*
X183726728Y-99284557D01*
X183869585Y-99141700D01*
X184012442Y-99070271D01*
X184941014Y-100713128D02*
X186083871Y-100713128D01*
X186298157Y-99070271D02*
X187226728Y-99070271D01*
X186726728Y-99641700D01*
X186941014Y-99641700D01*
X187083871Y-99713128D01*
X187155300Y-99784557D01*
X187226728Y-99927414D01*
X187226728Y-100284557D01*
X187155300Y-100427414D01*
X187083871Y-100498842D01*
X186941014Y-100570271D01*
X186512442Y-100570271D01*
X186369585Y-100498842D01*
X186298157Y-100427414D01*
X188655300Y-100570271D02*
X187798157Y-100570271D01*
X188226728Y-100570271D02*
X188226728Y-99070271D01*
X188083871Y-99284557D01*
X187941014Y-99427414D01*
X187798157Y-99498842D01*
X183012442Y-103120271D02*
X183012442Y-101620271D01*
X184012442Y-101620271D02*
X184298157Y-101620271D01*
X184441014Y-101691700D01*
X184583871Y-101834557D01*
X184655300Y-102120271D01*
X184655300Y-102620271D01*
X184583871Y-102905985D01*
X184441014Y-103048842D01*
X184298157Y-103120271D01*
X184012442Y-103120271D01*
X183869585Y-103048842D01*
X183726728Y-102905985D01*
X183655300Y-102620271D01*
X183655300Y-102120271D01*
X183726728Y-101834557D01*
X183869585Y-101691700D01*
X184012442Y-101620271D01*
X184941014Y-103263128D02*
X186083871Y-103263128D01*
X187226728Y-103120271D02*
X186369585Y-103120271D01*
X186798157Y-103120271D02*
X186798157Y-101620271D01*
X186655300Y-101834557D01*
X186512442Y-101977414D01*
X186369585Y-102048842D01*
X187798157Y-101763128D02*
X187869585Y-101691700D01*
X188012442Y-101620271D01*
X188369585Y-101620271D01*
X188512442Y-101691700D01*
X188583871Y-101763128D01*
X188655300Y-101905985D01*
X188655300Y-102048842D01*
X188583871Y-102263128D01*
X187726728Y-103120271D01*
X188655300Y-103120271D01*
X183012442Y-105670271D02*
X183012442Y-104170271D01*
X184012442Y-104170271D02*
X184298157Y-104170271D01*
X184441014Y-104241700D01*
X184583871Y-104384557D01*
X184655300Y-104670271D01*
X184655300Y-105170271D01*
X184583871Y-105455985D01*
X184441014Y-105598842D01*
X184298157Y-105670271D01*
X184012442Y-105670271D01*
X183869585Y-105598842D01*
X183726728Y-105455985D01*
X183655300Y-105170271D01*
X183655300Y-104670271D01*
X183726728Y-104384557D01*
X183869585Y-104241700D01*
X184012442Y-104170271D01*
X184941014Y-105813128D02*
X186083871Y-105813128D01*
X187155300Y-104170271D02*
X186441014Y-104170271D01*
X186369585Y-104884557D01*
X186441014Y-104813128D01*
X186583871Y-104741700D01*
X186941014Y-104741700D01*
X187083871Y-104813128D01*
X187155300Y-104884557D01*
X187226728Y-105027414D01*
X187226728Y-105384557D01*
X187155300Y-105527414D01*
X187083871Y-105598842D01*
X186941014Y-105670271D01*
X186583871Y-105670271D01*
X186441014Y-105598842D01*
X186369585Y-105527414D01*
X183012442Y-108220271D02*
X183012442Y-106720271D01*
X184012442Y-106720271D02*
X184298157Y-106720271D01*
X184441014Y-106791700D01*
X184583871Y-106934557D01*
X184655300Y-107220271D01*
X184655300Y-107720271D01*
X184583871Y-108005985D01*
X184441014Y-108148842D01*
X184298157Y-108220271D01*
X184012442Y-108220271D01*
X183869585Y-108148842D01*
X183726728Y-108005985D01*
X183655300Y-107720271D01*
X183655300Y-107220271D01*
X183726728Y-106934557D01*
X183869585Y-106791700D01*
X184012442Y-106720271D01*
X184941014Y-108363128D02*
X186083871Y-108363128D01*
X186298157Y-106720271D02*
X187298157Y-106720271D01*
X186655300Y-108220271D01*
X183012442Y-110770271D02*
X183012442Y-109270271D01*
X184012442Y-109270271D02*
X184298157Y-109270271D01*
X184441014Y-109341700D01*
X184583871Y-109484557D01*
X184655300Y-109770271D01*
X184655300Y-110270271D01*
X184583871Y-110555985D01*
X184441014Y-110698842D01*
X184298157Y-110770271D01*
X184012442Y-110770271D01*
X183869585Y-110698842D01*
X183726728Y-110555985D01*
X183655300Y-110270271D01*
X183655300Y-109770271D01*
X183726728Y-109484557D01*
X183869585Y-109341700D01*
X184012442Y-109270271D01*
X184941014Y-110913128D02*
X186083871Y-110913128D01*
X187226728Y-110770271D02*
X186369585Y-110770271D01*
X186798157Y-110770271D02*
X186798157Y-109270271D01*
X186655300Y-109484557D01*
X186512442Y-109627414D01*
X186369585Y-109698842D01*
X188155300Y-109270271D02*
X188298157Y-109270271D01*
X188441014Y-109341700D01*
X188512442Y-109413128D01*
X188583871Y-109555985D01*
X188655300Y-109841700D01*
X188655300Y-110198842D01*
X188583871Y-110484557D01*
X188512442Y-110627414D01*
X188441014Y-110698842D01*
X188298157Y-110770271D01*
X188155300Y-110770271D01*
X188012442Y-110698842D01*
X187941014Y-110627414D01*
X187869585Y-110484557D01*
X187798157Y-110198842D01*
X187798157Y-109841700D01*
X187869585Y-109555985D01*
X187941014Y-109413128D01*
X188012442Y-109341700D01*
X188155300Y-109270271D01*
X195542442Y-95460271D02*
X195542442Y-93960271D01*
X196542442Y-93960271D02*
X196828157Y-93960271D01*
X196971014Y-94031700D01*
X197113871Y-94174557D01*
X197185300Y-94460271D01*
X197185300Y-94960271D01*
X197113871Y-95245985D01*
X196971014Y-95388842D01*
X196828157Y-95460271D01*
X196542442Y-95460271D01*
X196399585Y-95388842D01*
X196256728Y-95245985D01*
X196185300Y-94960271D01*
X196185300Y-94460271D01*
X196256728Y-94174557D01*
X196399585Y-94031700D01*
X196542442Y-93960271D01*
X197471014Y-95603128D02*
X198613871Y-95603128D01*
X198899585Y-94103128D02*
X198971014Y-94031700D01*
X199113871Y-93960271D01*
X199471014Y-93960271D01*
X199613871Y-94031700D01*
X199685300Y-94103128D01*
X199756728Y-94245985D01*
X199756728Y-94388842D01*
X199685300Y-94603128D01*
X198828157Y-95460271D01*
X199756728Y-95460271D01*
X200471014Y-95460271D02*
X200756728Y-95460271D01*
X200899585Y-95388842D01*
X200971014Y-95317414D01*
X201113871Y-95103128D01*
X201185300Y-94817414D01*
X201185300Y-94245985D01*
X201113871Y-94103128D01*
X201042442Y-94031700D01*
X200899585Y-93960271D01*
X200613871Y-93960271D01*
X200471014Y-94031700D01*
X200399585Y-94103128D01*
X200328157Y-94245985D01*
X200328157Y-94603128D01*
X200399585Y-94745985D01*
X200471014Y-94817414D01*
X200613871Y-94888842D01*
X200899585Y-94888842D01*
X201042442Y-94817414D01*
X201113871Y-94745985D01*
X201185300Y-94603128D01*
X195542442Y-98010271D02*
X195542442Y-96510271D01*
X196542442Y-96510271D02*
X196828157Y-96510271D01*
X196971014Y-96581700D01*
X197113871Y-96724557D01*
X197185300Y-97010271D01*
X197185300Y-97510271D01*
X197113871Y-97795985D01*
X196971014Y-97938842D01*
X196828157Y-98010271D01*
X196542442Y-98010271D01*
X196399585Y-97938842D01*
X196256728Y-97795985D01*
X196185300Y-97510271D01*
X196185300Y-97010271D01*
X196256728Y-96724557D01*
X196399585Y-96581700D01*
X196542442Y-96510271D01*
X197471014Y-98153128D02*
X198613871Y-98153128D01*
X198899585Y-96653128D02*
X198971014Y-96581700D01*
X199113871Y-96510271D01*
X199471014Y-96510271D01*
X199613871Y-96581700D01*
X199685300Y-96653128D01*
X199756728Y-96795985D01*
X199756728Y-96938842D01*
X199685300Y-97153128D01*
X198828157Y-98010271D01*
X199756728Y-98010271D01*
X201042442Y-97010271D02*
X201042442Y-98010271D01*
X200685300Y-96438842D02*
X200328157Y-97510271D01*
X201256728Y-97510271D01*
X195542442Y-100560271D02*
X195542442Y-99060271D01*
X196542442Y-99060271D02*
X196828157Y-99060271D01*
X196971014Y-99131700D01*
X197113871Y-99274557D01*
X197185300Y-99560271D01*
X197185300Y-100060271D01*
X197113871Y-100345985D01*
X196971014Y-100488842D01*
X196828157Y-100560271D01*
X196542442Y-100560271D01*
X196399585Y-100488842D01*
X196256728Y-100345985D01*
X196185300Y-100060271D01*
X196185300Y-99560271D01*
X196256728Y-99274557D01*
X196399585Y-99131700D01*
X196542442Y-99060271D01*
X197471014Y-100703128D02*
X198613871Y-100703128D01*
X199756728Y-100560271D02*
X198899585Y-100560271D01*
X199328157Y-100560271D02*
X199328157Y-99060271D01*
X199185300Y-99274557D01*
X199042442Y-99417414D01*
X198899585Y-99488842D01*
X201185300Y-100560271D02*
X200328157Y-100560271D01*
X200756728Y-100560271D02*
X200756728Y-99060271D01*
X200613871Y-99274557D01*
X200471014Y-99417414D01*
X200328157Y-99488842D01*
X195542442Y-103110271D02*
X195542442Y-101610271D01*
X196542442Y-101610271D02*
X196828157Y-101610271D01*
X196971014Y-101681700D01*
X197113871Y-101824557D01*
X197185300Y-102110271D01*
X197185300Y-102610271D01*
X197113871Y-102895985D01*
X196971014Y-103038842D01*
X196828157Y-103110271D01*
X196542442Y-103110271D01*
X196399585Y-103038842D01*
X196256728Y-102895985D01*
X196185300Y-102610271D01*
X196185300Y-102110271D01*
X196256728Y-101824557D01*
X196399585Y-101681700D01*
X196542442Y-101610271D01*
X197471014Y-103253128D02*
X198613871Y-103253128D01*
X199613871Y-102110271D02*
X199613871Y-103110271D01*
X199256728Y-101538842D02*
X198899585Y-102610271D01*
X199828157Y-102610271D01*
X195542442Y-108210271D02*
X195542442Y-106710271D01*
X196542442Y-106710271D02*
X196828157Y-106710271D01*
X196971014Y-106781700D01*
X197113871Y-106924557D01*
X197185300Y-107210271D01*
X197185300Y-107710271D01*
X197113871Y-107995985D01*
X196971014Y-108138842D01*
X196828157Y-108210271D01*
X196542442Y-108210271D01*
X196399585Y-108138842D01*
X196256728Y-107995985D01*
X196185300Y-107710271D01*
X196185300Y-107210271D01*
X196256728Y-106924557D01*
X196399585Y-106781700D01*
X196542442Y-106710271D01*
X197471014Y-108353128D02*
X198613871Y-108353128D01*
X199185300Y-107353128D02*
X199042442Y-107281700D01*
X198971014Y-107210271D01*
X198899585Y-107067414D01*
X198899585Y-106995985D01*
X198971014Y-106853128D01*
X199042442Y-106781700D01*
X199185300Y-106710271D01*
X199471014Y-106710271D01*
X199613871Y-106781700D01*
X199685300Y-106853128D01*
X199756728Y-106995985D01*
X199756728Y-107067414D01*
X199685300Y-107210271D01*
X199613871Y-107281700D01*
X199471014Y-107353128D01*
X199185300Y-107353128D01*
X199042442Y-107424557D01*
X198971014Y-107495985D01*
X198899585Y-107638842D01*
X198899585Y-107924557D01*
X198971014Y-108067414D01*
X199042442Y-108138842D01*
X199185300Y-108210271D01*
X199471014Y-108210271D01*
X199613871Y-108138842D01*
X199685300Y-108067414D01*
X199756728Y-107924557D01*
X199756728Y-107638842D01*
X199685300Y-107495985D01*
X199613871Y-107424557D01*
X199471014Y-107353128D01*
X195542442Y-110760271D02*
X195542442Y-109260271D01*
X196399585Y-110760271D01*
X196399585Y-109260271D01*
X197971014Y-110617414D02*
X197899585Y-110688842D01*
X197685300Y-110760271D01*
X197542442Y-110760271D01*
X197328157Y-110688842D01*
X197185300Y-110545985D01*
X197113871Y-110403128D01*
X197042442Y-110117414D01*
X197042442Y-109903128D01*
X197113871Y-109617414D01*
X197185300Y-109474557D01*
X197328157Y-109331700D01*
X197542442Y-109260271D01*
X197685300Y-109260271D01*
X197899585Y-109331700D01*
X197971014Y-109403128D01*
X164261728Y-117443842D02*
X165761728Y-117443842D01*
X165761728Y-118443842D02*
X165761728Y-118729557D01*
X165690300Y-118872414D01*
X165547442Y-119015271D01*
X165261728Y-119086700D01*
X164761728Y-119086700D01*
X164476014Y-119015271D01*
X164333157Y-118872414D01*
X164261728Y-118729557D01*
X164261728Y-118443842D01*
X164333157Y-118300985D01*
X164476014Y-118158128D01*
X164761728Y-118086700D01*
X165261728Y-118086700D01*
X165547442Y-118158128D01*
X165690300Y-118300985D01*
X165761728Y-118443842D01*
X164118871Y-119372414D02*
X164118871Y-120515271D01*
X165261728Y-121515271D02*
X164261728Y-121515271D01*
X165833157Y-121158128D02*
X164761728Y-120800985D01*
X164761728Y-121729557D01*
X165261728Y-122943842D02*
X164261728Y-122943842D01*
X165833157Y-122586700D02*
X164761728Y-122229557D01*
X164761728Y-123158128D01*
X161711728Y-117443842D02*
X163211728Y-117443842D01*
X163211728Y-118443842D02*
X163211728Y-118729557D01*
X163140300Y-118872414D01*
X162997442Y-119015271D01*
X162711728Y-119086700D01*
X162211728Y-119086700D01*
X161926014Y-119015271D01*
X161783157Y-118872414D01*
X161711728Y-118729557D01*
X161711728Y-118443842D01*
X161783157Y-118300985D01*
X161926014Y-118158128D01*
X162211728Y-118086700D01*
X162711728Y-118086700D01*
X162997442Y-118158128D01*
X163140300Y-118300985D01*
X163211728Y-118443842D01*
X161568871Y-119372414D02*
X161568871Y-120515271D01*
X162711728Y-121515271D02*
X161711728Y-121515271D01*
X163283157Y-121158128D02*
X162211728Y-120800985D01*
X162211728Y-121729557D01*
X163211728Y-123015271D02*
X163211728Y-122300985D01*
X162497442Y-122229557D01*
X162568871Y-122300985D01*
X162640300Y-122443842D01*
X162640300Y-122800985D01*
X162568871Y-122943842D01*
X162497442Y-123015271D01*
X162354585Y-123086700D01*
X161997442Y-123086700D01*
X161854585Y-123015271D01*
X161783157Y-122943842D01*
X161711728Y-122800985D01*
X161711728Y-122443842D01*
X161783157Y-122300985D01*
X161854585Y-122229557D01*
X159161728Y-117443842D02*
X160661728Y-117443842D01*
X160661728Y-118443842D02*
X160661728Y-118729557D01*
X160590300Y-118872414D01*
X160447442Y-119015271D01*
X160161728Y-119086700D01*
X159661728Y-119086700D01*
X159376014Y-119015271D01*
X159233157Y-118872414D01*
X159161728Y-118729557D01*
X159161728Y-118443842D01*
X159233157Y-118300985D01*
X159376014Y-118158128D01*
X159661728Y-118086700D01*
X160161728Y-118086700D01*
X160447442Y-118158128D01*
X160590300Y-118300985D01*
X160661728Y-118443842D01*
X159018871Y-119372414D02*
X159018871Y-120515271D01*
X160661728Y-120729557D02*
X160661728Y-121658128D01*
X160090300Y-121158128D01*
X160090300Y-121372414D01*
X160018871Y-121515271D01*
X159947442Y-121586700D01*
X159804585Y-121658128D01*
X159447442Y-121658128D01*
X159304585Y-121586700D01*
X159233157Y-121515271D01*
X159161728Y-121372414D01*
X159161728Y-120943842D01*
X159233157Y-120800985D01*
X159304585Y-120729557D01*
X160661728Y-122943842D02*
X160661728Y-122658128D01*
X160590300Y-122515271D01*
X160518871Y-122443842D01*
X160304585Y-122300985D01*
X160018871Y-122229557D01*
X159447442Y-122229557D01*
X159304585Y-122300985D01*
X159233157Y-122372414D01*
X159161728Y-122515271D01*
X159161728Y-122800985D01*
X159233157Y-122943842D01*
X159304585Y-123015271D01*
X159447442Y-123086700D01*
X159804585Y-123086700D01*
X159947442Y-123015271D01*
X160018871Y-122943842D01*
X160090300Y-122800985D01*
X160090300Y-122515271D01*
X160018871Y-122372414D01*
X159947442Y-122300985D01*
X159804585Y-122229557D01*
X156611728Y-117443842D02*
X158111728Y-117443842D01*
X158111728Y-118443842D02*
X158111728Y-118729557D01*
X158040300Y-118872414D01*
X157897442Y-119015271D01*
X157611728Y-119086700D01*
X157111728Y-119086700D01*
X156826014Y-119015271D01*
X156683157Y-118872414D01*
X156611728Y-118729557D01*
X156611728Y-118443842D01*
X156683157Y-118300985D01*
X156826014Y-118158128D01*
X157111728Y-118086700D01*
X157611728Y-118086700D01*
X157897442Y-118158128D01*
X158040300Y-118300985D01*
X158111728Y-118443842D01*
X156468871Y-119372414D02*
X156468871Y-120515271D01*
X158111728Y-120729557D02*
X158111728Y-121658128D01*
X157540300Y-121158128D01*
X157540300Y-121372414D01*
X157468871Y-121515271D01*
X157397442Y-121586700D01*
X157254585Y-121658128D01*
X156897442Y-121658128D01*
X156754585Y-121586700D01*
X156683157Y-121515271D01*
X156611728Y-121372414D01*
X156611728Y-120943842D01*
X156683157Y-120800985D01*
X156754585Y-120729557D01*
X157468871Y-122515271D02*
X157540300Y-122372414D01*
X157611728Y-122300985D01*
X157754585Y-122229557D01*
X157826014Y-122229557D01*
X157968871Y-122300985D01*
X158040300Y-122372414D01*
X158111728Y-122515271D01*
X158111728Y-122800985D01*
X158040300Y-122943842D01*
X157968871Y-123015271D01*
X157826014Y-123086700D01*
X157754585Y-123086700D01*
X157611728Y-123015271D01*
X157540300Y-122943842D01*
X157468871Y-122800985D01*
X157468871Y-122515271D01*
X157397442Y-122372414D01*
X157326014Y-122300985D01*
X157183157Y-122229557D01*
X156897442Y-122229557D01*
X156754585Y-122300985D01*
X156683157Y-122372414D01*
X156611728Y-122515271D01*
X156611728Y-122800985D01*
X156683157Y-122943842D01*
X156754585Y-123015271D01*
X156897442Y-123086700D01*
X157183157Y-123086700D01*
X157326014Y-123015271D01*
X157397442Y-122943842D01*
X157468871Y-122800985D01*
X154061728Y-117443842D02*
X155561728Y-117443842D01*
X155561728Y-118443842D02*
X155561728Y-118729557D01*
X155490300Y-118872414D01*
X155347442Y-119015271D01*
X155061728Y-119086700D01*
X154561728Y-119086700D01*
X154276014Y-119015271D01*
X154133157Y-118872414D01*
X154061728Y-118729557D01*
X154061728Y-118443842D01*
X154133157Y-118300985D01*
X154276014Y-118158128D01*
X154561728Y-118086700D01*
X155061728Y-118086700D01*
X155347442Y-118158128D01*
X155490300Y-118300985D01*
X155561728Y-118443842D01*
X153918871Y-119372414D02*
X153918871Y-120515271D01*
X155561728Y-120729557D02*
X155561728Y-121658128D01*
X154990300Y-121158128D01*
X154990300Y-121372414D01*
X154918871Y-121515271D01*
X154847442Y-121586700D01*
X154704585Y-121658128D01*
X154347442Y-121658128D01*
X154204585Y-121586700D01*
X154133157Y-121515271D01*
X154061728Y-121372414D01*
X154061728Y-120943842D01*
X154133157Y-120800985D01*
X154204585Y-120729557D01*
X155061728Y-122943842D02*
X154061728Y-122943842D01*
X155633157Y-122586700D02*
X154561728Y-122229557D01*
X154561728Y-123158128D01*
X151511728Y-117443842D02*
X153011728Y-117443842D01*
X153011728Y-118443842D02*
X153011728Y-118729557D01*
X152940300Y-118872414D01*
X152797442Y-119015271D01*
X152511728Y-119086700D01*
X152011728Y-119086700D01*
X151726014Y-119015271D01*
X151583157Y-118872414D01*
X151511728Y-118729557D01*
X151511728Y-118443842D01*
X151583157Y-118300985D01*
X151726014Y-118158128D01*
X152011728Y-118086700D01*
X152511728Y-118086700D01*
X152797442Y-118158128D01*
X152940300Y-118300985D01*
X153011728Y-118443842D01*
X151368871Y-119372414D02*
X151368871Y-120515271D01*
X152868871Y-120800985D02*
X152940300Y-120872414D01*
X153011728Y-121015271D01*
X153011728Y-121372414D01*
X152940300Y-121515271D01*
X152868871Y-121586700D01*
X152726014Y-121658128D01*
X152583157Y-121658128D01*
X152368871Y-121586700D01*
X151511728Y-120729557D01*
X151511728Y-121658128D01*
X148961728Y-117443842D02*
X150461728Y-117443842D01*
X150461728Y-118443842D02*
X150461728Y-118729557D01*
X150390300Y-118872414D01*
X150247442Y-119015271D01*
X149961728Y-119086700D01*
X149461728Y-119086700D01*
X149176014Y-119015271D01*
X149033157Y-118872414D01*
X148961728Y-118729557D01*
X148961728Y-118443842D01*
X149033157Y-118300985D01*
X149176014Y-118158128D01*
X149461728Y-118086700D01*
X149961728Y-118086700D01*
X150247442Y-118158128D01*
X150390300Y-118300985D01*
X150461728Y-118443842D01*
X148818871Y-119372414D02*
X148818871Y-120515271D01*
X148961728Y-121658128D02*
X148961728Y-120800985D01*
X148961728Y-121229557D02*
X150461728Y-121229557D01*
X150247442Y-121086700D01*
X150104585Y-120943842D01*
X150033157Y-120800985D01*
X150461728Y-122158128D02*
X150461728Y-123086700D01*
X149890300Y-122586700D01*
X149890300Y-122800985D01*
X149818871Y-122943842D01*
X149747442Y-123015271D01*
X149604585Y-123086700D01*
X149247442Y-123086700D01*
X149104585Y-123015271D01*
X149033157Y-122943842D01*
X148961728Y-122800985D01*
X148961728Y-122372414D01*
X149033157Y-122229557D01*
X149104585Y-122158128D01*
X146411728Y-117443842D02*
X147911728Y-117443842D01*
X147911728Y-118443842D02*
X147911728Y-118729557D01*
X147840300Y-118872414D01*
X147697442Y-119015271D01*
X147411728Y-119086700D01*
X146911728Y-119086700D01*
X146626014Y-119015271D01*
X146483157Y-118872414D01*
X146411728Y-118729557D01*
X146411728Y-118443842D01*
X146483157Y-118300985D01*
X146626014Y-118158128D01*
X146911728Y-118086700D01*
X147411728Y-118086700D01*
X147697442Y-118158128D01*
X147840300Y-118300985D01*
X147911728Y-118443842D01*
X146268871Y-119372414D02*
X146268871Y-120515271D01*
X147768871Y-120800985D02*
X147840300Y-120872414D01*
X147911728Y-121015271D01*
X147911728Y-121372414D01*
X147840300Y-121515271D01*
X147768871Y-121586700D01*
X147626014Y-121658128D01*
X147483157Y-121658128D01*
X147268871Y-121586700D01*
X146411728Y-120729557D01*
X146411728Y-121658128D01*
X147911728Y-123015271D02*
X147911728Y-122300985D01*
X147197442Y-122229557D01*
X147268871Y-122300985D01*
X147340300Y-122443842D01*
X147340300Y-122800985D01*
X147268871Y-122943842D01*
X147197442Y-123015271D01*
X147054585Y-123086700D01*
X146697442Y-123086700D01*
X146554585Y-123015271D01*
X146483157Y-122943842D01*
X146411728Y-122800985D01*
X146411728Y-122443842D01*
X146483157Y-122300985D01*
X146554585Y-122229557D01*
X143861728Y-117443842D02*
X145361728Y-117443842D01*
X145361728Y-118443842D02*
X145361728Y-118729557D01*
X145290300Y-118872414D01*
X145147442Y-119015271D01*
X144861728Y-119086700D01*
X144361728Y-119086700D01*
X144076014Y-119015271D01*
X143933157Y-118872414D01*
X143861728Y-118729557D01*
X143861728Y-118443842D01*
X143933157Y-118300985D01*
X144076014Y-118158128D01*
X144361728Y-118086700D01*
X144861728Y-118086700D01*
X145147442Y-118158128D01*
X145290300Y-118300985D01*
X145361728Y-118443842D01*
X143718871Y-119372414D02*
X143718871Y-120515271D01*
X145361728Y-120729557D02*
X145361728Y-121658128D01*
X144790300Y-121158128D01*
X144790300Y-121372414D01*
X144718871Y-121515271D01*
X144647442Y-121586700D01*
X144504585Y-121658128D01*
X144147442Y-121658128D01*
X144004585Y-121586700D01*
X143933157Y-121515271D01*
X143861728Y-121372414D01*
X143861728Y-120943842D01*
X143933157Y-120800985D01*
X144004585Y-120729557D01*
X145361728Y-122586700D02*
X145361728Y-122729557D01*
X145290300Y-122872414D01*
X145218871Y-122943842D01*
X145076014Y-123015271D01*
X144790300Y-123086700D01*
X144433157Y-123086700D01*
X144147442Y-123015271D01*
X144004585Y-122943842D01*
X143933157Y-122872414D01*
X143861728Y-122729557D01*
X143861728Y-122586700D01*
X143933157Y-122443842D01*
X144004585Y-122372414D01*
X144147442Y-122300985D01*
X144433157Y-122229557D01*
X144790300Y-122229557D01*
X145076014Y-122300985D01*
X145218871Y-122372414D01*
X145290300Y-122443842D01*
X145361728Y-122586700D01*
X142828871Y-92639557D02*
X141328871Y-92639557D01*
X141328871Y-91639557D02*
X141328871Y-91353842D01*
X141400300Y-91210985D01*
X141543157Y-91068128D01*
X141828871Y-90996700D01*
X142328871Y-90996700D01*
X142614585Y-91068128D01*
X142757442Y-91210985D01*
X142828871Y-91353842D01*
X142828871Y-91639557D01*
X142757442Y-91782414D01*
X142614585Y-91925271D01*
X142328871Y-91996700D01*
X141828871Y-91996700D01*
X141543157Y-91925271D01*
X141400300Y-91782414D01*
X141328871Y-91639557D01*
X142971728Y-90710985D02*
X142971728Y-89568128D01*
X141471728Y-89282414D02*
X141400300Y-89210985D01*
X141328871Y-89068128D01*
X141328871Y-88710985D01*
X141400300Y-88568128D01*
X141471728Y-88496700D01*
X141614585Y-88425271D01*
X141757442Y-88425271D01*
X141971728Y-88496700D01*
X142828871Y-89353842D01*
X142828871Y-88425271D01*
X141328871Y-87925271D02*
X141328871Y-86925271D01*
X142828871Y-87568128D01*
X145378871Y-92639557D02*
X143878871Y-92639557D01*
X143878871Y-91639557D02*
X143878871Y-91353842D01*
X143950300Y-91210985D01*
X144093157Y-91068128D01*
X144378871Y-90996700D01*
X144878871Y-90996700D01*
X145164585Y-91068128D01*
X145307442Y-91210985D01*
X145378871Y-91353842D01*
X145378871Y-91639557D01*
X145307442Y-91782414D01*
X145164585Y-91925271D01*
X144878871Y-91996700D01*
X144378871Y-91996700D01*
X144093157Y-91925271D01*
X143950300Y-91782414D01*
X143878871Y-91639557D01*
X145521728Y-90710985D02*
X145521728Y-89568128D01*
X143878871Y-89353842D02*
X143878871Y-88425271D01*
X144450300Y-88925271D01*
X144450300Y-88710985D01*
X144521728Y-88568128D01*
X144593157Y-88496700D01*
X144736014Y-88425271D01*
X145093157Y-88425271D01*
X145236014Y-88496700D01*
X145307442Y-88568128D01*
X145378871Y-88710985D01*
X145378871Y-89139557D01*
X145307442Y-89282414D01*
X145236014Y-89353842D01*
X144021728Y-87853842D02*
X143950300Y-87782414D01*
X143878871Y-87639557D01*
X143878871Y-87282414D01*
X143950300Y-87139557D01*
X144021728Y-87068128D01*
X144164585Y-86996700D01*
X144307442Y-86996700D01*
X144521728Y-87068128D01*
X145378871Y-87925271D01*
X145378871Y-86996700D01*
X147928871Y-92639557D02*
X146428871Y-92639557D01*
X146428871Y-91639557D02*
X146428871Y-91353842D01*
X146500300Y-91210985D01*
X146643157Y-91068128D01*
X146928871Y-90996700D01*
X147428871Y-90996700D01*
X147714585Y-91068128D01*
X147857442Y-91210985D01*
X147928871Y-91353842D01*
X147928871Y-91639557D01*
X147857442Y-91782414D01*
X147714585Y-91925271D01*
X147428871Y-91996700D01*
X146928871Y-91996700D01*
X146643157Y-91925271D01*
X146500300Y-91782414D01*
X146428871Y-91639557D01*
X148071728Y-90710985D02*
X148071728Y-89568128D01*
X146428871Y-89353842D02*
X146428871Y-88425271D01*
X147000300Y-88925271D01*
X147000300Y-88710985D01*
X147071728Y-88568128D01*
X147143157Y-88496700D01*
X147286014Y-88425271D01*
X147643157Y-88425271D01*
X147786014Y-88496700D01*
X147857442Y-88568128D01*
X147928871Y-88710985D01*
X147928871Y-89139557D01*
X147857442Y-89282414D01*
X147786014Y-89353842D01*
X146428871Y-87925271D02*
X146428871Y-86996700D01*
X147000300Y-87496700D01*
X147000300Y-87282414D01*
X147071728Y-87139557D01*
X147143157Y-87068128D01*
X147286014Y-86996700D01*
X147643157Y-86996700D01*
X147786014Y-87068128D01*
X147857442Y-87139557D01*
X147928871Y-87282414D01*
X147928871Y-87710985D01*
X147857442Y-87853842D01*
X147786014Y-87925271D01*
X150478871Y-92639557D02*
X148978871Y-92639557D01*
X148978871Y-91639557D02*
X148978871Y-91353842D01*
X149050300Y-91210985D01*
X149193157Y-91068128D01*
X149478871Y-90996700D01*
X149978871Y-90996700D01*
X150264585Y-91068128D01*
X150407442Y-91210985D01*
X150478871Y-91353842D01*
X150478871Y-91639557D01*
X150407442Y-91782414D01*
X150264585Y-91925271D01*
X149978871Y-91996700D01*
X149478871Y-91996700D01*
X149193157Y-91925271D01*
X149050300Y-91782414D01*
X148978871Y-91639557D01*
X150621728Y-90710985D02*
X150621728Y-89568128D01*
X149121728Y-89282414D02*
X149050300Y-89210985D01*
X148978871Y-89068128D01*
X148978871Y-88710985D01*
X149050300Y-88568128D01*
X149121728Y-88496700D01*
X149264585Y-88425271D01*
X149407442Y-88425271D01*
X149621728Y-88496700D01*
X150478871Y-89353842D01*
X150478871Y-88425271D01*
X148978871Y-87496700D02*
X148978871Y-87353842D01*
X149050300Y-87210985D01*
X149121728Y-87139557D01*
X149264585Y-87068128D01*
X149550300Y-86996700D01*
X149907442Y-86996700D01*
X150193157Y-87068128D01*
X150336014Y-87139557D01*
X150407442Y-87210985D01*
X150478871Y-87353842D01*
X150478871Y-87496700D01*
X150407442Y-87639557D01*
X150336014Y-87710985D01*
X150193157Y-87782414D01*
X149907442Y-87853842D01*
X149550300Y-87853842D01*
X149264585Y-87782414D01*
X149121728Y-87710985D01*
X149050300Y-87639557D01*
X148978871Y-87496700D01*
X153028871Y-92639557D02*
X151528871Y-92639557D01*
X151528871Y-91639557D02*
X151528871Y-91353842D01*
X151600300Y-91210985D01*
X151743157Y-91068128D01*
X152028871Y-90996700D01*
X152528871Y-90996700D01*
X152814585Y-91068128D01*
X152957442Y-91210985D01*
X153028871Y-91353842D01*
X153028871Y-91639557D01*
X152957442Y-91782414D01*
X152814585Y-91925271D01*
X152528871Y-91996700D01*
X152028871Y-91996700D01*
X151743157Y-91925271D01*
X151600300Y-91782414D01*
X151528871Y-91639557D01*
X153171728Y-90710985D02*
X153171728Y-89568128D01*
X153028871Y-88425271D02*
X153028871Y-89282414D01*
X153028871Y-88853842D02*
X151528871Y-88853842D01*
X151743157Y-88996700D01*
X151886014Y-89139557D01*
X151957442Y-89282414D01*
X153028871Y-87710985D02*
X153028871Y-87425271D01*
X152957442Y-87282414D01*
X152886014Y-87210985D01*
X152671728Y-87068128D01*
X152386014Y-86996700D01*
X151814585Y-86996700D01*
X151671728Y-87068128D01*
X151600300Y-87139557D01*
X151528871Y-87282414D01*
X151528871Y-87568128D01*
X151600300Y-87710985D01*
X151671728Y-87782414D01*
X151814585Y-87853842D01*
X152171728Y-87853842D01*
X152314585Y-87782414D01*
X152386014Y-87710985D01*
X152457442Y-87568128D01*
X152457442Y-87282414D01*
X152386014Y-87139557D01*
X152314585Y-87068128D01*
X152171728Y-86996700D01*
X155578871Y-92639557D02*
X154078871Y-92639557D01*
X154078871Y-91639557D02*
X154078871Y-91353842D01*
X154150300Y-91210985D01*
X154293157Y-91068128D01*
X154578871Y-90996700D01*
X155078871Y-90996700D01*
X155364585Y-91068128D01*
X155507442Y-91210985D01*
X155578871Y-91353842D01*
X155578871Y-91639557D01*
X155507442Y-91782414D01*
X155364585Y-91925271D01*
X155078871Y-91996700D01*
X154578871Y-91996700D01*
X154293157Y-91925271D01*
X154150300Y-91782414D01*
X154078871Y-91639557D01*
X155721728Y-90710985D02*
X155721728Y-89568128D01*
X155578871Y-88425271D02*
X155578871Y-89282414D01*
X155578871Y-88853842D02*
X154078871Y-88853842D01*
X154293157Y-88996700D01*
X154436014Y-89139557D01*
X154507442Y-89282414D01*
X154078871Y-87925271D02*
X154078871Y-86925271D01*
X155578871Y-87568128D01*
X158128871Y-92639557D02*
X156628871Y-92639557D01*
X156628871Y-91639557D02*
X156628871Y-91353842D01*
X156700300Y-91210985D01*
X156843157Y-91068128D01*
X157128871Y-90996700D01*
X157628871Y-90996700D01*
X157914585Y-91068128D01*
X158057442Y-91210985D01*
X158128871Y-91353842D01*
X158128871Y-91639557D01*
X158057442Y-91782414D01*
X157914585Y-91925271D01*
X157628871Y-91996700D01*
X157128871Y-91996700D01*
X156843157Y-91925271D01*
X156700300Y-91782414D01*
X156628871Y-91639557D01*
X158271728Y-90710985D02*
X158271728Y-89568128D01*
X158128871Y-88425271D02*
X158128871Y-89282414D01*
X158128871Y-88853842D02*
X156628871Y-88853842D01*
X156843157Y-88996700D01*
X156986014Y-89139557D01*
X157057442Y-89282414D01*
X156628871Y-87139557D02*
X156628871Y-87425271D01*
X156700300Y-87568128D01*
X156771728Y-87639557D01*
X156986014Y-87782414D01*
X157271728Y-87853842D01*
X157843157Y-87853842D01*
X157986014Y-87782414D01*
X158057442Y-87710985D01*
X158128871Y-87568128D01*
X158128871Y-87282414D01*
X158057442Y-87139557D01*
X157986014Y-87068128D01*
X157843157Y-86996700D01*
X157486014Y-86996700D01*
X157343157Y-87068128D01*
X157271728Y-87139557D01*
X157200300Y-87282414D01*
X157200300Y-87568128D01*
X157271728Y-87710985D01*
X157343157Y-87782414D01*
X157486014Y-87853842D01*
X160678871Y-92639557D02*
X159178871Y-92639557D01*
X159178871Y-91639557D02*
X159178871Y-91353842D01*
X159250300Y-91210985D01*
X159393157Y-91068128D01*
X159678871Y-90996700D01*
X160178871Y-90996700D01*
X160464585Y-91068128D01*
X160607442Y-91210985D01*
X160678871Y-91353842D01*
X160678871Y-91639557D01*
X160607442Y-91782414D01*
X160464585Y-91925271D01*
X160178871Y-91996700D01*
X159678871Y-91996700D01*
X159393157Y-91925271D01*
X159250300Y-91782414D01*
X159178871Y-91639557D01*
X160821728Y-90710985D02*
X160821728Y-89568128D01*
X159678871Y-88568128D02*
X160678871Y-88568128D01*
X159107442Y-88925271D02*
X160178871Y-89282414D01*
X160178871Y-88353842D01*
X159178871Y-87925271D02*
X159178871Y-86996700D01*
X159750300Y-87496700D01*
X159750300Y-87282414D01*
X159821728Y-87139557D01*
X159893157Y-87068128D01*
X160036014Y-86996700D01*
X160393157Y-86996700D01*
X160536014Y-87068128D01*
X160607442Y-87139557D01*
X160678871Y-87282414D01*
X160678871Y-87710985D01*
X160607442Y-87853842D01*
X160536014Y-87925271D01*
X163228871Y-92639557D02*
X161728871Y-92639557D01*
X161728871Y-91639557D02*
X161728871Y-91353842D01*
X161800300Y-91210985D01*
X161943157Y-91068128D01*
X162228871Y-90996700D01*
X162728871Y-90996700D01*
X163014585Y-91068128D01*
X163157442Y-91210985D01*
X163228871Y-91353842D01*
X163228871Y-91639557D01*
X163157442Y-91782414D01*
X163014585Y-91925271D01*
X162728871Y-91996700D01*
X162228871Y-91996700D01*
X161943157Y-91925271D01*
X161800300Y-91782414D01*
X161728871Y-91639557D01*
X163371728Y-90710985D02*
X163371728Y-89568128D01*
X161728871Y-89353842D02*
X161728871Y-88425271D01*
X162300300Y-88925271D01*
X162300300Y-88710985D01*
X162371728Y-88568128D01*
X162443157Y-88496700D01*
X162586014Y-88425271D01*
X162943157Y-88425271D01*
X163086014Y-88496700D01*
X163157442Y-88568128D01*
X163228871Y-88710985D01*
X163228871Y-89139557D01*
X163157442Y-89282414D01*
X163086014Y-89353842D01*
X165778871Y-92639557D02*
X164278871Y-92639557D01*
X164278871Y-91639557D02*
X164278871Y-91353842D01*
X164350300Y-91210985D01*
X164493157Y-91068128D01*
X164778871Y-90996700D01*
X165278871Y-90996700D01*
X165564585Y-91068128D01*
X165707442Y-91210985D01*
X165778871Y-91353842D01*
X165778871Y-91639557D01*
X165707442Y-91782414D01*
X165564585Y-91925271D01*
X165278871Y-91996700D01*
X164778871Y-91996700D01*
X164493157Y-91925271D01*
X164350300Y-91782414D01*
X164278871Y-91639557D01*
X165921728Y-90710985D02*
X165921728Y-89568128D01*
X164278871Y-88925271D02*
X164278871Y-88782414D01*
X164350300Y-88639557D01*
X164421728Y-88568128D01*
X164564585Y-88496700D01*
X164850300Y-88425271D01*
X165207442Y-88425271D01*
X165493157Y-88496700D01*
X165636014Y-88568128D01*
X165707442Y-88639557D01*
X165778871Y-88782414D01*
X165778871Y-88925271D01*
X165707442Y-89068128D01*
X165636014Y-89139557D01*
X165493157Y-89210985D01*
X165207442Y-89282414D01*
X164850300Y-89282414D01*
X164564585Y-89210985D01*
X164421728Y-89139557D01*
X164350300Y-89068128D01*
X164278871Y-88925271D01*
X168328871Y-92639557D02*
X166828871Y-92639557D01*
X166828871Y-91639557D02*
X166828871Y-91353842D01*
X166900300Y-91210985D01*
X167043157Y-91068128D01*
X167328871Y-90996700D01*
X167828871Y-90996700D01*
X168114585Y-91068128D01*
X168257442Y-91210985D01*
X168328871Y-91353842D01*
X168328871Y-91639557D01*
X168257442Y-91782414D01*
X168114585Y-91925271D01*
X167828871Y-91996700D01*
X167328871Y-91996700D01*
X167043157Y-91925271D01*
X166900300Y-91782414D01*
X166828871Y-91639557D01*
X168471728Y-90710985D02*
X168471728Y-89568128D01*
X168328871Y-88425271D02*
X168328871Y-89282414D01*
X168328871Y-88853842D02*
X166828871Y-88853842D01*
X167043157Y-88996700D01*
X167186014Y-89139557D01*
X167257442Y-89282414D01*
D11*
X138770000Y-96113600D02*
X168400000Y-96113600D01*
X128590000Y-113894000D02*
X168630000Y-113894000D01*
X123101100Y-102463600D02*
X123609100Y-102971600D01*
X123609100Y-102971600D02*
X123609100Y-107035600D01*
X123609100Y-107035600D02*
X123101100Y-107543600D01*
X178981100Y-93573600D02*
G75*
G02X181521100Y-96113600I0J-2540000D01*
G01*
X181521100Y-113893600D02*
G75*
G02X178981100Y-116433600I-2540000J0D01*
G01*
X125641100Y-116433600D02*
X178981100Y-116433600D01*
X181521100Y-113893600D02*
X181521100Y-96113600D01*
X178981100Y-93573600D02*
X125641100Y-93573600D01*
X123101100Y-96113600D02*
G75*
G02X125641100Y-93573600I2540000J0D01*
G01*
X123101100Y-96113600D02*
X123101100Y-102463600D01*
X123101100Y-107543600D02*
X123101100Y-113893600D01*
X125641100Y-116433600D02*
G75*
G02X123101100Y-113893600I0J2540000D01*
G01*
D12*
X134580000Y-113650000D02*
X134580000Y-110650000D01*
X129080000Y-110650000D02*
X129080000Y-113650000D01*
X134580000Y-110650000D02*
X129080000Y-110650000D01*
X129080000Y-113650000D02*
X134580000Y-113650000D01*
X134580000Y-109950000D02*
X134580000Y-106950000D01*
X129080000Y-106950000D02*
X129080000Y-109950000D01*
X134580000Y-106950000D02*
X129080000Y-106950000D01*
X129080000Y-109950000D02*
X134580000Y-109950000D01*
M02*
