M48
; DRILL file {KiCad 5.1.5+dfsg1-2~bpo10+1} date Tue 12 May 2020 19:04:21 CEST
; FORMAT={-:-/ absolute / inch / decimal}
; #@! TF.CreationDate,2020-05-12T19:04:21+02:00
; #@! TF.GenerationSoftware,Kicad,Pcbnew,5.1.5+dfsg1-2~bpo10+1
; #@! TF.FileFunction,Plated,1,4,PTH
FMAT,2
INCH
T1C0.0059
T2C0.0108
T3C0.0354
T4C0.0394
T5C0.0457
T6C0.1000
%
G90
G05
T1
X4.8839Y-3.915
X4.8884Y-4.3126
X4.9657Y-3.9154
X4.985Y-4.3126
X4.9961Y-4.4026
X5.0047Y-3.985
X5.0047Y-4.2787
X5.0156Y-4.3121
X5.0412Y-4.3121
X5.0472Y-3.9528
X5.0559Y-3.9972
X5.0587Y-4.1618
X5.0622Y-4.1216
X5.0665Y-4.2315
X5.0858Y-4.1961
X5.087Y-3.915
X5.1224Y-3.9976
X5.1693Y-4.063
X5.189Y-3.9724
X5.189Y-4.0039
X5.189Y-4.0354
X5.2185Y-4.0974
X5.2185Y-4.127
X5.228Y-4.0665
X5.2386Y-4.4675
X5.239Y-4.1664
X5.2717Y-4.3386
X5.2752Y-4.1976
X5.3024Y-4.2232
X5.3189Y-4.4453
X5.3465Y-3.9843
X5.3465Y-4.0118
X5.3465Y-4.0433
X5.3465Y-4.4453
X5.3728Y-4.2835
X5.3728Y-4.3193
X5.374Y-4.4453
X5.389Y-4.0437
X5.3976Y-4.3028
X5.4016Y-4.4453
X5.4081Y-4.176
X5.4252Y-4.0303
X5.4449Y-4.1732
X5.4717Y-4.0895
X5.4843Y-4.1142
X5.4902Y-3.811
X5.513Y-3.9346
X5.5173Y-4.0051
X5.5181Y-4.1386
X5.5259Y-4.108
X5.5276Y-4.4492
X5.5315Y-3.9098
X5.5382Y-3.8398
X5.5471Y-4.3449
X5.5626Y-4.2244
X5.5748Y-4.0492
X5.5752Y-3.8718
X5.5776Y-3.9819
X5.578Y-4.1714
X5.5846Y-4.4815
X5.617Y-4.2244
X5.6213Y-4.0481
X5.6272Y-4.0085
X5.6563Y-4.2373
X5.6673Y-3.9307
X5.6715Y-3.8681
X5.6774Y-4.0733
X5.6803Y-3.8406
X5.6819Y-4.048
X5.6843Y-4.0119
X5.689Y-3.9843
X5.6931Y-4.1636
X5.6937Y-4.2244
X5.6967Y-3.8722
X5.7008Y-4.125
X5.7189Y-3.9705
X5.7244Y-4.1344
X5.7244Y-4.2133
X5.7329Y-4.158
X5.7333Y-3.8762
X5.7394Y-4.2373
X5.7744Y-3.9591
X5.776Y-4.0063
X5.7783Y-4.1835
X5.7783Y-4.2114
X5.7792Y-3.9214
X5.7823Y-4.0846
X5.7839Y-3.8146
X5.7913Y-4.0443
X5.8108Y-4.3514
X5.8108Y-4.3908
X5.8138Y-4.2555
X5.8142Y-4.4327
X5.8291Y-4.1299
X5.839Y-4.2513
X5.8488Y-4.1067
X5.8512Y-4.4518
X5.8598Y-4.2685
X5.8602Y-3.8819
X5.8639Y-4.1872
X5.8693Y-4.0846
X5.8729Y-3.9537
X5.8783Y-3.9846
X5.8799Y-3.7803
X5.8829Y-4.3287
X5.8846Y-4.3008
X5.885Y-4.061
X5.8884Y-3.9282
X5.8984Y-3.9614
X5.9142Y-4.3278
X5.9165Y-3.9378
X5.9173Y-3.7827
X5.9417Y-3.9102
X5.9427Y-4.4351
X5.9461Y-3.7559
X5.9565Y-4.377
X5.9748Y-3.8902
X5.978Y-3.8146
X5.9866Y-4.3067
X5.9959Y-4.4558
X5.9965Y-3.98
X6.0116Y-4.4366
X6.0143Y-4.3041
X6.0284Y-4.3931
X6.0291Y-3.9835
X6.0457Y-3.9047
X6.0461Y-4.3591
X6.0664Y-4.1954
X6.0689Y-3.9232
X6.0689Y-4.376
X6.0709Y-3.8909
X6.0714Y-4.3466
X6.0894Y-4.1744
X6.0898Y-4.4307
X6.1024Y-4.311
X6.1063Y-3.9705
X6.1106Y-4.1528
X6.113Y-4.2006
X6.1165Y-3.8807
X6.1242Y-4.1775
X6.128Y-4.1161
X6.1315Y-4.3075
X6.1319Y-4.0821
X6.1339Y-3.998
X6.1386Y-4.1453
X6.1466Y-4.249
X6.1555Y-4.1063
X6.1573Y-4.3061
X6.1713Y-4.1447
X6.1955Y-4.238
X6.1967Y-3.8741
X6.2035Y-3.8083
X6.2047Y-3.9514
X6.2118Y-4.315
X6.2151Y-4.0518
X6.2244Y-4.0177
X6.2291Y-4.1791
X6.2347Y-3.9514
X6.2409Y-4.315
X6.2566Y-4.1606
X6.2736Y-4.3406
X6.2795Y-4.1163
X6.2813Y-3.9591
X6.2853Y-4.3046
X6.3039Y-4.335
X6.3079Y-4.238
X6.3087Y-4.0543
X6.3105Y-4.1746
X6.313Y-3.9508
X6.313Y-4.1181
X6.3171Y-4.0815
X6.3327Y-3.9724
X6.337Y-4.0437
X6.343Y-4.3836
X6.3465Y-4.2698
X6.3524Y-3.9508
X6.3783Y-3.8343
X6.4134Y-4.2559
X6.4152Y-4.1638
X6.4162Y-4.4154
X6.4169Y-4.1331
X6.4272Y-3.9961
X6.4308Y-3.8073
X6.4407Y-4.0712
X6.4429Y-3.8508
X6.4591Y-3.876
X6.4846Y-3.8846
X6.5008Y-3.9906
X6.5134Y-4.4594
X6.5579Y-4.3721
X6.5768Y-4.1104
X6.5886Y-4.0453
X6.613Y-4.0937
X6.6225Y-4.0667
X6.6299Y-4.4606
X6.6461Y-4.0352
X6.6618Y-3.9948
X6.6619Y-4.1021
X6.6884Y-3.9387
X6.6934Y-4.0254
X6.6992Y-4.0745
X6.7012Y-3.8816
X6.7091Y-3.919
X6.717Y-3.9604
X6.7762Y-4.3171
X6.7819Y-4.169
X6.7878Y-4.1434
X6.7898Y-4.043
X6.7898Y-4.1041
X6.7957Y-4.0706
X6.7996Y-3.8521
X6.8233Y-4.045
X6.8449Y-4.0627
X6.8489Y-4.0332
X6.9453Y-4.1552
T2
X5.9372Y-4.1335
X5.9678Y-4.1028
X5.9678Y-4.1641
X5.9984Y-4.0722
X5.9984Y-4.1335
X5.9984Y-4.1947
X6.029Y-4.1028
X6.029Y-4.1641
X6.0597Y-4.1335
T3
X6.3463Y-4.434
X6.5965Y-3.834
X6.5965Y-3.934
X5.7303Y-4.0185
X6.4965Y-3.834
X6.4965Y-3.934
T4
X5.0961Y-4.534
X5.1961Y-4.534
X5.2961Y-4.534
X5.3961Y-4.534
X5.4965Y-4.534
X5.5965Y-4.534
X5.6965Y-4.534
X5.7965Y-4.534
X5.8965Y-4.534
X5.9965Y-4.534
X6.0965Y-4.534
X6.1965Y-4.534
X6.2965Y-4.534
X6.3965Y-4.534
X6.4965Y-4.534
X6.5965Y-4.534
X5.4965Y-3.734
X5.5965Y-3.734
X5.6965Y-3.734
X5.7965Y-3.734
X5.8965Y-3.734
X5.9965Y-3.734
X6.0965Y-3.734
X6.1965Y-3.734
X6.2965Y-3.734
X6.3965Y-3.734
X6.4965Y-3.734
X6.5965Y-3.734
X6.8965Y-3.934
X6.8965Y-4.134
X6.8965Y-4.334
X6.8965Y-4.434
X6.8974Y-3.7345
X6.8974Y-3.834
X6.8974Y-4.034
X6.8974Y-4.234
X6.9965Y-3.734
X6.9965Y-3.834
X6.9965Y-3.934
X6.9965Y-4.034
X6.9965Y-4.134
X6.9965Y-4.234
X6.9965Y-4.334
X6.9965Y-4.434
T5
X6.3657Y-4.1331
T6
X6.7471Y-3.7831
X4.9471Y-4.4831
X4.9471Y-3.7831
X6.7471Y-4.4831
T0
M30
