M48
; DRILL file {KiCad 5.1.4+dfsg1-1~bpo10+1} date Thu Feb 13 15:56:49 2020
; FORMAT={-:-/ absolute / metric / decimal}
; #@! TF.CreationDate,2020-02-13T15:56:49+01:00
; #@! TF.GenerationSoftware,Kicad,Pcbnew,5.1.4+dfsg1-1~bpo10+1
; #@! TF.FileFunction,Plated,1,4,PTH
FMAT,2
METRIC
T1C0.150
T2C0.275
T3C0.900
T4C1.000
T5C1.160
T6C2.540
%
G90
G05
T1
X124.05Y-99.44
X124.84Y-109.54
X126.13Y-99.45
X126.62Y-109.54
X126.65Y-111.95
X127.12Y-101.22
X127.12Y-108.68
X128.2Y-100.4
X128.42Y-101.53
X128.43Y-110.22
X128.49Y-105.71
X128.581Y-104.689
X128.69Y-107.48
X129.18Y-106.58
X129.21Y-99.44
X130.11Y-101.54
X131.3Y-103.2
X131.8Y-100.9
X131.8Y-101.7
X131.8Y-102.5
X132.55Y-104.075
X132.55Y-104.825
X132.79Y-103.29
X133.04Y-105.63
X133.06Y-113.475
X133.9Y-110.2
X133.99Y-106.62
X134.68Y-107.27
X135.1Y-112.91
X135.8Y-101.2
X135.8Y-101.9
X135.8Y-102.7
X135.8Y-112.91
X136.47Y-108.8
X136.47Y-109.71
X136.5Y-112.91
X136.88Y-102.71
X137.1Y-109.29
X137.2Y-112.91
X137.8Y-102.37
X138.3Y-106.0
X138.981Y-103.873
X139.3Y-104.5
X139.45Y-96.8
X139.631Y-110.353
X139.65Y-107.67
X140.03Y-99.94
X140.14Y-101.73
X140.16Y-105.12
X140.357Y-104.344
X140.4Y-113.01
X140.5Y-99.31
X140.67Y-97.53
X141.29Y-107.3
X141.6Y-102.85
X141.61Y-98.345
X141.67Y-101.14
X141.681Y-105.953
X141.85Y-113.83
X142.671Y-107.301
X142.781Y-102.823
X142.93Y-101.815
X143.671Y-107.628
X143.95Y-99.84
X144.055Y-98.25
X144.205Y-103.463
X144.28Y-97.55
X144.32Y-102.82
X144.381Y-101.903
X144.5Y-101.2
X144.606Y-105.755
X144.621Y-107.301
X144.697Y-98.354
X144.801Y-104.775
X145.259Y-100.851
X145.401Y-105.013
X145.401Y-107.018
X145.614Y-105.614
X145.625Y-98.456
X145.781Y-107.628
X146.67Y-100.56
X146.71Y-101.76
X146.77Y-106.26
X146.77Y-106.97
X146.791Y-99.603
X146.87Y-103.75
X146.91Y-96.89
X147.1Y-102.725
X147.58Y-110.69
X147.67Y-108.09
X147.68Y-112.59
X148.06Y-104.9
X148.311Y-107.983
X148.56Y-104.31
X148.6Y-112.65
X148.84Y-108.42
X148.85Y-98.6
X148.944Y-106.356
X149.08Y-103.75
X149.172Y-100.425
X149.31Y-101.21
X149.35Y-96.02
X149.425Y-109.95
X149.47Y-109.24
X149.48Y-103.15
X149.56Y-112.62
X149.567Y-99.776
X149.82Y-100.62
X150.2Y-109.9
X150.28Y-100.02
X150.3Y-96.08
X150.52Y-112.63
X150.92Y-99.32
X151.03Y-95.4
X151.35Y-111.5
X151.76Y-98.81
X151.77Y-112.69
X151.84Y-96.89
X152.06Y-109.39
X152.311Y-101.093
X152.763Y-109.325
X153.0Y-111.65
X153.14Y-101.18
X153.56Y-99.18
X153.57Y-110.72
X154.087Y-106.564
X154.15Y-99.65
X154.15Y-111.15
X154.2Y-98.83
X154.215Y-110.403
X154.67Y-106.03
X154.68Y-112.54
X155.0Y-109.5
X155.1Y-100.85
X155.21Y-105.48
X155.27Y-106.695
X155.36Y-98.57
X155.555Y-106.108
X155.65Y-104.55
X155.74Y-109.41
X155.75Y-103.685
X155.8Y-101.55
X155.92Y-105.29
X156.124Y-107.926
X156.35Y-104.3
X156.394Y-109.374
X156.75Y-105.275
X157.365Y-107.645
X157.397Y-98.401
X157.57Y-96.73
X157.6Y-100.365
X157.78Y-109.6
X157.865Y-102.915
X158.1Y-102.05
X158.22Y-106.15
X158.362Y-100.365
X158.52Y-109.6
X158.918Y-105.678
X159.35Y-110.25
X159.5Y-104.555
X159.545Y-100.56
X159.647Y-109.337
X160.12Y-110.11
X160.22Y-107.645
X160.24Y-102.98
X160.287Y-106.036
X160.35Y-100.35
X160.35Y-104.6
X160.455Y-103.67
X160.85Y-100.9
X160.96Y-102.71
X161.111Y-111.343
X161.2Y-108.53
X161.35Y-100.35
X162.01Y-97.39
X162.9Y-108.1
X162.945Y-105.76
X162.99Y-104.98
X163.25Y-101.5
X163.26Y-112.12
X163.343Y-96.706
X163.593Y-103.407
X163.65Y-97.81
X164.06Y-98.45
X164.71Y-98.67
X165.12Y-101.36
X165.44Y-113.27
X167.02Y-111.14
X167.05Y-104.405
X167.35Y-102.75
X167.97Y-103.98
X168.211Y-103.293
X168.4Y-113.3
X168.811Y-102.493
X169.21Y-101.468
X169.211Y-104.193
X169.886Y-100.043
X170.011Y-102.245
X170.16Y-103.492
X170.211Y-98.593
X170.411Y-99.543
X170.611Y-100.593
X171.25Y-110.5
X172.116Y-109.655
X172.261Y-105.893
X172.411Y-105.243
X172.461Y-102.693
X172.461Y-104.243
X172.611Y-103.393
X172.711Y-97.843
X173.312Y-102.742
X173.861Y-103.193
X173.961Y-102.443
X176.411Y-105.543
T2
X150.804Y-104.99
X151.582Y-104.212
X151.582Y-105.768
X152.36Y-103.434
X152.36Y-104.99
X152.36Y-106.546
X153.138Y-104.212
X153.138Y-105.768
X153.916Y-104.99
T3
X161.196Y-112.624
X145.55Y-102.07
X167.551Y-97.383
X167.551Y-99.923
X165.011Y-97.383
X165.011Y-99.923
T4
X139.611Y-94.843
X142.151Y-94.843
X144.691Y-94.843
X147.231Y-94.843
X149.771Y-94.843
X152.311Y-94.843
X154.851Y-94.843
X157.391Y-94.843
X159.931Y-94.843
X162.471Y-94.843
X165.011Y-94.843
X167.551Y-94.843
X175.171Y-99.923
X175.171Y-105.003
X175.171Y-110.083
X175.171Y-112.623
X175.195Y-94.857
X175.195Y-97.383
X175.195Y-102.463
X175.195Y-107.543
X177.711Y-94.843
X177.711Y-97.383
X177.711Y-99.923
X177.711Y-102.463
X177.711Y-105.003
X177.711Y-107.543
X177.711Y-110.083
X177.711Y-112.623
X129.441Y-115.163
X131.981Y-115.163
X134.521Y-115.163
X137.061Y-115.163
X139.611Y-115.163
X142.151Y-115.163
X144.691Y-115.163
X147.231Y-115.163
X149.771Y-115.163
X152.311Y-115.163
X154.851Y-115.163
X157.391Y-115.163
X159.931Y-115.163
X162.471Y-115.163
X165.011Y-115.163
X167.551Y-115.163
T5
X161.69Y-104.98
T6
X171.375Y-113.87
X125.655Y-96.09
X125.655Y-113.87
X171.375Y-96.09
T0
M30
