%TF.GenerationSoftware,KiCad,Pcbnew,5.1.5+dfsg1-2~bpo10+1*%
%TF.CreationDate,2020-05-18T13:54:13+02:00*%
%TF.ProjectId,quickfeather-board,71756963-6b66-4656-9174-6865722d626f,rev?*%
%TF.SameCoordinates,Original*%
%TF.FileFunction,Other,User*%
%FSLAX46Y46*%
G04 Gerber Fmt 4.6, Leading zero omitted, Abs format (unit mm)*
G04 Created by KiCad (PCBNEW 5.1.5+dfsg1-2~bpo10+1) date 2020-05-18 13:54:13 commit 16b5e15*
%MOMM*%
%LPD*%
G04 APERTURE LIST*
%ADD10C,0.150000*%
%ADD11C,0.100000*%
%ADD12C,0.050000*%
%ADD13C,0.120000*%
G04 APERTURE END LIST*
D10*
X123101100Y-102463600D02*
X123609100Y-102971600D01*
X123609100Y-102971600D02*
X123609100Y-107035600D01*
X123609100Y-107035600D02*
X123101100Y-107543600D01*
X178981100Y-93573600D02*
G75*
G02X181521100Y-96113600I0J-2540000D01*
G01*
X181521100Y-113893600D02*
G75*
G02X178981100Y-116433600I-2540000J0D01*
G01*
X125641100Y-116433600D02*
X178981100Y-116433600D01*
X181521100Y-113893600D02*
X181521100Y-96113600D01*
X178981100Y-93573600D02*
X125641100Y-93573600D01*
X123101100Y-96113600D02*
G75*
G02X125641100Y-93573600I2540000J0D01*
G01*
X123101100Y-96113600D02*
X123101100Y-102463600D01*
X123101100Y-107543600D02*
X123101100Y-113893600D01*
X125641100Y-116433600D02*
G75*
G02X123101100Y-113893600I0J2540000D01*
G01*
X160890000Y-107700000D02*
X160190000Y-107700000D01*
X160890000Y-107700000D02*
X163190000Y-107700000D01*
X160190000Y-103670000D02*
X161700000Y-103670000D01*
X160190000Y-107700000D02*
X160190000Y-103670000D01*
X163190000Y-103670000D02*
X163190000Y-107700000D01*
X161690000Y-103670000D02*
X163190000Y-103670000D01*
D11*
X142830000Y-102603000D02*
G75*
G03X142830000Y-102603000I-150000J0D01*
G01*
X141830000Y-103053000D02*
X141830000Y-100515000D01*
X143980000Y-103053000D02*
X141830000Y-103053000D01*
X143980000Y-100515000D02*
X143980000Y-103053000D01*
X141830000Y-100515000D02*
X143980000Y-100515000D01*
D12*
X148915300Y-112631700D02*
X150775300Y-112631700D01*
X148915300Y-113571700D02*
X148915300Y-112631700D01*
X150775300Y-113571700D02*
X148915300Y-113571700D01*
X150775300Y-112631700D02*
X150775300Y-113571700D01*
X163480000Y-104113600D02*
X163480000Y-110973600D01*
X163480000Y-104113600D02*
X170840000Y-104113600D01*
X163480000Y-110973600D02*
X170840000Y-110973600D01*
X170840000Y-104113600D02*
X170840000Y-110973600D01*
X128830000Y-110350000D02*
X134830000Y-110350000D01*
X128830000Y-113950000D02*
X128830000Y-110350000D01*
X134830000Y-113950000D02*
X128830000Y-113950000D01*
X134830000Y-110350000D02*
X134830000Y-113950000D01*
X128830000Y-106650000D02*
X134830000Y-106650000D01*
X128830000Y-110250000D02*
X128830000Y-106650000D01*
X134830000Y-110250000D02*
X128830000Y-110250000D01*
X134830000Y-106650000D02*
X134830000Y-110250000D01*
X137775300Y-105896700D02*
X135915300Y-105896700D01*
X137775300Y-104956700D02*
X137775300Y-105896700D01*
X135915300Y-104956700D02*
X137775300Y-104956700D01*
X135915300Y-105896700D02*
X135915300Y-104956700D01*
X128695060Y-111801700D02*
X126395060Y-111801700D01*
X128695060Y-109601700D02*
X126395060Y-109601700D01*
X128695060Y-109601700D02*
X128695060Y-111801700D01*
X126395060Y-109601700D02*
X126395060Y-111801700D01*
X152360000Y-111848936D02*
X145501064Y-104990000D01*
X159218936Y-104990000D02*
X152360000Y-111848936D01*
X152360000Y-98131064D02*
X159218936Y-104990000D01*
X145501064Y-104990000D02*
X152360000Y-98131064D01*
X125400300Y-111631700D02*
X125400300Y-109771700D01*
X126340300Y-111631700D02*
X125400300Y-111631700D01*
X126340300Y-109771700D02*
X126340300Y-111631700D01*
X125400300Y-109771700D02*
X126340300Y-109771700D01*
X173961000Y-107893000D02*
X170861000Y-107893000D01*
X173961000Y-107893000D02*
X173961000Y-103393000D01*
X170861000Y-103393000D02*
X170861000Y-107893000D01*
X170861000Y-103393000D02*
X173961000Y-103393000D01*
X159240000Y-109710000D02*
X159240000Y-112810000D01*
X159240000Y-109710000D02*
X154740000Y-109710000D01*
X154740000Y-112810000D02*
X159240000Y-112810000D01*
X154740000Y-112810000D02*
X154740000Y-109710000D01*
X173961000Y-102593000D02*
X170861000Y-102593000D01*
X173961000Y-102593000D02*
X173961000Y-98093000D01*
X170861000Y-98093000D02*
X170861000Y-102593000D01*
X170861000Y-98093000D02*
X173961000Y-98093000D01*
X161850000Y-97090000D02*
X161850000Y-100190000D01*
X161850000Y-97090000D02*
X157350000Y-97090000D01*
X157350000Y-100190000D02*
X161850000Y-100190000D01*
X157350000Y-100190000D02*
X157350000Y-97090000D01*
X137450000Y-108830000D02*
X139310000Y-108830000D01*
X137450000Y-112630000D02*
X139310000Y-112630000D01*
X139310000Y-108830000D02*
X139310000Y-112630000D01*
X137450000Y-108830000D02*
X137450000Y-112630000D01*
D13*
X137541800Y-110272800D02*
X137211600Y-110272800D01*
D12*
X144050000Y-103270000D02*
X144050000Y-105770000D01*
X141550000Y-103270000D02*
X144050000Y-103270000D01*
X141550000Y-105770000D02*
X141550000Y-103270000D01*
X144050000Y-105770000D02*
X141550000Y-105770000D01*
X144130000Y-98290000D02*
X146630000Y-98290000D01*
X146630000Y-98290000D02*
X146630000Y-100590000D01*
X146630000Y-100590000D02*
X144130000Y-100590000D01*
X144130000Y-100590000D02*
X144130000Y-98290000D01*
X165790000Y-101510000D02*
X165790000Y-104010000D01*
X165790000Y-104010000D02*
X163490000Y-104010000D01*
X163490000Y-104010000D02*
X163490000Y-101510000D01*
X163490000Y-101510000D02*
X165790000Y-101510000D01*
X163240000Y-100980000D02*
X163240000Y-103480000D01*
X163240000Y-103480000D02*
X160940000Y-103480000D01*
X160940000Y-103480000D02*
X160940000Y-100980000D01*
X160940000Y-100980000D02*
X163240000Y-100980000D01*
X166531100Y-101443600D02*
X166531100Y-95863600D01*
X166531100Y-101443600D02*
X163491100Y-101443600D01*
X166531100Y-95863600D02*
X163491100Y-95863600D01*
X163491100Y-101443600D02*
X163491100Y-95863600D01*
X166031000Y-101443000D02*
X166031000Y-95863000D01*
X169071000Y-95863000D02*
X166031000Y-95863000D01*
X169071000Y-101443000D02*
X166031000Y-101443000D01*
X169071000Y-101443000D02*
X169071000Y-95863000D01*
X141750000Y-97430000D02*
X138250000Y-97430000D01*
X138250000Y-97430000D02*
X138250000Y-101830000D01*
X138250000Y-101830000D02*
X141750000Y-101830000D01*
X141750000Y-101830000D02*
X141750000Y-97430000D01*
X148770000Y-97670000D02*
X148770000Y-99530000D01*
X147830000Y-97670000D02*
X148770000Y-97670000D01*
X147830000Y-99530000D02*
X147830000Y-97670000D01*
X148770000Y-99530000D02*
X147830000Y-99530000D01*
X135960000Y-108750000D02*
X139260000Y-108750000D01*
X135960000Y-106050000D02*
X139260000Y-106050000D01*
X139260000Y-106050000D02*
X139260000Y-108750000D01*
X135960000Y-106050000D02*
X135960000Y-108750000D01*
X139400000Y-106900000D02*
X147400000Y-106900000D01*
X147400000Y-106900000D02*
X147400000Y-113900000D01*
X147400000Y-113900000D02*
X139400000Y-113900000D01*
X139400000Y-113900000D02*
X139400000Y-106900000D01*
X138119100Y-93400000D02*
X129419100Y-93400000D01*
X138119100Y-93400000D02*
X138119100Y-102900000D01*
X138119100Y-102900000D02*
X129419100Y-102900000D01*
X129419100Y-93400000D02*
X129419100Y-102900000D01*
X122990000Y-100653600D02*
X128490000Y-100653600D01*
X122990000Y-100653600D02*
X122990000Y-109353600D01*
X122990000Y-109353600D02*
X128490000Y-109353600D01*
X128490000Y-100653600D02*
X128490000Y-109353600D01*
X129775000Y-98300000D02*
X129775000Y-100600000D01*
X129775000Y-100600000D02*
X123425000Y-100600000D01*
X123425000Y-100600000D02*
X123425000Y-98300000D01*
X129775000Y-98300000D02*
X123425000Y-98300000D01*
X140330000Y-103020000D02*
X140330000Y-104440000D01*
X137530000Y-103020000D02*
X137530000Y-104440000D01*
X140330000Y-104440000D02*
X137530000Y-104440000D01*
X140330000Y-103020000D02*
X137530000Y-103020000D01*
X130000000Y-103480000D02*
X128580000Y-103480000D01*
X130000000Y-101120000D02*
X130000000Y-103340000D01*
X128580000Y-100980000D02*
X130000000Y-100980000D01*
X128580000Y-103340000D02*
X128580000Y-101120000D01*
X130000000Y-103340000D02*
X130000000Y-103480000D01*
X128580000Y-103340000D02*
X128580000Y-103480000D01*
X128580000Y-101120000D02*
X128580000Y-100980000D01*
X130000000Y-101120000D02*
X130000000Y-100980000D01*
X140300000Y-104490000D02*
X140300000Y-105910000D01*
X137940000Y-104490000D02*
X140160000Y-104490000D01*
X137800000Y-105910000D02*
X137800000Y-104490000D01*
X140160000Y-105910000D02*
X137940000Y-105910000D01*
X140160000Y-104490000D02*
X140300000Y-104490000D01*
X140160000Y-105910000D02*
X140300000Y-105910000D01*
X137940000Y-105910000D02*
X137800000Y-105910000D01*
X137940000Y-104490000D02*
X137800000Y-104490000D01*
X134940000Y-104430000D02*
X134940000Y-103010000D01*
X137300000Y-104430000D02*
X135080000Y-104430000D01*
X137440000Y-103010000D02*
X137440000Y-104430000D01*
X135080000Y-103010000D02*
X137300000Y-103010000D01*
X135080000Y-104430000D02*
X134940000Y-104430000D01*
X135080000Y-103010000D02*
X134940000Y-103010000D01*
X137300000Y-103010000D02*
X137440000Y-103010000D01*
X137300000Y-104430000D02*
X137440000Y-104430000D01*
X137390000Y-112430000D02*
X135970000Y-112430000D01*
X137390000Y-110070000D02*
X137390000Y-112290000D01*
X135970000Y-109930000D02*
X137390000Y-109930000D01*
X135970000Y-112290000D02*
X135970000Y-110070000D01*
X137390000Y-112290000D02*
X137390000Y-112430000D01*
X135970000Y-112290000D02*
X135970000Y-112430000D01*
X135970000Y-110070000D02*
X135970000Y-109930000D01*
X137390000Y-110070000D02*
X137390000Y-109930000D01*
X128730000Y-105420000D02*
X130590000Y-105420000D01*
X128730000Y-106360000D02*
X128730000Y-105420000D01*
X130590000Y-106360000D02*
X128730000Y-106360000D01*
X130590000Y-105420000D02*
X130590000Y-106360000D01*
X134930000Y-106390000D02*
X134930000Y-104530000D01*
X135870000Y-106390000D02*
X134930000Y-106390000D01*
X135870000Y-104530000D02*
X135870000Y-106390000D01*
X134930000Y-104530000D02*
X135870000Y-104530000D01*
X135870000Y-108510000D02*
X135870000Y-110370000D01*
X134930000Y-108510000D02*
X135870000Y-108510000D01*
X134930000Y-110370000D02*
X134930000Y-108510000D01*
X135870000Y-110370000D02*
X134930000Y-110370000D01*
X135860000Y-106520000D02*
X135860000Y-108380000D01*
X134920000Y-106520000D02*
X135860000Y-106520000D01*
X134920000Y-108380000D02*
X134920000Y-106520000D01*
X135860000Y-108380000D02*
X134920000Y-108380000D01*
X135850000Y-110450000D02*
X135850000Y-112310000D01*
X134910000Y-110450000D02*
X135850000Y-110450000D01*
X134910000Y-112310000D02*
X134910000Y-110450000D01*
X135850000Y-112310000D02*
X134910000Y-112310000D01*
X153220000Y-98630000D02*
X153220000Y-96230000D01*
X153220000Y-96230000D02*
X157240000Y-96230000D01*
X157240000Y-98630000D02*
X157240000Y-96230000D01*
X153220000Y-98630000D02*
X157240000Y-98630000D01*
X153130000Y-96220000D02*
X153130000Y-98080000D01*
X152190000Y-96220000D02*
X153130000Y-96220000D01*
X152190000Y-98080000D02*
X152190000Y-96220000D01*
X153130000Y-98080000D02*
X152190000Y-98080000D01*
X148900000Y-99720000D02*
X148900000Y-101580000D01*
X147960000Y-99720000D02*
X148900000Y-99720000D01*
X147960000Y-101580000D02*
X147960000Y-99720000D01*
X148900000Y-101580000D02*
X147960000Y-101580000D01*
X167740300Y-111171700D02*
X167740300Y-113031700D01*
X166800300Y-111171700D02*
X167740300Y-111171700D01*
X166800300Y-113031700D02*
X166800300Y-111171700D01*
X167740300Y-113031700D02*
X166800300Y-113031700D01*
X150000300Y-112481700D02*
X150000300Y-110621700D01*
X150940300Y-112481700D02*
X150000300Y-112481700D01*
X150940300Y-110621700D02*
X150940300Y-112481700D01*
X150000300Y-110621700D02*
X150940300Y-110621700D01*
X147750000Y-110310000D02*
X147750000Y-108450000D01*
X148690000Y-110310000D02*
X147750000Y-110310000D01*
X148690000Y-108450000D02*
X148690000Y-110310000D01*
X147750000Y-108450000D02*
X148690000Y-108450000D01*
X148890000Y-112470000D02*
X148890000Y-110610000D01*
X149830000Y-112470000D02*
X148890000Y-112470000D01*
X149830000Y-110610000D02*
X149830000Y-112470000D01*
X148890000Y-110610000D02*
X149830000Y-110610000D01*
X147780000Y-112450000D02*
X147780000Y-110590000D01*
X148720000Y-112450000D02*
X147780000Y-112450000D01*
X148720000Y-110590000D02*
X148720000Y-112450000D01*
X147780000Y-110590000D02*
X148720000Y-110590000D01*
X160030000Y-107210000D02*
X160030000Y-109070000D01*
X159090000Y-107210000D02*
X160030000Y-107210000D01*
X159090000Y-109070000D02*
X159090000Y-107210000D01*
X160030000Y-109070000D02*
X159090000Y-109070000D01*
X159100000Y-107140000D02*
X159100000Y-105280000D01*
X160040000Y-107140000D02*
X159100000Y-107140000D01*
X160040000Y-105280000D02*
X160040000Y-107140000D01*
X159100000Y-105280000D02*
X160040000Y-105280000D01*
X143800000Y-100320000D02*
X141940000Y-100320000D01*
X143800000Y-99380000D02*
X143800000Y-100320000D01*
X141940000Y-99380000D02*
X143800000Y-99380000D01*
X141940000Y-100320000D02*
X141940000Y-99380000D01*
X141371000Y-106123000D02*
X140431000Y-106123000D01*
X140431000Y-106123000D02*
X140431000Y-104263000D01*
X140431000Y-104263000D02*
X141371000Y-104263000D01*
X141371000Y-104263000D02*
X141371000Y-106123000D01*
X144381000Y-103253000D02*
X146241000Y-103253000D01*
X144381000Y-104193000D02*
X144381000Y-103253000D01*
X146241000Y-104193000D02*
X144381000Y-104193000D01*
X146241000Y-103253000D02*
X146241000Y-104193000D01*
X147950000Y-100640000D02*
X147950000Y-102500000D01*
X147010000Y-100640000D02*
X147950000Y-100640000D01*
X147010000Y-102500000D02*
X147010000Y-100640000D01*
X147950000Y-102500000D02*
X147010000Y-102500000D01*
X141450000Y-101915000D02*
X141450000Y-103775000D01*
X140510000Y-101915000D02*
X141450000Y-101915000D01*
X140510000Y-103775000D02*
X140510000Y-101915000D01*
X141450000Y-103775000D02*
X140510000Y-103775000D01*
X146880000Y-100540000D02*
X146880000Y-98680000D01*
X147820000Y-100540000D02*
X146880000Y-100540000D01*
X147820000Y-98680000D02*
X147820000Y-100540000D01*
X146880000Y-98680000D02*
X147820000Y-98680000D01*
X155400000Y-99790000D02*
X157260000Y-99790000D01*
X155400000Y-100730000D02*
X155400000Y-99790000D01*
X157260000Y-100730000D02*
X155400000Y-100730000D01*
X157260000Y-99790000D02*
X157260000Y-100730000D01*
X158720000Y-101780000D02*
X160580000Y-101780000D01*
X158720000Y-102720000D02*
X158720000Y-101780000D01*
X160580000Y-102720000D02*
X158720000Y-102720000D01*
X160580000Y-101780000D02*
X160580000Y-102720000D01*
X146420000Y-98140000D02*
X144560000Y-98140000D01*
X146420000Y-97200000D02*
X146420000Y-98140000D01*
X144560000Y-97200000D02*
X146420000Y-97200000D01*
X144560000Y-98140000D02*
X144560000Y-97200000D01*
X148910000Y-98760000D02*
X150770000Y-98760000D01*
X148910000Y-99700000D02*
X148910000Y-98760000D01*
X150770000Y-99700000D02*
X148910000Y-99700000D01*
X150770000Y-98760000D02*
X150770000Y-99700000D01*
X160130000Y-103990000D02*
X158270000Y-103990000D01*
X160130000Y-103050000D02*
X160130000Y-103990000D01*
X158270000Y-103050000D02*
X160130000Y-103050000D01*
X158270000Y-103990000D02*
X158270000Y-103050000D01*
X150360000Y-98700000D02*
X148940000Y-98700000D01*
X150360000Y-96340000D02*
X150360000Y-98560000D01*
X148940000Y-96200000D02*
X150360000Y-96200000D01*
X148940000Y-98560000D02*
X148940000Y-96340000D01*
X150360000Y-98560000D02*
X150360000Y-98700000D01*
X148940000Y-98560000D02*
X148940000Y-98700000D01*
X148940000Y-96340000D02*
X148940000Y-96200000D01*
X150360000Y-96340000D02*
X150360000Y-96200000D01*
X144385000Y-105850000D02*
X146245000Y-105850000D01*
X144385000Y-106790000D02*
X144385000Y-105850000D01*
X146245000Y-106790000D02*
X144385000Y-106790000D01*
X146245000Y-105850000D02*
X146245000Y-106790000D01*
X151750000Y-98700000D02*
X150330000Y-98700000D01*
X151750000Y-96340000D02*
X151750000Y-98560000D01*
X150330000Y-96200000D02*
X151750000Y-96200000D01*
X150330000Y-98560000D02*
X150330000Y-96340000D01*
X151750000Y-98560000D02*
X151750000Y-98700000D01*
X150330000Y-98560000D02*
X150330000Y-98700000D01*
X150330000Y-96340000D02*
X150330000Y-96200000D01*
X151750000Y-96340000D02*
X151750000Y-96200000D01*
X158040000Y-109060000D02*
X156180000Y-109060000D01*
X158040000Y-108120000D02*
X158040000Y-109060000D01*
X156180000Y-108120000D02*
X158040000Y-108120000D01*
X156180000Y-109060000D02*
X156180000Y-108120000D01*
X143111000Y-107093000D02*
X141251000Y-107093000D01*
X143111000Y-106153000D02*
X143111000Y-107093000D01*
X141251000Y-106153000D02*
X143111000Y-106153000D01*
X141251000Y-107093000D02*
X141251000Y-106153000D01*
X144311000Y-105563000D02*
X144311000Y-107423000D01*
X143371000Y-105563000D02*
X144311000Y-105563000D01*
X143371000Y-107423000D02*
X143371000Y-105563000D01*
X144311000Y-107423000D02*
X143371000Y-107423000D01*
X162250000Y-100600000D02*
X162250000Y-98740000D01*
X163190000Y-100600000D02*
X162250000Y-100600000D01*
X163190000Y-98740000D02*
X163190000Y-100600000D01*
X162250000Y-98740000D02*
X163190000Y-98740000D01*
X138270000Y-101950000D02*
X140130000Y-101950000D01*
X138270000Y-102890000D02*
X138270000Y-101950000D01*
X140130000Y-102890000D02*
X138270000Y-102890000D01*
X140130000Y-101950000D02*
X140130000Y-102890000D01*
X141930000Y-98430000D02*
X143790000Y-98430000D01*
X141930000Y-99370000D02*
X141930000Y-98430000D01*
X143790000Y-99370000D02*
X141930000Y-99370000D01*
X143790000Y-98430000D02*
X143790000Y-99370000D01*
X151100300Y-113581700D02*
X151100300Y-111721700D01*
X152040300Y-113581700D02*
X151100300Y-113581700D01*
X152040300Y-111721700D02*
X152040300Y-113581700D01*
X151100300Y-111721700D02*
X152040300Y-111721700D01*
X153025300Y-113656700D02*
X153025300Y-111796700D01*
X153965300Y-113656700D02*
X153025300Y-113656700D01*
X153965300Y-111796700D02*
X153965300Y-113656700D01*
X153025300Y-111796700D02*
X153965300Y-111796700D01*
X167910000Y-113030000D02*
X167910000Y-111170000D01*
X168850000Y-113030000D02*
X167910000Y-113030000D01*
X168850000Y-111170000D02*
X168850000Y-113030000D01*
X167910000Y-111170000D02*
X168850000Y-111170000D01*
X163320000Y-108270000D02*
X163320000Y-109210000D01*
X163320000Y-109210000D02*
X161460000Y-109210000D01*
X161460000Y-109210000D02*
X161460000Y-108270000D01*
X161460000Y-108270000D02*
X163320000Y-108270000D01*
X161320000Y-109100000D02*
X161320000Y-110960000D01*
X160380000Y-109100000D02*
X161320000Y-109100000D01*
X160380000Y-110960000D02*
X160380000Y-109100000D01*
X161320000Y-110960000D02*
X160380000Y-110960000D01*
X141940000Y-97320000D02*
X143800000Y-97320000D01*
X141940000Y-98260000D02*
X141940000Y-97320000D01*
X143800000Y-98260000D02*
X141940000Y-98260000D01*
X143800000Y-97320000D02*
X143800000Y-98260000D01*
X124330000Y-111620000D02*
X124330000Y-109760000D01*
X125270000Y-111620000D02*
X124330000Y-111620000D01*
X125270000Y-109760000D02*
X125270000Y-111620000D01*
X124330000Y-109760000D02*
X125270000Y-109760000D01*
X158050000Y-109060000D02*
X158050000Y-107200000D01*
X158990000Y-109060000D02*
X158050000Y-109060000D01*
X158990000Y-107200000D02*
X158990000Y-109060000D01*
X158050000Y-107200000D02*
X158990000Y-107200000D01*
X157220000Y-99680000D02*
X155360000Y-99680000D01*
X157220000Y-98740000D02*
X157220000Y-99680000D01*
X155360000Y-98740000D02*
X157220000Y-98740000D01*
X155360000Y-99680000D02*
X155360000Y-98740000D01*
X134825000Y-106555000D02*
X130575000Y-106555000D01*
X134825000Y-102905000D02*
X134825000Y-106555000D01*
X130575000Y-102905000D02*
X134825000Y-102905000D01*
X130575000Y-106555000D02*
X130575000Y-102905000D01*
X163200000Y-96770000D02*
X163200000Y-98630000D01*
X162260000Y-96770000D02*
X163200000Y-96770000D01*
X162260000Y-98630000D02*
X162260000Y-96770000D01*
X163200000Y-98630000D02*
X162260000Y-98630000D01*
X140610000Y-96280000D02*
X142470000Y-96280000D01*
X140610000Y-97220000D02*
X140610000Y-96280000D01*
X142470000Y-97220000D02*
X140610000Y-97220000D01*
X142470000Y-96280000D02*
X142470000Y-97220000D01*
X144430000Y-97210000D02*
X142570000Y-97210000D01*
X144430000Y-96270000D02*
X144430000Y-97210000D01*
X142570000Y-96270000D02*
X144430000Y-96270000D01*
X142570000Y-97210000D02*
X142570000Y-96270000D01*
X144540000Y-96280000D02*
X146400000Y-96280000D01*
X144540000Y-97220000D02*
X144540000Y-96280000D01*
X146400000Y-97220000D02*
X144540000Y-97220000D01*
X146400000Y-96280000D02*
X146400000Y-97220000D01*
X139300000Y-113580000D02*
X137440000Y-113580000D01*
X139300000Y-112640000D02*
X139300000Y-113580000D01*
X137440000Y-112640000D02*
X139300000Y-112640000D01*
X137440000Y-113580000D02*
X137440000Y-112640000D01*
X146947000Y-100673000D02*
X144153000Y-100673000D01*
X146947000Y-100673000D02*
X146947000Y-103467000D01*
X144153000Y-100673000D02*
X144153000Y-103467000D01*
X146947000Y-103467000D02*
X144153000Y-103467000D01*
X162593000Y-111227000D02*
X159799000Y-111227000D01*
X162593000Y-111227000D02*
X162593000Y-114021000D01*
X159799000Y-111227000D02*
X159799000Y-114021000D01*
X162593000Y-114021000D02*
X159799000Y-114021000D01*
X163205000Y-110995000D02*
X161555000Y-110995000D01*
X161555000Y-110995000D02*
X161555000Y-109345000D01*
X161555000Y-109345000D02*
X163205000Y-109345000D01*
X163205000Y-109345000D02*
X163205000Y-110995000D01*
X165925000Y-102315000D02*
X167575000Y-102315000D01*
X167575000Y-102315000D02*
X167575000Y-103965000D01*
X167575000Y-103965000D02*
X165925000Y-103965000D01*
X165925000Y-103965000D02*
X165925000Y-102315000D01*
X128625000Y-105275000D02*
X128625000Y-103625000D01*
X128625000Y-103625000D02*
X130275000Y-103625000D01*
X130275000Y-103625000D02*
X130275000Y-105275000D01*
X130275000Y-105275000D02*
X128625000Y-105275000D01*
X166645300Y-113151700D02*
X163145300Y-113151700D01*
X163145300Y-113151700D02*
X163145300Y-111151700D01*
X163145300Y-111151700D02*
X166645300Y-111151700D01*
X166645300Y-111151700D02*
X166645300Y-113151700D01*
M02*
