G04 #@! TF.GenerationSoftware,KiCad,Pcbnew,5.1.4+dfsg1-1~bpo10+1*
G04 #@! TF.CreationDate,2020-02-13T15:56:51+01:00*
G04 #@! TF.ProjectId,quick-feather-board,71756963-6b2d-4666-9561-746865722d62,rev?*
G04 #@! TF.SameCoordinates,Original*
G04 #@! TF.FileFunction,Legend,Top*
G04 #@! TF.FilePolarity,Positive*
%FSLAX46Y46*%
G04 Gerber Fmt 4.6, Leading zero omitted, Abs format (unit mm)*
G04 Created by KiCad (PCBNEW 5.1.4+dfsg1-1~bpo10+1) date 2020-02-13 15:56:51*
%MOMM*%
%LPD*%
G04 APERTURE LIST*
%ADD10C,0.150000*%
%ADD11C,0.120000*%
%ADD12C,0.100000*%
%ADD13C,0.200000*%
%ADD14C,0.400000*%
%ADD15C,0.127000*%
G04 APERTURE END LIST*
D10*
X131766666Y-100750000D02*
X131233333Y-100750000D01*
X136050000Y-100966666D02*
X136050000Y-100433333D01*
X136316666Y-100700000D02*
X135783333Y-100700000D01*
X129151428Y-113218571D02*
X128865714Y-113418571D01*
X129151428Y-113561428D02*
X128551428Y-113561428D01*
X128551428Y-113332857D01*
X128580000Y-113275714D01*
X128608571Y-113247142D01*
X128665714Y-113218571D01*
X128751428Y-113218571D01*
X128808571Y-113247142D01*
X128837142Y-113275714D01*
X128865714Y-113332857D01*
X128865714Y-113561428D01*
X129122857Y-112990000D02*
X129151428Y-112904285D01*
X129151428Y-112761428D01*
X129122857Y-112704285D01*
X129094285Y-112675714D01*
X129037142Y-112647142D01*
X128980000Y-112647142D01*
X128922857Y-112675714D01*
X128894285Y-112704285D01*
X128865714Y-112761428D01*
X128837142Y-112875714D01*
X128808571Y-112932857D01*
X128780000Y-112961428D01*
X128722857Y-112990000D01*
X128665714Y-112990000D01*
X128608571Y-112961428D01*
X128580000Y-112932857D01*
X128551428Y-112875714D01*
X128551428Y-112732857D01*
X128580000Y-112647142D01*
X128551428Y-112475714D02*
X128551428Y-112132857D01*
X129151428Y-112304285D02*
X128551428Y-112304285D01*
X128571428Y-109887142D02*
X129057142Y-109887142D01*
X129114285Y-109858571D01*
X129142857Y-109830000D01*
X129171428Y-109772857D01*
X129171428Y-109658571D01*
X129142857Y-109601428D01*
X129114285Y-109572857D01*
X129057142Y-109544285D01*
X128571428Y-109544285D01*
X129142857Y-109287142D02*
X129171428Y-109201428D01*
X129171428Y-109058571D01*
X129142857Y-109001428D01*
X129114285Y-108972857D01*
X129057142Y-108944285D01*
X129000000Y-108944285D01*
X128942857Y-108972857D01*
X128914285Y-109001428D01*
X128885714Y-109058571D01*
X128857142Y-109172857D01*
X128828571Y-109230000D01*
X128800000Y-109258571D01*
X128742857Y-109287142D01*
X128685714Y-109287142D01*
X128628571Y-109258571D01*
X128600000Y-109230000D01*
X128571428Y-109172857D01*
X128571428Y-109030000D01*
X128600000Y-108944285D01*
X129171428Y-108344285D02*
X128885714Y-108544285D01*
X129171428Y-108687142D02*
X128571428Y-108687142D01*
X128571428Y-108458571D01*
X128600000Y-108401428D01*
X128628571Y-108372857D01*
X128685714Y-108344285D01*
X128771428Y-108344285D01*
X128828571Y-108372857D01*
X128857142Y-108401428D01*
X128885714Y-108458571D01*
X128885714Y-108687142D01*
D11*
X172911000Y-103523000D02*
X171911000Y-103523000D01*
X172911000Y-107763000D02*
X171911000Y-107763000D01*
X154870000Y-110760000D02*
X154870000Y-111760000D01*
X159110000Y-110760000D02*
X159110000Y-111760000D01*
X172911000Y-98223000D02*
X171911000Y-98223000D01*
X172911000Y-102463000D02*
X171911000Y-102463000D01*
X157480000Y-98140000D02*
X157480000Y-99140000D01*
X161720000Y-98140000D02*
X161720000Y-99140000D01*
X139230000Y-110480000D02*
X139230000Y-110980000D01*
X137530000Y-110480000D02*
X137530000Y-110980000D01*
D10*
X144536158Y-105270000D02*
G75*
G03X144536158Y-105270000I-76158J0D01*
G01*
X144050000Y-105470000D02*
X143775000Y-105470000D01*
X143750000Y-103570000D02*
X143750000Y-103270000D01*
X144050000Y-103570000D02*
X143750000Y-103570000D01*
X141850000Y-103570000D02*
X141850000Y-103270000D01*
X141550000Y-103570000D02*
X141850000Y-103570000D01*
X141850000Y-105470000D02*
X141850000Y-105770000D01*
X141550000Y-105470000D02*
X141850000Y-105470000D01*
D12*
X146830000Y-99940000D02*
G75*
G03X146830000Y-99940000I-150000J0D01*
G01*
X144605000Y-98465000D02*
X144855000Y-98465000D01*
X144605000Y-100415000D02*
X144855000Y-100415000D01*
X146105000Y-100215000D02*
X146330000Y-100215000D01*
X145880000Y-100415000D02*
X146105000Y-100215000D01*
X146155000Y-98490000D02*
X145805000Y-98490000D01*
X146155000Y-98665000D02*
X146155000Y-98490000D01*
X144605000Y-98665000D02*
X144605000Y-98465000D01*
X144605000Y-100415000D02*
X144605000Y-100215000D01*
X164290000Y-104060000D02*
G75*
G03X164290000Y-104060000I-150000J0D01*
G01*
X165615000Y-101985000D02*
X165615000Y-102235000D01*
X163665000Y-101985000D02*
X163665000Y-102235000D01*
X163865000Y-103485000D02*
X163865000Y-103710000D01*
X163665000Y-103260000D02*
X163865000Y-103485000D01*
X165590000Y-103535000D02*
X165590000Y-103185000D01*
X165415000Y-103535000D02*
X165590000Y-103535000D01*
X165415000Y-101985000D02*
X165615000Y-101985000D01*
X163665000Y-101985000D02*
X163865000Y-101985000D01*
X161740000Y-103530000D02*
G75*
G03X161740000Y-103530000I-150000J0D01*
G01*
X163065000Y-101455000D02*
X163065000Y-101705000D01*
X161115000Y-101455000D02*
X161115000Y-101705000D01*
X161315000Y-102955000D02*
X161315000Y-103180000D01*
X161115000Y-102730000D02*
X161315000Y-102955000D01*
X163040000Y-103005000D02*
X163040000Y-102655000D01*
X162865000Y-103005000D02*
X163040000Y-103005000D01*
X162865000Y-101455000D02*
X163065000Y-101455000D01*
X161115000Y-101455000D02*
X161315000Y-101455000D01*
X166411100Y-101283600D02*
X166411100Y-100783600D01*
X166411100Y-101283600D02*
X165911100Y-101283600D01*
X166411100Y-95983600D02*
X166411100Y-96483600D01*
X166411100Y-95983600D02*
X165911100Y-95983600D01*
X163611100Y-95983600D02*
X163611100Y-96483600D01*
X163611100Y-95983600D02*
X164111100Y-95983600D01*
X163611100Y-101283600D02*
X163611100Y-100783600D01*
X163611100Y-101283600D02*
X164111100Y-101283600D01*
X166151000Y-101283000D02*
X166651000Y-101283000D01*
X166151000Y-101283000D02*
X166151000Y-100783000D01*
X166151000Y-95983000D02*
X166651000Y-95983000D01*
X166151000Y-95983000D02*
X166151000Y-96483000D01*
X168951000Y-95983000D02*
X168451000Y-95983000D01*
X168951000Y-95983000D02*
X168951000Y-96483000D01*
X168951000Y-101283000D02*
X168451000Y-101283000D01*
X168951000Y-101283000D02*
X168951000Y-100783000D01*
D11*
X140700000Y-97680000D02*
X141500000Y-97680000D01*
X141500000Y-97680000D02*
X141500000Y-101580000D01*
X138500000Y-97680000D02*
X138500000Y-101580000D01*
D10*
X167526000Y-113728000D02*
X168051000Y-113203000D01*
X167001000Y-113203000D02*
X167526000Y-113728000D01*
X168051000Y-113203000D02*
X167001000Y-113203000D01*
D13*
X143980000Y-100170000D02*
G75*
G03X143980000Y-100170000I-70000J0D01*
G01*
D12*
X136260000Y-106400000D02*
G75*
G03X136260000Y-106400000I-150000J0D01*
G01*
D11*
X136735000Y-106250000D02*
X138635000Y-106250000D01*
X136960000Y-108550000D02*
X138260000Y-108550000D01*
D14*
X140100000Y-107400000D02*
G75*
G03X140100000Y-107400000I-200000J0D01*
G01*
D12*
X129619100Y-93550000D02*
X129619100Y-94050000D01*
X129619100Y-93550000D02*
X130119100Y-93550000D01*
X137919100Y-93550000D02*
X137419100Y-93550000D01*
X137919100Y-93550000D02*
X137919100Y-94050000D01*
X137819100Y-102350000D02*
X137319100Y-102350000D01*
X137819100Y-102350000D02*
X137819100Y-101850000D01*
X129719100Y-102350000D02*
X130219100Y-102350000D01*
X129719100Y-102350000D02*
X129719100Y-101850000D01*
X128370000Y-101003600D02*
X127870000Y-101003600D01*
X128370000Y-101003600D02*
X128370000Y-101503600D01*
X123120000Y-101003600D02*
X123670000Y-101003600D01*
X123120000Y-101003600D02*
X123120000Y-101503600D01*
X128120000Y-103403600D02*
X126820000Y-103403600D01*
X128370000Y-109003600D02*
X127870000Y-109003600D01*
X128370000Y-109003600D02*
X128370000Y-108503600D01*
X123120000Y-109003600D02*
X123620000Y-109003600D01*
X123120000Y-109003600D02*
X123120000Y-108503600D01*
X125475000Y-98475000D02*
X125475000Y-100425000D01*
X125375000Y-98475000D02*
X125375000Y-100425000D01*
X127925000Y-98475000D02*
X127925000Y-98700000D01*
X127625000Y-98475000D02*
X127925000Y-98475000D01*
X127925000Y-100425000D02*
X127675000Y-100425000D01*
X127925000Y-100175000D02*
X127925000Y-100425000D01*
X125275000Y-98475000D02*
X125275000Y-100425000D01*
X125625000Y-98475000D02*
X125275000Y-98475000D01*
X125625000Y-100425000D02*
X125275000Y-100425000D01*
D11*
X140230000Y-103230000D02*
X138530000Y-103230000D01*
X140230000Y-104030000D02*
X140230000Y-103230000D01*
X140230000Y-104230000D02*
X140230000Y-104030000D01*
X140130000Y-104230000D02*
X140230000Y-104230000D01*
X140030000Y-104230000D02*
X140130000Y-104230000D01*
X140030000Y-104230000D02*
X138530000Y-104230000D01*
X128990000Y-102530000D02*
X128990000Y-101930000D01*
X129590000Y-102530000D02*
X129590000Y-101930000D01*
X139350000Y-105500000D02*
X138750000Y-105500000D01*
X139350000Y-104900000D02*
X138750000Y-104900000D01*
X135890000Y-103420000D02*
X136490000Y-103420000D01*
X135890000Y-104020000D02*
X136490000Y-104020000D01*
X136380000Y-111480000D02*
X136380000Y-110880000D01*
X136980000Y-111480000D02*
X136980000Y-110880000D01*
D12*
X155230000Y-96530000D02*
X155530000Y-96530000D01*
X155230000Y-96530000D02*
X154930000Y-96530000D01*
X155230000Y-98330000D02*
X155530000Y-98330000D01*
X155230000Y-98330000D02*
X154930000Y-98330000D01*
X153330000Y-96730000D02*
X153330000Y-98130000D01*
D11*
X149350000Y-97750000D02*
X149350000Y-97150000D01*
X149950000Y-97750000D02*
X149950000Y-97150000D01*
X150740000Y-97750000D02*
X150740000Y-97150000D01*
X151340000Y-97750000D02*
X151340000Y-97150000D01*
D12*
X165360000Y-104243600D02*
X165860000Y-104243600D01*
X165360000Y-104443600D02*
X165360000Y-104243600D01*
X168960000Y-104243600D02*
X168460000Y-104243600D01*
X168960000Y-104443600D02*
X168960000Y-104243600D01*
X168960000Y-110843600D02*
X168360000Y-110843600D01*
X168960000Y-110643600D02*
X168960000Y-110843600D01*
X165360000Y-110643600D02*
X165360000Y-110843600D01*
X165360000Y-110843600D02*
X165860000Y-110843600D01*
D11*
X129730000Y-110550000D02*
X133930000Y-110550000D01*
X129730000Y-110550000D02*
X129730000Y-110670000D01*
X129730000Y-113730000D02*
X129730000Y-113610000D01*
X129730000Y-113750000D02*
X133930000Y-113750000D01*
X133930000Y-113750000D02*
X133930000Y-113650000D01*
X133930000Y-110550000D02*
X133930000Y-110670000D01*
D15*
X134712250Y-110513200D02*
G75*
G03X134712250Y-110513200I-15650J0D01*
G01*
D11*
X129730000Y-106850000D02*
X133930000Y-106850000D01*
X129730000Y-106850000D02*
X129730000Y-106970000D01*
X129730000Y-110030000D02*
X129730000Y-109910000D01*
X129730000Y-110050000D02*
X133930000Y-110050000D01*
X133930000Y-110050000D02*
X133930000Y-109950000D01*
X133930000Y-106850000D02*
X133930000Y-106970000D01*
D15*
X134712250Y-106813200D02*
G75*
G03X134712250Y-106813200I-15650J0D01*
G01*
D12*
X131700000Y-106055000D02*
X131700000Y-106380000D01*
X131700000Y-106380000D02*
X132000000Y-106380000D01*
X133700000Y-103405000D02*
X133700000Y-103080000D01*
X133700000Y-103080000D02*
X133400000Y-103080000D01*
X131700000Y-103380000D02*
X131700000Y-103080000D01*
X131700000Y-103080000D02*
X132025000Y-103080000D01*
X133375000Y-106380000D02*
X133700000Y-106155000D01*
X133700000Y-106155000D02*
X133700000Y-106055000D01*
X133700000Y-106055000D02*
X134225000Y-106055000D01*
X133375000Y-106380000D02*
X133000000Y-106380000D01*
D10*
X173235000Y-94357000D02*
X173235000Y-95407000D01*
X173235000Y-95407000D02*
X173760000Y-94882000D01*
X173760000Y-94882000D02*
X173235000Y-94357000D01*
D12*
X146948100Y-100670000D02*
X146448100Y-100670000D01*
X146948100Y-100670000D02*
X146948100Y-101170000D01*
X144150000Y-100670000D02*
X144650000Y-100670000D01*
X144150000Y-100670000D02*
X144150000Y-101170000D01*
X144150000Y-103470000D02*
X144650000Y-103470000D01*
X144150000Y-103470000D02*
X144150000Y-102970000D01*
X146948100Y-103470000D02*
X146448100Y-103470000D01*
X146948100Y-103470000D02*
X146948100Y-102970000D01*
X162594100Y-111224000D02*
X162094100Y-111224000D01*
X162594100Y-111224000D02*
X162594100Y-111724000D01*
X159796000Y-111224000D02*
X160296000Y-111224000D01*
X159796000Y-111224000D02*
X159796000Y-111724000D01*
X159796000Y-114024000D02*
X160296000Y-114024000D01*
X159796000Y-114024000D02*
X159796000Y-113524000D01*
X162594100Y-114024000D02*
X162094100Y-114024000D01*
X162594100Y-114024000D02*
X162594100Y-113524000D01*
X146407276Y-104701034D02*
G75*
G03X146407276Y-104701034I-148660J0D01*
G01*
D11*
X146066750Y-105060711D02*
X145996039Y-105131421D01*
X152360000Y-111212540D02*
X152430711Y-111283250D01*
X152289289Y-111283250D02*
X152360000Y-111212540D01*
X158582540Y-104990000D02*
X158653250Y-105060711D01*
X158653250Y-104919289D02*
X158582540Y-104990000D01*
X152360000Y-98767460D02*
X152289289Y-98696750D01*
X152430711Y-98696750D02*
X152360000Y-98767460D01*
D10*
X139636000Y-96278000D02*
X139111000Y-96803000D01*
X139111000Y-96803000D02*
X140161000Y-96803000D01*
X140161000Y-96803000D02*
X139636000Y-96278000D01*
D12*
X161730000Y-110720000D02*
X161730000Y-110345000D01*
X162130000Y-110720000D02*
X161730000Y-110720000D01*
X161730000Y-109620000D02*
X161830000Y-109620000D01*
X161730000Y-109895000D02*
X161730000Y-109620000D01*
X163030000Y-110720000D02*
X163030000Y-110445000D01*
X162705000Y-110720000D02*
X163030000Y-110720000D01*
X162955000Y-109795000D02*
X162955000Y-109645000D01*
X163030000Y-109895000D02*
X162955000Y-109795000D01*
X163030000Y-109895000D02*
X163030000Y-110020000D01*
X167400000Y-102590000D02*
X167400000Y-102965000D01*
X167000000Y-102590000D02*
X167400000Y-102590000D01*
X167400000Y-103690000D02*
X167300000Y-103690000D01*
X167400000Y-103415000D02*
X167400000Y-103690000D01*
X166100000Y-102590000D02*
X166100000Y-102865000D01*
X166425000Y-102590000D02*
X166100000Y-102590000D01*
X166175000Y-103515000D02*
X166175000Y-103665000D01*
X166100000Y-103415000D02*
X166175000Y-103515000D01*
X166100000Y-103415000D02*
X166100000Y-103290000D01*
X128900000Y-103800000D02*
X129275000Y-103800000D01*
X128900000Y-104200000D02*
X128900000Y-103800000D01*
X130000000Y-103800000D02*
X130000000Y-103900000D01*
X129725000Y-103800000D02*
X130000000Y-103800000D01*
X128900000Y-105100000D02*
X129175000Y-105100000D01*
X128900000Y-104775000D02*
X128900000Y-105100000D01*
X129825000Y-105025000D02*
X129975000Y-105025000D01*
X129725000Y-105100000D02*
X129825000Y-105025000D01*
X129725000Y-105100000D02*
X129600000Y-105100000D01*
X166445000Y-113045000D02*
X166445000Y-112745000D01*
X166070000Y-113045000D02*
X166445000Y-113045000D01*
X164395000Y-113045000D02*
X164395000Y-112770000D01*
X164720000Y-113045000D02*
X164395000Y-113045000D01*
X164395000Y-111395000D02*
X164695000Y-111395000D01*
X164395000Y-111720000D02*
X164395000Y-111395000D01*
X166070000Y-111405000D02*
X166445000Y-111405000D01*
X166445000Y-111705000D02*
X166445000Y-111405000D01*
X166120000Y-112720000D02*
X166220000Y-112720000D01*
X166120000Y-111720000D02*
X166120000Y-112720000D01*
X166220000Y-111720000D02*
X166120000Y-111720000D01*
X166220000Y-112720000D02*
X166220000Y-111720000D01*
M02*
